G04 (created by PCBNEW (2013-05-16 BZR 4016)-stable) date 12. 1. 2014 21:28:44*
%MOIN*%
G04 Gerber Fmt 3.4, Leading zero omitted, Abs format*
%FSLAX34Y34*%
G01*
G70*
G90*
G04 APERTURE LIST*
%ADD10C,0.00590551*%
%ADD11C,0.002*%
G04 APERTURE END LIST*
G54D10*
X38779Y-61023D02*
X78149Y-61023D01*
X78149Y-61023D02*
X78149Y-21653D01*
X78149Y-21653D02*
X38779Y-21653D01*
X38779Y-21653D02*
X38779Y-61023D01*
G54D11*
X61464Y-28624D02*
X61464Y-26678D01*
X62238Y-26678D02*
X62238Y-28624D01*
X62238Y-28624D02*
X61464Y-28624D01*
X61464Y-26678D02*
X62238Y-26678D01*
X62389Y-28624D02*
X62389Y-26678D01*
X63163Y-26678D02*
X63163Y-28624D01*
X63163Y-28624D02*
X62389Y-28624D01*
X62389Y-26678D02*
X63163Y-26678D01*
X55892Y-28630D02*
X55892Y-26684D01*
X56666Y-26684D02*
X56666Y-28630D01*
X56666Y-28630D02*
X55892Y-28630D01*
X55892Y-26684D02*
X56666Y-26684D01*
X55026Y-28630D02*
X55026Y-26684D01*
X55800Y-26684D02*
X55800Y-28630D01*
X55800Y-28630D02*
X55026Y-28630D01*
X55026Y-26684D02*
X55800Y-26684D01*
X54933Y-29543D02*
X54933Y-31489D01*
X54159Y-31489D02*
X54159Y-29543D01*
X54159Y-29543D02*
X54933Y-29543D01*
X54933Y-31489D02*
X54159Y-31489D01*
X54067Y-29543D02*
X54067Y-31489D01*
X53293Y-31489D02*
X53293Y-29543D01*
X53293Y-29543D02*
X54067Y-29543D01*
X54067Y-31489D02*
X53293Y-31489D01*
X63138Y-53032D02*
X63138Y-51086D01*
X63912Y-51086D02*
X63912Y-53032D01*
X63912Y-53032D02*
X63138Y-53032D01*
X63138Y-51086D02*
X63912Y-51086D01*
X62255Y-53029D02*
X62255Y-51083D01*
X63029Y-51083D02*
X63029Y-53029D01*
X63029Y-53029D02*
X62255Y-53029D01*
X62255Y-51083D02*
X63029Y-51083D01*
X55680Y-54100D02*
X55680Y-56046D01*
X54906Y-56046D02*
X54906Y-54100D01*
X54906Y-54100D02*
X55680Y-54100D01*
X55680Y-56046D02*
X54906Y-56046D01*
X54803Y-54099D02*
X54803Y-56045D01*
X54029Y-56045D02*
X54029Y-54099D01*
X54029Y-54099D02*
X54803Y-54099D01*
X54803Y-56045D02*
X54029Y-56045D01*
X61269Y-54093D02*
X61269Y-56039D01*
X60495Y-56039D02*
X60495Y-54093D01*
X60495Y-54093D02*
X61269Y-54093D01*
X61269Y-56039D02*
X60495Y-56039D01*
X62151Y-54095D02*
X62151Y-56041D01*
X61377Y-56041D02*
X61377Y-54095D01*
X61377Y-54095D02*
X62151Y-54095D01*
X62151Y-56041D02*
X61377Y-56041D01*
X60227Y-44314D02*
X59069Y-44314D01*
X59069Y-44314D02*
X59069Y-43677D01*
X59078Y-43677D02*
X60236Y-43677D01*
X60236Y-43677D02*
X60236Y-44314D01*
X53906Y-45525D02*
X53906Y-44367D01*
X53906Y-44367D02*
X54543Y-44367D01*
X54543Y-44376D02*
X54543Y-45534D01*
X54543Y-45534D02*
X53906Y-45534D01*
X60316Y-46267D02*
X60316Y-47425D01*
X60316Y-47425D02*
X59679Y-47425D01*
X59679Y-47415D02*
X59679Y-46257D01*
X59679Y-46257D02*
X60316Y-46257D01*
X55336Y-44377D02*
X55336Y-45535D01*
X55336Y-45535D02*
X54699Y-45535D01*
X54699Y-45525D02*
X54699Y-44367D01*
X54699Y-44367D02*
X55336Y-44367D01*
X55197Y-47554D02*
X54039Y-47554D01*
X54039Y-47554D02*
X54039Y-46917D01*
X54048Y-46917D02*
X55206Y-46917D01*
X55206Y-46917D02*
X55206Y-47554D01*
X55196Y-45657D02*
X55196Y-46815D01*
X55196Y-46815D02*
X54559Y-46815D01*
X54559Y-46805D02*
X54559Y-45647D01*
X54559Y-45647D02*
X55196Y-45647D01*
X60049Y-46155D02*
X60049Y-44997D01*
X60049Y-44997D02*
X60666Y-44997D01*
X60666Y-44997D02*
X60666Y-46155D01*
X60666Y-46155D02*
X60049Y-46155D01*
X56076Y-44367D02*
X56076Y-45525D01*
X56076Y-45525D02*
X55459Y-45525D01*
X55459Y-45525D02*
X55459Y-44367D01*
X55459Y-44367D02*
X56076Y-44367D01*
X59886Y-44997D02*
X59886Y-46155D01*
X59886Y-46155D02*
X59269Y-46155D01*
X59269Y-46155D02*
X59269Y-44997D01*
X59269Y-44997D02*
X59886Y-44997D01*
X55319Y-45647D02*
X56477Y-45647D01*
X56477Y-45647D02*
X56477Y-46264D01*
X56477Y-46264D02*
X55319Y-46264D01*
X55319Y-46264D02*
X55319Y-45647D01*
X56529Y-44967D02*
X57687Y-44967D01*
X57687Y-44967D02*
X57687Y-45584D01*
X57687Y-45584D02*
X56529Y-45584D01*
X56529Y-45584D02*
X56529Y-44967D01*
X55946Y-46377D02*
X55946Y-47535D01*
X55946Y-47535D02*
X55329Y-47535D01*
X55329Y-47535D02*
X55329Y-46377D01*
X55329Y-46377D02*
X55946Y-46377D01*
X57569Y-43687D02*
X58727Y-43687D01*
X58727Y-43687D02*
X58727Y-44304D01*
X58727Y-44304D02*
X57569Y-44304D01*
X57569Y-44304D02*
X57569Y-43687D01*
X54408Y-45655D02*
X54408Y-46813D01*
X54408Y-46813D02*
X53791Y-46813D01*
X53791Y-46813D02*
X53791Y-45655D01*
X53791Y-45655D02*
X54408Y-45655D01*
X58539Y-45585D02*
X58539Y-44427D01*
X58539Y-44427D02*
X59156Y-44427D01*
X59156Y-44427D02*
X59156Y-45585D01*
X59156Y-45585D02*
X58539Y-45585D01*
X58426Y-44427D02*
X58426Y-45585D01*
X58426Y-45585D02*
X57809Y-45585D01*
X57809Y-45585D02*
X57809Y-44427D01*
X57809Y-44427D02*
X58426Y-44427D01*
X55800Y-29538D02*
X55800Y-31484D01*
X55026Y-31484D02*
X55026Y-29538D01*
X55026Y-29538D02*
X55800Y-29538D01*
X55800Y-31484D02*
X55026Y-31484D01*
X59441Y-22231D02*
X60599Y-22231D01*
X60599Y-22231D02*
X60599Y-22868D01*
X60589Y-22868D02*
X59431Y-22868D01*
X59431Y-22868D02*
X59431Y-22231D01*
X56666Y-29538D02*
X56666Y-31484D01*
X55892Y-31484D02*
X55892Y-29538D01*
X55892Y-29538D02*
X56666Y-29538D01*
X56666Y-31484D02*
X55892Y-31484D01*
X62237Y-29558D02*
X62237Y-31504D01*
X61463Y-31504D02*
X61463Y-29558D01*
X61463Y-29558D02*
X62237Y-29558D01*
X62237Y-31504D02*
X61463Y-31504D01*
X63162Y-29558D02*
X63162Y-31504D01*
X62388Y-31504D02*
X62388Y-29558D01*
X62388Y-29558D02*
X63162Y-29558D01*
X63162Y-31504D02*
X62388Y-31504D01*
X60498Y-53029D02*
X60498Y-51083D01*
X61272Y-51083D02*
X61272Y-53029D01*
X61272Y-53029D02*
X60498Y-53029D01*
X60498Y-51083D02*
X61272Y-51083D01*
X61381Y-53032D02*
X61381Y-51086D01*
X62155Y-51086D02*
X62155Y-53032D01*
X62155Y-53032D02*
X61381Y-53032D01*
X61381Y-51086D02*
X62155Y-51086D01*
X54920Y-53081D02*
X54920Y-51135D01*
X55694Y-51135D02*
X55694Y-53081D01*
X55694Y-53081D02*
X54920Y-53081D01*
X54920Y-51135D02*
X55694Y-51135D01*
X54042Y-53079D02*
X54042Y-51133D01*
X54816Y-51133D02*
X54816Y-53079D01*
X54816Y-53079D02*
X54042Y-53079D01*
X54042Y-51133D02*
X54816Y-51133D01*
X74215Y-41377D02*
X74215Y-41968D01*
X74215Y-41966D02*
X73835Y-41966D01*
X73835Y-41968D02*
X73835Y-41377D01*
X73835Y-41379D02*
X74215Y-41379D01*
X74215Y-40688D02*
X74215Y-41279D01*
X74215Y-41277D02*
X73835Y-41277D01*
X73835Y-41279D02*
X73835Y-40688D01*
X73835Y-40690D02*
X74215Y-40690D01*
X74225Y-42283D02*
X74225Y-42874D01*
X74225Y-42872D02*
X73845Y-42872D01*
X73845Y-42874D02*
X73845Y-42283D01*
X73845Y-42285D02*
X74225Y-42285D01*
X74215Y-40000D02*
X74215Y-40590D01*
X74215Y-40588D02*
X73835Y-40588D01*
X73835Y-40590D02*
X73835Y-40000D01*
X73835Y-40001D02*
X74215Y-40001D01*
X69894Y-42058D02*
X69894Y-43216D01*
X69894Y-43226D02*
X69337Y-43226D01*
X69337Y-43226D02*
X69337Y-42068D01*
X69337Y-42058D02*
X69894Y-42058D01*
X76113Y-34996D02*
X77271Y-34996D01*
X77281Y-34996D02*
X77281Y-35554D01*
X77281Y-35554D02*
X76123Y-35554D01*
X76113Y-35554D02*
X76113Y-34996D01*
X66099Y-42114D02*
X66099Y-40857D01*
X66099Y-40857D02*
X66951Y-40857D01*
X66951Y-40867D02*
X66951Y-42104D01*
X66951Y-42114D02*
X66099Y-42114D01*
X44338Y-24048D02*
X43180Y-24048D01*
X43180Y-24048D02*
X43180Y-23431D01*
X43180Y-23431D02*
X44338Y-23431D01*
X44338Y-23431D02*
X44338Y-24048D01*
X50332Y-23802D02*
X49174Y-23802D01*
X49174Y-23802D02*
X49174Y-23185D01*
X49174Y-23185D02*
X50332Y-23185D01*
X50332Y-23185D02*
X50332Y-23802D01*
X48448Y-29617D02*
X48448Y-30775D01*
X48448Y-30775D02*
X47831Y-30775D01*
X47831Y-30775D02*
X47831Y-29617D01*
X47831Y-29617D02*
X48448Y-29617D01*
X41331Y-29598D02*
X41331Y-30756D01*
X41331Y-30756D02*
X40715Y-30756D01*
X40715Y-30756D02*
X40715Y-29598D01*
X40715Y-29598D02*
X41331Y-29598D01*
X43707Y-52695D02*
X43707Y-51537D01*
X43707Y-51537D02*
X44324Y-51537D01*
X44324Y-51537D02*
X44324Y-52695D01*
X44324Y-52695D02*
X43707Y-52695D01*
X47437Y-53571D02*
X47437Y-52413D01*
X47437Y-52413D02*
X48054Y-52413D01*
X48054Y-52413D02*
X48054Y-53571D01*
X48054Y-53571D02*
X47437Y-53571D01*
X45391Y-59570D02*
X44233Y-59570D01*
X44233Y-59570D02*
X44233Y-58953D01*
X44233Y-58953D02*
X45391Y-58953D01*
X45391Y-58953D02*
X45391Y-59570D01*
X51523Y-59629D02*
X50365Y-59629D01*
X50365Y-59629D02*
X50365Y-59012D01*
X50365Y-59012D02*
X51523Y-59012D01*
X51523Y-59012D02*
X51523Y-59629D01*
X64814Y-58992D02*
X65972Y-58992D01*
X65972Y-58992D02*
X65972Y-59609D01*
X65972Y-59609D02*
X64814Y-59609D01*
X64814Y-59609D02*
X64814Y-58992D01*
X72747Y-59051D02*
X73905Y-59051D01*
X73905Y-59051D02*
X73905Y-59668D01*
X73905Y-59668D02*
X72747Y-59668D01*
X72747Y-59668D02*
X72747Y-59051D01*
X68057Y-53108D02*
X68057Y-51950D01*
X68057Y-51950D02*
X68674Y-51950D01*
X68674Y-51950D02*
X68674Y-53108D01*
X68674Y-53108D02*
X68057Y-53108D01*
X75016Y-53138D02*
X75016Y-51980D01*
X75016Y-51980D02*
X75633Y-51980D01*
X75633Y-51980D02*
X75633Y-53138D01*
X75633Y-53138D02*
X75016Y-53138D01*
X68989Y-29381D02*
X68989Y-30539D01*
X68989Y-30539D02*
X68372Y-30539D01*
X68372Y-30539D02*
X68372Y-29381D01*
X68372Y-29381D02*
X68989Y-29381D01*
X72867Y-29598D02*
X72867Y-30756D01*
X72867Y-30756D02*
X72250Y-30756D01*
X72250Y-30756D02*
X72250Y-29598D01*
X72250Y-29598D02*
X72867Y-29598D01*
X65021Y-22998D02*
X66179Y-22998D01*
X66179Y-22998D02*
X66179Y-23615D01*
X66179Y-23615D02*
X65021Y-23615D01*
X65021Y-23615D02*
X65021Y-22998D01*
X72974Y-23353D02*
X74132Y-23353D01*
X74132Y-23353D02*
X74132Y-23969D01*
X74132Y-23969D02*
X72974Y-23969D01*
X72974Y-23969D02*
X72974Y-23353D01*
X58613Y-49281D02*
X58613Y-48123D01*
X58613Y-48123D02*
X59250Y-48123D01*
X59250Y-48132D02*
X59250Y-49290D01*
X59250Y-49290D02*
X58613Y-49290D01*
X57240Y-34634D02*
X57240Y-33476D01*
X57240Y-33476D02*
X57877Y-33476D01*
X57877Y-33485D02*
X57877Y-34643D01*
X57877Y-34643D02*
X57240Y-34643D01*
X58588Y-33486D02*
X58588Y-34644D01*
X58588Y-34644D02*
X57951Y-34644D01*
X57951Y-34634D02*
X57951Y-33476D01*
X57951Y-33476D02*
X58588Y-33476D01*
X57029Y-24038D02*
X55871Y-24038D01*
X55871Y-24038D02*
X55871Y-23401D01*
X55880Y-23401D02*
X57038Y-23401D01*
X57038Y-23401D02*
X57038Y-24038D01*
X56989Y-60463D02*
X55831Y-60463D01*
X55831Y-60463D02*
X55831Y-59826D01*
X55840Y-59826D02*
X56998Y-59826D01*
X56998Y-59826D02*
X56998Y-60463D01*
X59441Y-58641D02*
X60599Y-58641D01*
X60599Y-58641D02*
X60599Y-59278D01*
X60589Y-59278D02*
X59431Y-59278D01*
X59431Y-59278D02*
X59431Y-58641D01*
X66386Y-39491D02*
X65228Y-39491D01*
X65228Y-39491D02*
X65228Y-38855D01*
X65237Y-38855D02*
X66395Y-38855D01*
X66395Y-38855D02*
X66395Y-39491D01*
X66386Y-40101D02*
X65228Y-40101D01*
X65228Y-40101D02*
X65228Y-39465D01*
X65237Y-39465D02*
X66395Y-39465D01*
X66395Y-39465D02*
X66395Y-40101D01*
X64578Y-42693D02*
X65736Y-42693D01*
X65736Y-42693D02*
X65736Y-43329D01*
X65726Y-43329D02*
X64568Y-43329D01*
X64568Y-43329D02*
X64568Y-42693D01*
X59958Y-48127D02*
X59958Y-49285D01*
X59958Y-49285D02*
X59321Y-49285D01*
X59321Y-49275D02*
X59321Y-48117D01*
X59321Y-48117D02*
X59958Y-48117D01*
X52011Y-30871D02*
X53169Y-30871D01*
X53169Y-30871D02*
X53169Y-31508D01*
X53159Y-31508D02*
X52001Y-31508D01*
X52001Y-31508D02*
X52001Y-30871D01*
X63633Y-39563D02*
X65185Y-39563D01*
X65185Y-40199D02*
X63633Y-40199D01*
X63633Y-40199D02*
X63633Y-39563D01*
X65185Y-39563D02*
X65185Y-40199D01*
X63633Y-38756D02*
X65185Y-38756D01*
X65185Y-39392D02*
X63633Y-39392D01*
X63633Y-39392D02*
X63633Y-38756D01*
X65185Y-38756D02*
X65185Y-39392D01*
X60665Y-47923D02*
X60665Y-49475D01*
X60028Y-49475D02*
X60028Y-47923D01*
X60028Y-47923D02*
X60665Y-47923D01*
X60665Y-49475D02*
X60028Y-49475D01*
X61372Y-47923D02*
X61372Y-49475D01*
X60735Y-49475D02*
X60735Y-47923D01*
X60735Y-47923D02*
X61372Y-47923D01*
X61372Y-49475D02*
X60735Y-49475D01*
X62072Y-47923D02*
X62072Y-49475D01*
X61435Y-49475D02*
X61435Y-47923D01*
X61435Y-47923D02*
X62072Y-47923D01*
X62072Y-49475D02*
X61435Y-49475D01*
X62104Y-47971D02*
X63656Y-47971D01*
X63656Y-48608D02*
X62104Y-48608D01*
X62104Y-48608D02*
X62104Y-47971D01*
X63656Y-47971D02*
X63656Y-48608D01*
X62105Y-47225D02*
X63657Y-47225D01*
X63657Y-47862D02*
X62105Y-47862D01*
X62105Y-47862D02*
X62105Y-47225D01*
X63657Y-47225D02*
X63657Y-47862D01*
X56511Y-34836D02*
X56511Y-33284D01*
X57148Y-33284D02*
X57148Y-34836D01*
X57148Y-34836D02*
X56511Y-34836D01*
X56511Y-33284D02*
X57148Y-33284D01*
X55741Y-34836D02*
X55741Y-33284D01*
X56378Y-33284D02*
X56378Y-34836D01*
X56378Y-34836D02*
X55741Y-34836D01*
X55741Y-33284D02*
X56378Y-33284D01*
X54971Y-34836D02*
X54971Y-33284D01*
X55608Y-33284D02*
X55608Y-34836D01*
X55608Y-34836D02*
X54971Y-34836D01*
X54971Y-33284D02*
X55608Y-33284D01*
X54831Y-34806D02*
X53279Y-34806D01*
X53279Y-34170D02*
X54831Y-34170D01*
X54831Y-34170D02*
X54831Y-34806D01*
X53279Y-34806D02*
X53279Y-34170D01*
X54826Y-35548D02*
X53274Y-35548D01*
X53274Y-34911D02*
X54826Y-34911D01*
X54826Y-34911D02*
X54826Y-35548D01*
X53274Y-35548D02*
X53274Y-34911D01*
X68418Y-43535D02*
X68418Y-44693D01*
X68418Y-44693D02*
X67801Y-44693D01*
X67801Y-44693D02*
X67801Y-43535D01*
X67801Y-43535D02*
X68418Y-43535D01*
X67621Y-43535D02*
X67621Y-44693D01*
X67621Y-44693D02*
X67004Y-44693D01*
X67004Y-44693D02*
X67004Y-43535D01*
X67004Y-43535D02*
X67621Y-43535D01*
X72453Y-43515D02*
X72453Y-44673D01*
X72453Y-44673D02*
X71837Y-44673D01*
X71837Y-44673D02*
X71837Y-43515D01*
X71837Y-43515D02*
X72453Y-43515D01*
X68510Y-43226D02*
X68510Y-42068D01*
X68510Y-42068D02*
X69127Y-42068D01*
X69127Y-42068D02*
X69127Y-43226D01*
X69127Y-43226D02*
X68510Y-43226D01*
X76975Y-34988D02*
X76975Y-33830D01*
X76975Y-33830D02*
X77591Y-33830D01*
X77591Y-33830D02*
X77591Y-34988D01*
X77591Y-34988D02*
X76975Y-34988D01*
X73359Y-36901D02*
X73359Y-38059D01*
X73359Y-38059D02*
X72742Y-38059D01*
X72742Y-38059D02*
X72742Y-36901D01*
X72742Y-36901D02*
X73359Y-36901D01*
X75070Y-38038D02*
X76228Y-38038D01*
X76228Y-38038D02*
X76228Y-38654D01*
X76228Y-38654D02*
X75070Y-38654D01*
X75070Y-38654D02*
X75070Y-38038D01*
X74890Y-38654D02*
X73732Y-38654D01*
X73732Y-38654D02*
X73732Y-38038D01*
X73732Y-38038D02*
X74890Y-38038D01*
X74890Y-38038D02*
X74890Y-38654D01*
X70219Y-39184D02*
X70219Y-40342D01*
X70219Y-40342D02*
X69603Y-40342D01*
X69603Y-40342D02*
X69603Y-39184D01*
X69603Y-39184D02*
X70219Y-39184D01*
X70219Y-40385D02*
X70219Y-41543D01*
X70219Y-41543D02*
X69603Y-41543D01*
X69603Y-41543D02*
X69603Y-40385D01*
X69603Y-40385D02*
X70219Y-40385D01*
X64442Y-42491D02*
X64442Y-43649D01*
X64442Y-43649D02*
X63825Y-43649D01*
X63825Y-43649D02*
X63825Y-42491D01*
X63825Y-42491D02*
X64442Y-42491D01*
X70613Y-42235D02*
X70613Y-43059D01*
X70613Y-43059D02*
X70233Y-43059D01*
X70233Y-43059D02*
X70233Y-42235D01*
X70233Y-42235D02*
X70613Y-42235D01*
X71773Y-44780D02*
X72596Y-44780D01*
X72596Y-44780D02*
X72596Y-45160D01*
X72596Y-45160D02*
X71773Y-45160D01*
X71773Y-45160D02*
X71773Y-44780D01*
X69617Y-44239D02*
X70441Y-44239D01*
X70441Y-44239D02*
X70441Y-44619D01*
X70441Y-44619D02*
X69617Y-44619D01*
X69617Y-44619D02*
X69617Y-44239D01*
X43556Y-51507D02*
X43556Y-52330D01*
X43556Y-52330D02*
X43176Y-52330D01*
X43176Y-52330D02*
X43176Y-51507D01*
X43176Y-51507D02*
X43556Y-51507D01*
X49233Y-52644D02*
X50057Y-52644D01*
X50057Y-52644D02*
X50057Y-53024D01*
X50057Y-53024D02*
X49233Y-53024D01*
X49233Y-53024D02*
X49233Y-52644D01*
X44156Y-58830D02*
X44156Y-59653D01*
X44156Y-59653D02*
X43776Y-59653D01*
X43776Y-59653D02*
X43776Y-58830D01*
X43776Y-58830D02*
X44156Y-58830D01*
X50145Y-59314D02*
X49322Y-59314D01*
X49322Y-59314D02*
X49322Y-58934D01*
X49322Y-58934D02*
X50145Y-58934D01*
X50145Y-58934D02*
X50145Y-59314D01*
X68462Y-51863D02*
X67639Y-51863D01*
X67639Y-51863D02*
X67639Y-51483D01*
X67639Y-51483D02*
X68462Y-51483D01*
X68462Y-51483D02*
X68462Y-51863D01*
X75460Y-51922D02*
X74637Y-51922D01*
X74637Y-51922D02*
X74637Y-51542D01*
X74637Y-51542D02*
X75460Y-51542D01*
X75460Y-51542D02*
X75460Y-51922D01*
X66410Y-59155D02*
X66410Y-59978D01*
X66410Y-59978D02*
X66030Y-59978D01*
X66030Y-59978D02*
X66030Y-59155D01*
X66030Y-59155D02*
X66410Y-59155D01*
X73738Y-60170D02*
X72915Y-60170D01*
X72915Y-60170D02*
X72915Y-59790D01*
X72915Y-59790D02*
X73738Y-59790D01*
X73738Y-59790D02*
X73738Y-60170D01*
X73525Y-29770D02*
X74348Y-29770D01*
X74348Y-29770D02*
X74348Y-30150D01*
X74348Y-30150D02*
X73525Y-30150D01*
X73525Y-30150D02*
X73525Y-29770D01*
X67222Y-30091D02*
X66399Y-30091D01*
X66399Y-30091D02*
X66399Y-29711D01*
X66399Y-29711D02*
X67222Y-29711D01*
X67222Y-29711D02*
X67222Y-30091D01*
X73732Y-24111D02*
X74555Y-24111D01*
X74555Y-24111D02*
X74555Y-24491D01*
X74555Y-24491D02*
X73732Y-24491D01*
X73732Y-24491D02*
X73732Y-24111D01*
X66266Y-23512D02*
X66266Y-22688D01*
X66266Y-22688D02*
X66646Y-22688D01*
X66646Y-22688D02*
X66646Y-23512D01*
X66646Y-23512D02*
X66266Y-23512D01*
X49880Y-31075D02*
X49056Y-31075D01*
X49056Y-31075D02*
X49056Y-30695D01*
X49056Y-30695D02*
X49880Y-30695D01*
X49880Y-30695D02*
X49880Y-31075D01*
X42127Y-30656D02*
X42951Y-30656D01*
X42951Y-30656D02*
X42951Y-31036D01*
X42951Y-31036D02*
X42127Y-31036D01*
X42127Y-31036D02*
X42127Y-30656D01*
X49332Y-23963D02*
X50155Y-23963D01*
X50155Y-23963D02*
X50155Y-24343D01*
X50155Y-24343D02*
X49332Y-24343D01*
X49332Y-24343D02*
X49332Y-23963D01*
X43103Y-23525D02*
X43103Y-24348D01*
X43103Y-24348D02*
X42723Y-24348D01*
X42723Y-24348D02*
X42723Y-23525D01*
X42723Y-23525D02*
X43103Y-23525D01*
X68319Y-41045D02*
X68319Y-41868D01*
X68319Y-41868D02*
X67939Y-41868D01*
X67939Y-41868D02*
X67939Y-41045D01*
X67939Y-41045D02*
X68319Y-41045D01*
X70956Y-39111D02*
X71779Y-39111D01*
X71779Y-39111D02*
X71779Y-39491D01*
X71779Y-39491D02*
X70956Y-39491D01*
X70956Y-39491D02*
X70956Y-39111D01*
X41758Y-47163D02*
X41758Y-46340D01*
X41758Y-46340D02*
X42138Y-46340D01*
X42138Y-46340D02*
X42138Y-47163D01*
X42138Y-47163D02*
X41758Y-47163D01*
X40987Y-50631D02*
X40987Y-51454D01*
X40987Y-51454D02*
X40607Y-51454D01*
X40607Y-51454D02*
X40607Y-50631D01*
X40607Y-50631D02*
X40987Y-50631D01*
X40529Y-48812D02*
X39706Y-48812D01*
X39706Y-48812D02*
X39706Y-48432D01*
X39706Y-48432D02*
X40529Y-48432D01*
X40529Y-48432D02*
X40529Y-48812D01*
X43423Y-52975D02*
X42600Y-52975D01*
X42600Y-52975D02*
X42600Y-52595D01*
X42600Y-52595D02*
X43423Y-52595D01*
X43423Y-52595D02*
X43423Y-52975D01*
X44627Y-48432D02*
X45451Y-48432D01*
X45451Y-48432D02*
X45451Y-48812D01*
X45451Y-48812D02*
X44627Y-48812D01*
X44627Y-48812D02*
X44627Y-48432D01*
X44627Y-50105D02*
X45451Y-50105D01*
X45451Y-50105D02*
X45451Y-50485D01*
X45451Y-50485D02*
X44627Y-50485D01*
X44627Y-50485D02*
X44627Y-50105D01*
X43024Y-51517D02*
X43024Y-52340D01*
X43024Y-52340D02*
X42644Y-52340D01*
X42644Y-52340D02*
X42644Y-51517D01*
X42644Y-51517D02*
X43024Y-51517D01*
X42453Y-51517D02*
X42453Y-52340D01*
X42453Y-52340D02*
X42073Y-52340D01*
X42073Y-52340D02*
X42073Y-51517D01*
X42073Y-51517D02*
X42453Y-51517D01*
X40160Y-49322D02*
X40160Y-50145D01*
X40160Y-50145D02*
X39780Y-50145D01*
X39780Y-50145D02*
X39780Y-49322D01*
X39780Y-49322D02*
X40160Y-49322D01*
X40529Y-48319D02*
X39706Y-48319D01*
X39706Y-48319D02*
X39706Y-47939D01*
X39706Y-47939D02*
X40529Y-47939D01*
X40529Y-47939D02*
X40529Y-48319D01*
X44627Y-47939D02*
X45451Y-47939D01*
X45451Y-47939D02*
X45451Y-48319D01*
X45451Y-48319D02*
X44627Y-48319D01*
X44627Y-48319D02*
X44627Y-47939D01*
X51704Y-50213D02*
X52527Y-50213D01*
X52527Y-50213D02*
X52527Y-50593D01*
X52527Y-50593D02*
X51704Y-50593D01*
X51704Y-50593D02*
X51704Y-50213D01*
X47577Y-48812D02*
X46753Y-48812D01*
X46753Y-48812D02*
X46753Y-48432D01*
X46753Y-48432D02*
X47577Y-48432D01*
X47577Y-48432D02*
X47577Y-48812D01*
X48595Y-51704D02*
X48595Y-52527D01*
X48595Y-52527D02*
X48215Y-52527D01*
X48215Y-52527D02*
X48215Y-51704D01*
X48215Y-51704D02*
X48595Y-51704D01*
X49160Y-47163D02*
X49160Y-46340D01*
X49160Y-46340D02*
X49540Y-46340D01*
X49540Y-46340D02*
X49540Y-47163D01*
X49540Y-47163D02*
X49160Y-47163D01*
X51812Y-48432D02*
X52636Y-48432D01*
X52636Y-48432D02*
X52636Y-48812D01*
X52636Y-48812D02*
X51812Y-48812D01*
X51812Y-48812D02*
X51812Y-48432D01*
X47788Y-49962D02*
X47788Y-50785D01*
X47788Y-50785D02*
X47408Y-50785D01*
X47408Y-50785D02*
X47408Y-49962D01*
X47408Y-49962D02*
X47788Y-49962D01*
X50071Y-51694D02*
X50071Y-52517D01*
X50071Y-52517D02*
X49691Y-52517D01*
X49691Y-52517D02*
X49691Y-51694D01*
X49691Y-51694D02*
X50071Y-51694D01*
X49579Y-51694D02*
X49579Y-52517D01*
X49579Y-52517D02*
X49199Y-52517D01*
X49199Y-52517D02*
X49199Y-51694D01*
X49199Y-51694D02*
X49579Y-51694D01*
X47296Y-49548D02*
X47296Y-50372D01*
X47296Y-50372D02*
X46916Y-50372D01*
X46916Y-50372D02*
X46916Y-49548D01*
X46916Y-49548D02*
X47296Y-49548D01*
X47577Y-48319D02*
X46753Y-48319D01*
X46753Y-48319D02*
X46753Y-47939D01*
X46753Y-47939D02*
X47577Y-47939D01*
X47577Y-47939D02*
X47577Y-48319D01*
X51812Y-47939D02*
X52636Y-47939D01*
X52636Y-47939D02*
X52636Y-48319D01*
X52636Y-48319D02*
X51812Y-48319D01*
X51812Y-48319D02*
X51812Y-47939D01*
X42473Y-57058D02*
X42473Y-57882D01*
X42473Y-57882D02*
X42093Y-57882D01*
X42093Y-57882D02*
X42093Y-57058D01*
X42093Y-57058D02*
X42473Y-57058D01*
X39750Y-57203D02*
X39750Y-56379D01*
X39750Y-56379D02*
X40130Y-56379D01*
X40130Y-56379D02*
X40130Y-57203D01*
X40130Y-57203D02*
X39750Y-57203D01*
X39750Y-55214D02*
X39750Y-54391D01*
X39750Y-54391D02*
X40130Y-54391D01*
X40130Y-54391D02*
X40130Y-55214D01*
X40130Y-55214D02*
X39750Y-55214D01*
X41581Y-52852D02*
X41581Y-52029D01*
X41581Y-52029D02*
X41961Y-52029D01*
X41961Y-52029D02*
X41961Y-52852D01*
X41961Y-52852D02*
X41581Y-52852D01*
X43909Y-52890D02*
X44732Y-52890D01*
X44732Y-52890D02*
X44732Y-53270D01*
X44732Y-53270D02*
X43909Y-53270D01*
X43909Y-53270D02*
X43909Y-52890D01*
X43097Y-47163D02*
X43097Y-46340D01*
X43097Y-46340D02*
X43477Y-46340D01*
X43477Y-46340D02*
X43477Y-47163D01*
X43477Y-47163D02*
X43097Y-47163D01*
X44908Y-56947D02*
X44908Y-56123D01*
X44908Y-56123D02*
X45288Y-56123D01*
X45288Y-56123D02*
X45288Y-56947D01*
X45288Y-56947D02*
X44908Y-56947D01*
X45288Y-55198D02*
X45288Y-56021D01*
X45288Y-56021D02*
X44908Y-56021D01*
X44908Y-56021D02*
X44908Y-55198D01*
X44908Y-55198D02*
X45288Y-55198D01*
X40130Y-55454D02*
X40130Y-56277D01*
X40130Y-56277D02*
X39750Y-56277D01*
X39750Y-56277D02*
X39750Y-55454D01*
X39750Y-55454D02*
X40130Y-55454D01*
X40623Y-53879D02*
X40623Y-54703D01*
X40623Y-54703D02*
X40243Y-54703D01*
X40243Y-54703D02*
X40243Y-53879D01*
X40243Y-53879D02*
X40623Y-53879D01*
X44432Y-54191D02*
X44432Y-53367D01*
X44432Y-53367D02*
X44812Y-53367D01*
X44812Y-53367D02*
X44812Y-54191D01*
X44812Y-54191D02*
X44432Y-54191D01*
X51822Y-55823D02*
X52645Y-55823D01*
X52645Y-55823D02*
X52645Y-56203D01*
X52645Y-56203D02*
X51822Y-56203D01*
X51822Y-56203D02*
X51822Y-55823D01*
X46896Y-57203D02*
X46896Y-56379D01*
X46896Y-56379D02*
X47276Y-56379D01*
X47276Y-56379D02*
X47276Y-57203D01*
X47276Y-57203D02*
X46896Y-57203D01*
X46896Y-55214D02*
X46896Y-54391D01*
X46896Y-54391D02*
X47276Y-54391D01*
X47276Y-54391D02*
X47276Y-55214D01*
X47276Y-55214D02*
X46896Y-55214D01*
X50184Y-53029D02*
X50184Y-52206D01*
X50184Y-52206D02*
X50564Y-52206D01*
X50564Y-52206D02*
X50564Y-53029D01*
X50564Y-53029D02*
X50184Y-53029D01*
X52315Y-52856D02*
X52315Y-53679D01*
X52315Y-53679D02*
X51935Y-53679D01*
X51935Y-53679D02*
X51935Y-52856D01*
X51935Y-52856D02*
X52315Y-52856D01*
X47768Y-55867D02*
X47768Y-56691D01*
X47768Y-56691D02*
X47388Y-56691D01*
X47388Y-56691D02*
X47388Y-55867D01*
X47388Y-55867D02*
X47768Y-55867D01*
X48707Y-53029D02*
X48707Y-52206D01*
X48707Y-52206D02*
X49087Y-52206D01*
X49087Y-52206D02*
X49087Y-53029D01*
X49087Y-53029D02*
X48707Y-53029D01*
X49077Y-58338D02*
X49077Y-59161D01*
X49077Y-59161D02*
X48697Y-59161D01*
X48697Y-59161D02*
X48697Y-58338D01*
X48697Y-58338D02*
X49077Y-58338D01*
X47276Y-55454D02*
X47276Y-56277D01*
X47276Y-56277D02*
X46896Y-56277D01*
X46896Y-56277D02*
X46896Y-55454D01*
X46896Y-55454D02*
X47276Y-55454D01*
X47768Y-53879D02*
X47768Y-54703D01*
X47768Y-54703D02*
X47388Y-54703D01*
X47388Y-54703D02*
X47388Y-53879D01*
X47388Y-53879D02*
X47768Y-53879D01*
X51443Y-54191D02*
X51443Y-53367D01*
X51443Y-53367D02*
X51823Y-53367D01*
X51823Y-53367D02*
X51823Y-54191D01*
X51823Y-54191D02*
X51443Y-54191D01*
X67546Y-52951D02*
X67546Y-52127D01*
X67546Y-52127D02*
X67926Y-52127D01*
X67926Y-52127D02*
X67926Y-52951D01*
X67926Y-52951D02*
X67546Y-52951D01*
X64565Y-48910D02*
X63741Y-48910D01*
X63741Y-48910D02*
X63741Y-48530D01*
X63741Y-48530D02*
X64565Y-48530D01*
X64565Y-48530D02*
X64565Y-48910D01*
X67585Y-47163D02*
X67585Y-46340D01*
X67585Y-46340D02*
X67965Y-46340D01*
X67965Y-46340D02*
X67965Y-47163D01*
X67965Y-47163D02*
X67585Y-47163D01*
X66207Y-47163D02*
X66207Y-46340D01*
X66207Y-46340D02*
X66587Y-46340D01*
X66587Y-46340D02*
X66587Y-47163D01*
X66587Y-47163D02*
X66207Y-47163D01*
X69037Y-48432D02*
X69860Y-48432D01*
X69860Y-48432D02*
X69860Y-48812D01*
X69860Y-48812D02*
X69037Y-48812D01*
X69037Y-48812D02*
X69037Y-48432D01*
X64711Y-51297D02*
X64711Y-50474D01*
X64711Y-50474D02*
X65091Y-50474D01*
X65091Y-50474D02*
X65091Y-51297D01*
X65091Y-51297D02*
X64711Y-51297D01*
X67453Y-51615D02*
X67453Y-52439D01*
X67453Y-52439D02*
X67073Y-52439D01*
X67073Y-52439D02*
X67073Y-51615D01*
X67073Y-51615D02*
X67453Y-51615D01*
X66863Y-51615D02*
X66863Y-52439D01*
X66863Y-52439D02*
X66483Y-52439D01*
X66483Y-52439D02*
X66483Y-51615D01*
X66483Y-51615D02*
X66863Y-51615D01*
X65091Y-49548D02*
X65091Y-50372D01*
X65091Y-50372D02*
X64711Y-50372D01*
X64711Y-50372D02*
X64711Y-49548D01*
X64711Y-49548D02*
X65091Y-49548D01*
X64888Y-48285D02*
X64888Y-47462D01*
X64888Y-47462D02*
X65268Y-47462D01*
X65268Y-47462D02*
X65268Y-48285D01*
X65268Y-48285D02*
X64888Y-48285D01*
X69037Y-47939D02*
X69860Y-47939D01*
X69860Y-47939D02*
X69860Y-48319D01*
X69860Y-48319D02*
X69037Y-48319D01*
X69037Y-48319D02*
X69037Y-47939D01*
X74514Y-52970D02*
X74514Y-52147D01*
X74514Y-52147D02*
X74894Y-52147D01*
X74894Y-52147D02*
X74894Y-52970D01*
X74894Y-52970D02*
X74514Y-52970D01*
X74357Y-47143D02*
X74357Y-46320D01*
X74357Y-46320D02*
X74737Y-46320D01*
X74737Y-46320D02*
X74737Y-47143D01*
X74737Y-47143D02*
X74357Y-47143D01*
X72065Y-48812D02*
X71241Y-48812D01*
X71241Y-48812D02*
X71241Y-48432D01*
X71241Y-48432D02*
X72065Y-48432D01*
X72065Y-48432D02*
X72065Y-48812D01*
X73215Y-47143D02*
X73215Y-46320D01*
X73215Y-46320D02*
X73595Y-46320D01*
X73595Y-46320D02*
X73595Y-47143D01*
X73595Y-47143D02*
X73215Y-47143D01*
X75966Y-48432D02*
X76789Y-48432D01*
X76789Y-48432D02*
X76789Y-48812D01*
X76789Y-48812D02*
X75966Y-48812D01*
X75966Y-48812D02*
X75966Y-48432D01*
X72449Y-50859D02*
X71625Y-50859D01*
X71625Y-50859D02*
X71625Y-50479D01*
X71625Y-50479D02*
X72449Y-50479D01*
X72449Y-50479D02*
X72449Y-50859D01*
X74402Y-51635D02*
X74402Y-52458D01*
X74402Y-52458D02*
X74022Y-52458D01*
X74022Y-52458D02*
X74022Y-51635D01*
X74022Y-51635D02*
X74402Y-51635D01*
X73890Y-51635D02*
X73890Y-52458D01*
X73890Y-52458D02*
X73510Y-52458D01*
X73510Y-52458D02*
X73510Y-51635D01*
X73510Y-51635D02*
X73890Y-51635D01*
X72001Y-49548D02*
X72001Y-50372D01*
X72001Y-50372D02*
X71621Y-50372D01*
X71621Y-50372D02*
X71621Y-49548D01*
X71621Y-49548D02*
X72001Y-49548D01*
X72065Y-48319D02*
X71241Y-48319D01*
X71241Y-48319D02*
X71241Y-47939D01*
X71241Y-47939D02*
X72065Y-47939D01*
X72065Y-47939D02*
X72065Y-48319D01*
X75966Y-47920D02*
X76789Y-47920D01*
X76789Y-47920D02*
X76789Y-48300D01*
X76789Y-48300D02*
X75966Y-48300D01*
X75966Y-48300D02*
X75966Y-47920D01*
X68948Y-56315D02*
X69771Y-56315D01*
X69771Y-56315D02*
X69771Y-56695D01*
X69771Y-56695D02*
X68948Y-56695D01*
X68948Y-56695D02*
X68948Y-56315D01*
X64565Y-49402D02*
X63741Y-49402D01*
X63741Y-49402D02*
X63741Y-49022D01*
X63741Y-49022D02*
X64565Y-49022D01*
X64565Y-49022D02*
X64565Y-49402D01*
X64958Y-54717D02*
X64135Y-54717D01*
X64135Y-54717D02*
X64135Y-54337D01*
X64135Y-54337D02*
X64958Y-54337D01*
X64958Y-54337D02*
X64958Y-54717D01*
X65991Y-52951D02*
X65991Y-52127D01*
X65991Y-52127D02*
X66371Y-52127D01*
X66371Y-52127D02*
X66371Y-52951D01*
X66371Y-52951D02*
X65991Y-52951D01*
X69115Y-54337D02*
X69939Y-54337D01*
X69939Y-54337D02*
X69939Y-54717D01*
X69939Y-54717D02*
X69115Y-54717D01*
X69115Y-54717D02*
X69115Y-54337D01*
X64573Y-57203D02*
X64573Y-56379D01*
X64573Y-56379D02*
X64953Y-56379D01*
X64953Y-56379D02*
X64953Y-57203D01*
X64953Y-57203D02*
X64573Y-57203D01*
X68928Y-50252D02*
X69752Y-50252D01*
X69752Y-50252D02*
X69752Y-50632D01*
X69752Y-50632D02*
X68928Y-50632D01*
X68928Y-50632D02*
X68928Y-50252D01*
X66839Y-57119D02*
X66839Y-57943D01*
X66839Y-57943D02*
X66459Y-57943D01*
X66459Y-57943D02*
X66459Y-57119D01*
X66459Y-57119D02*
X66839Y-57119D01*
X64953Y-55454D02*
X64953Y-56277D01*
X64953Y-56277D02*
X64573Y-56277D01*
X64573Y-56277D02*
X64573Y-55454D01*
X64573Y-55454D02*
X64953Y-55454D01*
X64958Y-54225D02*
X64135Y-54225D01*
X64135Y-54225D02*
X64135Y-53845D01*
X64135Y-53845D02*
X64958Y-53845D01*
X64958Y-53845D02*
X64958Y-54225D01*
X69115Y-53845D02*
X69939Y-53845D01*
X69939Y-53845D02*
X69939Y-54225D01*
X69939Y-54225D02*
X69115Y-54225D01*
X69115Y-54225D02*
X69115Y-53845D01*
X73800Y-57135D02*
X73800Y-57958D01*
X73800Y-57958D02*
X73420Y-57958D01*
X73420Y-57958D02*
X73420Y-57135D01*
X73420Y-57135D02*
X73800Y-57135D01*
X76227Y-57183D02*
X76227Y-56359D01*
X76227Y-56359D02*
X76607Y-56359D01*
X76607Y-56359D02*
X76607Y-57183D01*
X76607Y-57183D02*
X76227Y-57183D01*
X72045Y-54717D02*
X71222Y-54717D01*
X71222Y-54717D02*
X71222Y-54337D01*
X71222Y-54337D02*
X72045Y-54337D01*
X72045Y-54337D02*
X72045Y-54717D01*
X73018Y-52970D02*
X73018Y-52147D01*
X73018Y-52147D02*
X73398Y-52147D01*
X73398Y-52147D02*
X73398Y-52970D01*
X73398Y-52970D02*
X73018Y-52970D01*
X76123Y-54337D02*
X76947Y-54337D01*
X76947Y-54337D02*
X76947Y-54717D01*
X76947Y-54717D02*
X76123Y-54717D01*
X76123Y-54717D02*
X76123Y-54337D01*
X71640Y-57203D02*
X71640Y-56379D01*
X71640Y-56379D02*
X72020Y-56379D01*
X72020Y-56379D02*
X72020Y-57203D01*
X72020Y-57203D02*
X71640Y-57203D01*
X76607Y-55415D02*
X76607Y-56238D01*
X76607Y-56238D02*
X76227Y-56238D01*
X76227Y-56238D02*
X76227Y-55415D01*
X76227Y-55415D02*
X76607Y-55415D01*
X75966Y-49691D02*
X76789Y-49691D01*
X76789Y-49691D02*
X76789Y-50071D01*
X76789Y-50071D02*
X75966Y-50071D01*
X75966Y-50071D02*
X75966Y-49691D01*
X72020Y-55454D02*
X72020Y-56277D01*
X72020Y-56277D02*
X71640Y-56277D01*
X71640Y-56277D02*
X71640Y-55454D01*
X71640Y-55454D02*
X72020Y-55454D01*
X72045Y-54225D02*
X71222Y-54225D01*
X71222Y-54225D02*
X71222Y-53845D01*
X71222Y-53845D02*
X72045Y-53845D01*
X72045Y-53845D02*
X72045Y-54225D01*
X76123Y-53845D02*
X76947Y-53845D01*
X76947Y-53845D02*
X76947Y-54225D01*
X76947Y-54225D02*
X76123Y-54225D01*
X76123Y-54225D02*
X76123Y-53845D01*
X73378Y-35454D02*
X73378Y-36277D01*
X73378Y-36277D02*
X72998Y-36277D01*
X72998Y-36277D02*
X72998Y-35454D01*
X72998Y-35454D02*
X73378Y-35454D01*
X76123Y-34091D02*
X76947Y-34091D01*
X76947Y-34091D02*
X76947Y-34471D01*
X76947Y-34471D02*
X76123Y-34471D01*
X76123Y-34471D02*
X76123Y-34091D01*
X67453Y-35458D02*
X67453Y-36281D01*
X67453Y-36281D02*
X67073Y-36281D01*
X67073Y-36281D02*
X67073Y-35458D01*
X67073Y-35458D02*
X67453Y-35458D01*
X74587Y-35438D02*
X74587Y-36262D01*
X74587Y-36262D02*
X74207Y-36262D01*
X74207Y-36262D02*
X74207Y-35438D01*
X74207Y-35438D02*
X74587Y-35438D01*
X71868Y-34245D02*
X71045Y-34245D01*
X71045Y-34245D02*
X71045Y-33865D01*
X71045Y-33865D02*
X71868Y-33865D01*
X71868Y-33865D02*
X71868Y-34245D01*
X73471Y-31100D02*
X73471Y-30277D01*
X73471Y-30277D02*
X73851Y-30277D01*
X73851Y-30277D02*
X73851Y-31100D01*
X73851Y-31100D02*
X73471Y-31100D01*
X73983Y-31100D02*
X73983Y-30277D01*
X73983Y-30277D02*
X74363Y-30277D01*
X74363Y-30277D02*
X74363Y-31100D01*
X74363Y-31100D02*
X73983Y-31100D01*
X75513Y-31817D02*
X76336Y-31817D01*
X76336Y-31817D02*
X76336Y-32197D01*
X76336Y-32197D02*
X75513Y-32197D01*
X75513Y-32197D02*
X75513Y-31817D01*
X75951Y-33108D02*
X75951Y-32285D01*
X75951Y-32285D02*
X76331Y-32285D01*
X76331Y-32285D02*
X76331Y-33108D01*
X76331Y-33108D02*
X75951Y-33108D01*
X76123Y-34573D02*
X76947Y-34573D01*
X76947Y-34573D02*
X76947Y-34953D01*
X76947Y-34953D02*
X76123Y-34953D01*
X76123Y-34953D02*
X76123Y-34573D01*
X71868Y-34737D02*
X71045Y-34737D01*
X71045Y-34737D02*
X71045Y-34357D01*
X71045Y-34357D02*
X71868Y-34357D01*
X71868Y-34357D02*
X71868Y-34737D01*
X68978Y-33884D02*
X69801Y-33884D01*
X69801Y-33884D02*
X69801Y-34264D01*
X69801Y-34264D02*
X68978Y-34264D01*
X68978Y-34264D02*
X68978Y-33884D01*
X65057Y-32237D02*
X64233Y-32237D01*
X64233Y-32237D02*
X64233Y-31857D01*
X64233Y-31857D02*
X65057Y-31857D01*
X65057Y-31857D02*
X65057Y-32237D01*
X66233Y-29686D02*
X66233Y-30510D01*
X66233Y-30510D02*
X65853Y-30510D01*
X65853Y-30510D02*
X65853Y-29686D01*
X65853Y-29686D02*
X66233Y-29686D01*
X68781Y-31817D02*
X69604Y-31817D01*
X69604Y-31817D02*
X69604Y-32197D01*
X69604Y-32197D02*
X68781Y-32197D01*
X68781Y-32197D02*
X68781Y-31817D01*
X64899Y-35229D02*
X64076Y-35229D01*
X64076Y-35229D02*
X64076Y-34849D01*
X64076Y-34849D02*
X64899Y-34849D01*
X64899Y-34849D02*
X64899Y-35229D01*
X66312Y-35454D02*
X66312Y-36277D01*
X66312Y-36277D02*
X65932Y-36277D01*
X65932Y-36277D02*
X65932Y-35454D01*
X65932Y-35454D02*
X66312Y-35454D01*
X66896Y-31021D02*
X66896Y-30198D01*
X66896Y-30198D02*
X67276Y-30198D01*
X67276Y-30198D02*
X67276Y-31021D01*
X67276Y-31021D02*
X66896Y-31021D01*
X66345Y-31021D02*
X66345Y-30198D01*
X66345Y-30198D02*
X66725Y-30198D01*
X66725Y-30198D02*
X66725Y-31021D01*
X66725Y-31021D02*
X66345Y-31021D01*
X69258Y-33128D02*
X69258Y-32304D01*
X69258Y-32304D02*
X69638Y-32304D01*
X69638Y-32304D02*
X69638Y-33128D01*
X69638Y-33128D02*
X69258Y-33128D01*
X68978Y-34357D02*
X69801Y-34357D01*
X69801Y-34357D02*
X69801Y-34737D01*
X69801Y-34737D02*
X68978Y-34737D01*
X68978Y-34737D02*
X68978Y-34357D01*
X64899Y-34737D02*
X64076Y-34737D01*
X64076Y-34737D02*
X64076Y-34357D01*
X64076Y-34357D02*
X64899Y-34357D01*
X64899Y-34357D02*
X64899Y-34737D01*
X71266Y-26868D02*
X71266Y-26045D01*
X71266Y-26045D02*
X71646Y-26045D01*
X71646Y-26045D02*
X71646Y-26868D01*
X71646Y-26868D02*
X71266Y-26868D01*
X76371Y-25474D02*
X76371Y-26297D01*
X76371Y-26297D02*
X75991Y-26297D01*
X75991Y-26297D02*
X75991Y-25474D01*
X75991Y-25474D02*
X76371Y-25474D01*
X76025Y-27959D02*
X76848Y-27959D01*
X76848Y-27959D02*
X76848Y-28339D01*
X76848Y-28339D02*
X76025Y-28339D01*
X76025Y-28339D02*
X76025Y-27959D01*
X74855Y-29765D02*
X74855Y-30588D01*
X74855Y-30588D02*
X74475Y-30588D01*
X74475Y-30588D02*
X74475Y-29765D01*
X74475Y-29765D02*
X74855Y-29765D01*
X71927Y-28339D02*
X71104Y-28339D01*
X71104Y-28339D02*
X71104Y-27959D01*
X71104Y-27959D02*
X71927Y-27959D01*
X71927Y-27959D02*
X71927Y-28339D01*
X71646Y-25119D02*
X71646Y-25943D01*
X71646Y-25943D02*
X71266Y-25943D01*
X71266Y-25943D02*
X71266Y-25119D01*
X71266Y-25119D02*
X71646Y-25119D01*
X73359Y-29765D02*
X73359Y-30588D01*
X73359Y-30588D02*
X72979Y-30588D01*
X72979Y-30588D02*
X72979Y-29765D01*
X72979Y-29765D02*
X73359Y-29765D01*
X74361Y-25584D02*
X74361Y-24761D01*
X74361Y-24761D02*
X74741Y-24761D01*
X74741Y-24761D02*
X74741Y-25584D01*
X74741Y-25584D02*
X74361Y-25584D01*
X75991Y-27222D02*
X75991Y-26399D01*
X75991Y-26399D02*
X76371Y-26399D01*
X76371Y-26399D02*
X76371Y-27222D01*
X76371Y-27222D02*
X75991Y-27222D01*
X76025Y-28451D02*
X76848Y-28451D01*
X76848Y-28451D02*
X76848Y-28831D01*
X76848Y-28831D02*
X76025Y-28831D01*
X76025Y-28831D02*
X76025Y-28451D01*
X71927Y-28831D02*
X71104Y-28831D01*
X71104Y-28831D02*
X71104Y-28451D01*
X71104Y-28451D02*
X71927Y-28451D01*
X71927Y-28451D02*
X71927Y-28831D01*
X64658Y-25041D02*
X64658Y-25864D01*
X64658Y-25864D02*
X64278Y-25864D01*
X64278Y-25864D02*
X64278Y-25041D01*
X64278Y-25041D02*
X64658Y-25041D01*
X68919Y-27979D02*
X69742Y-27979D01*
X69742Y-27979D02*
X69742Y-28359D01*
X69742Y-28359D02*
X68919Y-28359D01*
X68919Y-28359D02*
X68919Y-27979D01*
X69599Y-25375D02*
X69599Y-26199D01*
X69599Y-26199D02*
X69219Y-26199D01*
X69219Y-26199D02*
X69219Y-25375D01*
X69219Y-25375D02*
X69599Y-25375D01*
X67768Y-29686D02*
X67768Y-30510D01*
X67768Y-30510D02*
X67388Y-30510D01*
X67388Y-30510D02*
X67388Y-29686D01*
X67388Y-29686D02*
X67768Y-29686D01*
X72075Y-32502D02*
X71251Y-32502D01*
X71251Y-32502D02*
X71251Y-32122D01*
X71251Y-32122D02*
X72075Y-32122D01*
X72075Y-32122D02*
X72075Y-32502D01*
X64840Y-29323D02*
X64017Y-29323D01*
X64017Y-29323D02*
X64017Y-28943D01*
X64017Y-28943D02*
X64840Y-28943D01*
X64840Y-28943D02*
X64840Y-29323D01*
X64278Y-26789D02*
X64278Y-25966D01*
X64278Y-25966D02*
X64658Y-25966D01*
X64658Y-25966D02*
X64658Y-26789D01*
X64658Y-26789D02*
X64278Y-26789D01*
X67329Y-25470D02*
X67329Y-24647D01*
X67329Y-24647D02*
X67709Y-24647D01*
X67709Y-24647D02*
X67709Y-25470D01*
X67709Y-25470D02*
X67329Y-25470D01*
X69199Y-27222D02*
X69199Y-26399D01*
X69199Y-26399D02*
X69579Y-26399D01*
X69579Y-26399D02*
X69579Y-27222D01*
X69579Y-27222D02*
X69199Y-27222D01*
X68919Y-28451D02*
X69742Y-28451D01*
X69742Y-28451D02*
X69742Y-28831D01*
X69742Y-28831D02*
X68919Y-28831D01*
X68919Y-28831D02*
X68919Y-28451D01*
X64840Y-28831D02*
X64017Y-28831D01*
X64017Y-28831D02*
X64017Y-28451D01*
X64017Y-28451D02*
X64840Y-28451D01*
X64840Y-28451D02*
X64840Y-28831D01*
X46935Y-33108D02*
X46935Y-32285D01*
X46935Y-32285D02*
X47315Y-32285D01*
X47315Y-32285D02*
X47315Y-33108D01*
X47315Y-33108D02*
X46935Y-33108D01*
X49987Y-31100D02*
X49987Y-30277D01*
X49987Y-30277D02*
X50367Y-30277D01*
X50367Y-30277D02*
X50367Y-31100D01*
X50367Y-31100D02*
X49987Y-31100D01*
X48550Y-31100D02*
X48550Y-30277D01*
X48550Y-30277D02*
X48930Y-30277D01*
X48930Y-30277D02*
X48930Y-31100D01*
X48930Y-31100D02*
X48550Y-31100D01*
X52276Y-33367D02*
X52276Y-34191D01*
X52276Y-34191D02*
X51896Y-34191D01*
X51896Y-34191D02*
X51896Y-33367D01*
X51896Y-33367D02*
X52276Y-33367D01*
X49382Y-29765D02*
X49382Y-30588D01*
X49382Y-30588D02*
X49002Y-30588D01*
X49002Y-30588D02*
X49002Y-29765D01*
X49002Y-29765D02*
X49382Y-29765D01*
X48989Y-35533D02*
X48989Y-36356D01*
X48989Y-36356D02*
X48609Y-36356D01*
X48609Y-36356D02*
X48609Y-35533D01*
X48609Y-35533D02*
X48989Y-35533D01*
X47616Y-35209D02*
X46793Y-35209D01*
X46793Y-35209D02*
X46793Y-34829D01*
X46793Y-34829D02*
X47616Y-34829D01*
X47616Y-34829D02*
X47616Y-35209D01*
X51725Y-31379D02*
X51725Y-32203D01*
X51725Y-32203D02*
X51345Y-32203D01*
X51345Y-32203D02*
X51345Y-31379D01*
X51345Y-31379D02*
X51725Y-31379D01*
X51345Y-33128D02*
X51345Y-32304D01*
X51345Y-32304D02*
X51725Y-32304D01*
X51725Y-32304D02*
X51725Y-33128D01*
X51725Y-33128D02*
X51345Y-33128D01*
X51404Y-34703D02*
X51404Y-33879D01*
X51404Y-33879D02*
X51784Y-33879D01*
X51784Y-33879D02*
X51784Y-34703D01*
X51784Y-34703D02*
X51404Y-34703D01*
X47616Y-34717D02*
X46793Y-34717D01*
X46793Y-34717D02*
X46793Y-34337D01*
X46793Y-34337D02*
X47616Y-34337D01*
X47616Y-34337D02*
X47616Y-34717D01*
X43398Y-35533D02*
X43398Y-36356D01*
X43398Y-36356D02*
X43018Y-36356D01*
X43018Y-36356D02*
X43018Y-35533D01*
X43018Y-35533D02*
X43398Y-35533D01*
X43069Y-31057D02*
X43069Y-30233D01*
X43069Y-30233D02*
X43449Y-30233D01*
X43449Y-30233D02*
X43449Y-31057D01*
X43449Y-31057D02*
X43069Y-31057D01*
X41463Y-31061D02*
X41463Y-30237D01*
X41463Y-30237D02*
X41843Y-30237D01*
X41843Y-30237D02*
X41843Y-31061D01*
X41843Y-31061D02*
X41463Y-31061D01*
X44529Y-33865D02*
X45352Y-33865D01*
X45352Y-33865D02*
X45352Y-34245D01*
X45352Y-34245D02*
X44529Y-34245D01*
X44529Y-34245D02*
X44529Y-33865D01*
X41961Y-35533D02*
X41961Y-36356D01*
X41961Y-36356D02*
X41581Y-36356D01*
X41581Y-36356D02*
X41581Y-35533D01*
X41581Y-35533D02*
X41961Y-35533D01*
X40490Y-34245D02*
X39667Y-34245D01*
X39667Y-34245D02*
X39667Y-33865D01*
X39667Y-33865D02*
X40490Y-33865D01*
X40490Y-33865D02*
X40490Y-34245D01*
X44430Y-31798D02*
X45254Y-31798D01*
X45254Y-31798D02*
X45254Y-32178D01*
X45254Y-32178D02*
X44430Y-32178D01*
X44430Y-32178D02*
X44430Y-31798D01*
X40342Y-32424D02*
X39519Y-32424D01*
X39519Y-32424D02*
X39519Y-32044D01*
X39519Y-32044D02*
X40342Y-32044D01*
X40342Y-32044D02*
X40342Y-32424D01*
X44869Y-33108D02*
X44869Y-32285D01*
X44869Y-32285D02*
X45249Y-32285D01*
X45249Y-32285D02*
X45249Y-33108D01*
X45249Y-33108D02*
X44869Y-33108D01*
X40490Y-34737D02*
X39667Y-34737D01*
X39667Y-34737D02*
X39667Y-34357D01*
X39667Y-34357D02*
X40490Y-34357D01*
X40490Y-34357D02*
X40490Y-34737D01*
X44529Y-34357D02*
X45352Y-34357D01*
X45352Y-34357D02*
X45352Y-34737D01*
X45352Y-34737D02*
X44529Y-34737D01*
X44529Y-34737D02*
X44529Y-34357D01*
X49947Y-25403D02*
X49947Y-24580D01*
X49947Y-24580D02*
X50327Y-24580D01*
X50327Y-24580D02*
X50327Y-25403D01*
X50327Y-25403D02*
X49947Y-25403D01*
X46916Y-27458D02*
X46916Y-26635D01*
X46916Y-26635D02*
X47296Y-26635D01*
X47296Y-26635D02*
X47296Y-27458D01*
X47296Y-27458D02*
X46916Y-27458D01*
X52414Y-25375D02*
X52414Y-26199D01*
X52414Y-26199D02*
X52034Y-26199D01*
X52034Y-26199D02*
X52034Y-25375D01*
X52034Y-25375D02*
X52414Y-25375D01*
X50339Y-35533D02*
X50339Y-36356D01*
X50339Y-36356D02*
X49959Y-36356D01*
X49959Y-36356D02*
X49959Y-35533D01*
X49959Y-35533D02*
X50339Y-35533D01*
X51556Y-27959D02*
X52380Y-27959D01*
X52380Y-27959D02*
X52380Y-28339D01*
X52380Y-28339D02*
X51556Y-28339D01*
X51556Y-28339D02*
X51556Y-27959D01*
X49875Y-29765D02*
X49875Y-30588D01*
X49875Y-30588D02*
X49495Y-30588D01*
X49495Y-30588D02*
X49495Y-29765D01*
X49495Y-29765D02*
X49875Y-29765D01*
X47296Y-25710D02*
X47296Y-26533D01*
X47296Y-26533D02*
X46916Y-26533D01*
X46916Y-26533D02*
X46916Y-25710D01*
X46916Y-25710D02*
X47296Y-25710D01*
X47636Y-28339D02*
X46812Y-28339D01*
X46812Y-28339D02*
X46812Y-27959D01*
X46812Y-27959D02*
X47636Y-27959D01*
X47636Y-27959D02*
X47636Y-28339D01*
X52014Y-27222D02*
X52014Y-26399D01*
X52014Y-26399D02*
X52394Y-26399D01*
X52394Y-26399D02*
X52394Y-27222D01*
X52394Y-27222D02*
X52014Y-27222D01*
X47636Y-28831D02*
X46812Y-28831D01*
X46812Y-28831D02*
X46812Y-28451D01*
X46812Y-28451D02*
X47636Y-28451D01*
X47636Y-28451D02*
X47636Y-28831D01*
X51556Y-28451D02*
X52380Y-28451D01*
X52380Y-28451D02*
X52380Y-28831D01*
X52380Y-28831D02*
X51556Y-28831D01*
X51556Y-28831D02*
X51556Y-28451D01*
X39849Y-27203D02*
X39849Y-26379D01*
X39849Y-26379D02*
X40229Y-26379D01*
X40229Y-26379D02*
X40229Y-27203D01*
X40229Y-27203D02*
X39849Y-27203D01*
X42335Y-29726D02*
X42335Y-30549D01*
X42335Y-30549D02*
X41955Y-30549D01*
X41955Y-30549D02*
X41955Y-29726D01*
X41955Y-29726D02*
X42335Y-29726D01*
X42965Y-29726D02*
X42965Y-30549D01*
X42965Y-30549D02*
X42585Y-30549D01*
X42585Y-30549D02*
X42585Y-29726D01*
X42585Y-29726D02*
X42965Y-29726D01*
X44548Y-27979D02*
X45372Y-27979D01*
X45372Y-27979D02*
X45372Y-28359D01*
X45372Y-28359D02*
X44548Y-28359D01*
X44548Y-28359D02*
X44548Y-27979D01*
X45327Y-25375D02*
X45327Y-26199D01*
X45327Y-26199D02*
X44947Y-26199D01*
X44947Y-26199D02*
X44947Y-25375D01*
X44947Y-25375D02*
X45327Y-25375D01*
X40470Y-28339D02*
X39647Y-28339D01*
X39647Y-28339D02*
X39647Y-27959D01*
X39647Y-27959D02*
X40470Y-27959D01*
X40470Y-27959D02*
X40470Y-28339D01*
X44947Y-27222D02*
X44947Y-26399D01*
X44947Y-26399D02*
X45327Y-26399D01*
X45327Y-26399D02*
X45327Y-27222D01*
X45327Y-27222D02*
X44947Y-27222D01*
X44548Y-28451D02*
X45372Y-28451D01*
X45372Y-28451D02*
X45372Y-28831D01*
X45372Y-28831D02*
X44548Y-28831D01*
X44548Y-28831D02*
X44548Y-28451D01*
X40229Y-25454D02*
X40229Y-26277D01*
X40229Y-26277D02*
X39849Y-26277D01*
X39849Y-26277D02*
X39849Y-25454D01*
X39849Y-25454D02*
X40229Y-25454D01*
X42715Y-25466D02*
X42715Y-24643D01*
X42715Y-24643D02*
X43095Y-24643D01*
X43095Y-24643D02*
X43095Y-25466D01*
X43095Y-25466D02*
X42715Y-25466D01*
X40470Y-28831D02*
X39647Y-28831D01*
X39647Y-28831D02*
X39647Y-28451D01*
X39647Y-28451D02*
X40470Y-28451D01*
X40470Y-28451D02*
X40470Y-28831D01*
X45439Y-27222D02*
X45439Y-26399D01*
X45439Y-26399D02*
X45819Y-26399D01*
X45819Y-26399D02*
X45819Y-27222D01*
X45819Y-27222D02*
X45439Y-27222D01*
X45361Y-33108D02*
X45361Y-32285D01*
X45361Y-32285D02*
X45741Y-32285D01*
X45741Y-32285D02*
X45741Y-33108D01*
X45741Y-33108D02*
X45361Y-33108D01*
X51837Y-32616D02*
X51837Y-31793D01*
X51837Y-31793D02*
X52217Y-31793D01*
X52217Y-31793D02*
X52217Y-32616D01*
X52217Y-32616D02*
X51837Y-32616D01*
X52506Y-27222D02*
X52506Y-26399D01*
X52506Y-26399D02*
X52886Y-26399D01*
X52886Y-26399D02*
X52886Y-27222D01*
X52886Y-27222D02*
X52506Y-27222D01*
X46804Y-49548D02*
X46804Y-50372D01*
X46804Y-50372D02*
X46424Y-50372D01*
X46424Y-50372D02*
X46424Y-49548D01*
X46424Y-49548D02*
X46804Y-49548D01*
X46784Y-55454D02*
X46784Y-56277D01*
X46784Y-56277D02*
X46404Y-56277D01*
X46404Y-56277D02*
X46404Y-55454D01*
X46404Y-55454D02*
X46784Y-55454D01*
X39638Y-55454D02*
X39638Y-56277D01*
X39638Y-56277D02*
X39258Y-56277D01*
X39258Y-56277D02*
X39258Y-55454D01*
X39258Y-55454D02*
X39638Y-55454D01*
X39668Y-49322D02*
X39668Y-50145D01*
X39668Y-50145D02*
X39288Y-50145D01*
X39288Y-50145D02*
X39288Y-49322D01*
X39288Y-49322D02*
X39668Y-49322D01*
X70431Y-44087D02*
X69608Y-44087D01*
X69608Y-44087D02*
X69608Y-43707D01*
X69608Y-43707D02*
X70431Y-43707D01*
X70431Y-43707D02*
X70431Y-44087D01*
X76483Y-27222D02*
X76483Y-26399D01*
X76483Y-26399D02*
X76863Y-26399D01*
X76863Y-26399D02*
X76863Y-27222D01*
X76863Y-27222D02*
X76483Y-27222D01*
X76478Y-32762D02*
X77301Y-32762D01*
X77301Y-32762D02*
X77301Y-33142D01*
X77301Y-33142D02*
X76478Y-33142D01*
X76478Y-33142D02*
X76478Y-32762D01*
X69731Y-33128D02*
X69731Y-32304D01*
X69731Y-32304D02*
X70111Y-32304D01*
X70111Y-32304D02*
X70111Y-33128D01*
X70111Y-33128D02*
X69731Y-33128D01*
X69691Y-27222D02*
X69691Y-26399D01*
X69691Y-26399D02*
X70071Y-26399D01*
X70071Y-26399D02*
X70071Y-27222D01*
X70071Y-27222D02*
X69691Y-27222D01*
X64599Y-49548D02*
X64599Y-50372D01*
X64599Y-50372D02*
X64219Y-50372D01*
X64219Y-50372D02*
X64219Y-49548D01*
X64219Y-49548D02*
X64599Y-49548D01*
X64461Y-55454D02*
X64461Y-56277D01*
X64461Y-56277D02*
X64081Y-56277D01*
X64081Y-56277D02*
X64081Y-55454D01*
X64081Y-55454D02*
X64461Y-55454D01*
X71528Y-55454D02*
X71528Y-56277D01*
X71528Y-56277D02*
X71148Y-56277D01*
X71148Y-56277D02*
X71148Y-55454D01*
X71148Y-55454D02*
X71528Y-55454D01*
X71508Y-49548D02*
X71508Y-50372D01*
X71508Y-50372D02*
X71128Y-50372D01*
X71128Y-50372D02*
X71128Y-49548D01*
X71128Y-49548D02*
X71508Y-49548D01*
X58771Y-38319D02*
X58771Y-37161D01*
X58771Y-37161D02*
X59388Y-37161D01*
X59388Y-37161D02*
X59388Y-38319D01*
X59388Y-38319D02*
X58771Y-38319D01*
X58658Y-37161D02*
X58658Y-38319D01*
X58658Y-38319D02*
X58041Y-38319D01*
X58041Y-38319D02*
X58041Y-37161D01*
X58041Y-37161D02*
X58658Y-37161D01*
X62789Y-37091D02*
X62789Y-35933D01*
X62789Y-35933D02*
X63406Y-35933D01*
X63406Y-35933D02*
X63406Y-37091D01*
X63406Y-37091D02*
X62789Y-37091D01*
X59629Y-39058D02*
X58471Y-39058D01*
X58471Y-39058D02*
X58471Y-38441D01*
X58471Y-38441D02*
X59629Y-38441D01*
X59629Y-38441D02*
X59629Y-39058D01*
X61251Y-36369D02*
X61251Y-35211D01*
X61251Y-35211D02*
X61868Y-35211D01*
X61868Y-35211D02*
X61868Y-36369D01*
X61868Y-36369D02*
X61251Y-36369D01*
X60669Y-37778D02*
X59511Y-37778D01*
X59511Y-37778D02*
X59511Y-37161D01*
X59511Y-37161D02*
X60669Y-37161D01*
X60669Y-37161D02*
X60669Y-37778D01*
X61879Y-37098D02*
X60721Y-37098D01*
X60721Y-37098D02*
X60721Y-36481D01*
X60721Y-36481D02*
X61879Y-36481D01*
X61879Y-36481D02*
X61879Y-37098D01*
X57311Y-37749D02*
X57311Y-36591D01*
X57311Y-36591D02*
X57928Y-36591D01*
X57928Y-36591D02*
X57928Y-37749D01*
X57928Y-37749D02*
X57311Y-37749D01*
X61121Y-38379D02*
X61121Y-37221D01*
X61121Y-37221D02*
X61738Y-37221D01*
X61738Y-37221D02*
X61738Y-38379D01*
X61738Y-38379D02*
X61121Y-38379D01*
X57148Y-36591D02*
X57148Y-37749D01*
X57148Y-37749D02*
X56531Y-37749D01*
X56531Y-37749D02*
X56531Y-36591D01*
X56531Y-36591D02*
X57148Y-36591D01*
X54826Y-36288D02*
X53274Y-36288D01*
X53274Y-35651D02*
X54826Y-35651D01*
X54826Y-35651D02*
X54826Y-36288D01*
X53274Y-36288D02*
X53274Y-35651D01*
X54826Y-37028D02*
X53274Y-37028D01*
X53274Y-36391D02*
X54826Y-36391D01*
X54826Y-36391D02*
X54826Y-37028D01*
X53274Y-37028D02*
X53274Y-36391D01*
X62001Y-37089D02*
X62001Y-35931D01*
X62001Y-35931D02*
X62638Y-35931D01*
X62638Y-35940D02*
X62638Y-37098D01*
X62638Y-37098D02*
X62001Y-37098D01*
X62001Y-35191D02*
X63159Y-35191D01*
X63159Y-35191D02*
X63159Y-35828D01*
X63149Y-35828D02*
X61991Y-35828D01*
X61991Y-35828D02*
X61991Y-35191D01*
X61861Y-38369D02*
X61861Y-37211D01*
X61861Y-37211D02*
X62498Y-37211D01*
X62498Y-37220D02*
X62498Y-38378D01*
X62498Y-38378D02*
X61861Y-38378D01*
X56881Y-36479D02*
X56881Y-35321D01*
X56881Y-35321D02*
X57518Y-35321D01*
X57518Y-35330D02*
X57518Y-36488D01*
X57518Y-36488D02*
X56881Y-36488D01*
X63291Y-37221D02*
X63291Y-38379D01*
X63291Y-38379D02*
X62654Y-38379D01*
X62654Y-38369D02*
X62654Y-37211D01*
X62654Y-37211D02*
X63291Y-37211D01*
X56971Y-38431D02*
X58129Y-38431D01*
X58129Y-38431D02*
X58129Y-39068D01*
X58119Y-39068D02*
X56961Y-39068D01*
X56961Y-39068D02*
X56961Y-38431D01*
X53201Y-50451D02*
X54359Y-50451D01*
X54359Y-50451D02*
X54359Y-51088D01*
X54349Y-51088D02*
X53191Y-51088D01*
X53191Y-51088D02*
X53191Y-50451D01*
X57367Y-44844D02*
X56209Y-44844D01*
X56209Y-44844D02*
X56209Y-44227D01*
X56209Y-44227D02*
X57367Y-44227D01*
X57367Y-44227D02*
X57367Y-44844D01*
X59831Y-37901D02*
X60989Y-37901D01*
X60989Y-37901D02*
X60989Y-38518D01*
X60989Y-38518D02*
X59831Y-38518D01*
X59831Y-38518D02*
X59831Y-37901D01*
X62105Y-46490D02*
X63657Y-46490D01*
X63657Y-47127D02*
X62105Y-47127D01*
X62105Y-47127D02*
X62105Y-46490D01*
X63657Y-46490D02*
X63657Y-47127D01*
X62104Y-45746D02*
X63656Y-45746D01*
X63656Y-46383D02*
X62104Y-46383D01*
X62104Y-46383D02*
X62104Y-45746D01*
X63656Y-45746D02*
X63656Y-46383D01*
M02*
