G04 (created by PCBNEW (2013-05-16 BZR 4016)-stable) date 11. 1. 2014 1:24:09*
%MOIN*%
G04 Gerber Fmt 3.4, Leading zero omitted, Abs format*
%FSLAX34Y34*%
G01*
G70*
G90*
G04 APERTURE LIST*
%ADD10C,0.00590551*%
%ADD11C,0.11811*%
%ADD12C,0.023622*%
%ADD13C,0.0314961*%
%ADD14C,0.019685*%
%ADD15C,0.011811*%
%ADD16C,0.00787402*%
G04 APERTURE END LIST*
G54D10*
X20795Y-20510D02*
X20795Y-10667D01*
X35106Y-13206D02*
X35106Y-10667D01*
X40480Y-13206D02*
X35106Y-13206D01*
X35106Y-17970D02*
X35106Y-20510D01*
X40480Y-17970D02*
X35106Y-17970D01*
X40480Y-13206D02*
X40480Y-17970D01*
X35106Y-20510D02*
X20795Y-20510D01*
G54D11*
X33236Y-11651D03*
X22566Y-19525D03*
G54D12*
X27566Y-13187D03*
X27094Y-15195D03*
X28629Y-12124D03*
X31267Y-12399D03*
X34495Y-15175D03*
X34239Y-15431D03*
X27173Y-17478D03*
X30440Y-16021D03*
X27251Y-17832D03*
X30834Y-16021D03*
X26621Y-11612D03*
X33236Y-13502D03*
X27606Y-11612D03*
X33275Y-13147D03*
X22881Y-11671D03*
X31425Y-11533D03*
X22980Y-13502D03*
X30086Y-13187D03*
X30519Y-12832D03*
X31543Y-15943D03*
X30086Y-12793D03*
X30834Y-14486D03*
X27448Y-12832D03*
X31661Y-14525D03*
X30716Y-14762D03*
X27645Y-12124D03*
X32173Y-14860D03*
X24161Y-11848D03*
X26149Y-12124D03*
X22015Y-15588D03*
X22527Y-17340D03*
X31897Y-14722D03*
X22075Y-18292D03*
X32487Y-14762D03*
X21387Y-14860D03*
X32999Y-14407D03*
X27921Y-14014D03*
X29377Y-16769D03*
X33590Y-16966D03*
G54D13*
X34574Y-17419D03*
G54D12*
X30015Y-19750D03*
X24101Y-18680D03*
X21385Y-16297D03*
X23505Y-13030D03*
X22575Y-15590D03*
X33610Y-14486D03*
X26110Y-18689D03*
X21917Y-12557D03*
X32173Y-11415D03*
X33669Y-13777D03*
X27724Y-16454D03*
X24574Y-11179D03*
X26169Y-12636D03*
X27980Y-12202D03*
X27881Y-14880D03*
G54D14*
X32684Y-17537D03*
X32684Y-18088D03*
X32251Y-18088D03*
X31818Y-18088D03*
X31818Y-17537D03*
X32251Y-17537D03*
G54D12*
X21306Y-12931D03*
X21306Y-12262D03*
G54D13*
X30845Y-19080D03*
X32505Y-19210D03*
G54D12*
X26739Y-12832D03*
X25165Y-12951D03*
G54D14*
X25401Y-15884D03*
X25834Y-15884D03*
X25834Y-15451D03*
X25834Y-15017D03*
X25401Y-15017D03*
X25401Y-15451D03*
X24968Y-15884D03*
X24958Y-15874D03*
X25391Y-16307D03*
X25824Y-16307D03*
X25824Y-16740D03*
X25391Y-16740D03*
X24958Y-16740D03*
X24958Y-16307D03*
X24535Y-15884D03*
X24102Y-15884D03*
X24102Y-16317D03*
X24102Y-16750D03*
X24535Y-16750D03*
X24535Y-16317D03*
X24968Y-15884D03*
X24968Y-15884D03*
X24535Y-15451D03*
X24102Y-15451D03*
X24102Y-15017D03*
X24535Y-15017D03*
X24968Y-15017D03*
X24968Y-15451D03*
G54D12*
X23566Y-18286D03*
X24204Y-13779D03*
X23570Y-12110D03*
X29180Y-11021D03*
X21485Y-17650D03*
X31779Y-11415D03*
X25480Y-18935D03*
X27054Y-12911D03*
X24889Y-12754D03*
G54D13*
X33649Y-18541D03*
G54D15*
X30913Y-12124D02*
X30991Y-12124D01*
X30913Y-12124D02*
X28629Y-12124D01*
X30991Y-12124D02*
X31267Y-12399D01*
X27487Y-12478D02*
X26621Y-11612D01*
X30834Y-12478D02*
X27487Y-12478D01*
X31858Y-13502D02*
X30834Y-12478D01*
X32094Y-13502D02*
X31858Y-13502D01*
X33236Y-13502D02*
X32094Y-13502D01*
X27645Y-11651D02*
X27606Y-11612D01*
X31149Y-11651D02*
X27645Y-11651D01*
X33275Y-13147D02*
X32645Y-13147D01*
X32645Y-13147D02*
X31149Y-11651D01*
X23058Y-11573D02*
X22980Y-11573D01*
X31425Y-11533D02*
X31188Y-11297D01*
X31188Y-11297D02*
X24968Y-11297D01*
X24968Y-11297D02*
X24692Y-11573D01*
X24692Y-11573D02*
X23058Y-11573D01*
X22980Y-11573D02*
X22881Y-11671D01*
X29771Y-13502D02*
X23137Y-13502D01*
X23137Y-13502D02*
X22980Y-13502D01*
X30086Y-13187D02*
X29771Y-13502D01*
X27448Y-12832D02*
X27487Y-12793D01*
X27487Y-12793D02*
X30086Y-12793D01*
X30834Y-14486D02*
X30873Y-14525D01*
X30873Y-14525D02*
X31661Y-14525D01*
X30755Y-14801D02*
X30952Y-14998D01*
X30952Y-14998D02*
X32015Y-14998D01*
X32015Y-14998D02*
X32173Y-14860D01*
X30716Y-14762D02*
X30755Y-14801D01*
X24338Y-12006D02*
X24161Y-11848D01*
X24495Y-12124D02*
X24338Y-12006D01*
X26149Y-12124D02*
X24495Y-12124D01*
X32645Y-14053D02*
X32999Y-14407D01*
X27960Y-14053D02*
X32645Y-14053D01*
X27921Y-14014D02*
X27960Y-14053D01*
X29495Y-16888D02*
X29377Y-16769D01*
X33511Y-16888D02*
X29495Y-16888D01*
X33590Y-16966D02*
X33511Y-16888D01*
X26110Y-18689D02*
X27974Y-18689D01*
X29035Y-19750D02*
X30015Y-19750D01*
X27974Y-18689D02*
X29035Y-19750D01*
X26661Y-12832D02*
X26739Y-12832D01*
X26543Y-12951D02*
X26661Y-12832D01*
X25165Y-12951D02*
X26543Y-12951D01*
X21485Y-17650D02*
X21504Y-17650D01*
X23570Y-12045D02*
X23560Y-12045D01*
G54D10*
G36*
X32645Y-13325D02*
X32094Y-13325D01*
X31931Y-13325D01*
X31242Y-12636D01*
X31314Y-12636D01*
X31401Y-12600D01*
X31467Y-12533D01*
X31503Y-12447D01*
X31503Y-12353D01*
X31467Y-12266D01*
X31401Y-12199D01*
X31314Y-12163D01*
X31281Y-12163D01*
X31117Y-11998D01*
X31059Y-11960D01*
X30991Y-11947D01*
X30913Y-11947D01*
X28786Y-11947D01*
X28763Y-11924D01*
X28676Y-11888D01*
X28582Y-11887D01*
X28496Y-11923D01*
X28429Y-11990D01*
X28393Y-12077D01*
X28393Y-12171D01*
X28429Y-12257D01*
X28472Y-12301D01*
X27802Y-12301D01*
X27845Y-12258D01*
X27881Y-12171D01*
X27881Y-12077D01*
X27845Y-11990D01*
X27779Y-11924D01*
X27692Y-11888D01*
X27598Y-11887D01*
X27511Y-11923D01*
X27445Y-11990D01*
X27409Y-12077D01*
X27409Y-12149D01*
X26858Y-11598D01*
X26858Y-11565D01*
X26822Y-11478D01*
X26818Y-11474D01*
X27409Y-11474D01*
X27405Y-11478D01*
X27369Y-11565D01*
X27369Y-11659D01*
X27405Y-11746D01*
X27472Y-11812D01*
X27558Y-11848D01*
X27652Y-11848D01*
X27700Y-11828D01*
X31076Y-11828D01*
X32520Y-13273D01*
X32577Y-13311D01*
X32645Y-13325D01*
X32645Y-13325D01*
G37*
G54D16*
X32645Y-13325D02*
X32094Y-13325D01*
X31931Y-13325D01*
X31242Y-12636D01*
X31314Y-12636D01*
X31401Y-12600D01*
X31467Y-12533D01*
X31503Y-12447D01*
X31503Y-12353D01*
X31467Y-12266D01*
X31401Y-12199D01*
X31314Y-12163D01*
X31281Y-12163D01*
X31117Y-11998D01*
X31059Y-11960D01*
X30991Y-11947D01*
X30913Y-11947D01*
X28786Y-11947D01*
X28763Y-11924D01*
X28676Y-11888D01*
X28582Y-11887D01*
X28496Y-11923D01*
X28429Y-11990D01*
X28393Y-12077D01*
X28393Y-12171D01*
X28429Y-12257D01*
X28472Y-12301D01*
X27802Y-12301D01*
X27845Y-12258D01*
X27881Y-12171D01*
X27881Y-12077D01*
X27845Y-11990D01*
X27779Y-11924D01*
X27692Y-11888D01*
X27598Y-11887D01*
X27511Y-11923D01*
X27445Y-11990D01*
X27409Y-12077D01*
X27409Y-12149D01*
X26858Y-11598D01*
X26858Y-11565D01*
X26822Y-11478D01*
X26818Y-11474D01*
X27409Y-11474D01*
X27405Y-11478D01*
X27369Y-11565D01*
X27369Y-11659D01*
X27405Y-11746D01*
X27472Y-11812D01*
X27558Y-11848D01*
X27652Y-11848D01*
X27700Y-11828D01*
X31076Y-11828D01*
X32520Y-13273D01*
X32577Y-13311D01*
X32645Y-13325D01*
G54D10*
G36*
X35007Y-17862D02*
X35001Y-17866D01*
X34969Y-17914D01*
X34958Y-17970D01*
X34958Y-20362D01*
X34850Y-20362D01*
X34850Y-17364D01*
X34808Y-17263D01*
X34732Y-17187D01*
X34732Y-15128D01*
X34696Y-15041D01*
X34629Y-14975D01*
X34543Y-14939D01*
X34449Y-14939D01*
X34362Y-14975D01*
X34295Y-15041D01*
X34259Y-15128D01*
X34259Y-15195D01*
X34193Y-15195D01*
X34106Y-15230D01*
X34039Y-15297D01*
X34003Y-15384D01*
X34003Y-15478D01*
X34039Y-15564D01*
X34105Y-15631D01*
X34192Y-15667D01*
X34286Y-15667D01*
X34373Y-15631D01*
X34440Y-15565D01*
X34476Y-15478D01*
X34476Y-15411D01*
X34542Y-15411D01*
X34629Y-15375D01*
X34696Y-15309D01*
X34732Y-15222D01*
X34732Y-15128D01*
X34732Y-17187D01*
X34730Y-17186D01*
X34629Y-17143D01*
X34520Y-17143D01*
X34418Y-17185D01*
X34341Y-17263D01*
X34299Y-17364D01*
X34298Y-17474D01*
X34340Y-17575D01*
X34418Y-17653D01*
X34519Y-17695D01*
X34629Y-17695D01*
X34730Y-17653D01*
X34808Y-17575D01*
X34850Y-17474D01*
X34850Y-17364D01*
X34850Y-20362D01*
X33944Y-20362D01*
X33944Y-11511D01*
X33837Y-11250D01*
X33637Y-11051D01*
X33377Y-10943D01*
X33095Y-10943D01*
X32835Y-11050D01*
X32635Y-11249D01*
X32527Y-11510D01*
X32527Y-11792D01*
X32634Y-12052D01*
X32834Y-12252D01*
X33094Y-12360D01*
X33376Y-12360D01*
X33636Y-12252D01*
X33836Y-12053D01*
X33944Y-11793D01*
X33944Y-11511D01*
X33944Y-20362D01*
X33925Y-20362D01*
X33925Y-18486D01*
X33883Y-18385D01*
X33826Y-18328D01*
X33826Y-16919D01*
X33790Y-16833D01*
X33724Y-16766D01*
X33637Y-16730D01*
X33588Y-16730D01*
X33588Y-16730D01*
X33579Y-16724D01*
X33511Y-16710D01*
X33236Y-16710D01*
X33236Y-14360D01*
X33200Y-14274D01*
X33133Y-14207D01*
X33046Y-14171D01*
X33014Y-14171D01*
X32770Y-13928D01*
X32713Y-13889D01*
X32645Y-13876D01*
X28117Y-13876D01*
X28055Y-13813D01*
X27968Y-13777D01*
X27874Y-13777D01*
X27787Y-13813D01*
X27720Y-13880D01*
X27684Y-13966D01*
X27684Y-14060D01*
X27720Y-14147D01*
X27787Y-14214D01*
X27873Y-14250D01*
X27967Y-14250D01*
X28015Y-14230D01*
X32572Y-14230D01*
X32763Y-14422D01*
X32763Y-14454D01*
X32799Y-14541D01*
X32865Y-14607D01*
X32952Y-14643D01*
X33046Y-14643D01*
X33133Y-14608D01*
X33199Y-14541D01*
X33235Y-14454D01*
X33236Y-14360D01*
X33236Y-16710D01*
X32724Y-16710D01*
X32724Y-14715D01*
X32688Y-14628D01*
X32621Y-14561D01*
X32535Y-14525D01*
X32441Y-14525D01*
X32354Y-14561D01*
X32287Y-14628D01*
X32279Y-14648D01*
X32220Y-14624D01*
X32126Y-14624D01*
X32114Y-14629D01*
X32097Y-14589D01*
X32031Y-14522D01*
X31944Y-14486D01*
X31897Y-14486D01*
X31897Y-14479D01*
X31861Y-14392D01*
X31795Y-14325D01*
X31708Y-14289D01*
X31614Y-14289D01*
X31527Y-14325D01*
X31504Y-14348D01*
X31030Y-14348D01*
X30968Y-14286D01*
X30881Y-14250D01*
X30787Y-14250D01*
X30700Y-14286D01*
X30634Y-14352D01*
X30598Y-14439D01*
X30598Y-14533D01*
X30605Y-14552D01*
X30582Y-14561D01*
X30516Y-14628D01*
X30480Y-14714D01*
X30480Y-14808D01*
X30515Y-14895D01*
X30582Y-14962D01*
X30669Y-14998D01*
X30701Y-14998D01*
X30827Y-15123D01*
X30827Y-15123D01*
X30884Y-15161D01*
X30952Y-15175D01*
X30952Y-15175D01*
X32015Y-15175D01*
X32043Y-15169D01*
X32072Y-15166D01*
X32077Y-15163D01*
X32083Y-15161D01*
X32107Y-15145D01*
X32132Y-15131D01*
X32172Y-15096D01*
X32219Y-15096D01*
X32306Y-15060D01*
X32373Y-14994D01*
X32381Y-14973D01*
X32440Y-14998D01*
X32534Y-14998D01*
X32621Y-14962D01*
X32688Y-14896D01*
X32724Y-14809D01*
X32724Y-14715D01*
X32724Y-16710D01*
X31779Y-16710D01*
X31779Y-15896D01*
X31743Y-15809D01*
X31677Y-15743D01*
X31590Y-15706D01*
X31496Y-15706D01*
X31409Y-15742D01*
X31342Y-15809D01*
X31306Y-15895D01*
X31306Y-15989D01*
X31342Y-16076D01*
X31409Y-16143D01*
X31495Y-16179D01*
X31589Y-16179D01*
X31676Y-16143D01*
X31743Y-16077D01*
X31779Y-15990D01*
X31779Y-15896D01*
X31779Y-16710D01*
X31070Y-16710D01*
X31070Y-15975D01*
X31034Y-15888D01*
X30968Y-15821D01*
X30881Y-15785D01*
X30787Y-15785D01*
X30700Y-15821D01*
X30637Y-15884D01*
X30574Y-15821D01*
X30487Y-15785D01*
X30393Y-15785D01*
X30307Y-15821D01*
X30240Y-15887D01*
X30204Y-15974D01*
X30204Y-16068D01*
X30240Y-16155D01*
X30306Y-16222D01*
X30393Y-16258D01*
X30487Y-16258D01*
X30574Y-16222D01*
X30637Y-16159D01*
X30700Y-16222D01*
X30787Y-16258D01*
X30881Y-16258D01*
X30968Y-16222D01*
X31034Y-16155D01*
X31070Y-16069D01*
X31070Y-15975D01*
X31070Y-16710D01*
X29608Y-16710D01*
X29578Y-16636D01*
X29511Y-16569D01*
X29424Y-16533D01*
X29330Y-16533D01*
X29244Y-16569D01*
X29177Y-16635D01*
X29141Y-16722D01*
X29141Y-16816D01*
X29177Y-16903D01*
X29243Y-16970D01*
X29330Y-17006D01*
X29363Y-17006D01*
X29370Y-17013D01*
X29428Y-17051D01*
X29428Y-17051D01*
X29495Y-17065D01*
X33375Y-17065D01*
X33389Y-17100D01*
X33456Y-17166D01*
X33543Y-17202D01*
X33637Y-17203D01*
X33723Y-17167D01*
X33790Y-17100D01*
X33826Y-17013D01*
X33826Y-16919D01*
X33826Y-18328D01*
X33805Y-18308D01*
X33704Y-18266D01*
X33594Y-18265D01*
X33493Y-18307D01*
X33415Y-18385D01*
X33373Y-18486D01*
X33373Y-18596D01*
X33415Y-18697D01*
X33493Y-18775D01*
X33594Y-18817D01*
X33704Y-18817D01*
X33805Y-18775D01*
X33882Y-18697D01*
X33925Y-18596D01*
X33925Y-18486D01*
X33925Y-20362D01*
X32780Y-20362D01*
X32780Y-19155D01*
X32738Y-19054D01*
X32661Y-18976D01*
X32560Y-18934D01*
X32450Y-18934D01*
X32349Y-18976D01*
X32271Y-19053D01*
X32229Y-19154D01*
X32229Y-19264D01*
X32271Y-19365D01*
X32348Y-19443D01*
X32449Y-19485D01*
X32559Y-19485D01*
X32660Y-19443D01*
X32738Y-19366D01*
X32780Y-19265D01*
X32780Y-19155D01*
X32780Y-20362D01*
X31120Y-20362D01*
X31120Y-19025D01*
X31078Y-18924D01*
X31001Y-18846D01*
X30900Y-18804D01*
X30790Y-18804D01*
X30689Y-18846D01*
X30611Y-18923D01*
X30569Y-19024D01*
X30569Y-19134D01*
X30611Y-19235D01*
X30688Y-19313D01*
X30789Y-19355D01*
X30899Y-19355D01*
X31000Y-19313D01*
X31078Y-19236D01*
X31120Y-19135D01*
X31120Y-19025D01*
X31120Y-20362D01*
X27488Y-20362D01*
X27488Y-17786D01*
X27452Y-17699D01*
X27385Y-17632D01*
X27362Y-17623D01*
X27373Y-17612D01*
X27409Y-17525D01*
X27409Y-17431D01*
X27373Y-17344D01*
X27330Y-17302D01*
X27330Y-15148D01*
X27294Y-15061D01*
X27228Y-14994D01*
X27141Y-14958D01*
X27047Y-14958D01*
X26960Y-14994D01*
X26894Y-15061D01*
X26858Y-15147D01*
X26858Y-15241D01*
X26893Y-15328D01*
X26960Y-15395D01*
X27047Y-15431D01*
X27141Y-15431D01*
X27227Y-15395D01*
X27294Y-15329D01*
X27330Y-15242D01*
X27330Y-15148D01*
X27330Y-17302D01*
X27307Y-17278D01*
X27220Y-17242D01*
X27126Y-17242D01*
X27039Y-17278D01*
X26972Y-17344D01*
X26936Y-17431D01*
X26936Y-17525D01*
X26972Y-17612D01*
X27039Y-17678D01*
X27062Y-17688D01*
X27051Y-17698D01*
X27015Y-17785D01*
X27015Y-17879D01*
X27051Y-17966D01*
X27117Y-18033D01*
X27204Y-18069D01*
X27298Y-18069D01*
X27385Y-18033D01*
X27451Y-17966D01*
X27487Y-17880D01*
X27488Y-17786D01*
X27488Y-20362D01*
X26051Y-20362D01*
X26051Y-15841D01*
X26018Y-15761D01*
X25957Y-15700D01*
X25877Y-15667D01*
X25877Y-15667D01*
X25956Y-15634D01*
X26017Y-15573D01*
X26050Y-15494D01*
X26051Y-15408D01*
X26018Y-15328D01*
X25957Y-15267D01*
X25877Y-15234D01*
X25877Y-15234D01*
X25956Y-15201D01*
X26017Y-15140D01*
X26050Y-15061D01*
X26051Y-14975D01*
X26018Y-14895D01*
X25957Y-14834D01*
X25877Y-14801D01*
X25791Y-14801D01*
X25711Y-14834D01*
X25650Y-14895D01*
X25617Y-14974D01*
X25617Y-14975D01*
X25585Y-14895D01*
X25524Y-14834D01*
X25444Y-14801D01*
X25358Y-14801D01*
X25278Y-14834D01*
X25217Y-14895D01*
X25184Y-14974D01*
X25184Y-14975D01*
X25151Y-14895D01*
X25091Y-14834D01*
X25011Y-14801D01*
X24925Y-14801D01*
X24845Y-14834D01*
X24784Y-14895D01*
X24751Y-14974D01*
X24751Y-14975D01*
X24718Y-14895D01*
X24658Y-14834D01*
X24578Y-14801D01*
X24492Y-14801D01*
X24412Y-14834D01*
X24351Y-14895D01*
X24318Y-14974D01*
X24318Y-14975D01*
X24285Y-14895D01*
X24224Y-14834D01*
X24145Y-14801D01*
X24059Y-14801D01*
X23979Y-14834D01*
X23918Y-14895D01*
X23885Y-14974D01*
X23885Y-15060D01*
X23918Y-15140D01*
X23979Y-15201D01*
X24058Y-15234D01*
X24145Y-15234D01*
X24059Y-15234D01*
X23979Y-15267D01*
X23918Y-15328D01*
X23885Y-15407D01*
X23885Y-15493D01*
X23918Y-15573D01*
X23979Y-15634D01*
X24058Y-15667D01*
X24145Y-15667D01*
X24059Y-15667D01*
X23979Y-15700D01*
X23918Y-15761D01*
X23885Y-15840D01*
X23885Y-15926D01*
X23918Y-16006D01*
X23979Y-16067D01*
X24058Y-16100D01*
X24145Y-16100D01*
X24059Y-16100D01*
X23979Y-16133D01*
X23918Y-16194D01*
X23885Y-16273D01*
X23885Y-16360D01*
X23918Y-16439D01*
X23979Y-16500D01*
X24058Y-16533D01*
X24145Y-16533D01*
X24059Y-16533D01*
X23979Y-16566D01*
X23918Y-16627D01*
X23885Y-16706D01*
X23885Y-16793D01*
X23918Y-16872D01*
X23979Y-16933D01*
X24058Y-16966D01*
X24145Y-16966D01*
X24224Y-16933D01*
X24285Y-16873D01*
X24318Y-16793D01*
X24318Y-16707D01*
X24318Y-16793D01*
X24351Y-16872D01*
X24412Y-16933D01*
X24491Y-16966D01*
X24578Y-16966D01*
X24657Y-16933D01*
X24718Y-16873D01*
X24748Y-16800D01*
X24774Y-16862D01*
X24835Y-16923D01*
X24915Y-16956D01*
X25001Y-16956D01*
X25080Y-16924D01*
X25141Y-16863D01*
X25174Y-16783D01*
X25175Y-16697D01*
X25174Y-16783D01*
X25207Y-16862D01*
X25268Y-16923D01*
X25348Y-16956D01*
X25434Y-16956D01*
X25514Y-16924D01*
X25574Y-16863D01*
X25608Y-16783D01*
X25608Y-16697D01*
X25608Y-16783D01*
X25640Y-16862D01*
X25701Y-16923D01*
X25781Y-16956D01*
X25867Y-16956D01*
X25947Y-16924D01*
X26008Y-16863D01*
X26041Y-16783D01*
X26041Y-16697D01*
X26008Y-16617D01*
X25947Y-16556D01*
X25867Y-16523D01*
X25867Y-16523D01*
X25947Y-16490D01*
X26008Y-16430D01*
X26041Y-16350D01*
X26041Y-16264D01*
X26008Y-16184D01*
X25947Y-16123D01*
X25884Y-16097D01*
X25956Y-16067D01*
X26017Y-16006D01*
X26050Y-15927D01*
X26051Y-15841D01*
X26051Y-20362D01*
X25716Y-20362D01*
X25716Y-18888D01*
X25680Y-18801D01*
X25614Y-18735D01*
X25527Y-18699D01*
X25433Y-18699D01*
X25346Y-18734D01*
X25279Y-18801D01*
X25243Y-18888D01*
X25243Y-18982D01*
X25279Y-19068D01*
X25346Y-19135D01*
X25432Y-19171D01*
X25526Y-19171D01*
X25613Y-19135D01*
X25680Y-19069D01*
X25716Y-18982D01*
X25716Y-18888D01*
X25716Y-20362D01*
X23802Y-20362D01*
X23802Y-18239D01*
X23766Y-18152D01*
X23699Y-18085D01*
X23613Y-18049D01*
X23519Y-18049D01*
X23432Y-18085D01*
X23365Y-18152D01*
X23329Y-18238D01*
X23329Y-18332D01*
X23365Y-18419D01*
X23432Y-18486D01*
X23518Y-18522D01*
X23612Y-18522D01*
X23699Y-18486D01*
X23766Y-18419D01*
X23802Y-18333D01*
X23802Y-18239D01*
X23802Y-20362D01*
X23275Y-20362D01*
X23275Y-19385D01*
X23167Y-19124D01*
X22968Y-18925D01*
X22763Y-18840D01*
X22763Y-17294D01*
X22727Y-17207D01*
X22661Y-17140D01*
X22574Y-17104D01*
X22480Y-17104D01*
X22393Y-17140D01*
X22327Y-17206D01*
X22291Y-17293D01*
X22291Y-17387D01*
X22326Y-17474D01*
X22393Y-17540D01*
X22480Y-17576D01*
X22574Y-17577D01*
X22660Y-17541D01*
X22727Y-17474D01*
X22763Y-17387D01*
X22763Y-17294D01*
X22763Y-18840D01*
X22708Y-18817D01*
X22426Y-18817D01*
X22311Y-18864D01*
X22311Y-18245D01*
X22275Y-18158D01*
X22251Y-18134D01*
X22251Y-15542D01*
X22215Y-15455D01*
X22149Y-15388D01*
X22062Y-15352D01*
X21968Y-15352D01*
X21881Y-15388D01*
X21815Y-15454D01*
X21779Y-15541D01*
X21779Y-15635D01*
X21815Y-15722D01*
X21881Y-15788D01*
X21968Y-15824D01*
X22062Y-15825D01*
X22149Y-15789D01*
X22215Y-15722D01*
X22251Y-15636D01*
X22251Y-15542D01*
X22251Y-18134D01*
X22208Y-18091D01*
X22122Y-18055D01*
X22028Y-18055D01*
X21941Y-18091D01*
X21874Y-18158D01*
X21838Y-18244D01*
X21838Y-18338D01*
X21874Y-18425D01*
X21941Y-18492D01*
X22027Y-18528D01*
X22121Y-18528D01*
X22208Y-18492D01*
X22275Y-18425D01*
X22311Y-18339D01*
X22311Y-18245D01*
X22311Y-18864D01*
X22165Y-18924D01*
X21966Y-19123D01*
X21858Y-19384D01*
X21857Y-19666D01*
X21965Y-19926D01*
X22164Y-20126D01*
X22425Y-20234D01*
X22707Y-20234D01*
X22967Y-20126D01*
X23167Y-19927D01*
X23275Y-19667D01*
X23275Y-19385D01*
X23275Y-20362D01*
X21721Y-20362D01*
X21721Y-17603D01*
X21685Y-17516D01*
X21623Y-17454D01*
X21623Y-14813D01*
X21587Y-14726D01*
X21543Y-14682D01*
X21543Y-12884D01*
X21543Y-12215D01*
X21507Y-12128D01*
X21440Y-12061D01*
X21354Y-12025D01*
X21260Y-12025D01*
X21173Y-12061D01*
X21106Y-12128D01*
X21070Y-12214D01*
X21070Y-12308D01*
X21106Y-12395D01*
X21172Y-12462D01*
X21259Y-12498D01*
X21353Y-12498D01*
X21440Y-12462D01*
X21507Y-12396D01*
X21543Y-12309D01*
X21543Y-12215D01*
X21543Y-12884D01*
X21507Y-12797D01*
X21440Y-12731D01*
X21354Y-12695D01*
X21260Y-12695D01*
X21173Y-12730D01*
X21106Y-12797D01*
X21070Y-12884D01*
X21070Y-12978D01*
X21106Y-13064D01*
X21172Y-13131D01*
X21259Y-13167D01*
X21353Y-13167D01*
X21440Y-13131D01*
X21507Y-13065D01*
X21543Y-12978D01*
X21543Y-12884D01*
X21543Y-14682D01*
X21520Y-14659D01*
X21434Y-14623D01*
X21340Y-14623D01*
X21253Y-14659D01*
X21186Y-14726D01*
X21150Y-14812D01*
X21150Y-14906D01*
X21186Y-14993D01*
X21253Y-15060D01*
X21339Y-15096D01*
X21433Y-15096D01*
X21520Y-15060D01*
X21587Y-14993D01*
X21623Y-14907D01*
X21623Y-14813D01*
X21623Y-17454D01*
X21618Y-17449D01*
X21532Y-17413D01*
X21438Y-17413D01*
X21351Y-17449D01*
X21284Y-17516D01*
X21248Y-17602D01*
X21248Y-17696D01*
X21284Y-17783D01*
X21351Y-17850D01*
X21437Y-17886D01*
X21531Y-17886D01*
X21618Y-17850D01*
X21685Y-17783D01*
X21721Y-17697D01*
X21721Y-17603D01*
X21721Y-20362D01*
X20942Y-20362D01*
X20942Y-10785D01*
X29134Y-10785D01*
X29047Y-10821D01*
X28980Y-10887D01*
X28944Y-10974D01*
X28944Y-11068D01*
X28965Y-11120D01*
X24968Y-11120D01*
X24900Y-11133D01*
X24843Y-11172D01*
X24619Y-11395D01*
X23058Y-11395D01*
X22980Y-11395D01*
X22912Y-11409D01*
X22873Y-11435D01*
X22834Y-11435D01*
X22748Y-11471D01*
X22681Y-11537D01*
X22645Y-11624D01*
X22645Y-11718D01*
X22681Y-11805D01*
X22747Y-11871D01*
X22834Y-11907D01*
X22928Y-11907D01*
X23015Y-11871D01*
X23081Y-11805D01*
X23104Y-11750D01*
X23946Y-11750D01*
X23925Y-11801D01*
X23924Y-11895D01*
X23960Y-11982D01*
X24027Y-12048D01*
X24114Y-12084D01*
X24160Y-12084D01*
X24220Y-12138D01*
X24226Y-12142D01*
X24232Y-12147D01*
X24389Y-12266D01*
X24410Y-12275D01*
X24428Y-12287D01*
X24440Y-12290D01*
X24451Y-12295D01*
X24474Y-12297D01*
X24495Y-12301D01*
X25992Y-12301D01*
X26015Y-12324D01*
X26102Y-12360D01*
X26196Y-12360D01*
X26283Y-12324D01*
X26349Y-12258D01*
X26385Y-12171D01*
X26385Y-12077D01*
X26349Y-11990D01*
X26283Y-11924D01*
X26196Y-11888D01*
X26102Y-11887D01*
X26015Y-11923D01*
X25992Y-11947D01*
X24554Y-11947D01*
X24451Y-11869D01*
X24397Y-11821D01*
X24397Y-11801D01*
X24376Y-11750D01*
X24692Y-11750D01*
X24760Y-11736D01*
X24760Y-11736D01*
X24817Y-11698D01*
X25041Y-11474D01*
X26425Y-11474D01*
X26421Y-11478D01*
X26385Y-11565D01*
X26385Y-11659D01*
X26421Y-11746D01*
X26487Y-11812D01*
X26574Y-11848D01*
X26607Y-11848D01*
X27362Y-12603D01*
X27362Y-12603D01*
X27371Y-12609D01*
X27314Y-12632D01*
X27248Y-12698D01*
X27227Y-12749D01*
X27188Y-12711D01*
X27102Y-12675D01*
X27008Y-12675D01*
X26941Y-12702D01*
X26940Y-12699D01*
X26873Y-12632D01*
X26787Y-12596D01*
X26693Y-12596D01*
X26606Y-12632D01*
X26539Y-12698D01*
X26536Y-12707D01*
X26535Y-12707D01*
X26469Y-12773D01*
X25322Y-12773D01*
X25299Y-12750D01*
X25212Y-12714D01*
X25125Y-12714D01*
X25125Y-12707D01*
X25089Y-12620D01*
X25023Y-12554D01*
X24936Y-12517D01*
X24842Y-12517D01*
X24755Y-12553D01*
X24689Y-12620D01*
X24653Y-12706D01*
X24653Y-12800D01*
X24689Y-12887D01*
X24755Y-12954D01*
X24842Y-12990D01*
X24928Y-12990D01*
X24928Y-12997D01*
X24964Y-13084D01*
X25031Y-13151D01*
X25117Y-13187D01*
X25211Y-13187D01*
X25298Y-13151D01*
X25322Y-13128D01*
X26543Y-13128D01*
X26610Y-13114D01*
X26610Y-13114D01*
X26668Y-13076D01*
X26680Y-13064D01*
X26692Y-13069D01*
X26786Y-13069D01*
X26853Y-13041D01*
X26854Y-13045D01*
X26920Y-13111D01*
X27007Y-13147D01*
X27101Y-13147D01*
X27188Y-13112D01*
X27255Y-13045D01*
X27276Y-12994D01*
X27314Y-13033D01*
X27366Y-13054D01*
X27330Y-13140D01*
X27330Y-13234D01*
X27366Y-13320D01*
X27370Y-13325D01*
X23806Y-13325D01*
X23806Y-12063D01*
X23771Y-11976D01*
X23704Y-11909D01*
X23640Y-11883D01*
X23638Y-11881D01*
X23635Y-11881D01*
X23617Y-11873D01*
X23598Y-11873D01*
X23570Y-11868D01*
X23560Y-11868D01*
X23533Y-11873D01*
X23523Y-11873D01*
X23514Y-11877D01*
X23493Y-11881D01*
X23474Y-11894D01*
X23437Y-11909D01*
X23370Y-11976D01*
X23334Y-12062D01*
X23334Y-12156D01*
X23370Y-12243D01*
X23436Y-12310D01*
X23523Y-12346D01*
X23617Y-12346D01*
X23704Y-12310D01*
X23770Y-12243D01*
X23806Y-12157D01*
X23806Y-12063D01*
X23806Y-13325D01*
X23137Y-13325D01*
X23137Y-13325D01*
X23114Y-13302D01*
X23027Y-13266D01*
X22933Y-13265D01*
X22846Y-13301D01*
X22779Y-13368D01*
X22743Y-13455D01*
X22743Y-13548D01*
X22779Y-13635D01*
X22846Y-13702D01*
X22932Y-13738D01*
X23026Y-13738D01*
X23113Y-13702D01*
X23137Y-13679D01*
X23137Y-13679D01*
X23989Y-13679D01*
X23967Y-13731D01*
X23967Y-13825D01*
X24003Y-13912D01*
X24070Y-13979D01*
X24156Y-14015D01*
X24250Y-14015D01*
X24337Y-13979D01*
X24404Y-13912D01*
X24440Y-13826D01*
X24440Y-13732D01*
X24418Y-13679D01*
X29771Y-13679D01*
X29839Y-13665D01*
X29896Y-13627D01*
X29897Y-13627D01*
X30100Y-13423D01*
X30133Y-13423D01*
X30220Y-13387D01*
X30286Y-13321D01*
X30322Y-13234D01*
X30322Y-13140D01*
X30286Y-13053D01*
X30223Y-12990D01*
X30286Y-12927D01*
X30294Y-12907D01*
X30319Y-12966D01*
X30385Y-13033D01*
X30472Y-13069D01*
X30566Y-13069D01*
X30653Y-13033D01*
X30719Y-12966D01*
X30755Y-12880D01*
X30755Y-12786D01*
X30719Y-12699D01*
X30676Y-12655D01*
X30761Y-12655D01*
X31732Y-13627D01*
X31790Y-13665D01*
X31858Y-13679D01*
X32094Y-13679D01*
X33079Y-13679D01*
X33102Y-13702D01*
X33188Y-13738D01*
X33282Y-13738D01*
X33369Y-13702D01*
X33436Y-13636D01*
X33472Y-13549D01*
X33472Y-13455D01*
X33436Y-13368D01*
X33412Y-13344D01*
X33475Y-13281D01*
X33511Y-13195D01*
X33511Y-13101D01*
X33475Y-13014D01*
X33409Y-12947D01*
X33322Y-12911D01*
X33228Y-12911D01*
X33141Y-12947D01*
X33118Y-12970D01*
X32718Y-12970D01*
X31504Y-11756D01*
X31558Y-11734D01*
X31625Y-11667D01*
X31646Y-11616D01*
X31732Y-11651D01*
X31826Y-11651D01*
X31912Y-11615D01*
X31979Y-11549D01*
X32015Y-11462D01*
X32015Y-11368D01*
X31979Y-11281D01*
X31913Y-11215D01*
X31826Y-11179D01*
X31732Y-11179D01*
X31645Y-11215D01*
X31579Y-11281D01*
X31557Y-11333D01*
X31472Y-11297D01*
X31439Y-11297D01*
X31314Y-11172D01*
X31256Y-11133D01*
X31188Y-11120D01*
X29395Y-11120D01*
X29417Y-11069D01*
X29417Y-10975D01*
X29381Y-10888D01*
X29314Y-10821D01*
X29228Y-10785D01*
X29181Y-10785D01*
X34958Y-10785D01*
X34958Y-13206D01*
X34969Y-13263D01*
X35001Y-13311D01*
X35007Y-13315D01*
X35007Y-17862D01*
X35007Y-17862D01*
G37*
G54D16*
X35007Y-17862D02*
X35001Y-17866D01*
X34969Y-17914D01*
X34958Y-17970D01*
X34958Y-20362D01*
X34850Y-20362D01*
X34850Y-17364D01*
X34808Y-17263D01*
X34732Y-17187D01*
X34732Y-15128D01*
X34696Y-15041D01*
X34629Y-14975D01*
X34543Y-14939D01*
X34449Y-14939D01*
X34362Y-14975D01*
X34295Y-15041D01*
X34259Y-15128D01*
X34259Y-15195D01*
X34193Y-15195D01*
X34106Y-15230D01*
X34039Y-15297D01*
X34003Y-15384D01*
X34003Y-15478D01*
X34039Y-15564D01*
X34105Y-15631D01*
X34192Y-15667D01*
X34286Y-15667D01*
X34373Y-15631D01*
X34440Y-15565D01*
X34476Y-15478D01*
X34476Y-15411D01*
X34542Y-15411D01*
X34629Y-15375D01*
X34696Y-15309D01*
X34732Y-15222D01*
X34732Y-15128D01*
X34732Y-17187D01*
X34730Y-17186D01*
X34629Y-17143D01*
X34520Y-17143D01*
X34418Y-17185D01*
X34341Y-17263D01*
X34299Y-17364D01*
X34298Y-17474D01*
X34340Y-17575D01*
X34418Y-17653D01*
X34519Y-17695D01*
X34629Y-17695D01*
X34730Y-17653D01*
X34808Y-17575D01*
X34850Y-17474D01*
X34850Y-17364D01*
X34850Y-20362D01*
X33944Y-20362D01*
X33944Y-11511D01*
X33837Y-11250D01*
X33637Y-11051D01*
X33377Y-10943D01*
X33095Y-10943D01*
X32835Y-11050D01*
X32635Y-11249D01*
X32527Y-11510D01*
X32527Y-11792D01*
X32634Y-12052D01*
X32834Y-12252D01*
X33094Y-12360D01*
X33376Y-12360D01*
X33636Y-12252D01*
X33836Y-12053D01*
X33944Y-11793D01*
X33944Y-11511D01*
X33944Y-20362D01*
X33925Y-20362D01*
X33925Y-18486D01*
X33883Y-18385D01*
X33826Y-18328D01*
X33826Y-16919D01*
X33790Y-16833D01*
X33724Y-16766D01*
X33637Y-16730D01*
X33588Y-16730D01*
X33588Y-16730D01*
X33579Y-16724D01*
X33511Y-16710D01*
X33236Y-16710D01*
X33236Y-14360D01*
X33200Y-14274D01*
X33133Y-14207D01*
X33046Y-14171D01*
X33014Y-14171D01*
X32770Y-13928D01*
X32713Y-13889D01*
X32645Y-13876D01*
X28117Y-13876D01*
X28055Y-13813D01*
X27968Y-13777D01*
X27874Y-13777D01*
X27787Y-13813D01*
X27720Y-13880D01*
X27684Y-13966D01*
X27684Y-14060D01*
X27720Y-14147D01*
X27787Y-14214D01*
X27873Y-14250D01*
X27967Y-14250D01*
X28015Y-14230D01*
X32572Y-14230D01*
X32763Y-14422D01*
X32763Y-14454D01*
X32799Y-14541D01*
X32865Y-14607D01*
X32952Y-14643D01*
X33046Y-14643D01*
X33133Y-14608D01*
X33199Y-14541D01*
X33235Y-14454D01*
X33236Y-14360D01*
X33236Y-16710D01*
X32724Y-16710D01*
X32724Y-14715D01*
X32688Y-14628D01*
X32621Y-14561D01*
X32535Y-14525D01*
X32441Y-14525D01*
X32354Y-14561D01*
X32287Y-14628D01*
X32279Y-14648D01*
X32220Y-14624D01*
X32126Y-14624D01*
X32114Y-14629D01*
X32097Y-14589D01*
X32031Y-14522D01*
X31944Y-14486D01*
X31897Y-14486D01*
X31897Y-14479D01*
X31861Y-14392D01*
X31795Y-14325D01*
X31708Y-14289D01*
X31614Y-14289D01*
X31527Y-14325D01*
X31504Y-14348D01*
X31030Y-14348D01*
X30968Y-14286D01*
X30881Y-14250D01*
X30787Y-14250D01*
X30700Y-14286D01*
X30634Y-14352D01*
X30598Y-14439D01*
X30598Y-14533D01*
X30605Y-14552D01*
X30582Y-14561D01*
X30516Y-14628D01*
X30480Y-14714D01*
X30480Y-14808D01*
X30515Y-14895D01*
X30582Y-14962D01*
X30669Y-14998D01*
X30701Y-14998D01*
X30827Y-15123D01*
X30827Y-15123D01*
X30884Y-15161D01*
X30952Y-15175D01*
X30952Y-15175D01*
X32015Y-15175D01*
X32043Y-15169D01*
X32072Y-15166D01*
X32077Y-15163D01*
X32083Y-15161D01*
X32107Y-15145D01*
X32132Y-15131D01*
X32172Y-15096D01*
X32219Y-15096D01*
X32306Y-15060D01*
X32373Y-14994D01*
X32381Y-14973D01*
X32440Y-14998D01*
X32534Y-14998D01*
X32621Y-14962D01*
X32688Y-14896D01*
X32724Y-14809D01*
X32724Y-14715D01*
X32724Y-16710D01*
X31779Y-16710D01*
X31779Y-15896D01*
X31743Y-15809D01*
X31677Y-15743D01*
X31590Y-15706D01*
X31496Y-15706D01*
X31409Y-15742D01*
X31342Y-15809D01*
X31306Y-15895D01*
X31306Y-15989D01*
X31342Y-16076D01*
X31409Y-16143D01*
X31495Y-16179D01*
X31589Y-16179D01*
X31676Y-16143D01*
X31743Y-16077D01*
X31779Y-15990D01*
X31779Y-15896D01*
X31779Y-16710D01*
X31070Y-16710D01*
X31070Y-15975D01*
X31034Y-15888D01*
X30968Y-15821D01*
X30881Y-15785D01*
X30787Y-15785D01*
X30700Y-15821D01*
X30637Y-15884D01*
X30574Y-15821D01*
X30487Y-15785D01*
X30393Y-15785D01*
X30307Y-15821D01*
X30240Y-15887D01*
X30204Y-15974D01*
X30204Y-16068D01*
X30240Y-16155D01*
X30306Y-16222D01*
X30393Y-16258D01*
X30487Y-16258D01*
X30574Y-16222D01*
X30637Y-16159D01*
X30700Y-16222D01*
X30787Y-16258D01*
X30881Y-16258D01*
X30968Y-16222D01*
X31034Y-16155D01*
X31070Y-16069D01*
X31070Y-15975D01*
X31070Y-16710D01*
X29608Y-16710D01*
X29578Y-16636D01*
X29511Y-16569D01*
X29424Y-16533D01*
X29330Y-16533D01*
X29244Y-16569D01*
X29177Y-16635D01*
X29141Y-16722D01*
X29141Y-16816D01*
X29177Y-16903D01*
X29243Y-16970D01*
X29330Y-17006D01*
X29363Y-17006D01*
X29370Y-17013D01*
X29428Y-17051D01*
X29428Y-17051D01*
X29495Y-17065D01*
X33375Y-17065D01*
X33389Y-17100D01*
X33456Y-17166D01*
X33543Y-17202D01*
X33637Y-17203D01*
X33723Y-17167D01*
X33790Y-17100D01*
X33826Y-17013D01*
X33826Y-16919D01*
X33826Y-18328D01*
X33805Y-18308D01*
X33704Y-18266D01*
X33594Y-18265D01*
X33493Y-18307D01*
X33415Y-18385D01*
X33373Y-18486D01*
X33373Y-18596D01*
X33415Y-18697D01*
X33493Y-18775D01*
X33594Y-18817D01*
X33704Y-18817D01*
X33805Y-18775D01*
X33882Y-18697D01*
X33925Y-18596D01*
X33925Y-18486D01*
X33925Y-20362D01*
X32780Y-20362D01*
X32780Y-19155D01*
X32738Y-19054D01*
X32661Y-18976D01*
X32560Y-18934D01*
X32450Y-18934D01*
X32349Y-18976D01*
X32271Y-19053D01*
X32229Y-19154D01*
X32229Y-19264D01*
X32271Y-19365D01*
X32348Y-19443D01*
X32449Y-19485D01*
X32559Y-19485D01*
X32660Y-19443D01*
X32738Y-19366D01*
X32780Y-19265D01*
X32780Y-19155D01*
X32780Y-20362D01*
X31120Y-20362D01*
X31120Y-19025D01*
X31078Y-18924D01*
X31001Y-18846D01*
X30900Y-18804D01*
X30790Y-18804D01*
X30689Y-18846D01*
X30611Y-18923D01*
X30569Y-19024D01*
X30569Y-19134D01*
X30611Y-19235D01*
X30688Y-19313D01*
X30789Y-19355D01*
X30899Y-19355D01*
X31000Y-19313D01*
X31078Y-19236D01*
X31120Y-19135D01*
X31120Y-19025D01*
X31120Y-20362D01*
X27488Y-20362D01*
X27488Y-17786D01*
X27452Y-17699D01*
X27385Y-17632D01*
X27362Y-17623D01*
X27373Y-17612D01*
X27409Y-17525D01*
X27409Y-17431D01*
X27373Y-17344D01*
X27330Y-17302D01*
X27330Y-15148D01*
X27294Y-15061D01*
X27228Y-14994D01*
X27141Y-14958D01*
X27047Y-14958D01*
X26960Y-14994D01*
X26894Y-15061D01*
X26858Y-15147D01*
X26858Y-15241D01*
X26893Y-15328D01*
X26960Y-15395D01*
X27047Y-15431D01*
X27141Y-15431D01*
X27227Y-15395D01*
X27294Y-15329D01*
X27330Y-15242D01*
X27330Y-15148D01*
X27330Y-17302D01*
X27307Y-17278D01*
X27220Y-17242D01*
X27126Y-17242D01*
X27039Y-17278D01*
X26972Y-17344D01*
X26936Y-17431D01*
X26936Y-17525D01*
X26972Y-17612D01*
X27039Y-17678D01*
X27062Y-17688D01*
X27051Y-17698D01*
X27015Y-17785D01*
X27015Y-17879D01*
X27051Y-17966D01*
X27117Y-18033D01*
X27204Y-18069D01*
X27298Y-18069D01*
X27385Y-18033D01*
X27451Y-17966D01*
X27487Y-17880D01*
X27488Y-17786D01*
X27488Y-20362D01*
X26051Y-20362D01*
X26051Y-15841D01*
X26018Y-15761D01*
X25957Y-15700D01*
X25877Y-15667D01*
X25877Y-15667D01*
X25956Y-15634D01*
X26017Y-15573D01*
X26050Y-15494D01*
X26051Y-15408D01*
X26018Y-15328D01*
X25957Y-15267D01*
X25877Y-15234D01*
X25877Y-15234D01*
X25956Y-15201D01*
X26017Y-15140D01*
X26050Y-15061D01*
X26051Y-14975D01*
X26018Y-14895D01*
X25957Y-14834D01*
X25877Y-14801D01*
X25791Y-14801D01*
X25711Y-14834D01*
X25650Y-14895D01*
X25617Y-14974D01*
X25617Y-14975D01*
X25585Y-14895D01*
X25524Y-14834D01*
X25444Y-14801D01*
X25358Y-14801D01*
X25278Y-14834D01*
X25217Y-14895D01*
X25184Y-14974D01*
X25184Y-14975D01*
X25151Y-14895D01*
X25091Y-14834D01*
X25011Y-14801D01*
X24925Y-14801D01*
X24845Y-14834D01*
X24784Y-14895D01*
X24751Y-14974D01*
X24751Y-14975D01*
X24718Y-14895D01*
X24658Y-14834D01*
X24578Y-14801D01*
X24492Y-14801D01*
X24412Y-14834D01*
X24351Y-14895D01*
X24318Y-14974D01*
X24318Y-14975D01*
X24285Y-14895D01*
X24224Y-14834D01*
X24145Y-14801D01*
X24059Y-14801D01*
X23979Y-14834D01*
X23918Y-14895D01*
X23885Y-14974D01*
X23885Y-15060D01*
X23918Y-15140D01*
X23979Y-15201D01*
X24058Y-15234D01*
X24145Y-15234D01*
X24059Y-15234D01*
X23979Y-15267D01*
X23918Y-15328D01*
X23885Y-15407D01*
X23885Y-15493D01*
X23918Y-15573D01*
X23979Y-15634D01*
X24058Y-15667D01*
X24145Y-15667D01*
X24059Y-15667D01*
X23979Y-15700D01*
X23918Y-15761D01*
X23885Y-15840D01*
X23885Y-15926D01*
X23918Y-16006D01*
X23979Y-16067D01*
X24058Y-16100D01*
X24145Y-16100D01*
X24059Y-16100D01*
X23979Y-16133D01*
X23918Y-16194D01*
X23885Y-16273D01*
X23885Y-16360D01*
X23918Y-16439D01*
X23979Y-16500D01*
X24058Y-16533D01*
X24145Y-16533D01*
X24059Y-16533D01*
X23979Y-16566D01*
X23918Y-16627D01*
X23885Y-16706D01*
X23885Y-16793D01*
X23918Y-16872D01*
X23979Y-16933D01*
X24058Y-16966D01*
X24145Y-16966D01*
X24224Y-16933D01*
X24285Y-16873D01*
X24318Y-16793D01*
X24318Y-16707D01*
X24318Y-16793D01*
X24351Y-16872D01*
X24412Y-16933D01*
X24491Y-16966D01*
X24578Y-16966D01*
X24657Y-16933D01*
X24718Y-16873D01*
X24748Y-16800D01*
X24774Y-16862D01*
X24835Y-16923D01*
X24915Y-16956D01*
X25001Y-16956D01*
X25080Y-16924D01*
X25141Y-16863D01*
X25174Y-16783D01*
X25175Y-16697D01*
X25174Y-16783D01*
X25207Y-16862D01*
X25268Y-16923D01*
X25348Y-16956D01*
X25434Y-16956D01*
X25514Y-16924D01*
X25574Y-16863D01*
X25608Y-16783D01*
X25608Y-16697D01*
X25608Y-16783D01*
X25640Y-16862D01*
X25701Y-16923D01*
X25781Y-16956D01*
X25867Y-16956D01*
X25947Y-16924D01*
X26008Y-16863D01*
X26041Y-16783D01*
X26041Y-16697D01*
X26008Y-16617D01*
X25947Y-16556D01*
X25867Y-16523D01*
X25867Y-16523D01*
X25947Y-16490D01*
X26008Y-16430D01*
X26041Y-16350D01*
X26041Y-16264D01*
X26008Y-16184D01*
X25947Y-16123D01*
X25884Y-16097D01*
X25956Y-16067D01*
X26017Y-16006D01*
X26050Y-15927D01*
X26051Y-15841D01*
X26051Y-20362D01*
X25716Y-20362D01*
X25716Y-18888D01*
X25680Y-18801D01*
X25614Y-18735D01*
X25527Y-18699D01*
X25433Y-18699D01*
X25346Y-18734D01*
X25279Y-18801D01*
X25243Y-18888D01*
X25243Y-18982D01*
X25279Y-19068D01*
X25346Y-19135D01*
X25432Y-19171D01*
X25526Y-19171D01*
X25613Y-19135D01*
X25680Y-19069D01*
X25716Y-18982D01*
X25716Y-18888D01*
X25716Y-20362D01*
X23802Y-20362D01*
X23802Y-18239D01*
X23766Y-18152D01*
X23699Y-18085D01*
X23613Y-18049D01*
X23519Y-18049D01*
X23432Y-18085D01*
X23365Y-18152D01*
X23329Y-18238D01*
X23329Y-18332D01*
X23365Y-18419D01*
X23432Y-18486D01*
X23518Y-18522D01*
X23612Y-18522D01*
X23699Y-18486D01*
X23766Y-18419D01*
X23802Y-18333D01*
X23802Y-18239D01*
X23802Y-20362D01*
X23275Y-20362D01*
X23275Y-19385D01*
X23167Y-19124D01*
X22968Y-18925D01*
X22763Y-18840D01*
X22763Y-17294D01*
X22727Y-17207D01*
X22661Y-17140D01*
X22574Y-17104D01*
X22480Y-17104D01*
X22393Y-17140D01*
X22327Y-17206D01*
X22291Y-17293D01*
X22291Y-17387D01*
X22326Y-17474D01*
X22393Y-17540D01*
X22480Y-17576D01*
X22574Y-17577D01*
X22660Y-17541D01*
X22727Y-17474D01*
X22763Y-17387D01*
X22763Y-17294D01*
X22763Y-18840D01*
X22708Y-18817D01*
X22426Y-18817D01*
X22311Y-18864D01*
X22311Y-18245D01*
X22275Y-18158D01*
X22251Y-18134D01*
X22251Y-15542D01*
X22215Y-15455D01*
X22149Y-15388D01*
X22062Y-15352D01*
X21968Y-15352D01*
X21881Y-15388D01*
X21815Y-15454D01*
X21779Y-15541D01*
X21779Y-15635D01*
X21815Y-15722D01*
X21881Y-15788D01*
X21968Y-15824D01*
X22062Y-15825D01*
X22149Y-15789D01*
X22215Y-15722D01*
X22251Y-15636D01*
X22251Y-15542D01*
X22251Y-18134D01*
X22208Y-18091D01*
X22122Y-18055D01*
X22028Y-18055D01*
X21941Y-18091D01*
X21874Y-18158D01*
X21838Y-18244D01*
X21838Y-18338D01*
X21874Y-18425D01*
X21941Y-18492D01*
X22027Y-18528D01*
X22121Y-18528D01*
X22208Y-18492D01*
X22275Y-18425D01*
X22311Y-18339D01*
X22311Y-18245D01*
X22311Y-18864D01*
X22165Y-18924D01*
X21966Y-19123D01*
X21858Y-19384D01*
X21857Y-19666D01*
X21965Y-19926D01*
X22164Y-20126D01*
X22425Y-20234D01*
X22707Y-20234D01*
X22967Y-20126D01*
X23167Y-19927D01*
X23275Y-19667D01*
X23275Y-19385D01*
X23275Y-20362D01*
X21721Y-20362D01*
X21721Y-17603D01*
X21685Y-17516D01*
X21623Y-17454D01*
X21623Y-14813D01*
X21587Y-14726D01*
X21543Y-14682D01*
X21543Y-12884D01*
X21543Y-12215D01*
X21507Y-12128D01*
X21440Y-12061D01*
X21354Y-12025D01*
X21260Y-12025D01*
X21173Y-12061D01*
X21106Y-12128D01*
X21070Y-12214D01*
X21070Y-12308D01*
X21106Y-12395D01*
X21172Y-12462D01*
X21259Y-12498D01*
X21353Y-12498D01*
X21440Y-12462D01*
X21507Y-12396D01*
X21543Y-12309D01*
X21543Y-12215D01*
X21543Y-12884D01*
X21507Y-12797D01*
X21440Y-12731D01*
X21354Y-12695D01*
X21260Y-12695D01*
X21173Y-12730D01*
X21106Y-12797D01*
X21070Y-12884D01*
X21070Y-12978D01*
X21106Y-13064D01*
X21172Y-13131D01*
X21259Y-13167D01*
X21353Y-13167D01*
X21440Y-13131D01*
X21507Y-13065D01*
X21543Y-12978D01*
X21543Y-12884D01*
X21543Y-14682D01*
X21520Y-14659D01*
X21434Y-14623D01*
X21340Y-14623D01*
X21253Y-14659D01*
X21186Y-14726D01*
X21150Y-14812D01*
X21150Y-14906D01*
X21186Y-14993D01*
X21253Y-15060D01*
X21339Y-15096D01*
X21433Y-15096D01*
X21520Y-15060D01*
X21587Y-14993D01*
X21623Y-14907D01*
X21623Y-14813D01*
X21623Y-17454D01*
X21618Y-17449D01*
X21532Y-17413D01*
X21438Y-17413D01*
X21351Y-17449D01*
X21284Y-17516D01*
X21248Y-17602D01*
X21248Y-17696D01*
X21284Y-17783D01*
X21351Y-17850D01*
X21437Y-17886D01*
X21531Y-17886D01*
X21618Y-17850D01*
X21685Y-17783D01*
X21721Y-17697D01*
X21721Y-17603D01*
X21721Y-20362D01*
X20942Y-20362D01*
X20942Y-10785D01*
X29134Y-10785D01*
X29047Y-10821D01*
X28980Y-10887D01*
X28944Y-10974D01*
X28944Y-11068D01*
X28965Y-11120D01*
X24968Y-11120D01*
X24900Y-11133D01*
X24843Y-11172D01*
X24619Y-11395D01*
X23058Y-11395D01*
X22980Y-11395D01*
X22912Y-11409D01*
X22873Y-11435D01*
X22834Y-11435D01*
X22748Y-11471D01*
X22681Y-11537D01*
X22645Y-11624D01*
X22645Y-11718D01*
X22681Y-11805D01*
X22747Y-11871D01*
X22834Y-11907D01*
X22928Y-11907D01*
X23015Y-11871D01*
X23081Y-11805D01*
X23104Y-11750D01*
X23946Y-11750D01*
X23925Y-11801D01*
X23924Y-11895D01*
X23960Y-11982D01*
X24027Y-12048D01*
X24114Y-12084D01*
X24160Y-12084D01*
X24220Y-12138D01*
X24226Y-12142D01*
X24232Y-12147D01*
X24389Y-12266D01*
X24410Y-12275D01*
X24428Y-12287D01*
X24440Y-12290D01*
X24451Y-12295D01*
X24474Y-12297D01*
X24495Y-12301D01*
X25992Y-12301D01*
X26015Y-12324D01*
X26102Y-12360D01*
X26196Y-12360D01*
X26283Y-12324D01*
X26349Y-12258D01*
X26385Y-12171D01*
X26385Y-12077D01*
X26349Y-11990D01*
X26283Y-11924D01*
X26196Y-11888D01*
X26102Y-11887D01*
X26015Y-11923D01*
X25992Y-11947D01*
X24554Y-11947D01*
X24451Y-11869D01*
X24397Y-11821D01*
X24397Y-11801D01*
X24376Y-11750D01*
X24692Y-11750D01*
X24760Y-11736D01*
X24760Y-11736D01*
X24817Y-11698D01*
X25041Y-11474D01*
X26425Y-11474D01*
X26421Y-11478D01*
X26385Y-11565D01*
X26385Y-11659D01*
X26421Y-11746D01*
X26487Y-11812D01*
X26574Y-11848D01*
X26607Y-11848D01*
X27362Y-12603D01*
X27362Y-12603D01*
X27371Y-12609D01*
X27314Y-12632D01*
X27248Y-12698D01*
X27227Y-12749D01*
X27188Y-12711D01*
X27102Y-12675D01*
X27008Y-12675D01*
X26941Y-12702D01*
X26940Y-12699D01*
X26873Y-12632D01*
X26787Y-12596D01*
X26693Y-12596D01*
X26606Y-12632D01*
X26539Y-12698D01*
X26536Y-12707D01*
X26535Y-12707D01*
X26469Y-12773D01*
X25322Y-12773D01*
X25299Y-12750D01*
X25212Y-12714D01*
X25125Y-12714D01*
X25125Y-12707D01*
X25089Y-12620D01*
X25023Y-12554D01*
X24936Y-12517D01*
X24842Y-12517D01*
X24755Y-12553D01*
X24689Y-12620D01*
X24653Y-12706D01*
X24653Y-12800D01*
X24689Y-12887D01*
X24755Y-12954D01*
X24842Y-12990D01*
X24928Y-12990D01*
X24928Y-12997D01*
X24964Y-13084D01*
X25031Y-13151D01*
X25117Y-13187D01*
X25211Y-13187D01*
X25298Y-13151D01*
X25322Y-13128D01*
X26543Y-13128D01*
X26610Y-13114D01*
X26610Y-13114D01*
X26668Y-13076D01*
X26680Y-13064D01*
X26692Y-13069D01*
X26786Y-13069D01*
X26853Y-13041D01*
X26854Y-13045D01*
X26920Y-13111D01*
X27007Y-13147D01*
X27101Y-13147D01*
X27188Y-13112D01*
X27255Y-13045D01*
X27276Y-12994D01*
X27314Y-13033D01*
X27366Y-13054D01*
X27330Y-13140D01*
X27330Y-13234D01*
X27366Y-13320D01*
X27370Y-13325D01*
X23806Y-13325D01*
X23806Y-12063D01*
X23771Y-11976D01*
X23704Y-11909D01*
X23640Y-11883D01*
X23638Y-11881D01*
X23635Y-11881D01*
X23617Y-11873D01*
X23598Y-11873D01*
X23570Y-11868D01*
X23560Y-11868D01*
X23533Y-11873D01*
X23523Y-11873D01*
X23514Y-11877D01*
X23493Y-11881D01*
X23474Y-11894D01*
X23437Y-11909D01*
X23370Y-11976D01*
X23334Y-12062D01*
X23334Y-12156D01*
X23370Y-12243D01*
X23436Y-12310D01*
X23523Y-12346D01*
X23617Y-12346D01*
X23704Y-12310D01*
X23770Y-12243D01*
X23806Y-12157D01*
X23806Y-12063D01*
X23806Y-13325D01*
X23137Y-13325D01*
X23137Y-13325D01*
X23114Y-13302D01*
X23027Y-13266D01*
X22933Y-13265D01*
X22846Y-13301D01*
X22779Y-13368D01*
X22743Y-13455D01*
X22743Y-13548D01*
X22779Y-13635D01*
X22846Y-13702D01*
X22932Y-13738D01*
X23026Y-13738D01*
X23113Y-13702D01*
X23137Y-13679D01*
X23137Y-13679D01*
X23989Y-13679D01*
X23967Y-13731D01*
X23967Y-13825D01*
X24003Y-13912D01*
X24070Y-13979D01*
X24156Y-14015D01*
X24250Y-14015D01*
X24337Y-13979D01*
X24404Y-13912D01*
X24440Y-13826D01*
X24440Y-13732D01*
X24418Y-13679D01*
X29771Y-13679D01*
X29839Y-13665D01*
X29896Y-13627D01*
X29897Y-13627D01*
X30100Y-13423D01*
X30133Y-13423D01*
X30220Y-13387D01*
X30286Y-13321D01*
X30322Y-13234D01*
X30322Y-13140D01*
X30286Y-13053D01*
X30223Y-12990D01*
X30286Y-12927D01*
X30294Y-12907D01*
X30319Y-12966D01*
X30385Y-13033D01*
X30472Y-13069D01*
X30566Y-13069D01*
X30653Y-13033D01*
X30719Y-12966D01*
X30755Y-12880D01*
X30755Y-12786D01*
X30719Y-12699D01*
X30676Y-12655D01*
X30761Y-12655D01*
X31732Y-13627D01*
X31790Y-13665D01*
X31858Y-13679D01*
X32094Y-13679D01*
X33079Y-13679D01*
X33102Y-13702D01*
X33188Y-13738D01*
X33282Y-13738D01*
X33369Y-13702D01*
X33436Y-13636D01*
X33472Y-13549D01*
X33472Y-13455D01*
X33436Y-13368D01*
X33412Y-13344D01*
X33475Y-13281D01*
X33511Y-13195D01*
X33511Y-13101D01*
X33475Y-13014D01*
X33409Y-12947D01*
X33322Y-12911D01*
X33228Y-12911D01*
X33141Y-12947D01*
X33118Y-12970D01*
X32718Y-12970D01*
X31504Y-11756D01*
X31558Y-11734D01*
X31625Y-11667D01*
X31646Y-11616D01*
X31732Y-11651D01*
X31826Y-11651D01*
X31912Y-11615D01*
X31979Y-11549D01*
X32015Y-11462D01*
X32015Y-11368D01*
X31979Y-11281D01*
X31913Y-11215D01*
X31826Y-11179D01*
X31732Y-11179D01*
X31645Y-11215D01*
X31579Y-11281D01*
X31557Y-11333D01*
X31472Y-11297D01*
X31439Y-11297D01*
X31314Y-11172D01*
X31256Y-11133D01*
X31188Y-11120D01*
X29395Y-11120D01*
X29417Y-11069D01*
X29417Y-10975D01*
X29381Y-10888D01*
X29314Y-10821D01*
X29228Y-10785D01*
X29181Y-10785D01*
X34958Y-10785D01*
X34958Y-13206D01*
X34969Y-13263D01*
X35001Y-13311D01*
X35007Y-13315D01*
X35007Y-17862D01*
M02*
