G04 (created by PCBNEW (2013-05-16 BZR 4016)-stable) date 11. 1. 2014 1:24:09*
%MOIN*%
G04 Gerber Fmt 3.4, Leading zero omitted, Abs format*
%FSLAX34Y34*%
G01*
G70*
G90*
G04 APERTURE LIST*
%ADD10C,0.00590551*%
%ADD11R,0.0629921X0.0314961*%
%ADD12R,0.0314961X0.0314961*%
%ADD13C,0.11811*%
%ADD14R,0.5X0.05*%
%ADD15R,0.472441X0.05*%
%ADD16C,0.00787402*%
%ADD17C,0.01*%
G04 APERTURE END LIST*
G54D10*
X20795Y-20510D02*
X20795Y-10667D01*
X35106Y-13206D02*
X35106Y-10667D01*
X40480Y-13206D02*
X35106Y-13206D01*
X35106Y-17970D02*
X35106Y-20510D01*
X40480Y-17970D02*
X35106Y-17970D01*
X40480Y-13206D02*
X40480Y-17970D01*
X35106Y-20510D02*
X20795Y-20510D01*
G54D11*
X34702Y-17704D03*
X34702Y-16996D03*
X34712Y-14752D03*
X34712Y-14043D03*
G54D12*
X21306Y-13521D03*
X21306Y-12931D03*
X21306Y-11671D03*
X21306Y-12262D03*
G54D13*
X33236Y-11651D03*
X22566Y-19525D03*
G54D14*
X37704Y-17088D03*
X37704Y-14088D03*
G54D15*
X37582Y-15163D03*
X37582Y-16014D03*
G54D10*
G36*
X26897Y-17813D02*
X23039Y-17813D01*
X23039Y-13954D01*
X26897Y-13954D01*
X26897Y-17813D01*
X26897Y-17813D01*
G37*
G54D16*
X26897Y-17813D02*
X23039Y-17813D01*
X23039Y-13954D01*
X26897Y-13954D01*
X26897Y-17813D01*
G54D10*
G36*
X33264Y-18570D02*
X31317Y-18570D01*
X31317Y-18511D01*
X31308Y-17125D01*
X33264Y-17125D01*
X33264Y-18570D01*
X33264Y-18570D01*
G37*
G54D17*
X33264Y-18570D02*
X31317Y-18570D01*
X31317Y-18511D01*
X31308Y-17125D01*
X33264Y-17125D01*
X33264Y-18570D01*
M02*
