M48
;DRILL file {Pcbnew (2013-05-16 BZR 4016)-stable} date 11. 1. 2014 1:24:15
;FORMAT={2:4/ absolute / inch / suppress leading zeros}
FMAT,2
INCH,TZ
T1C0.012
T2C0.020
T3C0.079
%
G90
G05
M72
T1
X21307Y-12262
X21307Y-12931
X21385Y-16297
X21387Y-14860
X21485Y-17650
X21917Y-12557
X22016Y-15589
X22075Y-18292
X22527Y-17341
X22575Y-15590
X22882Y-11671
X22980Y-13502
X23505Y-13030
X23566Y-18286
X23571Y-12110
X24101Y-18680
X24102Y-15018
X24102Y-15451
X24102Y-15884
X24102Y-16317
X24102Y-16750
X24161Y-11849
X24204Y-13779
X24535Y-15018
X24535Y-15451
X24535Y-15884
X24535Y-16317
X24535Y-16750
X24575Y-11179
X24890Y-12754
X24958Y-15874
X24958Y-16307
X24958Y-16740
X24968Y-15018
X24968Y-15451
X24968Y-15884
X24968Y-15884
X24968Y-15884
X25165Y-12951
X25392Y-16307
X25392Y-16740
X25401Y-15018
X25401Y-15451
X25401Y-15884
X25480Y-18935
X25825Y-16307
X25825Y-16740
X25834Y-15018
X25834Y-15451
X25834Y-15884
X26110Y-18689
X26149Y-12124
X26169Y-12636
X26622Y-11612
X26740Y-12833
X27055Y-12912
X27094Y-15195
X27173Y-17479
X27252Y-17833
X27449Y-12833
X27567Y-13187
X27606Y-11612
X27645Y-12124
X27724Y-16455
X27882Y-14880
X27921Y-14014
X27980Y-12203
X28630Y-12124
X29181Y-11022
X29378Y-16770
X30015Y-19750
X30086Y-12794
X30086Y-13187
X30441Y-16022
X30519Y-12833
X30716Y-14762
X30834Y-14486
X30834Y-16022
X31268Y-12400
X31425Y-11534
X31543Y-15943
X31661Y-14526
X31779Y-11416
X31819Y-17538
X31819Y-18089
X31897Y-14723
X32173Y-11416
X32173Y-14860
X32252Y-17538
X32252Y-18089
X32488Y-14762
X32685Y-17538
X32685Y-18089
X33000Y-14408
X33236Y-13502
X33275Y-13148
X33590Y-16967
X33610Y-14486
X33669Y-13778
X34240Y-15431
X34496Y-15175
T2
X30845Y-19080
X32505Y-19210
X33649Y-18542
X34575Y-17420
T3
X22567Y-19526
X33236Y-11652
T0
M30
