G04 (created by PCBNEW (2013-05-16 BZR 4016)-stable) date 11. 1. 2014 1:24:09*
%MOIN*%
G04 Gerber Fmt 3.4, Leading zero omitted, Abs format*
%FSLAX34Y34*%
G01*
G70*
G90*
G04 APERTURE LIST*
%ADD10C,0.00590551*%
%ADD11C,0.11811*%
%ADD12C,0.023622*%
%ADD13C,0.0314961*%
%ADD14C,0.019685*%
%ADD15C,0.011811*%
%ADD16C,0.0314961*%
%ADD17C,0.00787402*%
G04 APERTURE END LIST*
G54D10*
X20795Y-20510D02*
X20795Y-10667D01*
X35106Y-13206D02*
X35106Y-10667D01*
X40480Y-13206D02*
X35106Y-13206D01*
X35106Y-17970D02*
X35106Y-20510D01*
X40480Y-17970D02*
X35106Y-17970D01*
X40480Y-13206D02*
X40480Y-17970D01*
X35106Y-20510D02*
X20795Y-20510D01*
G54D11*
X33236Y-11651D03*
X22566Y-19525D03*
G54D12*
X27566Y-13187D03*
X27094Y-15195D03*
X28629Y-12124D03*
X31267Y-12399D03*
X34495Y-15175D03*
X34239Y-15431D03*
X27173Y-17478D03*
X30440Y-16021D03*
X27251Y-17832D03*
X30834Y-16021D03*
X26621Y-11612D03*
X33236Y-13502D03*
X27606Y-11612D03*
X33275Y-13147D03*
X22881Y-11671D03*
X31425Y-11533D03*
X22980Y-13502D03*
X30086Y-13187D03*
X30519Y-12832D03*
X31543Y-15943D03*
X30086Y-12793D03*
X30834Y-14486D03*
X27448Y-12832D03*
X31661Y-14525D03*
X30716Y-14762D03*
X27645Y-12124D03*
X32173Y-14860D03*
X24161Y-11848D03*
X26149Y-12124D03*
X22015Y-15588D03*
X22527Y-17340D03*
X31897Y-14722D03*
X22075Y-18292D03*
X32487Y-14762D03*
X21387Y-14860D03*
X32999Y-14407D03*
X27921Y-14014D03*
X29377Y-16769D03*
X33590Y-16966D03*
G54D13*
X34574Y-17419D03*
G54D12*
X30015Y-19750D03*
X24101Y-18680D03*
X21385Y-16297D03*
X23505Y-13030D03*
X22575Y-15590D03*
X33610Y-14486D03*
X26110Y-18689D03*
X21917Y-12557D03*
X32173Y-11415D03*
X33669Y-13777D03*
X27724Y-16454D03*
X24574Y-11179D03*
X26169Y-12636D03*
X27980Y-12202D03*
X27881Y-14880D03*
G54D14*
X32684Y-17537D03*
X32684Y-18088D03*
X32251Y-18088D03*
X31818Y-18088D03*
X31818Y-17537D03*
X32251Y-17537D03*
G54D12*
X21306Y-12931D03*
X21306Y-12262D03*
G54D13*
X30845Y-19080D03*
X32505Y-19210D03*
G54D12*
X26739Y-12832D03*
X25165Y-12951D03*
G54D14*
X25401Y-15884D03*
X25834Y-15884D03*
X25834Y-15451D03*
X25834Y-15017D03*
X25401Y-15017D03*
X25401Y-15451D03*
X24968Y-15884D03*
X24958Y-15874D03*
X25391Y-16307D03*
X25824Y-16307D03*
X25824Y-16740D03*
X25391Y-16740D03*
X24958Y-16740D03*
X24958Y-16307D03*
X24535Y-15884D03*
X24102Y-15884D03*
X24102Y-16317D03*
X24102Y-16750D03*
X24535Y-16750D03*
X24535Y-16317D03*
X24968Y-15884D03*
X24968Y-15884D03*
X24535Y-15451D03*
X24102Y-15451D03*
X24102Y-15017D03*
X24535Y-15017D03*
X24968Y-15017D03*
X24968Y-15451D03*
G54D12*
X23566Y-18286D03*
X24204Y-13779D03*
X23570Y-12110D03*
X29180Y-11021D03*
X21485Y-17650D03*
X31779Y-11415D03*
X25480Y-18935D03*
X27054Y-12911D03*
X24889Y-12754D03*
G54D13*
X33649Y-18541D03*
G54D15*
X27566Y-14722D02*
X27566Y-13187D01*
X27094Y-15195D02*
X27566Y-14722D01*
X28472Y-16179D02*
X27173Y-17478D01*
X30283Y-16179D02*
X28472Y-16179D01*
X30440Y-16021D02*
X30283Y-16179D01*
X27566Y-17517D02*
X27251Y-17832D01*
X28590Y-16494D02*
X27566Y-17517D01*
X30362Y-16494D02*
X28590Y-16494D01*
X30834Y-16021D02*
X30362Y-16494D01*
X31543Y-15943D02*
X31110Y-15510D01*
X31110Y-15510D02*
X31110Y-13423D01*
X31110Y-13423D02*
X30519Y-12832D01*
X30086Y-12793D02*
X30834Y-13541D01*
X30834Y-13541D02*
X30834Y-14486D01*
X30125Y-13738D02*
X30558Y-14171D01*
X27645Y-12124D02*
X27645Y-12517D01*
X27645Y-12517D02*
X28865Y-13738D01*
X28865Y-13738D02*
X30125Y-13738D01*
X30558Y-14171D02*
X30558Y-14604D01*
X30558Y-14604D02*
X30716Y-14762D01*
X22527Y-16100D02*
X22015Y-15588D01*
X22527Y-17340D02*
X22527Y-16100D01*
X22527Y-17458D02*
X22527Y-17340D01*
X23944Y-19250D02*
X22527Y-17832D01*
X22527Y-17832D02*
X22527Y-17458D01*
X26346Y-19250D02*
X23944Y-19250D01*
X28472Y-17124D02*
X26346Y-19250D01*
X30834Y-17124D02*
X28472Y-17124D01*
X31897Y-16061D02*
X30834Y-17124D01*
X31897Y-15825D02*
X31897Y-16061D01*
X31897Y-15825D02*
X31897Y-15825D01*
X31897Y-14722D02*
X31897Y-15825D01*
X22075Y-18292D02*
X22249Y-18292D01*
X22249Y-18292D02*
X22450Y-18090D01*
X22094Y-17734D02*
X22094Y-16258D01*
X21385Y-14998D02*
X21385Y-14861D01*
X22094Y-16258D02*
X21385Y-15549D01*
X21385Y-15549D02*
X21385Y-14998D01*
X23806Y-19447D02*
X22450Y-18090D01*
X22450Y-18090D02*
X22094Y-17734D01*
X26464Y-19447D02*
X23806Y-19447D01*
X28511Y-17399D02*
X26464Y-19447D01*
X30873Y-17399D02*
X28511Y-17399D01*
X32487Y-15785D02*
X30873Y-17399D01*
X32487Y-14762D02*
X32487Y-15785D01*
X21385Y-14861D02*
X21387Y-14860D01*
G54D16*
X32505Y-19210D02*
X30975Y-19210D01*
X30975Y-19210D02*
X30845Y-19080D01*
G54D15*
X33649Y-18541D02*
X33669Y-18541D01*
G54D10*
G36*
X35066Y-17830D02*
X35049Y-17834D01*
X35001Y-17866D01*
X34969Y-17914D01*
X34958Y-17970D01*
X34958Y-20362D01*
X34850Y-20362D01*
X34850Y-17364D01*
X34808Y-17263D01*
X34732Y-17187D01*
X34732Y-15128D01*
X34696Y-15041D01*
X34629Y-14975D01*
X34543Y-14939D01*
X34449Y-14939D01*
X34362Y-14975D01*
X34295Y-15041D01*
X34259Y-15128D01*
X34259Y-15195D01*
X34193Y-15195D01*
X34106Y-15230D01*
X34039Y-15297D01*
X34003Y-15384D01*
X34003Y-15478D01*
X34039Y-15564D01*
X34105Y-15631D01*
X34192Y-15667D01*
X34286Y-15667D01*
X34373Y-15631D01*
X34440Y-15565D01*
X34476Y-15478D01*
X34476Y-15411D01*
X34542Y-15411D01*
X34629Y-15375D01*
X34696Y-15309D01*
X34732Y-15222D01*
X34732Y-15128D01*
X34732Y-17187D01*
X34730Y-17186D01*
X34629Y-17143D01*
X34520Y-17143D01*
X34418Y-17185D01*
X34341Y-17263D01*
X34299Y-17364D01*
X34298Y-17474D01*
X34340Y-17575D01*
X34418Y-17653D01*
X34519Y-17695D01*
X34629Y-17695D01*
X34730Y-17653D01*
X34808Y-17575D01*
X34850Y-17474D01*
X34850Y-17364D01*
X34850Y-20362D01*
X33944Y-20362D01*
X33944Y-11511D01*
X33837Y-11250D01*
X33637Y-11051D01*
X33377Y-10943D01*
X33095Y-10943D01*
X32835Y-11050D01*
X32635Y-11249D01*
X32527Y-11510D01*
X32527Y-11792D01*
X32634Y-12052D01*
X32834Y-12252D01*
X33094Y-12360D01*
X33376Y-12360D01*
X33636Y-12252D01*
X33836Y-12053D01*
X33944Y-11793D01*
X33944Y-11511D01*
X33944Y-20362D01*
X33905Y-20362D01*
X33905Y-13731D01*
X33869Y-13644D01*
X33803Y-13577D01*
X33716Y-13541D01*
X33622Y-13541D01*
X33535Y-13577D01*
X33511Y-13601D01*
X33511Y-13101D01*
X33475Y-13014D01*
X33409Y-12947D01*
X33322Y-12911D01*
X33228Y-12911D01*
X33141Y-12947D01*
X33075Y-13013D01*
X33039Y-13100D01*
X33039Y-13194D01*
X33075Y-13281D01*
X33098Y-13305D01*
X33035Y-13368D01*
X32999Y-13455D01*
X32999Y-13548D01*
X33035Y-13635D01*
X33102Y-13702D01*
X33188Y-13738D01*
X33282Y-13738D01*
X33369Y-13702D01*
X33436Y-13636D01*
X33472Y-13549D01*
X33472Y-13455D01*
X33436Y-13368D01*
X33412Y-13344D01*
X33475Y-13281D01*
X33511Y-13195D01*
X33511Y-13101D01*
X33511Y-13601D01*
X33468Y-13643D01*
X33432Y-13730D01*
X33432Y-13824D01*
X33468Y-13911D01*
X33535Y-13977D01*
X33621Y-14013D01*
X33715Y-14014D01*
X33802Y-13978D01*
X33869Y-13911D01*
X33905Y-13824D01*
X33905Y-13731D01*
X33905Y-20362D01*
X33846Y-20362D01*
X33846Y-14439D01*
X33810Y-14352D01*
X33744Y-14286D01*
X33657Y-14250D01*
X33563Y-14250D01*
X33476Y-14286D01*
X33409Y-14352D01*
X33373Y-14439D01*
X33373Y-14533D01*
X33409Y-14620D01*
X33476Y-14686D01*
X33562Y-14722D01*
X33656Y-14722D01*
X33743Y-14686D01*
X33810Y-14620D01*
X33846Y-14533D01*
X33846Y-14439D01*
X33846Y-20362D01*
X33826Y-20362D01*
X33826Y-16919D01*
X33790Y-16833D01*
X33724Y-16766D01*
X33637Y-16730D01*
X33543Y-16730D01*
X33456Y-16766D01*
X33390Y-16832D01*
X33354Y-16919D01*
X33354Y-17013D01*
X33389Y-17100D01*
X33456Y-17166D01*
X33543Y-17202D01*
X33637Y-17203D01*
X33723Y-17167D01*
X33790Y-17100D01*
X33826Y-17013D01*
X33826Y-16919D01*
X33826Y-20362D01*
X33236Y-20362D01*
X33236Y-14360D01*
X33200Y-14274D01*
X33133Y-14207D01*
X33046Y-14171D01*
X32953Y-14171D01*
X32866Y-14207D01*
X32799Y-14273D01*
X32763Y-14360D01*
X32763Y-14454D01*
X32799Y-14541D01*
X32865Y-14607D01*
X32952Y-14643D01*
X33046Y-14643D01*
X33133Y-14608D01*
X33199Y-14541D01*
X33235Y-14454D01*
X33236Y-14360D01*
X33236Y-20362D01*
X32901Y-20362D01*
X32901Y-18045D01*
X32901Y-17494D01*
X32868Y-17415D01*
X32807Y-17354D01*
X32728Y-17321D01*
X32724Y-17321D01*
X32724Y-14715D01*
X32688Y-14628D01*
X32621Y-14561D01*
X32535Y-14525D01*
X32441Y-14525D01*
X32409Y-14538D01*
X32409Y-11368D01*
X32373Y-11281D01*
X32307Y-11215D01*
X32220Y-11179D01*
X32126Y-11179D01*
X32039Y-11215D01*
X31972Y-11281D01*
X31936Y-11368D01*
X31936Y-11462D01*
X31972Y-11549D01*
X32039Y-11615D01*
X32125Y-11651D01*
X32219Y-11651D01*
X32306Y-11615D01*
X32373Y-11549D01*
X32409Y-11462D01*
X32409Y-11368D01*
X32409Y-14538D01*
X32354Y-14561D01*
X32287Y-14628D01*
X32279Y-14648D01*
X32220Y-14624D01*
X32126Y-14624D01*
X32114Y-14629D01*
X32097Y-14589D01*
X32031Y-14522D01*
X31944Y-14486D01*
X31897Y-14486D01*
X31897Y-14479D01*
X31861Y-14392D01*
X31795Y-14325D01*
X31708Y-14289D01*
X31661Y-14289D01*
X31661Y-11486D01*
X31625Y-11400D01*
X31558Y-11333D01*
X31472Y-11297D01*
X31378Y-11297D01*
X31291Y-11333D01*
X31224Y-11399D01*
X31188Y-11486D01*
X31188Y-11580D01*
X31224Y-11667D01*
X31291Y-11733D01*
X31377Y-11769D01*
X31471Y-11769D01*
X31558Y-11734D01*
X31625Y-11667D01*
X31661Y-11580D01*
X31661Y-11486D01*
X31661Y-14289D01*
X31614Y-14289D01*
X31527Y-14325D01*
X31503Y-14349D01*
X31503Y-12353D01*
X31467Y-12266D01*
X31401Y-12199D01*
X31314Y-12163D01*
X31220Y-12163D01*
X31133Y-12199D01*
X31067Y-12265D01*
X31031Y-12352D01*
X31031Y-12446D01*
X31067Y-12533D01*
X31133Y-12599D01*
X31220Y-12636D01*
X31314Y-12636D01*
X31401Y-12600D01*
X31467Y-12533D01*
X31503Y-12447D01*
X31503Y-12353D01*
X31503Y-14349D01*
X31461Y-14391D01*
X31425Y-14478D01*
X31424Y-14572D01*
X31460Y-14659D01*
X31527Y-14725D01*
X31614Y-14762D01*
X31661Y-14762D01*
X31661Y-14769D01*
X31697Y-14856D01*
X31720Y-14879D01*
X31720Y-15786D01*
X31677Y-15743D01*
X31590Y-15706D01*
X31557Y-15706D01*
X31287Y-15436D01*
X31287Y-13423D01*
X31273Y-13355D01*
X31235Y-13298D01*
X30755Y-12818D01*
X30755Y-12786D01*
X30719Y-12699D01*
X30653Y-12632D01*
X30566Y-12596D01*
X30472Y-12596D01*
X30385Y-12632D01*
X30319Y-12698D01*
X30311Y-12718D01*
X30286Y-12659D01*
X30220Y-12593D01*
X30133Y-12557D01*
X30039Y-12557D01*
X29952Y-12593D01*
X29886Y-12659D01*
X29850Y-12746D01*
X29850Y-12840D01*
X29886Y-12927D01*
X29949Y-12990D01*
X29886Y-13053D01*
X29850Y-13140D01*
X29850Y-13234D01*
X29886Y-13320D01*
X29952Y-13387D01*
X30039Y-13423D01*
X30133Y-13423D01*
X30220Y-13387D01*
X30286Y-13321D01*
X30309Y-13266D01*
X30657Y-13614D01*
X30657Y-14019D01*
X30251Y-13613D01*
X30193Y-13574D01*
X30125Y-13561D01*
X28939Y-13561D01*
X28865Y-13487D01*
X28865Y-12077D01*
X28830Y-11990D01*
X28763Y-11924D01*
X28676Y-11888D01*
X28582Y-11887D01*
X28496Y-11923D01*
X28429Y-11990D01*
X28393Y-12077D01*
X28393Y-12171D01*
X28429Y-12257D01*
X28495Y-12324D01*
X28582Y-12360D01*
X28676Y-12360D01*
X28763Y-12324D01*
X28829Y-12258D01*
X28865Y-12171D01*
X28865Y-12077D01*
X28865Y-13487D01*
X27822Y-12444D01*
X27822Y-12379D01*
X27846Y-12403D01*
X27932Y-12439D01*
X28026Y-12439D01*
X28113Y-12403D01*
X28180Y-12336D01*
X28216Y-12250D01*
X28216Y-12156D01*
X28180Y-12069D01*
X28114Y-12002D01*
X28027Y-11966D01*
X27933Y-11966D01*
X27850Y-12001D01*
X27845Y-11990D01*
X27842Y-11987D01*
X27842Y-11565D01*
X27806Y-11478D01*
X27740Y-11412D01*
X27653Y-11376D01*
X27559Y-11376D01*
X27472Y-11412D01*
X27405Y-11478D01*
X27369Y-11565D01*
X27369Y-11659D01*
X27405Y-11746D01*
X27472Y-11812D01*
X27558Y-11848D01*
X27652Y-11848D01*
X27739Y-11812D01*
X27806Y-11746D01*
X27842Y-11659D01*
X27842Y-11565D01*
X27842Y-11987D01*
X27779Y-11924D01*
X27692Y-11888D01*
X27598Y-11887D01*
X27511Y-11923D01*
X27445Y-11990D01*
X27409Y-12077D01*
X27409Y-12171D01*
X27445Y-12257D01*
X27468Y-12281D01*
X27468Y-12517D01*
X27481Y-12585D01*
X27489Y-12596D01*
X27401Y-12596D01*
X27314Y-12632D01*
X27248Y-12698D01*
X27212Y-12785D01*
X27212Y-12879D01*
X27248Y-12966D01*
X27314Y-13033D01*
X27366Y-13054D01*
X27330Y-13140D01*
X27330Y-13234D01*
X27366Y-13320D01*
X27389Y-13344D01*
X27389Y-14649D01*
X27079Y-14958D01*
X27047Y-14958D01*
X26976Y-14988D01*
X26976Y-12786D01*
X26940Y-12699D01*
X26873Y-12632D01*
X26858Y-12626D01*
X26858Y-11565D01*
X26822Y-11478D01*
X26755Y-11412D01*
X26669Y-11376D01*
X26575Y-11376D01*
X26488Y-11412D01*
X26421Y-11478D01*
X26385Y-11565D01*
X26385Y-11659D01*
X26421Y-11746D01*
X26487Y-11812D01*
X26574Y-11848D01*
X26668Y-11848D01*
X26755Y-11812D01*
X26821Y-11746D01*
X26858Y-11659D01*
X26858Y-11565D01*
X26858Y-12626D01*
X26787Y-12596D01*
X26693Y-12596D01*
X26606Y-12632D01*
X26539Y-12698D01*
X26503Y-12785D01*
X26503Y-12879D01*
X26539Y-12966D01*
X26605Y-13033D01*
X26692Y-13069D01*
X26786Y-13069D01*
X26873Y-13033D01*
X26940Y-12966D01*
X26976Y-12880D01*
X26976Y-12786D01*
X26976Y-14988D01*
X26960Y-14994D01*
X26894Y-15061D01*
X26858Y-15147D01*
X26858Y-15241D01*
X26893Y-15328D01*
X26960Y-15395D01*
X27047Y-15431D01*
X27141Y-15431D01*
X27227Y-15395D01*
X27294Y-15329D01*
X27330Y-15242D01*
X27330Y-15209D01*
X27645Y-14894D01*
X27645Y-14926D01*
X27681Y-15013D01*
X27747Y-15080D01*
X27834Y-15116D01*
X27928Y-15116D01*
X28015Y-15080D01*
X28081Y-15014D01*
X28117Y-14927D01*
X28117Y-14833D01*
X28082Y-14746D01*
X28015Y-14680D01*
X27928Y-14643D01*
X27834Y-14643D01*
X27748Y-14679D01*
X27743Y-14683D01*
X27743Y-14170D01*
X27787Y-14214D01*
X27873Y-14250D01*
X27967Y-14250D01*
X28054Y-14214D01*
X28121Y-14147D01*
X28157Y-14061D01*
X28157Y-13967D01*
X28121Y-13880D01*
X28055Y-13813D01*
X27968Y-13777D01*
X27874Y-13777D01*
X27787Y-13813D01*
X27743Y-13857D01*
X27743Y-13344D01*
X27766Y-13321D01*
X27802Y-13234D01*
X27802Y-13140D01*
X27767Y-13053D01*
X27700Y-12987D01*
X27649Y-12965D01*
X27684Y-12880D01*
X27684Y-12807D01*
X28740Y-13863D01*
X28798Y-13902D01*
X28798Y-13902D01*
X28865Y-13915D01*
X30052Y-13915D01*
X30381Y-14244D01*
X30381Y-14604D01*
X30395Y-14672D01*
X30433Y-14729D01*
X30480Y-14776D01*
X30480Y-14808D01*
X30515Y-14895D01*
X30582Y-14962D01*
X30669Y-14998D01*
X30763Y-14998D01*
X30849Y-14962D01*
X30916Y-14896D01*
X30932Y-14856D01*
X30932Y-15510D01*
X30946Y-15577D01*
X30984Y-15635D01*
X31306Y-15957D01*
X31306Y-15989D01*
X31342Y-16076D01*
X31409Y-16143D01*
X31495Y-16179D01*
X31528Y-16179D01*
X30761Y-16947D01*
X29534Y-16947D01*
X29577Y-16903D01*
X29613Y-16817D01*
X29614Y-16723D01*
X29592Y-16671D01*
X30362Y-16671D01*
X30429Y-16658D01*
X30429Y-16658D01*
X30487Y-16619D01*
X30848Y-16258D01*
X30881Y-16258D01*
X30968Y-16222D01*
X31034Y-16155D01*
X31070Y-16069D01*
X31070Y-15975D01*
X31034Y-15888D01*
X30968Y-15821D01*
X30881Y-15785D01*
X30787Y-15785D01*
X30700Y-15821D01*
X30637Y-15884D01*
X30574Y-15821D01*
X30487Y-15785D01*
X30393Y-15785D01*
X30307Y-15821D01*
X30240Y-15887D01*
X30204Y-15974D01*
X30204Y-16002D01*
X28472Y-16002D01*
X28404Y-16015D01*
X28346Y-16054D01*
X27960Y-16440D01*
X27960Y-16408D01*
X27924Y-16321D01*
X27858Y-16254D01*
X27771Y-16218D01*
X27677Y-16218D01*
X27590Y-16254D01*
X27524Y-16320D01*
X27488Y-16407D01*
X27487Y-16501D01*
X27523Y-16588D01*
X27590Y-16655D01*
X27677Y-16691D01*
X27709Y-16691D01*
X27158Y-17242D01*
X27126Y-17242D01*
X27039Y-17278D01*
X26972Y-17344D01*
X26936Y-17431D01*
X26936Y-17525D01*
X26972Y-17612D01*
X27039Y-17678D01*
X27062Y-17688D01*
X27051Y-17698D01*
X27015Y-17785D01*
X27015Y-17879D01*
X27051Y-17966D01*
X27117Y-18033D01*
X27204Y-18069D01*
X27276Y-18069D01*
X26405Y-18940D01*
X26405Y-12589D01*
X26385Y-12541D01*
X26385Y-12077D01*
X26349Y-11990D01*
X26283Y-11924D01*
X26196Y-11888D01*
X26102Y-11887D01*
X26015Y-11923D01*
X25949Y-11990D01*
X25913Y-12077D01*
X25913Y-12171D01*
X25949Y-12257D01*
X26015Y-12324D01*
X26102Y-12360D01*
X26196Y-12360D01*
X26283Y-12324D01*
X26349Y-12258D01*
X26385Y-12171D01*
X26385Y-12077D01*
X26385Y-12541D01*
X26369Y-12502D01*
X26303Y-12435D01*
X26216Y-12399D01*
X26122Y-12399D01*
X26035Y-12435D01*
X25968Y-12502D01*
X25932Y-12588D01*
X25932Y-12682D01*
X25968Y-12769D01*
X26035Y-12836D01*
X26121Y-12872D01*
X26215Y-12872D01*
X26302Y-12836D01*
X26369Y-12770D01*
X26405Y-12683D01*
X26405Y-12589D01*
X26405Y-18940D01*
X26346Y-18999D01*
X26346Y-18642D01*
X26310Y-18555D01*
X26244Y-18489D01*
X26157Y-18453D01*
X26063Y-18452D01*
X26051Y-18458D01*
X26051Y-15841D01*
X26018Y-15761D01*
X25957Y-15700D01*
X25877Y-15667D01*
X25877Y-15667D01*
X25956Y-15634D01*
X26017Y-15573D01*
X26050Y-15494D01*
X26051Y-15408D01*
X26018Y-15328D01*
X25957Y-15267D01*
X25877Y-15234D01*
X25877Y-15234D01*
X25956Y-15201D01*
X26017Y-15140D01*
X26050Y-15061D01*
X26051Y-14975D01*
X26018Y-14895D01*
X25957Y-14834D01*
X25877Y-14801D01*
X25791Y-14801D01*
X25711Y-14834D01*
X25650Y-14895D01*
X25617Y-14974D01*
X25617Y-14975D01*
X25585Y-14895D01*
X25524Y-14834D01*
X25444Y-14801D01*
X25401Y-14801D01*
X25401Y-12904D01*
X25365Y-12817D01*
X25299Y-12750D01*
X25212Y-12714D01*
X25118Y-12714D01*
X25031Y-12750D01*
X24965Y-12817D01*
X24928Y-12903D01*
X24928Y-12997D01*
X24964Y-13084D01*
X25031Y-13151D01*
X25117Y-13187D01*
X25211Y-13187D01*
X25298Y-13151D01*
X25365Y-13085D01*
X25401Y-12998D01*
X25401Y-12904D01*
X25401Y-14801D01*
X25358Y-14801D01*
X25278Y-14834D01*
X25217Y-14895D01*
X25184Y-14974D01*
X25184Y-14975D01*
X25151Y-14895D01*
X25091Y-14834D01*
X25011Y-14801D01*
X24925Y-14801D01*
X24845Y-14834D01*
X24810Y-14869D01*
X24810Y-11132D01*
X24774Y-11045D01*
X24708Y-10979D01*
X24621Y-10943D01*
X24527Y-10943D01*
X24440Y-10978D01*
X24374Y-11045D01*
X24338Y-11132D01*
X24338Y-11226D01*
X24374Y-11313D01*
X24440Y-11379D01*
X24527Y-11415D01*
X24621Y-11415D01*
X24708Y-11379D01*
X24774Y-11313D01*
X24810Y-11226D01*
X24810Y-11132D01*
X24810Y-14869D01*
X24784Y-14895D01*
X24751Y-14974D01*
X24751Y-14975D01*
X24718Y-14895D01*
X24658Y-14834D01*
X24578Y-14801D01*
X24492Y-14801D01*
X24412Y-14834D01*
X24397Y-14849D01*
X24397Y-11801D01*
X24361Y-11715D01*
X24295Y-11648D01*
X24208Y-11612D01*
X24114Y-11612D01*
X24027Y-11648D01*
X23961Y-11714D01*
X23925Y-11801D01*
X23924Y-11895D01*
X23960Y-11982D01*
X24027Y-12048D01*
X24114Y-12084D01*
X24208Y-12084D01*
X24294Y-12049D01*
X24361Y-11982D01*
X24397Y-11895D01*
X24397Y-11801D01*
X24397Y-14849D01*
X24351Y-14895D01*
X24318Y-14974D01*
X24318Y-14975D01*
X24285Y-14895D01*
X24224Y-14834D01*
X24145Y-14801D01*
X24059Y-14801D01*
X23979Y-14834D01*
X23918Y-14895D01*
X23885Y-14974D01*
X23885Y-15060D01*
X23918Y-15140D01*
X23979Y-15201D01*
X24058Y-15234D01*
X24145Y-15234D01*
X24059Y-15234D01*
X23979Y-15267D01*
X23918Y-15328D01*
X23885Y-15407D01*
X23885Y-15493D01*
X23918Y-15573D01*
X23979Y-15634D01*
X24058Y-15667D01*
X24145Y-15667D01*
X24059Y-15667D01*
X23979Y-15700D01*
X23918Y-15761D01*
X23885Y-15840D01*
X23885Y-15926D01*
X23918Y-16006D01*
X23979Y-16067D01*
X24058Y-16100D01*
X24145Y-16100D01*
X24059Y-16100D01*
X23979Y-16133D01*
X23918Y-16194D01*
X23885Y-16273D01*
X23885Y-16360D01*
X23918Y-16439D01*
X23979Y-16500D01*
X24058Y-16533D01*
X24145Y-16533D01*
X24059Y-16533D01*
X23979Y-16566D01*
X23918Y-16627D01*
X23885Y-16706D01*
X23885Y-16793D01*
X23918Y-16872D01*
X23979Y-16933D01*
X24058Y-16966D01*
X24145Y-16966D01*
X24224Y-16933D01*
X24285Y-16873D01*
X24318Y-16793D01*
X24318Y-16707D01*
X24318Y-16793D01*
X24351Y-16872D01*
X24412Y-16933D01*
X24491Y-16966D01*
X24578Y-16966D01*
X24657Y-16933D01*
X24718Y-16873D01*
X24748Y-16800D01*
X24774Y-16862D01*
X24835Y-16923D01*
X24915Y-16956D01*
X25001Y-16956D01*
X25080Y-16924D01*
X25141Y-16863D01*
X25174Y-16783D01*
X25175Y-16697D01*
X25174Y-16783D01*
X25207Y-16862D01*
X25268Y-16923D01*
X25348Y-16956D01*
X25434Y-16956D01*
X25514Y-16924D01*
X25574Y-16863D01*
X25608Y-16783D01*
X25608Y-16697D01*
X25608Y-16783D01*
X25640Y-16862D01*
X25701Y-16923D01*
X25781Y-16956D01*
X25867Y-16956D01*
X25947Y-16924D01*
X26008Y-16863D01*
X26041Y-16783D01*
X26041Y-16697D01*
X26008Y-16617D01*
X25947Y-16556D01*
X25867Y-16523D01*
X25867Y-16523D01*
X25947Y-16490D01*
X26008Y-16430D01*
X26041Y-16350D01*
X26041Y-16264D01*
X26008Y-16184D01*
X25947Y-16123D01*
X25884Y-16097D01*
X25956Y-16067D01*
X26017Y-16006D01*
X26050Y-15927D01*
X26051Y-15841D01*
X26051Y-18458D01*
X25976Y-18488D01*
X25909Y-18555D01*
X25873Y-18642D01*
X25873Y-18735D01*
X25909Y-18822D01*
X25976Y-18889D01*
X26062Y-18925D01*
X26156Y-18925D01*
X26243Y-18889D01*
X26310Y-18823D01*
X26346Y-18736D01*
X26346Y-18642D01*
X26346Y-18999D01*
X26272Y-19073D01*
X24337Y-19073D01*
X24337Y-18633D01*
X24301Y-18546D01*
X24234Y-18479D01*
X24148Y-18443D01*
X24054Y-18443D01*
X23967Y-18479D01*
X23900Y-18546D01*
X23864Y-18632D01*
X23864Y-18726D01*
X23900Y-18813D01*
X23967Y-18880D01*
X24053Y-18916D01*
X24147Y-18916D01*
X24234Y-18880D01*
X24301Y-18813D01*
X24337Y-18727D01*
X24337Y-18633D01*
X24337Y-19073D01*
X24018Y-19073D01*
X23741Y-18796D01*
X23741Y-12983D01*
X23705Y-12896D01*
X23638Y-12829D01*
X23552Y-12793D01*
X23458Y-12793D01*
X23371Y-12829D01*
X23304Y-12896D01*
X23268Y-12982D01*
X23268Y-13076D01*
X23304Y-13163D01*
X23371Y-13230D01*
X23457Y-13266D01*
X23551Y-13266D01*
X23638Y-13230D01*
X23705Y-13163D01*
X23741Y-13077D01*
X23741Y-12983D01*
X23741Y-18796D01*
X23216Y-18271D01*
X23216Y-13455D01*
X23180Y-13368D01*
X23117Y-13305D01*
X23117Y-11624D01*
X23082Y-11537D01*
X23015Y-11471D01*
X22928Y-11435D01*
X22834Y-11435D01*
X22748Y-11471D01*
X22681Y-11537D01*
X22645Y-11624D01*
X22645Y-11718D01*
X22681Y-11805D01*
X22747Y-11871D01*
X22834Y-11907D01*
X22928Y-11907D01*
X23015Y-11871D01*
X23081Y-11805D01*
X23117Y-11718D01*
X23117Y-11624D01*
X23117Y-13305D01*
X23114Y-13302D01*
X23027Y-13266D01*
X22933Y-13265D01*
X22846Y-13301D01*
X22779Y-13368D01*
X22743Y-13455D01*
X22743Y-13548D01*
X22779Y-13635D01*
X22846Y-13702D01*
X22932Y-13738D01*
X23026Y-13738D01*
X23113Y-13702D01*
X23180Y-13636D01*
X23216Y-13549D01*
X23216Y-13455D01*
X23216Y-18271D01*
X22704Y-17759D01*
X22704Y-17497D01*
X22727Y-17474D01*
X22763Y-17387D01*
X22763Y-17294D01*
X22727Y-17207D01*
X22704Y-17183D01*
X22704Y-16100D01*
X22691Y-16032D01*
X22652Y-15975D01*
X22486Y-15808D01*
X22527Y-15826D01*
X22621Y-15826D01*
X22708Y-15790D01*
X22775Y-15723D01*
X22811Y-15637D01*
X22811Y-15543D01*
X22775Y-15456D01*
X22708Y-15389D01*
X22622Y-15353D01*
X22528Y-15353D01*
X22441Y-15389D01*
X22374Y-15456D01*
X22338Y-15542D01*
X22338Y-15636D01*
X22356Y-15678D01*
X22251Y-15574D01*
X22251Y-15542D01*
X22215Y-15455D01*
X22153Y-15392D01*
X22153Y-12510D01*
X22117Y-12423D01*
X22051Y-12357D01*
X21964Y-12321D01*
X21870Y-12321D01*
X21783Y-12356D01*
X21716Y-12423D01*
X21680Y-12510D01*
X21680Y-12604D01*
X21716Y-12690D01*
X21783Y-12757D01*
X21869Y-12793D01*
X21963Y-12793D01*
X22050Y-12757D01*
X22117Y-12691D01*
X22153Y-12604D01*
X22153Y-12510D01*
X22153Y-15392D01*
X22149Y-15388D01*
X22062Y-15352D01*
X21968Y-15352D01*
X21881Y-15388D01*
X21815Y-15454D01*
X21779Y-15541D01*
X21779Y-15635D01*
X21815Y-15722D01*
X21881Y-15788D01*
X21968Y-15824D01*
X22001Y-15825D01*
X22350Y-16174D01*
X22350Y-17183D01*
X22327Y-17206D01*
X22291Y-17293D01*
X22291Y-17387D01*
X22326Y-17474D01*
X22350Y-17497D01*
X22350Y-17739D01*
X22271Y-17661D01*
X22271Y-16258D01*
X22257Y-16190D01*
X22219Y-16132D01*
X21562Y-15476D01*
X21562Y-15018D01*
X21587Y-14993D01*
X21623Y-14907D01*
X21623Y-14813D01*
X21587Y-14726D01*
X21543Y-14682D01*
X21543Y-12884D01*
X21543Y-12215D01*
X21507Y-12128D01*
X21440Y-12061D01*
X21354Y-12025D01*
X21260Y-12025D01*
X21173Y-12061D01*
X21106Y-12128D01*
X21070Y-12214D01*
X21070Y-12308D01*
X21106Y-12395D01*
X21172Y-12462D01*
X21259Y-12498D01*
X21353Y-12498D01*
X21440Y-12462D01*
X21507Y-12396D01*
X21543Y-12309D01*
X21543Y-12215D01*
X21543Y-12884D01*
X21507Y-12797D01*
X21440Y-12731D01*
X21354Y-12695D01*
X21260Y-12695D01*
X21173Y-12730D01*
X21106Y-12797D01*
X21070Y-12884D01*
X21070Y-12978D01*
X21106Y-13064D01*
X21172Y-13131D01*
X21259Y-13167D01*
X21353Y-13167D01*
X21440Y-13131D01*
X21507Y-13065D01*
X21543Y-12978D01*
X21543Y-12884D01*
X21543Y-14682D01*
X21520Y-14659D01*
X21434Y-14623D01*
X21340Y-14623D01*
X21253Y-14659D01*
X21186Y-14726D01*
X21150Y-14812D01*
X21150Y-14906D01*
X21186Y-14993D01*
X21208Y-15015D01*
X21208Y-15549D01*
X21221Y-15617D01*
X21260Y-15674D01*
X21917Y-16331D01*
X21917Y-17734D01*
X21930Y-17802D01*
X21969Y-17859D01*
X22195Y-18086D01*
X22122Y-18055D01*
X22028Y-18055D01*
X21941Y-18091D01*
X21874Y-18158D01*
X21838Y-18244D01*
X21838Y-18338D01*
X21874Y-18425D01*
X21941Y-18492D01*
X22027Y-18528D01*
X22121Y-18528D01*
X22208Y-18492D01*
X22231Y-18469D01*
X22249Y-18469D01*
X22316Y-18455D01*
X22316Y-18455D01*
X22374Y-18417D01*
X22450Y-18341D01*
X23681Y-19572D01*
X23739Y-19610D01*
X23806Y-19624D01*
X26464Y-19624D01*
X26532Y-19610D01*
X26532Y-19610D01*
X26589Y-19572D01*
X28584Y-17577D01*
X30873Y-17577D01*
X30941Y-17563D01*
X30941Y-17563D01*
X30999Y-17525D01*
X32613Y-15910D01*
X32651Y-15853D01*
X32665Y-15785D01*
X32665Y-15785D01*
X32665Y-14918D01*
X32688Y-14896D01*
X32724Y-14809D01*
X32724Y-14715D01*
X32724Y-17321D01*
X32641Y-17321D01*
X32562Y-17353D01*
X32501Y-17414D01*
X32468Y-17494D01*
X32468Y-17494D01*
X32435Y-17415D01*
X32374Y-17354D01*
X32295Y-17321D01*
X32208Y-17321D01*
X32129Y-17353D01*
X32068Y-17414D01*
X32035Y-17494D01*
X32035Y-17494D01*
X32002Y-17415D01*
X31941Y-17354D01*
X31861Y-17321D01*
X31775Y-17321D01*
X31696Y-17353D01*
X31635Y-17414D01*
X31602Y-17494D01*
X31602Y-17580D01*
X31635Y-17660D01*
X31695Y-17721D01*
X31775Y-17754D01*
X31861Y-17754D01*
X31941Y-17721D01*
X32002Y-17660D01*
X32035Y-17580D01*
X32035Y-17494D01*
X32035Y-17580D01*
X32068Y-17660D01*
X32128Y-17721D01*
X32208Y-17754D01*
X32294Y-17754D01*
X32374Y-17721D01*
X32435Y-17660D01*
X32468Y-17580D01*
X32468Y-17494D01*
X32468Y-17580D01*
X32501Y-17660D01*
X32562Y-17721D01*
X32641Y-17754D01*
X32727Y-17754D01*
X32807Y-17721D01*
X32868Y-17660D01*
X32901Y-17580D01*
X32901Y-17494D01*
X32901Y-18045D01*
X32868Y-17966D01*
X32807Y-17905D01*
X32728Y-17872D01*
X32641Y-17872D01*
X32562Y-17905D01*
X32501Y-17966D01*
X32468Y-18045D01*
X32468Y-18045D01*
X32435Y-17966D01*
X32374Y-17905D01*
X32295Y-17872D01*
X32208Y-17872D01*
X32129Y-17905D01*
X32068Y-17966D01*
X32035Y-18045D01*
X32035Y-18045D01*
X32002Y-17966D01*
X31941Y-17905D01*
X31861Y-17872D01*
X31775Y-17872D01*
X31696Y-17905D01*
X31635Y-17966D01*
X31602Y-18045D01*
X31602Y-18131D01*
X31635Y-18211D01*
X31695Y-18272D01*
X31775Y-18305D01*
X31861Y-18305D01*
X31941Y-18272D01*
X32002Y-18211D01*
X32035Y-18132D01*
X32035Y-18045D01*
X32035Y-18131D01*
X32068Y-18211D01*
X32128Y-18272D01*
X32208Y-18305D01*
X32294Y-18305D01*
X32374Y-18272D01*
X32435Y-18211D01*
X32468Y-18132D01*
X32468Y-18045D01*
X32468Y-18131D01*
X32501Y-18211D01*
X32562Y-18272D01*
X32641Y-18305D01*
X32727Y-18305D01*
X32807Y-18272D01*
X32868Y-18211D01*
X32901Y-18132D01*
X32901Y-18045D01*
X32901Y-20362D01*
X32780Y-20362D01*
X32780Y-19155D01*
X32759Y-19104D01*
X32759Y-19104D01*
X32738Y-19054D01*
X32699Y-19015D01*
X32699Y-19015D01*
X32661Y-18976D01*
X32610Y-18955D01*
X32560Y-18934D01*
X32450Y-18934D01*
X32450Y-18934D01*
X31089Y-18934D01*
X31039Y-18885D01*
X31039Y-18885D01*
X31001Y-18846D01*
X30950Y-18825D01*
X30950Y-18825D01*
X30950Y-18825D01*
X30900Y-18804D01*
X30790Y-18804D01*
X30739Y-18825D01*
X30739Y-18825D01*
X30739Y-18825D01*
X30689Y-18846D01*
X30650Y-18885D01*
X30650Y-18885D01*
X30650Y-18885D01*
X30611Y-18923D01*
X30590Y-18974D01*
X30590Y-18974D01*
X30590Y-18974D01*
X30569Y-19024D01*
X30569Y-19134D01*
X30590Y-19185D01*
X30590Y-19185D01*
X30590Y-19185D01*
X30611Y-19235D01*
X30650Y-19274D01*
X30650Y-19274D01*
X30650Y-19274D01*
X30688Y-19313D01*
X30688Y-19313D01*
X30780Y-19404D01*
X30869Y-19464D01*
X30869Y-19464D01*
X30975Y-19485D01*
X32504Y-19485D01*
X32505Y-19485D01*
X32559Y-19485D01*
X32610Y-19464D01*
X32610Y-19464D01*
X32610Y-19464D01*
X32660Y-19443D01*
X32699Y-19404D01*
X32699Y-19404D01*
X32699Y-19404D01*
X32738Y-19366D01*
X32759Y-19315D01*
X32780Y-19265D01*
X32780Y-19210D01*
X32780Y-19155D01*
X32780Y-20362D01*
X30251Y-20362D01*
X30251Y-19703D01*
X30215Y-19616D01*
X30148Y-19549D01*
X30062Y-19513D01*
X29968Y-19513D01*
X29881Y-19549D01*
X29814Y-19616D01*
X29778Y-19702D01*
X29778Y-19796D01*
X29814Y-19883D01*
X29881Y-19950D01*
X29967Y-19986D01*
X30061Y-19986D01*
X30148Y-19950D01*
X30215Y-19883D01*
X30251Y-19797D01*
X30251Y-19703D01*
X30251Y-20362D01*
X23275Y-20362D01*
X23275Y-19385D01*
X23167Y-19124D01*
X22968Y-18925D01*
X22708Y-18817D01*
X22426Y-18817D01*
X22165Y-18924D01*
X21966Y-19123D01*
X21858Y-19384D01*
X21857Y-19666D01*
X21965Y-19926D01*
X22164Y-20126D01*
X22425Y-20234D01*
X22707Y-20234D01*
X22967Y-20126D01*
X23167Y-19927D01*
X23275Y-19667D01*
X23275Y-19385D01*
X23275Y-20362D01*
X21621Y-20362D01*
X21621Y-16250D01*
X21585Y-16163D01*
X21518Y-16096D01*
X21432Y-16060D01*
X21338Y-16060D01*
X21251Y-16096D01*
X21184Y-16163D01*
X21148Y-16249D01*
X21148Y-16343D01*
X21184Y-16430D01*
X21251Y-16497D01*
X21337Y-16533D01*
X21431Y-16533D01*
X21518Y-16497D01*
X21585Y-16430D01*
X21621Y-16344D01*
X21621Y-16250D01*
X21621Y-20362D01*
X20942Y-20362D01*
X20942Y-10706D01*
X34958Y-10706D01*
X34958Y-13206D01*
X34969Y-13263D01*
X35001Y-13311D01*
X35049Y-13343D01*
X35066Y-13346D01*
X35066Y-17830D01*
X35066Y-17830D01*
G37*
G54D17*
X35066Y-17830D02*
X35049Y-17834D01*
X35001Y-17866D01*
X34969Y-17914D01*
X34958Y-17970D01*
X34958Y-20362D01*
X34850Y-20362D01*
X34850Y-17364D01*
X34808Y-17263D01*
X34732Y-17187D01*
X34732Y-15128D01*
X34696Y-15041D01*
X34629Y-14975D01*
X34543Y-14939D01*
X34449Y-14939D01*
X34362Y-14975D01*
X34295Y-15041D01*
X34259Y-15128D01*
X34259Y-15195D01*
X34193Y-15195D01*
X34106Y-15230D01*
X34039Y-15297D01*
X34003Y-15384D01*
X34003Y-15478D01*
X34039Y-15564D01*
X34105Y-15631D01*
X34192Y-15667D01*
X34286Y-15667D01*
X34373Y-15631D01*
X34440Y-15565D01*
X34476Y-15478D01*
X34476Y-15411D01*
X34542Y-15411D01*
X34629Y-15375D01*
X34696Y-15309D01*
X34732Y-15222D01*
X34732Y-15128D01*
X34732Y-17187D01*
X34730Y-17186D01*
X34629Y-17143D01*
X34520Y-17143D01*
X34418Y-17185D01*
X34341Y-17263D01*
X34299Y-17364D01*
X34298Y-17474D01*
X34340Y-17575D01*
X34418Y-17653D01*
X34519Y-17695D01*
X34629Y-17695D01*
X34730Y-17653D01*
X34808Y-17575D01*
X34850Y-17474D01*
X34850Y-17364D01*
X34850Y-20362D01*
X33944Y-20362D01*
X33944Y-11511D01*
X33837Y-11250D01*
X33637Y-11051D01*
X33377Y-10943D01*
X33095Y-10943D01*
X32835Y-11050D01*
X32635Y-11249D01*
X32527Y-11510D01*
X32527Y-11792D01*
X32634Y-12052D01*
X32834Y-12252D01*
X33094Y-12360D01*
X33376Y-12360D01*
X33636Y-12252D01*
X33836Y-12053D01*
X33944Y-11793D01*
X33944Y-11511D01*
X33944Y-20362D01*
X33905Y-20362D01*
X33905Y-13731D01*
X33869Y-13644D01*
X33803Y-13577D01*
X33716Y-13541D01*
X33622Y-13541D01*
X33535Y-13577D01*
X33511Y-13601D01*
X33511Y-13101D01*
X33475Y-13014D01*
X33409Y-12947D01*
X33322Y-12911D01*
X33228Y-12911D01*
X33141Y-12947D01*
X33075Y-13013D01*
X33039Y-13100D01*
X33039Y-13194D01*
X33075Y-13281D01*
X33098Y-13305D01*
X33035Y-13368D01*
X32999Y-13455D01*
X32999Y-13548D01*
X33035Y-13635D01*
X33102Y-13702D01*
X33188Y-13738D01*
X33282Y-13738D01*
X33369Y-13702D01*
X33436Y-13636D01*
X33472Y-13549D01*
X33472Y-13455D01*
X33436Y-13368D01*
X33412Y-13344D01*
X33475Y-13281D01*
X33511Y-13195D01*
X33511Y-13101D01*
X33511Y-13601D01*
X33468Y-13643D01*
X33432Y-13730D01*
X33432Y-13824D01*
X33468Y-13911D01*
X33535Y-13977D01*
X33621Y-14013D01*
X33715Y-14014D01*
X33802Y-13978D01*
X33869Y-13911D01*
X33905Y-13824D01*
X33905Y-13731D01*
X33905Y-20362D01*
X33846Y-20362D01*
X33846Y-14439D01*
X33810Y-14352D01*
X33744Y-14286D01*
X33657Y-14250D01*
X33563Y-14250D01*
X33476Y-14286D01*
X33409Y-14352D01*
X33373Y-14439D01*
X33373Y-14533D01*
X33409Y-14620D01*
X33476Y-14686D01*
X33562Y-14722D01*
X33656Y-14722D01*
X33743Y-14686D01*
X33810Y-14620D01*
X33846Y-14533D01*
X33846Y-14439D01*
X33846Y-20362D01*
X33826Y-20362D01*
X33826Y-16919D01*
X33790Y-16833D01*
X33724Y-16766D01*
X33637Y-16730D01*
X33543Y-16730D01*
X33456Y-16766D01*
X33390Y-16832D01*
X33354Y-16919D01*
X33354Y-17013D01*
X33389Y-17100D01*
X33456Y-17166D01*
X33543Y-17202D01*
X33637Y-17203D01*
X33723Y-17167D01*
X33790Y-17100D01*
X33826Y-17013D01*
X33826Y-16919D01*
X33826Y-20362D01*
X33236Y-20362D01*
X33236Y-14360D01*
X33200Y-14274D01*
X33133Y-14207D01*
X33046Y-14171D01*
X32953Y-14171D01*
X32866Y-14207D01*
X32799Y-14273D01*
X32763Y-14360D01*
X32763Y-14454D01*
X32799Y-14541D01*
X32865Y-14607D01*
X32952Y-14643D01*
X33046Y-14643D01*
X33133Y-14608D01*
X33199Y-14541D01*
X33235Y-14454D01*
X33236Y-14360D01*
X33236Y-20362D01*
X32901Y-20362D01*
X32901Y-18045D01*
X32901Y-17494D01*
X32868Y-17415D01*
X32807Y-17354D01*
X32728Y-17321D01*
X32724Y-17321D01*
X32724Y-14715D01*
X32688Y-14628D01*
X32621Y-14561D01*
X32535Y-14525D01*
X32441Y-14525D01*
X32409Y-14538D01*
X32409Y-11368D01*
X32373Y-11281D01*
X32307Y-11215D01*
X32220Y-11179D01*
X32126Y-11179D01*
X32039Y-11215D01*
X31972Y-11281D01*
X31936Y-11368D01*
X31936Y-11462D01*
X31972Y-11549D01*
X32039Y-11615D01*
X32125Y-11651D01*
X32219Y-11651D01*
X32306Y-11615D01*
X32373Y-11549D01*
X32409Y-11462D01*
X32409Y-11368D01*
X32409Y-14538D01*
X32354Y-14561D01*
X32287Y-14628D01*
X32279Y-14648D01*
X32220Y-14624D01*
X32126Y-14624D01*
X32114Y-14629D01*
X32097Y-14589D01*
X32031Y-14522D01*
X31944Y-14486D01*
X31897Y-14486D01*
X31897Y-14479D01*
X31861Y-14392D01*
X31795Y-14325D01*
X31708Y-14289D01*
X31661Y-14289D01*
X31661Y-11486D01*
X31625Y-11400D01*
X31558Y-11333D01*
X31472Y-11297D01*
X31378Y-11297D01*
X31291Y-11333D01*
X31224Y-11399D01*
X31188Y-11486D01*
X31188Y-11580D01*
X31224Y-11667D01*
X31291Y-11733D01*
X31377Y-11769D01*
X31471Y-11769D01*
X31558Y-11734D01*
X31625Y-11667D01*
X31661Y-11580D01*
X31661Y-11486D01*
X31661Y-14289D01*
X31614Y-14289D01*
X31527Y-14325D01*
X31503Y-14349D01*
X31503Y-12353D01*
X31467Y-12266D01*
X31401Y-12199D01*
X31314Y-12163D01*
X31220Y-12163D01*
X31133Y-12199D01*
X31067Y-12265D01*
X31031Y-12352D01*
X31031Y-12446D01*
X31067Y-12533D01*
X31133Y-12599D01*
X31220Y-12636D01*
X31314Y-12636D01*
X31401Y-12600D01*
X31467Y-12533D01*
X31503Y-12447D01*
X31503Y-12353D01*
X31503Y-14349D01*
X31461Y-14391D01*
X31425Y-14478D01*
X31424Y-14572D01*
X31460Y-14659D01*
X31527Y-14725D01*
X31614Y-14762D01*
X31661Y-14762D01*
X31661Y-14769D01*
X31697Y-14856D01*
X31720Y-14879D01*
X31720Y-15786D01*
X31677Y-15743D01*
X31590Y-15706D01*
X31557Y-15706D01*
X31287Y-15436D01*
X31287Y-13423D01*
X31273Y-13355D01*
X31235Y-13298D01*
X30755Y-12818D01*
X30755Y-12786D01*
X30719Y-12699D01*
X30653Y-12632D01*
X30566Y-12596D01*
X30472Y-12596D01*
X30385Y-12632D01*
X30319Y-12698D01*
X30311Y-12718D01*
X30286Y-12659D01*
X30220Y-12593D01*
X30133Y-12557D01*
X30039Y-12557D01*
X29952Y-12593D01*
X29886Y-12659D01*
X29850Y-12746D01*
X29850Y-12840D01*
X29886Y-12927D01*
X29949Y-12990D01*
X29886Y-13053D01*
X29850Y-13140D01*
X29850Y-13234D01*
X29886Y-13320D01*
X29952Y-13387D01*
X30039Y-13423D01*
X30133Y-13423D01*
X30220Y-13387D01*
X30286Y-13321D01*
X30309Y-13266D01*
X30657Y-13614D01*
X30657Y-14019D01*
X30251Y-13613D01*
X30193Y-13574D01*
X30125Y-13561D01*
X28939Y-13561D01*
X28865Y-13487D01*
X28865Y-12077D01*
X28830Y-11990D01*
X28763Y-11924D01*
X28676Y-11888D01*
X28582Y-11887D01*
X28496Y-11923D01*
X28429Y-11990D01*
X28393Y-12077D01*
X28393Y-12171D01*
X28429Y-12257D01*
X28495Y-12324D01*
X28582Y-12360D01*
X28676Y-12360D01*
X28763Y-12324D01*
X28829Y-12258D01*
X28865Y-12171D01*
X28865Y-12077D01*
X28865Y-13487D01*
X27822Y-12444D01*
X27822Y-12379D01*
X27846Y-12403D01*
X27932Y-12439D01*
X28026Y-12439D01*
X28113Y-12403D01*
X28180Y-12336D01*
X28216Y-12250D01*
X28216Y-12156D01*
X28180Y-12069D01*
X28114Y-12002D01*
X28027Y-11966D01*
X27933Y-11966D01*
X27850Y-12001D01*
X27845Y-11990D01*
X27842Y-11987D01*
X27842Y-11565D01*
X27806Y-11478D01*
X27740Y-11412D01*
X27653Y-11376D01*
X27559Y-11376D01*
X27472Y-11412D01*
X27405Y-11478D01*
X27369Y-11565D01*
X27369Y-11659D01*
X27405Y-11746D01*
X27472Y-11812D01*
X27558Y-11848D01*
X27652Y-11848D01*
X27739Y-11812D01*
X27806Y-11746D01*
X27842Y-11659D01*
X27842Y-11565D01*
X27842Y-11987D01*
X27779Y-11924D01*
X27692Y-11888D01*
X27598Y-11887D01*
X27511Y-11923D01*
X27445Y-11990D01*
X27409Y-12077D01*
X27409Y-12171D01*
X27445Y-12257D01*
X27468Y-12281D01*
X27468Y-12517D01*
X27481Y-12585D01*
X27489Y-12596D01*
X27401Y-12596D01*
X27314Y-12632D01*
X27248Y-12698D01*
X27212Y-12785D01*
X27212Y-12879D01*
X27248Y-12966D01*
X27314Y-13033D01*
X27366Y-13054D01*
X27330Y-13140D01*
X27330Y-13234D01*
X27366Y-13320D01*
X27389Y-13344D01*
X27389Y-14649D01*
X27079Y-14958D01*
X27047Y-14958D01*
X26976Y-14988D01*
X26976Y-12786D01*
X26940Y-12699D01*
X26873Y-12632D01*
X26858Y-12626D01*
X26858Y-11565D01*
X26822Y-11478D01*
X26755Y-11412D01*
X26669Y-11376D01*
X26575Y-11376D01*
X26488Y-11412D01*
X26421Y-11478D01*
X26385Y-11565D01*
X26385Y-11659D01*
X26421Y-11746D01*
X26487Y-11812D01*
X26574Y-11848D01*
X26668Y-11848D01*
X26755Y-11812D01*
X26821Y-11746D01*
X26858Y-11659D01*
X26858Y-11565D01*
X26858Y-12626D01*
X26787Y-12596D01*
X26693Y-12596D01*
X26606Y-12632D01*
X26539Y-12698D01*
X26503Y-12785D01*
X26503Y-12879D01*
X26539Y-12966D01*
X26605Y-13033D01*
X26692Y-13069D01*
X26786Y-13069D01*
X26873Y-13033D01*
X26940Y-12966D01*
X26976Y-12880D01*
X26976Y-12786D01*
X26976Y-14988D01*
X26960Y-14994D01*
X26894Y-15061D01*
X26858Y-15147D01*
X26858Y-15241D01*
X26893Y-15328D01*
X26960Y-15395D01*
X27047Y-15431D01*
X27141Y-15431D01*
X27227Y-15395D01*
X27294Y-15329D01*
X27330Y-15242D01*
X27330Y-15209D01*
X27645Y-14894D01*
X27645Y-14926D01*
X27681Y-15013D01*
X27747Y-15080D01*
X27834Y-15116D01*
X27928Y-15116D01*
X28015Y-15080D01*
X28081Y-15014D01*
X28117Y-14927D01*
X28117Y-14833D01*
X28082Y-14746D01*
X28015Y-14680D01*
X27928Y-14643D01*
X27834Y-14643D01*
X27748Y-14679D01*
X27743Y-14683D01*
X27743Y-14170D01*
X27787Y-14214D01*
X27873Y-14250D01*
X27967Y-14250D01*
X28054Y-14214D01*
X28121Y-14147D01*
X28157Y-14061D01*
X28157Y-13967D01*
X28121Y-13880D01*
X28055Y-13813D01*
X27968Y-13777D01*
X27874Y-13777D01*
X27787Y-13813D01*
X27743Y-13857D01*
X27743Y-13344D01*
X27766Y-13321D01*
X27802Y-13234D01*
X27802Y-13140D01*
X27767Y-13053D01*
X27700Y-12987D01*
X27649Y-12965D01*
X27684Y-12880D01*
X27684Y-12807D01*
X28740Y-13863D01*
X28798Y-13902D01*
X28798Y-13902D01*
X28865Y-13915D01*
X30052Y-13915D01*
X30381Y-14244D01*
X30381Y-14604D01*
X30395Y-14672D01*
X30433Y-14729D01*
X30480Y-14776D01*
X30480Y-14808D01*
X30515Y-14895D01*
X30582Y-14962D01*
X30669Y-14998D01*
X30763Y-14998D01*
X30849Y-14962D01*
X30916Y-14896D01*
X30932Y-14856D01*
X30932Y-15510D01*
X30946Y-15577D01*
X30984Y-15635D01*
X31306Y-15957D01*
X31306Y-15989D01*
X31342Y-16076D01*
X31409Y-16143D01*
X31495Y-16179D01*
X31528Y-16179D01*
X30761Y-16947D01*
X29534Y-16947D01*
X29577Y-16903D01*
X29613Y-16817D01*
X29614Y-16723D01*
X29592Y-16671D01*
X30362Y-16671D01*
X30429Y-16658D01*
X30429Y-16658D01*
X30487Y-16619D01*
X30848Y-16258D01*
X30881Y-16258D01*
X30968Y-16222D01*
X31034Y-16155D01*
X31070Y-16069D01*
X31070Y-15975D01*
X31034Y-15888D01*
X30968Y-15821D01*
X30881Y-15785D01*
X30787Y-15785D01*
X30700Y-15821D01*
X30637Y-15884D01*
X30574Y-15821D01*
X30487Y-15785D01*
X30393Y-15785D01*
X30307Y-15821D01*
X30240Y-15887D01*
X30204Y-15974D01*
X30204Y-16002D01*
X28472Y-16002D01*
X28404Y-16015D01*
X28346Y-16054D01*
X27960Y-16440D01*
X27960Y-16408D01*
X27924Y-16321D01*
X27858Y-16254D01*
X27771Y-16218D01*
X27677Y-16218D01*
X27590Y-16254D01*
X27524Y-16320D01*
X27488Y-16407D01*
X27487Y-16501D01*
X27523Y-16588D01*
X27590Y-16655D01*
X27677Y-16691D01*
X27709Y-16691D01*
X27158Y-17242D01*
X27126Y-17242D01*
X27039Y-17278D01*
X26972Y-17344D01*
X26936Y-17431D01*
X26936Y-17525D01*
X26972Y-17612D01*
X27039Y-17678D01*
X27062Y-17688D01*
X27051Y-17698D01*
X27015Y-17785D01*
X27015Y-17879D01*
X27051Y-17966D01*
X27117Y-18033D01*
X27204Y-18069D01*
X27276Y-18069D01*
X26405Y-18940D01*
X26405Y-12589D01*
X26385Y-12541D01*
X26385Y-12077D01*
X26349Y-11990D01*
X26283Y-11924D01*
X26196Y-11888D01*
X26102Y-11887D01*
X26015Y-11923D01*
X25949Y-11990D01*
X25913Y-12077D01*
X25913Y-12171D01*
X25949Y-12257D01*
X26015Y-12324D01*
X26102Y-12360D01*
X26196Y-12360D01*
X26283Y-12324D01*
X26349Y-12258D01*
X26385Y-12171D01*
X26385Y-12077D01*
X26385Y-12541D01*
X26369Y-12502D01*
X26303Y-12435D01*
X26216Y-12399D01*
X26122Y-12399D01*
X26035Y-12435D01*
X25968Y-12502D01*
X25932Y-12588D01*
X25932Y-12682D01*
X25968Y-12769D01*
X26035Y-12836D01*
X26121Y-12872D01*
X26215Y-12872D01*
X26302Y-12836D01*
X26369Y-12770D01*
X26405Y-12683D01*
X26405Y-12589D01*
X26405Y-18940D01*
X26346Y-18999D01*
X26346Y-18642D01*
X26310Y-18555D01*
X26244Y-18489D01*
X26157Y-18453D01*
X26063Y-18452D01*
X26051Y-18458D01*
X26051Y-15841D01*
X26018Y-15761D01*
X25957Y-15700D01*
X25877Y-15667D01*
X25877Y-15667D01*
X25956Y-15634D01*
X26017Y-15573D01*
X26050Y-15494D01*
X26051Y-15408D01*
X26018Y-15328D01*
X25957Y-15267D01*
X25877Y-15234D01*
X25877Y-15234D01*
X25956Y-15201D01*
X26017Y-15140D01*
X26050Y-15061D01*
X26051Y-14975D01*
X26018Y-14895D01*
X25957Y-14834D01*
X25877Y-14801D01*
X25791Y-14801D01*
X25711Y-14834D01*
X25650Y-14895D01*
X25617Y-14974D01*
X25617Y-14975D01*
X25585Y-14895D01*
X25524Y-14834D01*
X25444Y-14801D01*
X25401Y-14801D01*
X25401Y-12904D01*
X25365Y-12817D01*
X25299Y-12750D01*
X25212Y-12714D01*
X25118Y-12714D01*
X25031Y-12750D01*
X24965Y-12817D01*
X24928Y-12903D01*
X24928Y-12997D01*
X24964Y-13084D01*
X25031Y-13151D01*
X25117Y-13187D01*
X25211Y-13187D01*
X25298Y-13151D01*
X25365Y-13085D01*
X25401Y-12998D01*
X25401Y-12904D01*
X25401Y-14801D01*
X25358Y-14801D01*
X25278Y-14834D01*
X25217Y-14895D01*
X25184Y-14974D01*
X25184Y-14975D01*
X25151Y-14895D01*
X25091Y-14834D01*
X25011Y-14801D01*
X24925Y-14801D01*
X24845Y-14834D01*
X24810Y-14869D01*
X24810Y-11132D01*
X24774Y-11045D01*
X24708Y-10979D01*
X24621Y-10943D01*
X24527Y-10943D01*
X24440Y-10978D01*
X24374Y-11045D01*
X24338Y-11132D01*
X24338Y-11226D01*
X24374Y-11313D01*
X24440Y-11379D01*
X24527Y-11415D01*
X24621Y-11415D01*
X24708Y-11379D01*
X24774Y-11313D01*
X24810Y-11226D01*
X24810Y-11132D01*
X24810Y-14869D01*
X24784Y-14895D01*
X24751Y-14974D01*
X24751Y-14975D01*
X24718Y-14895D01*
X24658Y-14834D01*
X24578Y-14801D01*
X24492Y-14801D01*
X24412Y-14834D01*
X24397Y-14849D01*
X24397Y-11801D01*
X24361Y-11715D01*
X24295Y-11648D01*
X24208Y-11612D01*
X24114Y-11612D01*
X24027Y-11648D01*
X23961Y-11714D01*
X23925Y-11801D01*
X23924Y-11895D01*
X23960Y-11982D01*
X24027Y-12048D01*
X24114Y-12084D01*
X24208Y-12084D01*
X24294Y-12049D01*
X24361Y-11982D01*
X24397Y-11895D01*
X24397Y-11801D01*
X24397Y-14849D01*
X24351Y-14895D01*
X24318Y-14974D01*
X24318Y-14975D01*
X24285Y-14895D01*
X24224Y-14834D01*
X24145Y-14801D01*
X24059Y-14801D01*
X23979Y-14834D01*
X23918Y-14895D01*
X23885Y-14974D01*
X23885Y-15060D01*
X23918Y-15140D01*
X23979Y-15201D01*
X24058Y-15234D01*
X24145Y-15234D01*
X24059Y-15234D01*
X23979Y-15267D01*
X23918Y-15328D01*
X23885Y-15407D01*
X23885Y-15493D01*
X23918Y-15573D01*
X23979Y-15634D01*
X24058Y-15667D01*
X24145Y-15667D01*
X24059Y-15667D01*
X23979Y-15700D01*
X23918Y-15761D01*
X23885Y-15840D01*
X23885Y-15926D01*
X23918Y-16006D01*
X23979Y-16067D01*
X24058Y-16100D01*
X24145Y-16100D01*
X24059Y-16100D01*
X23979Y-16133D01*
X23918Y-16194D01*
X23885Y-16273D01*
X23885Y-16360D01*
X23918Y-16439D01*
X23979Y-16500D01*
X24058Y-16533D01*
X24145Y-16533D01*
X24059Y-16533D01*
X23979Y-16566D01*
X23918Y-16627D01*
X23885Y-16706D01*
X23885Y-16793D01*
X23918Y-16872D01*
X23979Y-16933D01*
X24058Y-16966D01*
X24145Y-16966D01*
X24224Y-16933D01*
X24285Y-16873D01*
X24318Y-16793D01*
X24318Y-16707D01*
X24318Y-16793D01*
X24351Y-16872D01*
X24412Y-16933D01*
X24491Y-16966D01*
X24578Y-16966D01*
X24657Y-16933D01*
X24718Y-16873D01*
X24748Y-16800D01*
X24774Y-16862D01*
X24835Y-16923D01*
X24915Y-16956D01*
X25001Y-16956D01*
X25080Y-16924D01*
X25141Y-16863D01*
X25174Y-16783D01*
X25175Y-16697D01*
X25174Y-16783D01*
X25207Y-16862D01*
X25268Y-16923D01*
X25348Y-16956D01*
X25434Y-16956D01*
X25514Y-16924D01*
X25574Y-16863D01*
X25608Y-16783D01*
X25608Y-16697D01*
X25608Y-16783D01*
X25640Y-16862D01*
X25701Y-16923D01*
X25781Y-16956D01*
X25867Y-16956D01*
X25947Y-16924D01*
X26008Y-16863D01*
X26041Y-16783D01*
X26041Y-16697D01*
X26008Y-16617D01*
X25947Y-16556D01*
X25867Y-16523D01*
X25867Y-16523D01*
X25947Y-16490D01*
X26008Y-16430D01*
X26041Y-16350D01*
X26041Y-16264D01*
X26008Y-16184D01*
X25947Y-16123D01*
X25884Y-16097D01*
X25956Y-16067D01*
X26017Y-16006D01*
X26050Y-15927D01*
X26051Y-15841D01*
X26051Y-18458D01*
X25976Y-18488D01*
X25909Y-18555D01*
X25873Y-18642D01*
X25873Y-18735D01*
X25909Y-18822D01*
X25976Y-18889D01*
X26062Y-18925D01*
X26156Y-18925D01*
X26243Y-18889D01*
X26310Y-18823D01*
X26346Y-18736D01*
X26346Y-18642D01*
X26346Y-18999D01*
X26272Y-19073D01*
X24337Y-19073D01*
X24337Y-18633D01*
X24301Y-18546D01*
X24234Y-18479D01*
X24148Y-18443D01*
X24054Y-18443D01*
X23967Y-18479D01*
X23900Y-18546D01*
X23864Y-18632D01*
X23864Y-18726D01*
X23900Y-18813D01*
X23967Y-18880D01*
X24053Y-18916D01*
X24147Y-18916D01*
X24234Y-18880D01*
X24301Y-18813D01*
X24337Y-18727D01*
X24337Y-18633D01*
X24337Y-19073D01*
X24018Y-19073D01*
X23741Y-18796D01*
X23741Y-12983D01*
X23705Y-12896D01*
X23638Y-12829D01*
X23552Y-12793D01*
X23458Y-12793D01*
X23371Y-12829D01*
X23304Y-12896D01*
X23268Y-12982D01*
X23268Y-13076D01*
X23304Y-13163D01*
X23371Y-13230D01*
X23457Y-13266D01*
X23551Y-13266D01*
X23638Y-13230D01*
X23705Y-13163D01*
X23741Y-13077D01*
X23741Y-12983D01*
X23741Y-18796D01*
X23216Y-18271D01*
X23216Y-13455D01*
X23180Y-13368D01*
X23117Y-13305D01*
X23117Y-11624D01*
X23082Y-11537D01*
X23015Y-11471D01*
X22928Y-11435D01*
X22834Y-11435D01*
X22748Y-11471D01*
X22681Y-11537D01*
X22645Y-11624D01*
X22645Y-11718D01*
X22681Y-11805D01*
X22747Y-11871D01*
X22834Y-11907D01*
X22928Y-11907D01*
X23015Y-11871D01*
X23081Y-11805D01*
X23117Y-11718D01*
X23117Y-11624D01*
X23117Y-13305D01*
X23114Y-13302D01*
X23027Y-13266D01*
X22933Y-13265D01*
X22846Y-13301D01*
X22779Y-13368D01*
X22743Y-13455D01*
X22743Y-13548D01*
X22779Y-13635D01*
X22846Y-13702D01*
X22932Y-13738D01*
X23026Y-13738D01*
X23113Y-13702D01*
X23180Y-13636D01*
X23216Y-13549D01*
X23216Y-13455D01*
X23216Y-18271D01*
X22704Y-17759D01*
X22704Y-17497D01*
X22727Y-17474D01*
X22763Y-17387D01*
X22763Y-17294D01*
X22727Y-17207D01*
X22704Y-17183D01*
X22704Y-16100D01*
X22691Y-16032D01*
X22652Y-15975D01*
X22486Y-15808D01*
X22527Y-15826D01*
X22621Y-15826D01*
X22708Y-15790D01*
X22775Y-15723D01*
X22811Y-15637D01*
X22811Y-15543D01*
X22775Y-15456D01*
X22708Y-15389D01*
X22622Y-15353D01*
X22528Y-15353D01*
X22441Y-15389D01*
X22374Y-15456D01*
X22338Y-15542D01*
X22338Y-15636D01*
X22356Y-15678D01*
X22251Y-15574D01*
X22251Y-15542D01*
X22215Y-15455D01*
X22153Y-15392D01*
X22153Y-12510D01*
X22117Y-12423D01*
X22051Y-12357D01*
X21964Y-12321D01*
X21870Y-12321D01*
X21783Y-12356D01*
X21716Y-12423D01*
X21680Y-12510D01*
X21680Y-12604D01*
X21716Y-12690D01*
X21783Y-12757D01*
X21869Y-12793D01*
X21963Y-12793D01*
X22050Y-12757D01*
X22117Y-12691D01*
X22153Y-12604D01*
X22153Y-12510D01*
X22153Y-15392D01*
X22149Y-15388D01*
X22062Y-15352D01*
X21968Y-15352D01*
X21881Y-15388D01*
X21815Y-15454D01*
X21779Y-15541D01*
X21779Y-15635D01*
X21815Y-15722D01*
X21881Y-15788D01*
X21968Y-15824D01*
X22001Y-15825D01*
X22350Y-16174D01*
X22350Y-17183D01*
X22327Y-17206D01*
X22291Y-17293D01*
X22291Y-17387D01*
X22326Y-17474D01*
X22350Y-17497D01*
X22350Y-17739D01*
X22271Y-17661D01*
X22271Y-16258D01*
X22257Y-16190D01*
X22219Y-16132D01*
X21562Y-15476D01*
X21562Y-15018D01*
X21587Y-14993D01*
X21623Y-14907D01*
X21623Y-14813D01*
X21587Y-14726D01*
X21543Y-14682D01*
X21543Y-12884D01*
X21543Y-12215D01*
X21507Y-12128D01*
X21440Y-12061D01*
X21354Y-12025D01*
X21260Y-12025D01*
X21173Y-12061D01*
X21106Y-12128D01*
X21070Y-12214D01*
X21070Y-12308D01*
X21106Y-12395D01*
X21172Y-12462D01*
X21259Y-12498D01*
X21353Y-12498D01*
X21440Y-12462D01*
X21507Y-12396D01*
X21543Y-12309D01*
X21543Y-12215D01*
X21543Y-12884D01*
X21507Y-12797D01*
X21440Y-12731D01*
X21354Y-12695D01*
X21260Y-12695D01*
X21173Y-12730D01*
X21106Y-12797D01*
X21070Y-12884D01*
X21070Y-12978D01*
X21106Y-13064D01*
X21172Y-13131D01*
X21259Y-13167D01*
X21353Y-13167D01*
X21440Y-13131D01*
X21507Y-13065D01*
X21543Y-12978D01*
X21543Y-12884D01*
X21543Y-14682D01*
X21520Y-14659D01*
X21434Y-14623D01*
X21340Y-14623D01*
X21253Y-14659D01*
X21186Y-14726D01*
X21150Y-14812D01*
X21150Y-14906D01*
X21186Y-14993D01*
X21208Y-15015D01*
X21208Y-15549D01*
X21221Y-15617D01*
X21260Y-15674D01*
X21917Y-16331D01*
X21917Y-17734D01*
X21930Y-17802D01*
X21969Y-17859D01*
X22195Y-18086D01*
X22122Y-18055D01*
X22028Y-18055D01*
X21941Y-18091D01*
X21874Y-18158D01*
X21838Y-18244D01*
X21838Y-18338D01*
X21874Y-18425D01*
X21941Y-18492D01*
X22027Y-18528D01*
X22121Y-18528D01*
X22208Y-18492D01*
X22231Y-18469D01*
X22249Y-18469D01*
X22316Y-18455D01*
X22316Y-18455D01*
X22374Y-18417D01*
X22450Y-18341D01*
X23681Y-19572D01*
X23739Y-19610D01*
X23806Y-19624D01*
X26464Y-19624D01*
X26532Y-19610D01*
X26532Y-19610D01*
X26589Y-19572D01*
X28584Y-17577D01*
X30873Y-17577D01*
X30941Y-17563D01*
X30941Y-17563D01*
X30999Y-17525D01*
X32613Y-15910D01*
X32651Y-15853D01*
X32665Y-15785D01*
X32665Y-15785D01*
X32665Y-14918D01*
X32688Y-14896D01*
X32724Y-14809D01*
X32724Y-14715D01*
X32724Y-17321D01*
X32641Y-17321D01*
X32562Y-17353D01*
X32501Y-17414D01*
X32468Y-17494D01*
X32468Y-17494D01*
X32435Y-17415D01*
X32374Y-17354D01*
X32295Y-17321D01*
X32208Y-17321D01*
X32129Y-17353D01*
X32068Y-17414D01*
X32035Y-17494D01*
X32035Y-17494D01*
X32002Y-17415D01*
X31941Y-17354D01*
X31861Y-17321D01*
X31775Y-17321D01*
X31696Y-17353D01*
X31635Y-17414D01*
X31602Y-17494D01*
X31602Y-17580D01*
X31635Y-17660D01*
X31695Y-17721D01*
X31775Y-17754D01*
X31861Y-17754D01*
X31941Y-17721D01*
X32002Y-17660D01*
X32035Y-17580D01*
X32035Y-17494D01*
X32035Y-17580D01*
X32068Y-17660D01*
X32128Y-17721D01*
X32208Y-17754D01*
X32294Y-17754D01*
X32374Y-17721D01*
X32435Y-17660D01*
X32468Y-17580D01*
X32468Y-17494D01*
X32468Y-17580D01*
X32501Y-17660D01*
X32562Y-17721D01*
X32641Y-17754D01*
X32727Y-17754D01*
X32807Y-17721D01*
X32868Y-17660D01*
X32901Y-17580D01*
X32901Y-17494D01*
X32901Y-18045D01*
X32868Y-17966D01*
X32807Y-17905D01*
X32728Y-17872D01*
X32641Y-17872D01*
X32562Y-17905D01*
X32501Y-17966D01*
X32468Y-18045D01*
X32468Y-18045D01*
X32435Y-17966D01*
X32374Y-17905D01*
X32295Y-17872D01*
X32208Y-17872D01*
X32129Y-17905D01*
X32068Y-17966D01*
X32035Y-18045D01*
X32035Y-18045D01*
X32002Y-17966D01*
X31941Y-17905D01*
X31861Y-17872D01*
X31775Y-17872D01*
X31696Y-17905D01*
X31635Y-17966D01*
X31602Y-18045D01*
X31602Y-18131D01*
X31635Y-18211D01*
X31695Y-18272D01*
X31775Y-18305D01*
X31861Y-18305D01*
X31941Y-18272D01*
X32002Y-18211D01*
X32035Y-18132D01*
X32035Y-18045D01*
X32035Y-18131D01*
X32068Y-18211D01*
X32128Y-18272D01*
X32208Y-18305D01*
X32294Y-18305D01*
X32374Y-18272D01*
X32435Y-18211D01*
X32468Y-18132D01*
X32468Y-18045D01*
X32468Y-18131D01*
X32501Y-18211D01*
X32562Y-18272D01*
X32641Y-18305D01*
X32727Y-18305D01*
X32807Y-18272D01*
X32868Y-18211D01*
X32901Y-18132D01*
X32901Y-18045D01*
X32901Y-20362D01*
X32780Y-20362D01*
X32780Y-19155D01*
X32759Y-19104D01*
X32759Y-19104D01*
X32738Y-19054D01*
X32699Y-19015D01*
X32699Y-19015D01*
X32661Y-18976D01*
X32610Y-18955D01*
X32560Y-18934D01*
X32450Y-18934D01*
X32450Y-18934D01*
X31089Y-18934D01*
X31039Y-18885D01*
X31039Y-18885D01*
X31001Y-18846D01*
X30950Y-18825D01*
X30950Y-18825D01*
X30950Y-18825D01*
X30900Y-18804D01*
X30790Y-18804D01*
X30739Y-18825D01*
X30739Y-18825D01*
X30739Y-18825D01*
X30689Y-18846D01*
X30650Y-18885D01*
X30650Y-18885D01*
X30650Y-18885D01*
X30611Y-18923D01*
X30590Y-18974D01*
X30590Y-18974D01*
X30590Y-18974D01*
X30569Y-19024D01*
X30569Y-19134D01*
X30590Y-19185D01*
X30590Y-19185D01*
X30590Y-19185D01*
X30611Y-19235D01*
X30650Y-19274D01*
X30650Y-19274D01*
X30650Y-19274D01*
X30688Y-19313D01*
X30688Y-19313D01*
X30780Y-19404D01*
X30869Y-19464D01*
X30869Y-19464D01*
X30975Y-19485D01*
X32504Y-19485D01*
X32505Y-19485D01*
X32559Y-19485D01*
X32610Y-19464D01*
X32610Y-19464D01*
X32610Y-19464D01*
X32660Y-19443D01*
X32699Y-19404D01*
X32699Y-19404D01*
X32699Y-19404D01*
X32738Y-19366D01*
X32759Y-19315D01*
X32780Y-19265D01*
X32780Y-19210D01*
X32780Y-19155D01*
X32780Y-20362D01*
X30251Y-20362D01*
X30251Y-19703D01*
X30215Y-19616D01*
X30148Y-19549D01*
X30062Y-19513D01*
X29968Y-19513D01*
X29881Y-19549D01*
X29814Y-19616D01*
X29778Y-19702D01*
X29778Y-19796D01*
X29814Y-19883D01*
X29881Y-19950D01*
X29967Y-19986D01*
X30061Y-19986D01*
X30148Y-19950D01*
X30215Y-19883D01*
X30251Y-19797D01*
X30251Y-19703D01*
X30251Y-20362D01*
X23275Y-20362D01*
X23275Y-19385D01*
X23167Y-19124D01*
X22968Y-18925D01*
X22708Y-18817D01*
X22426Y-18817D01*
X22165Y-18924D01*
X21966Y-19123D01*
X21858Y-19384D01*
X21857Y-19666D01*
X21965Y-19926D01*
X22164Y-20126D01*
X22425Y-20234D01*
X22707Y-20234D01*
X22967Y-20126D01*
X23167Y-19927D01*
X23275Y-19667D01*
X23275Y-19385D01*
X23275Y-20362D01*
X21621Y-20362D01*
X21621Y-16250D01*
X21585Y-16163D01*
X21518Y-16096D01*
X21432Y-16060D01*
X21338Y-16060D01*
X21251Y-16096D01*
X21184Y-16163D01*
X21148Y-16249D01*
X21148Y-16343D01*
X21184Y-16430D01*
X21251Y-16497D01*
X21337Y-16533D01*
X21431Y-16533D01*
X21518Y-16497D01*
X21585Y-16430D01*
X21621Y-16344D01*
X21621Y-16250D01*
X21621Y-20362D01*
X20942Y-20362D01*
X20942Y-10706D01*
X34958Y-10706D01*
X34958Y-13206D01*
X34969Y-13263D01*
X35001Y-13311D01*
X35049Y-13343D01*
X35066Y-13346D01*
X35066Y-17830D01*
M02*
