G04 (created by PCBNEW (2013-05-16 BZR 4016)-stable) date 11. 1. 2014 1:24:09*
%MOIN*%
G04 Gerber Fmt 3.4, Leading zero omitted, Abs format*
%FSLAX34Y34*%
G01*
G70*
G90*
G04 APERTURE LIST*
%ADD10C,0.00590551*%
%ADD11R,0.0314961X0.0590551*%
%ADD12R,0.137795X0.102362*%
%ADD13R,0.0255906X0.0334646*%
%ADD14R,0.0433X0.0393*%
%ADD15R,0.0393X0.0433*%
%ADD16R,0.0590551X0.141732*%
%ADD17R,0.0394X0.0315*%
%ADD18R,0.0118X0.0196*%
%ADD19R,0.0196X0.0118*%
%ADD20R,0.212598X0.212598*%
%ADD21R,0.0314961X0.0393701*%
%ADD22R,0.05X0.05*%
%ADD23R,0.0217X0.0118*%
%ADD24R,0.023622X0.019685*%
%ADD25R,0.0275591X0.019685*%
%ADD26R,0.019685X0.0275591*%
%ADD27R,0.0275591X0.0354331*%
%ADD28R,0.0511811X0.0551181*%
%ADD29C,0.11811*%
%ADD30R,0.0787402X0.05*%
%ADD31R,0.019685X0.019685*%
%ADD32R,0.0984252X0.0984252*%
%ADD33R,0.0314961X0.011811*%
%ADD34R,0.011811X0.0314961*%
%ADD35R,0.011811X0.0315*%
%ADD36R,0.015748X0.0295276*%
%ADD37R,0.011811X0.0295276*%
%ADD38C,0.023622*%
%ADD39C,0.0314961*%
%ADD40C,0.019685*%
%ADD41C,0.011811*%
%ADD42C,0.019685*%
%ADD43C,0.0314961*%
%ADD44C,0.00787402*%
G04 APERTURE END LIST*
G54D10*
X20795Y-20510D02*
X20795Y-10667D01*
X35106Y-13206D02*
X35106Y-10667D01*
X40480Y-13206D02*
X35106Y-13206D01*
X35106Y-17970D02*
X35106Y-20510D01*
X40480Y-17970D02*
X35106Y-17970D01*
X40480Y-13206D02*
X40480Y-17970D01*
X35106Y-20510D02*
X20795Y-20510D01*
G54D11*
X31501Y-16848D03*
X31501Y-18817D03*
X32001Y-16848D03*
X32501Y-16848D03*
X33001Y-16848D03*
X32001Y-18817D03*
X32501Y-18817D03*
X33001Y-18817D03*
G54D12*
X32251Y-17832D03*
G54D13*
X27980Y-13147D03*
X28629Y-13147D03*
X27980Y-12537D03*
X28629Y-12537D03*
G54D14*
X32291Y-19650D03*
X32959Y-19650D03*
G54D15*
X30834Y-16770D03*
X30834Y-17438D03*
X30834Y-18050D03*
X30834Y-18718D03*
X32448Y-16119D03*
X32448Y-15451D03*
G54D14*
X29959Y-15330D03*
X29291Y-15330D03*
X29959Y-14410D03*
X29291Y-14410D03*
G54D16*
X30106Y-18265D03*
X29121Y-18265D03*
G54D15*
X34515Y-16926D03*
X34515Y-16258D03*
X33649Y-18896D03*
X33649Y-19564D03*
G54D17*
X34515Y-17852D03*
X33649Y-18227D03*
X33649Y-17477D03*
G54D18*
X26060Y-17251D03*
X25863Y-17251D03*
X25666Y-17251D03*
X25470Y-17251D03*
X25273Y-17251D03*
X25076Y-17251D03*
X24880Y-17251D03*
X24683Y-17251D03*
X24486Y-17251D03*
X24290Y-17251D03*
X24093Y-17251D03*
X23896Y-17251D03*
G54D19*
X23601Y-16956D03*
X23601Y-16759D03*
X23601Y-16562D03*
X23601Y-16366D03*
X23601Y-16169D03*
X23601Y-15972D03*
X23601Y-15776D03*
X23601Y-15579D03*
X23601Y-15382D03*
X23601Y-15186D03*
X23601Y-14989D03*
X23601Y-14792D03*
G54D18*
X23896Y-14497D03*
X24093Y-14497D03*
X24290Y-14497D03*
X24486Y-14497D03*
X24683Y-14497D03*
X24880Y-14497D03*
X25076Y-14497D03*
X25273Y-14497D03*
X25470Y-14497D03*
X25666Y-14497D03*
X25863Y-14497D03*
X26060Y-14497D03*
G54D19*
X26355Y-14792D03*
X26355Y-14989D03*
X26355Y-15186D03*
X26355Y-15382D03*
X26355Y-15579D03*
X26355Y-15776D03*
X26355Y-15972D03*
X26355Y-16169D03*
X26355Y-16366D03*
X26355Y-16562D03*
X26355Y-16759D03*
X26355Y-16956D03*
G54D20*
X24978Y-15874D03*
G54D15*
X29269Y-12498D03*
X29269Y-13166D03*
G54D21*
X27212Y-15667D03*
X27842Y-15667D03*
G54D22*
X29178Y-11415D03*
X28178Y-11415D03*
X27178Y-11415D03*
X30178Y-11415D03*
X26178Y-11415D03*
G54D23*
X27298Y-12124D03*
X27298Y-12321D03*
X27298Y-12518D03*
X26732Y-12518D03*
X26732Y-12321D03*
X26732Y-12124D03*
G54D24*
X25489Y-18689D03*
X25489Y-18295D03*
G54D25*
X33669Y-13571D03*
X33669Y-13177D03*
G54D26*
X32173Y-11769D03*
X31779Y-11769D03*
X27054Y-13226D03*
X26661Y-13226D03*
X24860Y-11189D03*
X25253Y-11189D03*
X27330Y-16218D03*
X27724Y-16218D03*
X22881Y-14978D03*
X22487Y-14978D03*
G54D25*
X24318Y-18285D03*
X24318Y-18679D03*
X26169Y-13443D03*
X26169Y-13049D03*
G54D26*
X23903Y-13320D03*
X23510Y-13320D03*
X27487Y-15116D03*
X27881Y-15116D03*
X22881Y-16238D03*
X22487Y-16238D03*
X27330Y-16651D03*
X27724Y-16651D03*
G54D25*
X26346Y-18295D03*
X26346Y-18689D03*
X25913Y-18295D03*
X25913Y-18689D03*
G54D26*
X23905Y-13777D03*
X23511Y-13777D03*
G54D25*
X23885Y-18285D03*
X23885Y-18679D03*
G54D27*
X21484Y-17321D03*
X22074Y-17321D03*
X21484Y-17970D03*
X22074Y-17970D03*
X26956Y-13974D03*
X27547Y-13974D03*
X33019Y-14801D03*
X33610Y-14801D03*
X25330Y-11760D03*
X24739Y-11760D03*
X23489Y-11760D03*
X24080Y-11760D03*
X23489Y-12460D03*
X24080Y-12460D03*
X21917Y-12911D03*
X21326Y-12911D03*
X31287Y-15451D03*
X31877Y-15451D03*
X33605Y-15448D03*
X33014Y-15448D03*
X33610Y-16110D03*
X33019Y-16110D03*
G54D28*
X30554Y-19650D03*
X31695Y-19650D03*
G54D27*
X21326Y-12242D03*
X21917Y-12242D03*
G54D29*
X33236Y-11651D03*
X22566Y-19525D03*
G54D30*
X21385Y-15588D03*
X21385Y-14584D03*
X21385Y-16592D03*
G54D31*
X34495Y-13167D03*
X34495Y-13521D03*
X34082Y-13167D03*
X34082Y-13521D03*
G54D32*
X31966Y-13177D03*
G54D33*
X31192Y-12783D03*
X31192Y-12980D03*
X31192Y-13177D03*
X31192Y-13374D03*
X31192Y-13571D03*
G54D34*
X31572Y-13951D03*
X31769Y-13951D03*
X31966Y-13951D03*
X32163Y-13951D03*
X32360Y-13951D03*
G54D33*
X32739Y-13571D03*
X32739Y-13374D03*
X32739Y-13177D03*
X32739Y-12980D03*
X32739Y-12783D03*
G54D35*
X32360Y-12403D03*
X32163Y-12403D03*
X31966Y-12403D03*
X31769Y-12403D03*
X31572Y-12403D03*
G54D36*
X25381Y-13472D03*
X24751Y-13472D03*
G54D37*
X24968Y-13472D03*
X25165Y-13472D03*
X25165Y-12390D03*
X24968Y-12390D03*
G54D36*
X24751Y-12390D03*
X25381Y-12390D03*
G54D38*
X27566Y-13187D03*
X27094Y-15195D03*
X28629Y-12124D03*
X31267Y-12399D03*
X34495Y-15175D03*
X34239Y-15431D03*
X27173Y-17478D03*
X30440Y-16021D03*
X27251Y-17832D03*
X30834Y-16021D03*
X26621Y-11612D03*
X33236Y-13502D03*
X27606Y-11612D03*
X33275Y-13147D03*
X22881Y-11671D03*
X31425Y-11533D03*
X22980Y-13502D03*
X30086Y-13187D03*
X30519Y-12832D03*
X31543Y-15943D03*
X30086Y-12793D03*
X30834Y-14486D03*
X27448Y-12832D03*
X31661Y-14525D03*
X30716Y-14762D03*
X27645Y-12124D03*
X32173Y-14860D03*
X24161Y-11848D03*
X26149Y-12124D03*
X22015Y-15588D03*
X22527Y-17340D03*
X31897Y-14722D03*
X22075Y-18292D03*
X32487Y-14762D03*
X21387Y-14860D03*
X32999Y-14407D03*
X27921Y-14014D03*
X29377Y-16769D03*
X33590Y-16966D03*
G54D39*
X34574Y-17419D03*
G54D38*
X30015Y-19750D03*
X24101Y-18680D03*
X21385Y-16297D03*
X23505Y-13030D03*
X22575Y-15590D03*
X33610Y-14486D03*
X26110Y-18689D03*
X21917Y-12557D03*
X32173Y-11415D03*
X33669Y-13777D03*
X27724Y-16454D03*
X24574Y-11179D03*
X26169Y-12636D03*
X27980Y-12202D03*
X27881Y-14880D03*
G54D40*
X32684Y-17537D03*
X32684Y-18088D03*
X32251Y-18088D03*
X31818Y-18088D03*
X31818Y-17537D03*
X32251Y-17537D03*
G54D38*
X21306Y-12931D03*
X21306Y-12262D03*
G54D39*
X30845Y-19080D03*
X32505Y-19210D03*
G54D38*
X26739Y-12832D03*
X25165Y-12951D03*
G54D40*
X25401Y-15884D03*
X25834Y-15884D03*
X25834Y-15451D03*
X25834Y-15017D03*
X25401Y-15017D03*
X25401Y-15451D03*
X24968Y-15884D03*
X24958Y-15874D03*
X25391Y-16307D03*
X25824Y-16307D03*
X25824Y-16740D03*
X25391Y-16740D03*
X24958Y-16740D03*
X24958Y-16307D03*
X24535Y-15884D03*
X24102Y-15884D03*
X24102Y-16317D03*
X24102Y-16750D03*
X24535Y-16750D03*
X24535Y-16317D03*
X24968Y-15884D03*
X24968Y-15884D03*
X24535Y-15451D03*
X24102Y-15451D03*
X24102Y-15017D03*
X24535Y-15017D03*
X24968Y-15017D03*
X24968Y-15451D03*
G54D38*
X23566Y-18286D03*
X24204Y-13779D03*
X23570Y-12110D03*
X29180Y-11021D03*
X21485Y-17650D03*
X31779Y-11415D03*
X25480Y-18935D03*
X27054Y-12911D03*
X24889Y-12754D03*
G54D39*
X33649Y-18541D03*
G54D41*
X27547Y-13177D02*
X27999Y-13167D01*
X27556Y-13177D02*
X27547Y-13177D01*
X27566Y-13187D02*
X27556Y-13177D01*
X27084Y-15204D02*
X27094Y-15195D01*
X26355Y-15382D02*
X26887Y-15382D01*
X26887Y-15382D02*
X27094Y-15175D01*
X28629Y-12537D02*
X28629Y-12124D01*
X31271Y-12403D02*
X31572Y-12403D01*
X31267Y-12399D02*
X31271Y-12403D01*
X34495Y-13521D02*
X34495Y-15175D01*
X34082Y-13758D02*
X34239Y-13915D01*
X34239Y-13915D02*
X34239Y-15431D01*
X34082Y-13758D02*
X34082Y-13521D01*
X26532Y-16759D02*
X26355Y-16759D01*
X26661Y-16888D02*
X26532Y-16759D01*
X26661Y-17281D02*
X26661Y-16888D01*
X26858Y-17478D02*
X26661Y-17281D01*
X27173Y-17478D02*
X26858Y-17478D01*
X30440Y-13974D02*
X30440Y-16021D01*
X30844Y-13571D02*
X30440Y-13974D01*
X31192Y-13571D02*
X30844Y-13571D01*
X26355Y-16956D02*
X26355Y-17369D01*
X31572Y-14260D02*
X31572Y-13951D01*
X30834Y-14998D02*
X30834Y-16021D01*
X31572Y-14260D02*
X30834Y-14998D01*
X26818Y-17832D02*
X27251Y-17832D01*
X26355Y-17369D02*
X26818Y-17832D01*
X32739Y-13374D02*
X33108Y-13374D01*
X26621Y-11612D02*
X26188Y-11612D01*
X33108Y-13374D02*
X33236Y-13502D01*
X32739Y-13177D02*
X33245Y-13177D01*
X27606Y-11612D02*
X27173Y-11612D01*
X33245Y-13177D02*
X33275Y-13147D01*
X31769Y-12193D02*
X31425Y-11848D01*
X31425Y-11848D02*
X31425Y-11533D01*
X31769Y-12193D02*
X31769Y-12403D01*
X30096Y-13177D02*
X30086Y-13187D01*
X30096Y-13177D02*
X31192Y-13177D01*
X30178Y-11415D02*
X30178Y-12098D01*
X30863Y-12783D02*
X31192Y-12783D01*
X30178Y-12098D02*
X30863Y-12783D01*
X32001Y-16401D02*
X31543Y-15943D01*
X32001Y-16848D02*
X32001Y-16401D01*
X31192Y-12996D02*
X31192Y-12980D01*
X30682Y-12996D02*
X31192Y-12996D01*
X30519Y-12832D02*
X30682Y-12996D01*
X31995Y-16788D02*
X32001Y-16782D01*
X31769Y-13951D02*
X31769Y-14417D01*
X31769Y-14417D02*
X31661Y-14525D01*
X27298Y-12518D02*
X27298Y-12682D01*
X27298Y-12682D02*
X27448Y-12832D01*
X31661Y-14525D02*
X31651Y-14515D01*
X27298Y-12124D02*
X27645Y-12124D01*
X27645Y-12124D02*
X27645Y-12124D01*
X32163Y-14850D02*
X32163Y-13951D01*
X32173Y-14860D02*
X32163Y-14850D01*
X24968Y-13472D02*
X24968Y-13743D01*
X25470Y-14245D02*
X25470Y-14497D01*
X24968Y-13743D02*
X25470Y-14245D01*
X26732Y-12124D02*
X26149Y-12124D01*
X24141Y-11868D02*
X24131Y-11868D01*
X24161Y-11848D02*
X24141Y-11868D01*
X26149Y-12124D02*
X26149Y-12124D01*
X24968Y-13472D02*
X24968Y-13226D01*
X24358Y-11868D02*
X24131Y-11868D01*
X24456Y-11966D02*
X24358Y-11868D01*
X24456Y-12714D02*
X24456Y-11966D01*
X24968Y-13226D02*
X24456Y-12714D01*
X24751Y-13472D02*
X24751Y-13816D01*
X25273Y-14338D02*
X25273Y-14497D01*
X24751Y-13816D02*
X25273Y-14338D01*
X24751Y-13472D02*
X24751Y-13285D01*
X24148Y-12681D02*
X24141Y-12360D01*
X24456Y-12990D02*
X24148Y-12681D01*
X24456Y-12990D02*
X24456Y-12990D01*
X24751Y-13285D02*
X24456Y-12990D01*
X24968Y-12390D02*
X25165Y-12390D01*
X24968Y-12390D02*
X24968Y-12163D01*
X24741Y-11937D02*
X24741Y-11710D01*
X24968Y-12163D02*
X24741Y-11937D01*
X22015Y-15588D02*
X21385Y-15588D01*
X22074Y-17340D02*
X22527Y-17340D01*
X31966Y-13951D02*
X31966Y-14653D01*
X31966Y-14653D02*
X31897Y-14722D01*
X22074Y-18291D02*
X22075Y-18292D01*
X22074Y-17970D02*
X22074Y-18291D01*
X21385Y-14584D02*
X21387Y-14586D01*
X32360Y-14634D02*
X32487Y-14762D01*
X32360Y-14634D02*
X32360Y-13951D01*
X21387Y-14860D02*
X21387Y-14586D01*
X32999Y-14407D02*
X32999Y-13659D01*
X32911Y-13571D02*
X32739Y-13571D01*
X32999Y-13659D02*
X32911Y-13571D01*
X27547Y-13974D02*
X27881Y-13974D01*
X33019Y-14427D02*
X33019Y-14801D01*
X32999Y-14407D02*
X33019Y-14427D01*
X27881Y-13974D02*
X27921Y-14014D01*
X29377Y-16769D02*
X29378Y-16769D01*
X29378Y-16514D02*
X29378Y-16769D01*
X29378Y-16769D02*
X29378Y-17045D01*
X33610Y-16120D02*
X33610Y-16947D01*
X33610Y-16947D02*
X33590Y-16966D01*
G54D42*
X32291Y-19650D02*
X32291Y-19926D01*
X34515Y-19624D02*
X34515Y-17852D01*
X34059Y-20080D02*
X34515Y-19624D01*
X32445Y-20080D02*
X34059Y-20080D01*
X32291Y-19926D02*
X32445Y-20080D01*
X31695Y-19650D02*
X31695Y-19539D01*
X32001Y-19233D02*
X32001Y-18817D01*
X31695Y-19539D02*
X32001Y-19233D01*
X31695Y-19650D02*
X32291Y-19650D01*
G54D43*
X34574Y-17419D02*
X34574Y-16985D01*
X34574Y-16985D02*
X34515Y-16926D01*
X34515Y-17478D02*
X34515Y-17852D01*
X34574Y-17419D02*
X34515Y-17478D01*
G54D41*
X24101Y-18680D02*
X24318Y-18680D01*
X24100Y-18679D02*
X24101Y-18680D01*
X23885Y-18679D02*
X24100Y-18679D01*
X24318Y-18680D02*
X24318Y-18679D01*
X21385Y-16592D02*
X21385Y-16297D01*
X21385Y-16297D02*
X21385Y-16297D01*
X23510Y-13320D02*
X23510Y-13776D01*
X23510Y-13776D02*
X23511Y-13777D01*
X23511Y-13384D02*
X23511Y-13036D01*
X23511Y-13036D02*
X23505Y-13030D01*
X22487Y-16238D02*
X22487Y-15677D01*
X22487Y-15502D02*
X22575Y-15590D01*
X22487Y-15502D02*
X22487Y-14978D01*
X22487Y-15677D02*
X22575Y-15590D01*
X29269Y-13166D02*
X29758Y-13166D01*
X29758Y-13166D02*
X29765Y-13160D01*
X33610Y-14801D02*
X33610Y-14486D01*
X25913Y-18689D02*
X26110Y-18689D01*
X26110Y-18689D02*
X26346Y-18689D01*
X21917Y-12911D02*
X21917Y-12557D01*
X21917Y-12557D02*
X21917Y-12242D01*
X32173Y-11769D02*
X32173Y-11415D01*
X33669Y-13571D02*
X33669Y-13777D01*
G54D42*
X27724Y-16218D02*
X27724Y-16454D01*
X27724Y-16454D02*
X27724Y-16651D01*
G54D41*
X25381Y-13472D02*
X25381Y-13167D01*
X25499Y-13049D02*
X26169Y-13049D01*
X25381Y-13167D02*
X25499Y-13049D01*
X32163Y-12403D02*
X32163Y-11779D01*
X32163Y-11779D02*
X32173Y-11769D01*
X24860Y-11189D02*
X24584Y-11189D01*
X24584Y-11189D02*
X24574Y-11179D01*
X26661Y-13226D02*
X26543Y-13226D01*
X26365Y-13049D02*
X26169Y-13049D01*
X26543Y-13226D02*
X26365Y-13049D01*
X26732Y-12321D02*
X26484Y-12321D01*
X26169Y-12636D02*
X26169Y-12991D01*
X26484Y-12321D02*
X26169Y-12636D01*
X28184Y-11435D02*
X28184Y-11998D01*
X28184Y-11998D02*
X27980Y-12202D01*
X27980Y-12202D02*
X27980Y-12537D01*
X27881Y-15116D02*
X27880Y-14881D01*
X27880Y-14881D02*
X27881Y-14880D01*
X32251Y-17832D02*
X32251Y-17537D01*
X32251Y-18088D02*
X32684Y-18088D01*
X31818Y-17537D02*
X31818Y-18088D01*
X21306Y-12931D02*
X21326Y-12911D01*
X32739Y-12783D02*
X32930Y-12783D01*
X34082Y-12852D02*
X34082Y-13167D01*
X33905Y-12675D02*
X34082Y-12852D01*
X33039Y-12675D02*
X33905Y-12675D01*
X32930Y-12783D02*
X33039Y-12675D01*
X34505Y-13157D02*
X34505Y-12960D01*
X34027Y-12482D02*
X32360Y-12482D01*
X34505Y-12960D02*
X34027Y-12482D01*
X30554Y-19650D02*
X30835Y-19650D01*
X31501Y-18983D02*
X31501Y-18817D01*
X30835Y-19650D02*
X31501Y-18983D01*
X30834Y-18050D02*
X30963Y-18050D01*
X30963Y-18050D02*
X31218Y-18305D01*
X31218Y-18305D02*
X31218Y-18533D01*
X31218Y-18533D02*
X31501Y-18817D01*
X32980Y-16120D02*
X32980Y-15529D01*
X33001Y-16782D02*
X33001Y-16141D01*
X33001Y-16141D02*
X32980Y-16120D01*
X31501Y-16782D02*
X30787Y-16782D01*
X30787Y-16782D02*
X30775Y-16770D01*
X32501Y-16782D02*
X32501Y-16172D01*
X32501Y-16172D02*
X32448Y-16119D01*
X31916Y-15451D02*
X32447Y-15451D01*
X32447Y-15451D02*
X32448Y-15451D01*
X25489Y-18295D02*
X25489Y-17774D01*
X25273Y-17558D02*
X25273Y-17251D01*
X25489Y-17774D02*
X25273Y-17558D01*
X25913Y-18295D02*
X25489Y-18295D01*
X26355Y-15972D02*
X26355Y-15776D01*
X27330Y-16218D02*
X27330Y-16085D01*
X27212Y-15967D02*
X27212Y-15667D01*
X27330Y-16085D02*
X27212Y-15967D01*
X27099Y-15780D02*
X27212Y-15667D01*
X26374Y-15780D02*
X27099Y-15780D01*
X21306Y-12262D02*
X21316Y-12271D01*
G54D43*
X30845Y-19080D02*
X30845Y-18728D01*
X32501Y-18817D02*
X32501Y-19206D01*
X32501Y-19206D02*
X32505Y-19210D01*
X30845Y-18728D02*
X30834Y-18718D01*
X30775Y-18718D02*
X30342Y-18718D01*
X30007Y-18382D02*
X30007Y-18187D01*
X30342Y-18718D02*
X30007Y-18382D01*
X30007Y-18187D02*
X30007Y-18187D01*
G54D41*
X25165Y-13472D02*
X25165Y-12951D01*
X26732Y-12825D02*
X26732Y-12518D01*
X26739Y-12832D02*
X26732Y-12825D01*
X25332Y-11710D02*
X25332Y-11937D01*
X25381Y-11986D02*
X25381Y-12390D01*
X25332Y-11937D02*
X25381Y-11986D01*
X25253Y-11189D02*
X25253Y-11632D01*
X25253Y-11632D02*
X25332Y-11710D01*
X26355Y-14792D02*
X26060Y-14792D01*
X26060Y-14792D02*
X24978Y-15874D01*
X23601Y-15186D02*
X24290Y-15186D01*
X24290Y-15186D02*
X24978Y-15874D01*
X24093Y-14497D02*
X24093Y-15008D01*
X24093Y-15008D02*
X24102Y-15017D01*
X26355Y-15579D02*
X25962Y-15579D01*
X25962Y-15579D02*
X25834Y-15451D01*
X26355Y-16169D02*
X25962Y-16169D01*
X25962Y-16169D02*
X25824Y-16307D01*
X24093Y-17251D02*
X24093Y-16759D01*
X24093Y-16759D02*
X24102Y-16750D01*
X25401Y-15884D02*
X24968Y-15884D01*
X25834Y-15884D02*
X25834Y-15451D01*
X25834Y-15017D02*
X25401Y-15017D01*
X25824Y-16740D02*
X25824Y-16307D01*
X24958Y-16740D02*
X25391Y-16740D01*
X24958Y-16307D02*
X24958Y-15874D01*
X24535Y-15884D02*
X24968Y-15884D01*
X24102Y-15884D02*
X24102Y-16317D01*
X24102Y-16750D02*
X24535Y-16750D01*
X24102Y-15017D02*
X24102Y-15451D01*
X24968Y-15017D02*
X24535Y-15017D01*
X24968Y-15451D02*
X24968Y-15884D01*
X33669Y-13177D02*
X33669Y-13108D01*
X33009Y-12980D02*
X32739Y-12980D01*
X33117Y-12872D02*
X33009Y-12980D01*
X33432Y-12872D02*
X33117Y-12872D01*
X33669Y-13108D02*
X33432Y-12872D01*
X23885Y-18285D02*
X23566Y-18285D01*
X23566Y-18285D02*
X23566Y-18286D01*
X23905Y-13777D02*
X24202Y-13777D01*
X24202Y-13777D02*
X24204Y-13779D01*
X29178Y-11415D02*
X29178Y-11023D01*
X29178Y-11023D02*
X29180Y-11021D01*
X29178Y-11848D02*
X29178Y-12082D01*
X29269Y-12173D02*
X29269Y-12498D01*
X29178Y-12082D02*
X29269Y-12173D01*
X28629Y-13147D02*
X28629Y-13138D01*
X28629Y-13138D02*
X29269Y-12498D01*
X21484Y-17281D02*
X21485Y-17650D01*
X21485Y-17650D02*
X21484Y-17990D01*
X23570Y-12419D02*
X23570Y-12110D01*
X23570Y-12110D02*
X23570Y-12045D01*
X23570Y-12045D02*
X23570Y-11710D01*
X23896Y-14497D02*
X23896Y-13786D01*
X23896Y-13786D02*
X23905Y-13777D01*
X31779Y-11769D02*
X31779Y-11415D01*
X25489Y-18689D02*
X25489Y-18925D01*
X25489Y-18925D02*
X25480Y-18935D01*
X31966Y-12403D02*
X31966Y-12114D01*
X31779Y-11927D02*
X31779Y-11769D01*
X31966Y-12114D02*
X31779Y-11927D01*
X24751Y-12390D02*
X24751Y-12616D01*
X24751Y-12616D02*
X24889Y-12754D01*
X27054Y-13226D02*
X27054Y-13620D01*
X26956Y-13718D02*
X26956Y-13974D01*
X27054Y-13620D02*
X26956Y-13718D01*
X27298Y-12321D02*
X27094Y-12321D01*
X27054Y-12360D02*
X27054Y-12911D01*
X27054Y-12911D02*
X27054Y-13226D01*
X27094Y-12321D02*
X27054Y-12360D01*
X29178Y-11415D02*
X29178Y-11848D01*
X23896Y-17251D02*
X23876Y-18255D01*
X23876Y-18255D02*
X23865Y-18265D01*
G54D43*
X33649Y-18227D02*
X33649Y-18541D01*
X33649Y-18541D02*
X33649Y-18896D01*
X33649Y-18896D02*
X33649Y-18896D01*
G54D10*
G36*
X29535Y-20362D02*
X28157Y-20362D01*
X28157Y-13967D01*
X28121Y-13880D01*
X28055Y-13813D01*
X27968Y-13777D01*
X27874Y-13777D01*
X27826Y-13797D01*
X27802Y-13797D01*
X27802Y-13774D01*
X27785Y-13730D01*
X27751Y-13697D01*
X27708Y-13679D01*
X27661Y-13679D01*
X27385Y-13679D01*
X27342Y-13697D01*
X27309Y-13730D01*
X27291Y-13773D01*
X27291Y-13820D01*
X27291Y-14175D01*
X27309Y-14218D01*
X27342Y-14251D01*
X27385Y-14269D01*
X27432Y-14269D01*
X27708Y-14269D01*
X27751Y-14251D01*
X27784Y-14218D01*
X27786Y-14213D01*
X27787Y-14214D01*
X27873Y-14250D01*
X27967Y-14250D01*
X28054Y-14214D01*
X28121Y-14147D01*
X28157Y-14061D01*
X28157Y-13967D01*
X28157Y-20362D01*
X28117Y-20362D01*
X28117Y-14833D01*
X28082Y-14746D01*
X28015Y-14680D01*
X27928Y-14643D01*
X27834Y-14643D01*
X27748Y-14679D01*
X27681Y-14746D01*
X27645Y-14832D01*
X27645Y-14926D01*
X27665Y-14974D01*
X27665Y-15001D01*
X27665Y-15277D01*
X27683Y-15320D01*
X27716Y-15354D01*
X27759Y-15372D01*
X27806Y-15372D01*
X28003Y-15372D01*
X28046Y-15354D01*
X28080Y-15321D01*
X28098Y-15277D01*
X28098Y-15230D01*
X28098Y-14974D01*
X28117Y-14927D01*
X28117Y-14833D01*
X28117Y-20362D01*
X23275Y-20362D01*
X23275Y-19385D01*
X23216Y-19242D01*
X23216Y-13455D01*
X23180Y-13368D01*
X23117Y-13305D01*
X23117Y-11624D01*
X23082Y-11537D01*
X23015Y-11471D01*
X22928Y-11435D01*
X22834Y-11435D01*
X22748Y-11471D01*
X22681Y-11537D01*
X22645Y-11624D01*
X22645Y-11718D01*
X22681Y-11805D01*
X22747Y-11871D01*
X22834Y-11907D01*
X22928Y-11907D01*
X23015Y-11871D01*
X23081Y-11805D01*
X23117Y-11718D01*
X23117Y-11624D01*
X23117Y-13305D01*
X23114Y-13302D01*
X23027Y-13266D01*
X22933Y-13265D01*
X22846Y-13301D01*
X22779Y-13368D01*
X22743Y-13455D01*
X22743Y-13548D01*
X22779Y-13635D01*
X22846Y-13702D01*
X22932Y-13738D01*
X23026Y-13738D01*
X23113Y-13702D01*
X23180Y-13636D01*
X23216Y-13549D01*
X23216Y-13455D01*
X23216Y-19242D01*
X23167Y-19124D01*
X22968Y-18925D01*
X22811Y-18860D01*
X22811Y-15543D01*
X22775Y-15456D01*
X22708Y-15389D01*
X22665Y-15371D01*
X22665Y-15204D01*
X22686Y-15183D01*
X22704Y-15139D01*
X22704Y-15092D01*
X22704Y-14817D01*
X22686Y-14773D01*
X22653Y-14740D01*
X22610Y-14722D01*
X22563Y-14722D01*
X22366Y-14722D01*
X22322Y-14740D01*
X22289Y-14773D01*
X22271Y-14817D01*
X22271Y-14864D01*
X22271Y-15139D01*
X22289Y-15183D01*
X22310Y-15204D01*
X22310Y-15502D01*
X22324Y-15570D01*
X22337Y-15590D01*
X22324Y-15609D01*
X22310Y-15677D01*
X22310Y-16012D01*
X22289Y-16033D01*
X22271Y-16077D01*
X22271Y-16124D01*
X22271Y-16399D01*
X22289Y-16443D01*
X22322Y-16476D01*
X22365Y-16494D01*
X22412Y-16494D01*
X22609Y-16494D01*
X22653Y-16476D01*
X22686Y-16443D01*
X22704Y-16399D01*
X22704Y-16352D01*
X22704Y-16077D01*
X22686Y-16033D01*
X22665Y-16012D01*
X22665Y-15808D01*
X22708Y-15790D01*
X22775Y-15723D01*
X22811Y-15637D01*
X22811Y-15543D01*
X22811Y-18860D01*
X22763Y-18840D01*
X22763Y-17294D01*
X22727Y-17207D01*
X22661Y-17140D01*
X22574Y-17104D01*
X22480Y-17104D01*
X22393Y-17140D01*
X22370Y-17163D01*
X22330Y-17163D01*
X22330Y-17120D01*
X22312Y-17077D01*
X22279Y-17043D01*
X22235Y-17025D01*
X22189Y-17025D01*
X21913Y-17025D01*
X21869Y-17043D01*
X21836Y-17076D01*
X21818Y-17120D01*
X21818Y-17167D01*
X21818Y-17521D01*
X21836Y-17565D01*
X21869Y-17598D01*
X21913Y-17616D01*
X21960Y-17616D01*
X22235Y-17616D01*
X22279Y-17598D01*
X22312Y-17565D01*
X22330Y-17521D01*
X22330Y-17517D01*
X22370Y-17517D01*
X22393Y-17540D01*
X22480Y-17576D01*
X22574Y-17577D01*
X22660Y-17541D01*
X22727Y-17474D01*
X22763Y-17387D01*
X22763Y-17294D01*
X22763Y-18840D01*
X22708Y-18817D01*
X22426Y-18817D01*
X22330Y-18856D01*
X22330Y-18124D01*
X22330Y-17770D01*
X22312Y-17726D01*
X22279Y-17693D01*
X22235Y-17675D01*
X22189Y-17675D01*
X21913Y-17675D01*
X21869Y-17693D01*
X21836Y-17726D01*
X21818Y-17769D01*
X21818Y-17816D01*
X21818Y-18171D01*
X21836Y-18214D01*
X21847Y-18225D01*
X21838Y-18244D01*
X21838Y-18338D01*
X21874Y-18425D01*
X21941Y-18492D01*
X22027Y-18528D01*
X22121Y-18528D01*
X22208Y-18492D01*
X22275Y-18425D01*
X22311Y-18339D01*
X22311Y-18245D01*
X22302Y-18224D01*
X22312Y-18214D01*
X22330Y-18171D01*
X22330Y-18124D01*
X22330Y-18856D01*
X22165Y-18924D01*
X21966Y-19123D01*
X21858Y-19384D01*
X21857Y-19666D01*
X21965Y-19926D01*
X22164Y-20126D01*
X22425Y-20234D01*
X22707Y-20234D01*
X22967Y-20126D01*
X23167Y-19927D01*
X23275Y-19667D01*
X23275Y-19385D01*
X23275Y-20362D01*
X21739Y-20362D01*
X21739Y-18124D01*
X21739Y-17770D01*
X21722Y-17726D01*
X21712Y-17717D01*
X21721Y-17697D01*
X21721Y-17603D01*
X21710Y-17576D01*
X21721Y-17565D01*
X21739Y-17521D01*
X21739Y-17474D01*
X21739Y-17120D01*
X21722Y-17077D01*
X21688Y-17043D01*
X21645Y-17025D01*
X21598Y-17025D01*
X21322Y-17025D01*
X21279Y-17043D01*
X21246Y-17076D01*
X21228Y-17120D01*
X21228Y-17167D01*
X21228Y-17521D01*
X21246Y-17565D01*
X21259Y-17578D01*
X21248Y-17602D01*
X21248Y-17696D01*
X21256Y-17716D01*
X21246Y-17726D01*
X21228Y-17769D01*
X21228Y-17816D01*
X21228Y-18171D01*
X21246Y-18214D01*
X21279Y-18247D01*
X21322Y-18265D01*
X21369Y-18266D01*
X21645Y-18266D01*
X21688Y-18248D01*
X21721Y-18214D01*
X21739Y-18171D01*
X21739Y-18124D01*
X21739Y-20362D01*
X20942Y-20362D01*
X20942Y-16950D01*
X20968Y-16960D01*
X21015Y-16960D01*
X21802Y-16960D01*
X21846Y-16942D01*
X21879Y-16909D01*
X21897Y-16866D01*
X21897Y-16819D01*
X21897Y-16319D01*
X21879Y-16275D01*
X21846Y-16242D01*
X21802Y-16224D01*
X21755Y-16224D01*
X21610Y-16224D01*
X21585Y-16163D01*
X21518Y-16096D01*
X21432Y-16060D01*
X21338Y-16060D01*
X21251Y-16096D01*
X21184Y-16163D01*
X21159Y-16224D01*
X20968Y-16224D01*
X20942Y-16235D01*
X20942Y-15946D01*
X20968Y-15956D01*
X21015Y-15956D01*
X21802Y-15956D01*
X21846Y-15939D01*
X21879Y-15905D01*
X21897Y-15862D01*
X21897Y-15815D01*
X21897Y-15795D01*
X21968Y-15824D01*
X22062Y-15825D01*
X22149Y-15789D01*
X22215Y-15722D01*
X22251Y-15636D01*
X22251Y-15542D01*
X22215Y-15455D01*
X22173Y-15412D01*
X22173Y-13065D01*
X22173Y-12711D01*
X22155Y-12667D01*
X22135Y-12647D01*
X22153Y-12604D01*
X22153Y-12510D01*
X22146Y-12494D01*
X22154Y-12486D01*
X22173Y-12443D01*
X22173Y-12396D01*
X22173Y-12041D01*
X22155Y-11998D01*
X22121Y-11965D01*
X22078Y-11947D01*
X22031Y-11947D01*
X21755Y-11947D01*
X21712Y-11965D01*
X21679Y-11998D01*
X21661Y-12041D01*
X21661Y-12088D01*
X21661Y-12442D01*
X21679Y-12486D01*
X21687Y-12494D01*
X21680Y-12510D01*
X21680Y-12604D01*
X21698Y-12647D01*
X21679Y-12667D01*
X21661Y-12710D01*
X21661Y-12757D01*
X21661Y-13112D01*
X21679Y-13155D01*
X21712Y-13188D01*
X21755Y-13206D01*
X21802Y-13206D01*
X22078Y-13206D01*
X22121Y-13189D01*
X22154Y-13155D01*
X22173Y-13112D01*
X22173Y-13065D01*
X22173Y-15412D01*
X22149Y-15388D01*
X22062Y-15352D01*
X21968Y-15352D01*
X21897Y-15382D01*
X21897Y-15315D01*
X21879Y-15272D01*
X21846Y-15238D01*
X21802Y-15220D01*
X21755Y-15220D01*
X20968Y-15220D01*
X20942Y-15231D01*
X20942Y-14942D01*
X20968Y-14952D01*
X21015Y-14953D01*
X21169Y-14953D01*
X21186Y-14993D01*
X21253Y-15060D01*
X21339Y-15096D01*
X21433Y-15096D01*
X21520Y-15060D01*
X21587Y-14993D01*
X21604Y-14953D01*
X21802Y-14953D01*
X21846Y-14935D01*
X21879Y-14901D01*
X21897Y-14858D01*
X21897Y-14811D01*
X21897Y-14311D01*
X21879Y-14268D01*
X21846Y-14234D01*
X21802Y-14216D01*
X21755Y-14216D01*
X21582Y-14216D01*
X21582Y-13065D01*
X21582Y-12711D01*
X21582Y-12396D01*
X21582Y-12041D01*
X21564Y-11998D01*
X21531Y-11965D01*
X21487Y-11947D01*
X21440Y-11947D01*
X21165Y-11947D01*
X21121Y-11965D01*
X21088Y-11998D01*
X21070Y-12041D01*
X21070Y-12088D01*
X21070Y-12285D01*
X21070Y-12308D01*
X21070Y-12308D01*
X21070Y-12442D01*
X21088Y-12486D01*
X21121Y-12519D01*
X21165Y-12537D01*
X21212Y-12537D01*
X21487Y-12537D01*
X21531Y-12519D01*
X21564Y-12486D01*
X21582Y-12443D01*
X21582Y-12396D01*
X21582Y-12711D01*
X21564Y-12667D01*
X21531Y-12634D01*
X21487Y-12616D01*
X21440Y-12616D01*
X21165Y-12616D01*
X21121Y-12634D01*
X21088Y-12667D01*
X21070Y-12710D01*
X21070Y-12757D01*
X21070Y-12954D01*
X21070Y-12978D01*
X21070Y-12978D01*
X21070Y-13112D01*
X21088Y-13155D01*
X21121Y-13188D01*
X21165Y-13206D01*
X21212Y-13206D01*
X21487Y-13206D01*
X21531Y-13189D01*
X21564Y-13155D01*
X21582Y-13112D01*
X21582Y-13065D01*
X21582Y-14216D01*
X20968Y-14216D01*
X20942Y-14227D01*
X20942Y-10785D01*
X29134Y-10785D01*
X29047Y-10821D01*
X28980Y-10887D01*
X28944Y-10974D01*
X28944Y-11047D01*
X28905Y-11047D01*
X28862Y-11065D01*
X28828Y-11098D01*
X28810Y-11141D01*
X28810Y-11188D01*
X28810Y-11688D01*
X28828Y-11732D01*
X28861Y-11765D01*
X28905Y-11783D01*
X28952Y-11783D01*
X29001Y-11783D01*
X29001Y-11848D01*
X29001Y-12082D01*
X29015Y-12150D01*
X29029Y-12172D01*
X29029Y-12172D01*
X29006Y-12182D01*
X28972Y-12215D01*
X28954Y-12258D01*
X28954Y-12305D01*
X28954Y-12562D01*
X28875Y-12642D01*
X28875Y-12346D01*
X28857Y-12303D01*
X28824Y-12270D01*
X28819Y-12268D01*
X28829Y-12258D01*
X28865Y-12171D01*
X28865Y-12077D01*
X28830Y-11990D01*
X28763Y-11924D01*
X28676Y-11888D01*
X28582Y-11887D01*
X28547Y-11902D01*
X28547Y-11642D01*
X28547Y-11142D01*
X28529Y-11098D01*
X28495Y-11065D01*
X28452Y-11047D01*
X28405Y-11047D01*
X27905Y-11047D01*
X27862Y-11065D01*
X27828Y-11098D01*
X27810Y-11141D01*
X27810Y-11188D01*
X27810Y-11489D01*
X27806Y-11478D01*
X27740Y-11412D01*
X27653Y-11376D01*
X27559Y-11376D01*
X27547Y-11381D01*
X27547Y-11142D01*
X27529Y-11098D01*
X27495Y-11065D01*
X27452Y-11047D01*
X27405Y-11047D01*
X26905Y-11047D01*
X26862Y-11065D01*
X26828Y-11098D01*
X26810Y-11141D01*
X26810Y-11188D01*
X26810Y-11467D01*
X26755Y-11412D01*
X26669Y-11376D01*
X26575Y-11376D01*
X26547Y-11387D01*
X26547Y-11142D01*
X26529Y-11098D01*
X26495Y-11065D01*
X26452Y-11047D01*
X26405Y-11047D01*
X25905Y-11047D01*
X25862Y-11065D01*
X25828Y-11098D01*
X25810Y-11141D01*
X25810Y-11188D01*
X25810Y-11688D01*
X25828Y-11732D01*
X25861Y-11765D01*
X25905Y-11783D01*
X25952Y-11783D01*
X26159Y-11783D01*
X26188Y-11789D01*
X26464Y-11789D01*
X26487Y-11812D01*
X26574Y-11848D01*
X26668Y-11848D01*
X26755Y-11812D01*
X26821Y-11746D01*
X26828Y-11731D01*
X26828Y-11732D01*
X26861Y-11765D01*
X26905Y-11783D01*
X26952Y-11783D01*
X27143Y-11783D01*
X27173Y-11789D01*
X27449Y-11789D01*
X27472Y-11812D01*
X27558Y-11848D01*
X27652Y-11848D01*
X27739Y-11812D01*
X27806Y-11746D01*
X27820Y-11712D01*
X27828Y-11732D01*
X27861Y-11765D01*
X27905Y-11783D01*
X27952Y-11783D01*
X28007Y-11783D01*
X28007Y-11924D01*
X27965Y-11966D01*
X27933Y-11966D01*
X27850Y-12001D01*
X27845Y-11990D01*
X27779Y-11924D01*
X27692Y-11888D01*
X27598Y-11887D01*
X27511Y-11923D01*
X27488Y-11946D01*
X27298Y-11946D01*
X27298Y-11946D01*
X27166Y-11946D01*
X27123Y-11964D01*
X27089Y-11998D01*
X27071Y-12041D01*
X27071Y-12088D01*
X27071Y-12148D01*
X27026Y-12157D01*
X26969Y-12195D01*
X26959Y-12205D01*
X26959Y-12159D01*
X26959Y-12041D01*
X26941Y-11998D01*
X26908Y-11965D01*
X26864Y-11947D01*
X26817Y-11946D01*
X26732Y-11946D01*
X26732Y-11946D01*
X26306Y-11946D01*
X26283Y-11924D01*
X26196Y-11888D01*
X26102Y-11887D01*
X26015Y-11923D01*
X25949Y-11990D01*
X25913Y-12077D01*
X25913Y-12171D01*
X25949Y-12257D01*
X26015Y-12324D01*
X26102Y-12360D01*
X26194Y-12360D01*
X26154Y-12399D01*
X26122Y-12399D01*
X26035Y-12435D01*
X25968Y-12502D01*
X25932Y-12588D01*
X25932Y-12682D01*
X25968Y-12769D01*
X25991Y-12792D01*
X25991Y-12839D01*
X25964Y-12850D01*
X25942Y-12872D01*
X25499Y-12872D01*
X25432Y-12885D01*
X25401Y-12906D01*
X25401Y-12904D01*
X25365Y-12817D01*
X25299Y-12750D01*
X25212Y-12714D01*
X25125Y-12714D01*
X25125Y-12707D01*
X25104Y-12655D01*
X25129Y-12655D01*
X25247Y-12655D01*
X25263Y-12649D01*
X25279Y-12655D01*
X25326Y-12655D01*
X25483Y-12655D01*
X25527Y-12637D01*
X25560Y-12604D01*
X25578Y-12561D01*
X25578Y-12514D01*
X25578Y-12218D01*
X25560Y-12175D01*
X25558Y-12173D01*
X25558Y-12013D01*
X25568Y-12004D01*
X25586Y-11960D01*
X25586Y-11913D01*
X25586Y-11559D01*
X25568Y-11516D01*
X25535Y-11482D01*
X25491Y-11464D01*
X25444Y-11464D01*
X25430Y-11464D01*
X25430Y-11415D01*
X25452Y-11393D01*
X25470Y-11350D01*
X25470Y-11303D01*
X25470Y-11028D01*
X25452Y-10984D01*
X25419Y-10951D01*
X25375Y-10933D01*
X25328Y-10933D01*
X25131Y-10933D01*
X25088Y-10951D01*
X25056Y-10982D01*
X25025Y-10951D01*
X24982Y-10933D01*
X24935Y-10933D01*
X24738Y-10933D01*
X24694Y-10951D01*
X24679Y-10966D01*
X24621Y-10943D01*
X24527Y-10943D01*
X24440Y-10978D01*
X24374Y-11045D01*
X24338Y-11132D01*
X24338Y-11226D01*
X24374Y-11313D01*
X24440Y-11379D01*
X24527Y-11415D01*
X24621Y-11415D01*
X24665Y-11397D01*
X24694Y-11427D01*
X24738Y-11445D01*
X24785Y-11445D01*
X24981Y-11445D01*
X25025Y-11427D01*
X25056Y-11395D01*
X25076Y-11415D01*
X25076Y-11553D01*
X25074Y-11559D01*
X25074Y-11606D01*
X25074Y-11960D01*
X25092Y-12003D01*
X25125Y-12037D01*
X25168Y-12055D01*
X25202Y-12055D01*
X25204Y-12058D01*
X25204Y-12124D01*
X25200Y-12124D01*
X25137Y-12124D01*
X25131Y-12095D01*
X25093Y-12038D01*
X25093Y-12038D01*
X24995Y-11940D01*
X24995Y-11913D01*
X24995Y-11559D01*
X24977Y-11516D01*
X24944Y-11482D01*
X24901Y-11464D01*
X24854Y-11464D01*
X24578Y-11464D01*
X24535Y-11482D01*
X24501Y-11515D01*
X24483Y-11559D01*
X24483Y-11606D01*
X24483Y-11743D01*
X24483Y-11743D01*
X24425Y-11704D01*
X24358Y-11691D01*
X24337Y-11691D01*
X24336Y-11689D01*
X24336Y-11559D01*
X24318Y-11516D01*
X24285Y-11482D01*
X24241Y-11464D01*
X24194Y-11464D01*
X23919Y-11464D01*
X23875Y-11482D01*
X23842Y-11515D01*
X23824Y-11559D01*
X23824Y-11606D01*
X23824Y-11960D01*
X23842Y-12003D01*
X23875Y-12037D01*
X23918Y-12055D01*
X23965Y-12055D01*
X24042Y-12055D01*
X24114Y-12084D01*
X24208Y-12084D01*
X24279Y-12055D01*
X24279Y-12180D01*
X24241Y-12164D01*
X24194Y-12164D01*
X23919Y-12164D01*
X23875Y-12182D01*
X23842Y-12215D01*
X23824Y-12259D01*
X23824Y-12306D01*
X23824Y-12660D01*
X23842Y-12703D01*
X23875Y-12737D01*
X23918Y-12755D01*
X23965Y-12755D01*
X23987Y-12755D01*
X24000Y-12774D01*
X24022Y-12807D01*
X24331Y-13115D01*
X24554Y-13339D01*
X24554Y-13348D01*
X24554Y-13643D01*
X24572Y-13687D01*
X24574Y-13688D01*
X24574Y-13816D01*
X24588Y-13884D01*
X24626Y-13942D01*
X25095Y-14411D01*
X25095Y-14497D01*
X25096Y-14497D01*
X25096Y-14618D01*
X25113Y-14662D01*
X25144Y-14693D01*
X24270Y-14693D01*
X24270Y-14497D01*
X24270Y-14497D01*
X24270Y-14375D01*
X24252Y-14332D01*
X24219Y-14299D01*
X24175Y-14281D01*
X24128Y-14281D01*
X24073Y-14281D01*
X24073Y-14013D01*
X24096Y-13990D01*
X24156Y-14015D01*
X24250Y-14015D01*
X24337Y-13979D01*
X24404Y-13912D01*
X24440Y-13826D01*
X24440Y-13732D01*
X24404Y-13645D01*
X24337Y-13578D01*
X24251Y-13542D01*
X24157Y-13542D01*
X24097Y-13567D01*
X24070Y-13539D01*
X24027Y-13521D01*
X23980Y-13521D01*
X23806Y-13521D01*
X23806Y-12063D01*
X23771Y-11976D01*
X23747Y-11953D01*
X23747Y-11710D01*
X23745Y-11699D01*
X23745Y-11559D01*
X23727Y-11516D01*
X23694Y-11482D01*
X23651Y-11464D01*
X23604Y-11464D01*
X23328Y-11464D01*
X23285Y-11482D01*
X23251Y-11515D01*
X23233Y-11559D01*
X23233Y-11606D01*
X23233Y-11960D01*
X23251Y-12003D01*
X23284Y-12037D01*
X23328Y-12055D01*
X23337Y-12055D01*
X23334Y-12062D01*
X23334Y-12156D01*
X23337Y-12164D01*
X23328Y-12164D01*
X23285Y-12182D01*
X23251Y-12215D01*
X23233Y-12259D01*
X23233Y-12306D01*
X23233Y-12660D01*
X23251Y-12703D01*
X23284Y-12737D01*
X23328Y-12755D01*
X23375Y-12755D01*
X23650Y-12755D01*
X23694Y-12737D01*
X23727Y-12704D01*
X23745Y-12660D01*
X23745Y-12613D01*
X23745Y-12430D01*
X23747Y-12419D01*
X23747Y-12266D01*
X23770Y-12243D01*
X23806Y-12157D01*
X23806Y-12063D01*
X23806Y-13521D01*
X23783Y-13521D01*
X23740Y-13539D01*
X23708Y-13571D01*
X23687Y-13550D01*
X23687Y-13546D01*
X23708Y-13524D01*
X23726Y-13481D01*
X23726Y-13434D01*
X23726Y-13158D01*
X23717Y-13135D01*
X23741Y-13077D01*
X23741Y-12983D01*
X23705Y-12896D01*
X23638Y-12829D01*
X23552Y-12793D01*
X23458Y-12793D01*
X23371Y-12829D01*
X23304Y-12896D01*
X23268Y-12982D01*
X23268Y-13076D01*
X23298Y-13147D01*
X23293Y-13158D01*
X23293Y-13205D01*
X23293Y-13481D01*
X23311Y-13524D01*
X23332Y-13546D01*
X23332Y-13553D01*
X23313Y-13573D01*
X23295Y-13616D01*
X23295Y-13663D01*
X23295Y-13938D01*
X23313Y-13982D01*
X23346Y-14015D01*
X23389Y-14033D01*
X23436Y-14033D01*
X23633Y-14033D01*
X23676Y-14015D01*
X23708Y-13984D01*
X23718Y-13994D01*
X23718Y-14497D01*
X23719Y-14497D01*
X23719Y-14618D01*
X23736Y-14662D01*
X23770Y-14695D01*
X23813Y-14713D01*
X23846Y-14713D01*
X23815Y-14744D01*
X23797Y-14787D01*
X23797Y-14834D01*
X23797Y-15009D01*
X23601Y-15009D01*
X23600Y-15009D01*
X23479Y-15009D01*
X23436Y-15027D01*
X23403Y-15060D01*
X23385Y-15103D01*
X23385Y-15150D01*
X23385Y-15268D01*
X23402Y-15312D01*
X23436Y-15345D01*
X23479Y-15363D01*
X23526Y-15363D01*
X23600Y-15363D01*
X23601Y-15363D01*
X23797Y-15363D01*
X23797Y-16631D01*
X23766Y-16600D01*
X23722Y-16582D01*
X23675Y-16582D01*
X23479Y-16582D01*
X23436Y-16600D01*
X23403Y-16633D01*
X23385Y-16676D01*
X23385Y-16723D01*
X23385Y-16841D01*
X23391Y-16857D01*
X23385Y-16873D01*
X23385Y-16920D01*
X23385Y-17038D01*
X23402Y-17082D01*
X23436Y-17115D01*
X23479Y-17133D01*
X23526Y-17133D01*
X23719Y-17133D01*
X23719Y-17176D01*
X23719Y-17245D01*
X23718Y-17247D01*
X23702Y-18078D01*
X23691Y-18082D01*
X23613Y-18049D01*
X23519Y-18049D01*
X23432Y-18085D01*
X23365Y-18152D01*
X23329Y-18238D01*
X23329Y-18332D01*
X23365Y-18419D01*
X23432Y-18486D01*
X23518Y-18522D01*
X23612Y-18522D01*
X23658Y-18503D01*
X23647Y-18513D01*
X23629Y-18557D01*
X23629Y-18604D01*
X23629Y-18801D01*
X23647Y-18844D01*
X23680Y-18877D01*
X23724Y-18895D01*
X23771Y-18895D01*
X24005Y-18895D01*
X24053Y-18916D01*
X24147Y-18916D01*
X24197Y-18895D01*
X24204Y-18895D01*
X24479Y-18895D01*
X24523Y-18877D01*
X24556Y-18844D01*
X24574Y-18801D01*
X24574Y-18754D01*
X24574Y-18557D01*
X24556Y-18514D01*
X24523Y-18480D01*
X24480Y-18462D01*
X24433Y-18462D01*
X24193Y-18462D01*
X24148Y-18443D01*
X24126Y-18443D01*
X24141Y-18407D01*
X24141Y-18360D01*
X24141Y-18163D01*
X24123Y-18120D01*
X24090Y-18087D01*
X24057Y-18073D01*
X24068Y-17467D01*
X24175Y-17467D01*
X24218Y-17449D01*
X24252Y-17416D01*
X24270Y-17372D01*
X24270Y-17325D01*
X24270Y-17251D01*
X24270Y-17251D01*
X24270Y-17055D01*
X24948Y-17055D01*
X24917Y-17086D01*
X24899Y-17129D01*
X24899Y-17176D01*
X24899Y-17372D01*
X24916Y-17416D01*
X24950Y-17449D01*
X24993Y-17467D01*
X25040Y-17467D01*
X25095Y-17467D01*
X25095Y-17558D01*
X25109Y-17625D01*
X25147Y-17683D01*
X25312Y-17848D01*
X25312Y-18093D01*
X25305Y-18096D01*
X25271Y-18130D01*
X25253Y-18173D01*
X25253Y-18220D01*
X25253Y-18417D01*
X25271Y-18460D01*
X25303Y-18492D01*
X25271Y-18523D01*
X25253Y-18567D01*
X25253Y-18614D01*
X25253Y-18811D01*
X25264Y-18837D01*
X25243Y-18888D01*
X25243Y-18982D01*
X25279Y-19068D01*
X25346Y-19135D01*
X25432Y-19171D01*
X25526Y-19171D01*
X25613Y-19135D01*
X25680Y-19069D01*
X25716Y-18982D01*
X25716Y-18891D01*
X25751Y-18905D01*
X25798Y-18905D01*
X26015Y-18905D01*
X26062Y-18925D01*
X26156Y-18925D01*
X26204Y-18905D01*
X26231Y-18905D01*
X26507Y-18905D01*
X26550Y-18887D01*
X26584Y-18854D01*
X26602Y-18811D01*
X26602Y-18764D01*
X26602Y-18567D01*
X26584Y-18523D01*
X26551Y-18490D01*
X26507Y-18472D01*
X26460Y-18472D01*
X26204Y-18472D01*
X26157Y-18453D01*
X26154Y-18453D01*
X26169Y-18417D01*
X26169Y-18370D01*
X26169Y-18173D01*
X26151Y-18130D01*
X26117Y-18097D01*
X26074Y-18078D01*
X26027Y-18078D01*
X25752Y-18078D01*
X25708Y-18096D01*
X25691Y-18113D01*
X25675Y-18097D01*
X25667Y-18093D01*
X25667Y-17774D01*
X25653Y-17707D01*
X25615Y-17649D01*
X25450Y-17484D01*
X25450Y-17251D01*
X25450Y-17251D01*
X25450Y-17129D01*
X25432Y-17086D01*
X25401Y-17055D01*
X26064Y-17055D01*
X26107Y-17037D01*
X26139Y-17006D01*
X26139Y-17038D01*
X26156Y-17082D01*
X26177Y-17103D01*
X26177Y-17369D01*
X26191Y-17437D01*
X26229Y-17494D01*
X26693Y-17958D01*
X26750Y-17996D01*
X26818Y-18010D01*
X27094Y-18010D01*
X27117Y-18033D01*
X27204Y-18069D01*
X27298Y-18069D01*
X27385Y-18033D01*
X27451Y-17966D01*
X27487Y-17880D01*
X27488Y-17786D01*
X27452Y-17699D01*
X27385Y-17632D01*
X27362Y-17623D01*
X27373Y-17612D01*
X27409Y-17525D01*
X27409Y-17431D01*
X27373Y-17344D01*
X27307Y-17278D01*
X27220Y-17242D01*
X27126Y-17242D01*
X27039Y-17278D01*
X27016Y-17301D01*
X26931Y-17301D01*
X26838Y-17208D01*
X26838Y-16888D01*
X26824Y-16820D01*
X26786Y-16762D01*
X26657Y-16633D01*
X26600Y-16595D01*
X26532Y-16582D01*
X26355Y-16582D01*
X26354Y-16582D01*
X26233Y-16582D01*
X26190Y-16600D01*
X26159Y-16631D01*
X26159Y-16346D01*
X26355Y-16346D01*
X26355Y-16346D01*
X26476Y-16346D01*
X26519Y-16328D01*
X26553Y-16295D01*
X26571Y-16251D01*
X26571Y-16204D01*
X26571Y-16086D01*
X26564Y-16070D01*
X26571Y-16054D01*
X26571Y-16007D01*
X26571Y-15957D01*
X26980Y-15957D01*
X26987Y-15964D01*
X27031Y-15982D01*
X27038Y-15982D01*
X27048Y-16035D01*
X27087Y-16092D01*
X27113Y-16119D01*
X27113Y-16379D01*
X27131Y-16423D01*
X27165Y-16456D01*
X27208Y-16474D01*
X27255Y-16474D01*
X27452Y-16474D01*
X27487Y-16459D01*
X27487Y-16501D01*
X27507Y-16549D01*
X27507Y-16812D01*
X27525Y-16856D01*
X27558Y-16889D01*
X27602Y-16907D01*
X27649Y-16907D01*
X27846Y-16907D01*
X27889Y-16889D01*
X27922Y-16856D01*
X27940Y-16813D01*
X27940Y-16766D01*
X27940Y-16549D01*
X27960Y-16502D01*
X27960Y-16408D01*
X27940Y-16360D01*
X27940Y-16356D01*
X27940Y-16333D01*
X27940Y-16057D01*
X27922Y-16014D01*
X27889Y-15980D01*
X27846Y-15962D01*
X27799Y-15962D01*
X27602Y-15962D01*
X27558Y-15980D01*
X27527Y-16012D01*
X27495Y-15980D01*
X27459Y-15965D01*
X27455Y-15960D01*
X27448Y-15952D01*
X27469Y-15931D01*
X27487Y-15888D01*
X27488Y-15841D01*
X27488Y-15447D01*
X27470Y-15403D01*
X27436Y-15370D01*
X27393Y-15352D01*
X27346Y-15352D01*
X27270Y-15352D01*
X27294Y-15329D01*
X27330Y-15242D01*
X27330Y-15148D01*
X27294Y-15061D01*
X27228Y-14994D01*
X27141Y-14958D01*
X27047Y-14958D01*
X26960Y-14994D01*
X26894Y-15061D01*
X26858Y-15147D01*
X26858Y-15161D01*
X26814Y-15205D01*
X26355Y-15205D01*
X26354Y-15205D01*
X26233Y-15205D01*
X26190Y-15223D01*
X26159Y-15254D01*
X26159Y-14969D01*
X26355Y-14969D01*
X26355Y-14969D01*
X26476Y-14969D01*
X26519Y-14951D01*
X26553Y-14918D01*
X26571Y-14874D01*
X26571Y-14827D01*
X26571Y-14709D01*
X26553Y-14666D01*
X26520Y-14633D01*
X26476Y-14615D01*
X26429Y-14615D01*
X26355Y-14615D01*
X26355Y-14615D01*
X26060Y-14615D01*
X25992Y-14628D01*
X25934Y-14666D01*
X25934Y-14666D01*
X25934Y-14666D01*
X25908Y-14693D01*
X25598Y-14693D01*
X25629Y-14662D01*
X25647Y-14618D01*
X25647Y-14571D01*
X25647Y-14497D01*
X25647Y-14497D01*
X25647Y-14245D01*
X25647Y-14245D01*
X25633Y-14177D01*
X25595Y-14119D01*
X25595Y-14119D01*
X25213Y-13738D01*
X25247Y-13738D01*
X25263Y-13731D01*
X25279Y-13738D01*
X25326Y-13738D01*
X25483Y-13738D01*
X25527Y-13720D01*
X25560Y-13687D01*
X25578Y-13643D01*
X25578Y-13596D01*
X25578Y-13301D01*
X25560Y-13258D01*
X25558Y-13256D01*
X25558Y-13240D01*
X25573Y-13226D01*
X25943Y-13226D01*
X25964Y-13247D01*
X26007Y-13265D01*
X26054Y-13266D01*
X26330Y-13266D01*
X26331Y-13265D01*
X26417Y-13351D01*
X26444Y-13369D01*
X26444Y-13387D01*
X26462Y-13431D01*
X26495Y-13464D01*
X26539Y-13482D01*
X26586Y-13482D01*
X26783Y-13482D01*
X26826Y-13464D01*
X26858Y-13433D01*
X26877Y-13452D01*
X26877Y-13546D01*
X26831Y-13593D01*
X26792Y-13650D01*
X26786Y-13683D01*
X26786Y-13683D01*
X26751Y-13697D01*
X26718Y-13730D01*
X26700Y-13773D01*
X26700Y-13820D01*
X26700Y-14175D01*
X26718Y-14218D01*
X26751Y-14251D01*
X26795Y-14269D01*
X26842Y-14269D01*
X27117Y-14269D01*
X27161Y-14251D01*
X27194Y-14218D01*
X27212Y-14175D01*
X27212Y-14128D01*
X27212Y-13774D01*
X27194Y-13730D01*
X27191Y-13728D01*
X27218Y-13688D01*
X27232Y-13620D01*
X27232Y-13452D01*
X27253Y-13431D01*
X27271Y-13388D01*
X27271Y-13341D01*
X27271Y-13065D01*
X27259Y-13035D01*
X27276Y-12994D01*
X27314Y-13033D01*
X27366Y-13054D01*
X27330Y-13140D01*
X27330Y-13234D01*
X27366Y-13320D01*
X27432Y-13387D01*
X27519Y-13423D01*
X27613Y-13423D01*
X27700Y-13387D01*
X27737Y-13350D01*
X27738Y-13350D01*
X27751Y-13382D01*
X27785Y-13415D01*
X27828Y-13433D01*
X27875Y-13433D01*
X28131Y-13433D01*
X28174Y-13415D01*
X28208Y-13382D01*
X28226Y-13338D01*
X28226Y-13291D01*
X28226Y-12957D01*
X28208Y-12913D01*
X28175Y-12880D01*
X28131Y-12862D01*
X28084Y-12862D01*
X27828Y-12862D01*
X27785Y-12880D01*
X27752Y-12913D01*
X27734Y-12956D01*
X27734Y-12996D01*
X27710Y-12996D01*
X27700Y-12987D01*
X27649Y-12965D01*
X27684Y-12880D01*
X27684Y-12786D01*
X27648Y-12699D01*
X27582Y-12632D01*
X27522Y-12607D01*
X27525Y-12600D01*
X27525Y-12553D01*
X27525Y-12435D01*
X27518Y-12419D01*
X27525Y-12403D01*
X27525Y-12356D01*
X27525Y-12330D01*
X27598Y-12360D01*
X27692Y-12360D01*
X27735Y-12342D01*
X27734Y-12346D01*
X27734Y-12393D01*
X27734Y-12728D01*
X27751Y-12771D01*
X27785Y-12805D01*
X27828Y-12823D01*
X27875Y-12823D01*
X28131Y-12823D01*
X28174Y-12805D01*
X28208Y-12771D01*
X28226Y-12728D01*
X28226Y-12681D01*
X28226Y-12346D01*
X28208Y-12303D01*
X28198Y-12293D01*
X28216Y-12250D01*
X28216Y-12217D01*
X28310Y-12123D01*
X28348Y-12066D01*
X28348Y-12066D01*
X28362Y-11998D01*
X28362Y-11783D01*
X28452Y-11783D01*
X28495Y-11765D01*
X28529Y-11732D01*
X28547Y-11689D01*
X28547Y-11642D01*
X28547Y-11902D01*
X28496Y-11923D01*
X28429Y-11990D01*
X28393Y-12077D01*
X28393Y-12171D01*
X28429Y-12257D01*
X28439Y-12268D01*
X28434Y-12270D01*
X28401Y-12303D01*
X28383Y-12346D01*
X28383Y-12393D01*
X28383Y-12728D01*
X28401Y-12771D01*
X28434Y-12805D01*
X28478Y-12823D01*
X28525Y-12823D01*
X28694Y-12823D01*
X28655Y-12862D01*
X28478Y-12862D01*
X28434Y-12880D01*
X28401Y-12913D01*
X28383Y-12956D01*
X28383Y-13003D01*
X28383Y-13338D01*
X28401Y-13382D01*
X28434Y-13415D01*
X28478Y-13433D01*
X28525Y-13433D01*
X28781Y-13433D01*
X28824Y-13415D01*
X28857Y-13382D01*
X28875Y-13338D01*
X28875Y-13291D01*
X28875Y-13143D01*
X28954Y-13064D01*
X28954Y-13406D01*
X28972Y-13450D01*
X29005Y-13483D01*
X29049Y-13501D01*
X29096Y-13501D01*
X29489Y-13501D01*
X29532Y-13483D01*
X29535Y-13481D01*
X29535Y-20362D01*
X29535Y-20362D01*
G37*
G54D44*
X29535Y-20362D02*
X28157Y-20362D01*
X28157Y-13967D01*
X28121Y-13880D01*
X28055Y-13813D01*
X27968Y-13777D01*
X27874Y-13777D01*
X27826Y-13797D01*
X27802Y-13797D01*
X27802Y-13774D01*
X27785Y-13730D01*
X27751Y-13697D01*
X27708Y-13679D01*
X27661Y-13679D01*
X27385Y-13679D01*
X27342Y-13697D01*
X27309Y-13730D01*
X27291Y-13773D01*
X27291Y-13820D01*
X27291Y-14175D01*
X27309Y-14218D01*
X27342Y-14251D01*
X27385Y-14269D01*
X27432Y-14269D01*
X27708Y-14269D01*
X27751Y-14251D01*
X27784Y-14218D01*
X27786Y-14213D01*
X27787Y-14214D01*
X27873Y-14250D01*
X27967Y-14250D01*
X28054Y-14214D01*
X28121Y-14147D01*
X28157Y-14061D01*
X28157Y-13967D01*
X28157Y-20362D01*
X28117Y-20362D01*
X28117Y-14833D01*
X28082Y-14746D01*
X28015Y-14680D01*
X27928Y-14643D01*
X27834Y-14643D01*
X27748Y-14679D01*
X27681Y-14746D01*
X27645Y-14832D01*
X27645Y-14926D01*
X27665Y-14974D01*
X27665Y-15001D01*
X27665Y-15277D01*
X27683Y-15320D01*
X27716Y-15354D01*
X27759Y-15372D01*
X27806Y-15372D01*
X28003Y-15372D01*
X28046Y-15354D01*
X28080Y-15321D01*
X28098Y-15277D01*
X28098Y-15230D01*
X28098Y-14974D01*
X28117Y-14927D01*
X28117Y-14833D01*
X28117Y-20362D01*
X23275Y-20362D01*
X23275Y-19385D01*
X23216Y-19242D01*
X23216Y-13455D01*
X23180Y-13368D01*
X23117Y-13305D01*
X23117Y-11624D01*
X23082Y-11537D01*
X23015Y-11471D01*
X22928Y-11435D01*
X22834Y-11435D01*
X22748Y-11471D01*
X22681Y-11537D01*
X22645Y-11624D01*
X22645Y-11718D01*
X22681Y-11805D01*
X22747Y-11871D01*
X22834Y-11907D01*
X22928Y-11907D01*
X23015Y-11871D01*
X23081Y-11805D01*
X23117Y-11718D01*
X23117Y-11624D01*
X23117Y-13305D01*
X23114Y-13302D01*
X23027Y-13266D01*
X22933Y-13265D01*
X22846Y-13301D01*
X22779Y-13368D01*
X22743Y-13455D01*
X22743Y-13548D01*
X22779Y-13635D01*
X22846Y-13702D01*
X22932Y-13738D01*
X23026Y-13738D01*
X23113Y-13702D01*
X23180Y-13636D01*
X23216Y-13549D01*
X23216Y-13455D01*
X23216Y-19242D01*
X23167Y-19124D01*
X22968Y-18925D01*
X22811Y-18860D01*
X22811Y-15543D01*
X22775Y-15456D01*
X22708Y-15389D01*
X22665Y-15371D01*
X22665Y-15204D01*
X22686Y-15183D01*
X22704Y-15139D01*
X22704Y-15092D01*
X22704Y-14817D01*
X22686Y-14773D01*
X22653Y-14740D01*
X22610Y-14722D01*
X22563Y-14722D01*
X22366Y-14722D01*
X22322Y-14740D01*
X22289Y-14773D01*
X22271Y-14817D01*
X22271Y-14864D01*
X22271Y-15139D01*
X22289Y-15183D01*
X22310Y-15204D01*
X22310Y-15502D01*
X22324Y-15570D01*
X22337Y-15590D01*
X22324Y-15609D01*
X22310Y-15677D01*
X22310Y-16012D01*
X22289Y-16033D01*
X22271Y-16077D01*
X22271Y-16124D01*
X22271Y-16399D01*
X22289Y-16443D01*
X22322Y-16476D01*
X22365Y-16494D01*
X22412Y-16494D01*
X22609Y-16494D01*
X22653Y-16476D01*
X22686Y-16443D01*
X22704Y-16399D01*
X22704Y-16352D01*
X22704Y-16077D01*
X22686Y-16033D01*
X22665Y-16012D01*
X22665Y-15808D01*
X22708Y-15790D01*
X22775Y-15723D01*
X22811Y-15637D01*
X22811Y-15543D01*
X22811Y-18860D01*
X22763Y-18840D01*
X22763Y-17294D01*
X22727Y-17207D01*
X22661Y-17140D01*
X22574Y-17104D01*
X22480Y-17104D01*
X22393Y-17140D01*
X22370Y-17163D01*
X22330Y-17163D01*
X22330Y-17120D01*
X22312Y-17077D01*
X22279Y-17043D01*
X22235Y-17025D01*
X22189Y-17025D01*
X21913Y-17025D01*
X21869Y-17043D01*
X21836Y-17076D01*
X21818Y-17120D01*
X21818Y-17167D01*
X21818Y-17521D01*
X21836Y-17565D01*
X21869Y-17598D01*
X21913Y-17616D01*
X21960Y-17616D01*
X22235Y-17616D01*
X22279Y-17598D01*
X22312Y-17565D01*
X22330Y-17521D01*
X22330Y-17517D01*
X22370Y-17517D01*
X22393Y-17540D01*
X22480Y-17576D01*
X22574Y-17577D01*
X22660Y-17541D01*
X22727Y-17474D01*
X22763Y-17387D01*
X22763Y-17294D01*
X22763Y-18840D01*
X22708Y-18817D01*
X22426Y-18817D01*
X22330Y-18856D01*
X22330Y-18124D01*
X22330Y-17770D01*
X22312Y-17726D01*
X22279Y-17693D01*
X22235Y-17675D01*
X22189Y-17675D01*
X21913Y-17675D01*
X21869Y-17693D01*
X21836Y-17726D01*
X21818Y-17769D01*
X21818Y-17816D01*
X21818Y-18171D01*
X21836Y-18214D01*
X21847Y-18225D01*
X21838Y-18244D01*
X21838Y-18338D01*
X21874Y-18425D01*
X21941Y-18492D01*
X22027Y-18528D01*
X22121Y-18528D01*
X22208Y-18492D01*
X22275Y-18425D01*
X22311Y-18339D01*
X22311Y-18245D01*
X22302Y-18224D01*
X22312Y-18214D01*
X22330Y-18171D01*
X22330Y-18124D01*
X22330Y-18856D01*
X22165Y-18924D01*
X21966Y-19123D01*
X21858Y-19384D01*
X21857Y-19666D01*
X21965Y-19926D01*
X22164Y-20126D01*
X22425Y-20234D01*
X22707Y-20234D01*
X22967Y-20126D01*
X23167Y-19927D01*
X23275Y-19667D01*
X23275Y-19385D01*
X23275Y-20362D01*
X21739Y-20362D01*
X21739Y-18124D01*
X21739Y-17770D01*
X21722Y-17726D01*
X21712Y-17717D01*
X21721Y-17697D01*
X21721Y-17603D01*
X21710Y-17576D01*
X21721Y-17565D01*
X21739Y-17521D01*
X21739Y-17474D01*
X21739Y-17120D01*
X21722Y-17077D01*
X21688Y-17043D01*
X21645Y-17025D01*
X21598Y-17025D01*
X21322Y-17025D01*
X21279Y-17043D01*
X21246Y-17076D01*
X21228Y-17120D01*
X21228Y-17167D01*
X21228Y-17521D01*
X21246Y-17565D01*
X21259Y-17578D01*
X21248Y-17602D01*
X21248Y-17696D01*
X21256Y-17716D01*
X21246Y-17726D01*
X21228Y-17769D01*
X21228Y-17816D01*
X21228Y-18171D01*
X21246Y-18214D01*
X21279Y-18247D01*
X21322Y-18265D01*
X21369Y-18266D01*
X21645Y-18266D01*
X21688Y-18248D01*
X21721Y-18214D01*
X21739Y-18171D01*
X21739Y-18124D01*
X21739Y-20362D01*
X20942Y-20362D01*
X20942Y-16950D01*
X20968Y-16960D01*
X21015Y-16960D01*
X21802Y-16960D01*
X21846Y-16942D01*
X21879Y-16909D01*
X21897Y-16866D01*
X21897Y-16819D01*
X21897Y-16319D01*
X21879Y-16275D01*
X21846Y-16242D01*
X21802Y-16224D01*
X21755Y-16224D01*
X21610Y-16224D01*
X21585Y-16163D01*
X21518Y-16096D01*
X21432Y-16060D01*
X21338Y-16060D01*
X21251Y-16096D01*
X21184Y-16163D01*
X21159Y-16224D01*
X20968Y-16224D01*
X20942Y-16235D01*
X20942Y-15946D01*
X20968Y-15956D01*
X21015Y-15956D01*
X21802Y-15956D01*
X21846Y-15939D01*
X21879Y-15905D01*
X21897Y-15862D01*
X21897Y-15815D01*
X21897Y-15795D01*
X21968Y-15824D01*
X22062Y-15825D01*
X22149Y-15789D01*
X22215Y-15722D01*
X22251Y-15636D01*
X22251Y-15542D01*
X22215Y-15455D01*
X22173Y-15412D01*
X22173Y-13065D01*
X22173Y-12711D01*
X22155Y-12667D01*
X22135Y-12647D01*
X22153Y-12604D01*
X22153Y-12510D01*
X22146Y-12494D01*
X22154Y-12486D01*
X22173Y-12443D01*
X22173Y-12396D01*
X22173Y-12041D01*
X22155Y-11998D01*
X22121Y-11965D01*
X22078Y-11947D01*
X22031Y-11947D01*
X21755Y-11947D01*
X21712Y-11965D01*
X21679Y-11998D01*
X21661Y-12041D01*
X21661Y-12088D01*
X21661Y-12442D01*
X21679Y-12486D01*
X21687Y-12494D01*
X21680Y-12510D01*
X21680Y-12604D01*
X21698Y-12647D01*
X21679Y-12667D01*
X21661Y-12710D01*
X21661Y-12757D01*
X21661Y-13112D01*
X21679Y-13155D01*
X21712Y-13188D01*
X21755Y-13206D01*
X21802Y-13206D01*
X22078Y-13206D01*
X22121Y-13189D01*
X22154Y-13155D01*
X22173Y-13112D01*
X22173Y-13065D01*
X22173Y-15412D01*
X22149Y-15388D01*
X22062Y-15352D01*
X21968Y-15352D01*
X21897Y-15382D01*
X21897Y-15315D01*
X21879Y-15272D01*
X21846Y-15238D01*
X21802Y-15220D01*
X21755Y-15220D01*
X20968Y-15220D01*
X20942Y-15231D01*
X20942Y-14942D01*
X20968Y-14952D01*
X21015Y-14953D01*
X21169Y-14953D01*
X21186Y-14993D01*
X21253Y-15060D01*
X21339Y-15096D01*
X21433Y-15096D01*
X21520Y-15060D01*
X21587Y-14993D01*
X21604Y-14953D01*
X21802Y-14953D01*
X21846Y-14935D01*
X21879Y-14901D01*
X21897Y-14858D01*
X21897Y-14811D01*
X21897Y-14311D01*
X21879Y-14268D01*
X21846Y-14234D01*
X21802Y-14216D01*
X21755Y-14216D01*
X21582Y-14216D01*
X21582Y-13065D01*
X21582Y-12711D01*
X21582Y-12396D01*
X21582Y-12041D01*
X21564Y-11998D01*
X21531Y-11965D01*
X21487Y-11947D01*
X21440Y-11947D01*
X21165Y-11947D01*
X21121Y-11965D01*
X21088Y-11998D01*
X21070Y-12041D01*
X21070Y-12088D01*
X21070Y-12285D01*
X21070Y-12308D01*
X21070Y-12308D01*
X21070Y-12442D01*
X21088Y-12486D01*
X21121Y-12519D01*
X21165Y-12537D01*
X21212Y-12537D01*
X21487Y-12537D01*
X21531Y-12519D01*
X21564Y-12486D01*
X21582Y-12443D01*
X21582Y-12396D01*
X21582Y-12711D01*
X21564Y-12667D01*
X21531Y-12634D01*
X21487Y-12616D01*
X21440Y-12616D01*
X21165Y-12616D01*
X21121Y-12634D01*
X21088Y-12667D01*
X21070Y-12710D01*
X21070Y-12757D01*
X21070Y-12954D01*
X21070Y-12978D01*
X21070Y-12978D01*
X21070Y-13112D01*
X21088Y-13155D01*
X21121Y-13188D01*
X21165Y-13206D01*
X21212Y-13206D01*
X21487Y-13206D01*
X21531Y-13189D01*
X21564Y-13155D01*
X21582Y-13112D01*
X21582Y-13065D01*
X21582Y-14216D01*
X20968Y-14216D01*
X20942Y-14227D01*
X20942Y-10785D01*
X29134Y-10785D01*
X29047Y-10821D01*
X28980Y-10887D01*
X28944Y-10974D01*
X28944Y-11047D01*
X28905Y-11047D01*
X28862Y-11065D01*
X28828Y-11098D01*
X28810Y-11141D01*
X28810Y-11188D01*
X28810Y-11688D01*
X28828Y-11732D01*
X28861Y-11765D01*
X28905Y-11783D01*
X28952Y-11783D01*
X29001Y-11783D01*
X29001Y-11848D01*
X29001Y-12082D01*
X29015Y-12150D01*
X29029Y-12172D01*
X29029Y-12172D01*
X29006Y-12182D01*
X28972Y-12215D01*
X28954Y-12258D01*
X28954Y-12305D01*
X28954Y-12562D01*
X28875Y-12642D01*
X28875Y-12346D01*
X28857Y-12303D01*
X28824Y-12270D01*
X28819Y-12268D01*
X28829Y-12258D01*
X28865Y-12171D01*
X28865Y-12077D01*
X28830Y-11990D01*
X28763Y-11924D01*
X28676Y-11888D01*
X28582Y-11887D01*
X28547Y-11902D01*
X28547Y-11642D01*
X28547Y-11142D01*
X28529Y-11098D01*
X28495Y-11065D01*
X28452Y-11047D01*
X28405Y-11047D01*
X27905Y-11047D01*
X27862Y-11065D01*
X27828Y-11098D01*
X27810Y-11141D01*
X27810Y-11188D01*
X27810Y-11489D01*
X27806Y-11478D01*
X27740Y-11412D01*
X27653Y-11376D01*
X27559Y-11376D01*
X27547Y-11381D01*
X27547Y-11142D01*
X27529Y-11098D01*
X27495Y-11065D01*
X27452Y-11047D01*
X27405Y-11047D01*
X26905Y-11047D01*
X26862Y-11065D01*
X26828Y-11098D01*
X26810Y-11141D01*
X26810Y-11188D01*
X26810Y-11467D01*
X26755Y-11412D01*
X26669Y-11376D01*
X26575Y-11376D01*
X26547Y-11387D01*
X26547Y-11142D01*
X26529Y-11098D01*
X26495Y-11065D01*
X26452Y-11047D01*
X26405Y-11047D01*
X25905Y-11047D01*
X25862Y-11065D01*
X25828Y-11098D01*
X25810Y-11141D01*
X25810Y-11188D01*
X25810Y-11688D01*
X25828Y-11732D01*
X25861Y-11765D01*
X25905Y-11783D01*
X25952Y-11783D01*
X26159Y-11783D01*
X26188Y-11789D01*
X26464Y-11789D01*
X26487Y-11812D01*
X26574Y-11848D01*
X26668Y-11848D01*
X26755Y-11812D01*
X26821Y-11746D01*
X26828Y-11731D01*
X26828Y-11732D01*
X26861Y-11765D01*
X26905Y-11783D01*
X26952Y-11783D01*
X27143Y-11783D01*
X27173Y-11789D01*
X27449Y-11789D01*
X27472Y-11812D01*
X27558Y-11848D01*
X27652Y-11848D01*
X27739Y-11812D01*
X27806Y-11746D01*
X27820Y-11712D01*
X27828Y-11732D01*
X27861Y-11765D01*
X27905Y-11783D01*
X27952Y-11783D01*
X28007Y-11783D01*
X28007Y-11924D01*
X27965Y-11966D01*
X27933Y-11966D01*
X27850Y-12001D01*
X27845Y-11990D01*
X27779Y-11924D01*
X27692Y-11888D01*
X27598Y-11887D01*
X27511Y-11923D01*
X27488Y-11946D01*
X27298Y-11946D01*
X27298Y-11946D01*
X27166Y-11946D01*
X27123Y-11964D01*
X27089Y-11998D01*
X27071Y-12041D01*
X27071Y-12088D01*
X27071Y-12148D01*
X27026Y-12157D01*
X26969Y-12195D01*
X26959Y-12205D01*
X26959Y-12159D01*
X26959Y-12041D01*
X26941Y-11998D01*
X26908Y-11965D01*
X26864Y-11947D01*
X26817Y-11946D01*
X26732Y-11946D01*
X26732Y-11946D01*
X26306Y-11946D01*
X26283Y-11924D01*
X26196Y-11888D01*
X26102Y-11887D01*
X26015Y-11923D01*
X25949Y-11990D01*
X25913Y-12077D01*
X25913Y-12171D01*
X25949Y-12257D01*
X26015Y-12324D01*
X26102Y-12360D01*
X26194Y-12360D01*
X26154Y-12399D01*
X26122Y-12399D01*
X26035Y-12435D01*
X25968Y-12502D01*
X25932Y-12588D01*
X25932Y-12682D01*
X25968Y-12769D01*
X25991Y-12792D01*
X25991Y-12839D01*
X25964Y-12850D01*
X25942Y-12872D01*
X25499Y-12872D01*
X25432Y-12885D01*
X25401Y-12906D01*
X25401Y-12904D01*
X25365Y-12817D01*
X25299Y-12750D01*
X25212Y-12714D01*
X25125Y-12714D01*
X25125Y-12707D01*
X25104Y-12655D01*
X25129Y-12655D01*
X25247Y-12655D01*
X25263Y-12649D01*
X25279Y-12655D01*
X25326Y-12655D01*
X25483Y-12655D01*
X25527Y-12637D01*
X25560Y-12604D01*
X25578Y-12561D01*
X25578Y-12514D01*
X25578Y-12218D01*
X25560Y-12175D01*
X25558Y-12173D01*
X25558Y-12013D01*
X25568Y-12004D01*
X25586Y-11960D01*
X25586Y-11913D01*
X25586Y-11559D01*
X25568Y-11516D01*
X25535Y-11482D01*
X25491Y-11464D01*
X25444Y-11464D01*
X25430Y-11464D01*
X25430Y-11415D01*
X25452Y-11393D01*
X25470Y-11350D01*
X25470Y-11303D01*
X25470Y-11028D01*
X25452Y-10984D01*
X25419Y-10951D01*
X25375Y-10933D01*
X25328Y-10933D01*
X25131Y-10933D01*
X25088Y-10951D01*
X25056Y-10982D01*
X25025Y-10951D01*
X24982Y-10933D01*
X24935Y-10933D01*
X24738Y-10933D01*
X24694Y-10951D01*
X24679Y-10966D01*
X24621Y-10943D01*
X24527Y-10943D01*
X24440Y-10978D01*
X24374Y-11045D01*
X24338Y-11132D01*
X24338Y-11226D01*
X24374Y-11313D01*
X24440Y-11379D01*
X24527Y-11415D01*
X24621Y-11415D01*
X24665Y-11397D01*
X24694Y-11427D01*
X24738Y-11445D01*
X24785Y-11445D01*
X24981Y-11445D01*
X25025Y-11427D01*
X25056Y-11395D01*
X25076Y-11415D01*
X25076Y-11553D01*
X25074Y-11559D01*
X25074Y-11606D01*
X25074Y-11960D01*
X25092Y-12003D01*
X25125Y-12037D01*
X25168Y-12055D01*
X25202Y-12055D01*
X25204Y-12058D01*
X25204Y-12124D01*
X25200Y-12124D01*
X25137Y-12124D01*
X25131Y-12095D01*
X25093Y-12038D01*
X25093Y-12038D01*
X24995Y-11940D01*
X24995Y-11913D01*
X24995Y-11559D01*
X24977Y-11516D01*
X24944Y-11482D01*
X24901Y-11464D01*
X24854Y-11464D01*
X24578Y-11464D01*
X24535Y-11482D01*
X24501Y-11515D01*
X24483Y-11559D01*
X24483Y-11606D01*
X24483Y-11743D01*
X24483Y-11743D01*
X24425Y-11704D01*
X24358Y-11691D01*
X24337Y-11691D01*
X24336Y-11689D01*
X24336Y-11559D01*
X24318Y-11516D01*
X24285Y-11482D01*
X24241Y-11464D01*
X24194Y-11464D01*
X23919Y-11464D01*
X23875Y-11482D01*
X23842Y-11515D01*
X23824Y-11559D01*
X23824Y-11606D01*
X23824Y-11960D01*
X23842Y-12003D01*
X23875Y-12037D01*
X23918Y-12055D01*
X23965Y-12055D01*
X24042Y-12055D01*
X24114Y-12084D01*
X24208Y-12084D01*
X24279Y-12055D01*
X24279Y-12180D01*
X24241Y-12164D01*
X24194Y-12164D01*
X23919Y-12164D01*
X23875Y-12182D01*
X23842Y-12215D01*
X23824Y-12259D01*
X23824Y-12306D01*
X23824Y-12660D01*
X23842Y-12703D01*
X23875Y-12737D01*
X23918Y-12755D01*
X23965Y-12755D01*
X23987Y-12755D01*
X24000Y-12774D01*
X24022Y-12807D01*
X24331Y-13115D01*
X24554Y-13339D01*
X24554Y-13348D01*
X24554Y-13643D01*
X24572Y-13687D01*
X24574Y-13688D01*
X24574Y-13816D01*
X24588Y-13884D01*
X24626Y-13942D01*
X25095Y-14411D01*
X25095Y-14497D01*
X25096Y-14497D01*
X25096Y-14618D01*
X25113Y-14662D01*
X25144Y-14693D01*
X24270Y-14693D01*
X24270Y-14497D01*
X24270Y-14497D01*
X24270Y-14375D01*
X24252Y-14332D01*
X24219Y-14299D01*
X24175Y-14281D01*
X24128Y-14281D01*
X24073Y-14281D01*
X24073Y-14013D01*
X24096Y-13990D01*
X24156Y-14015D01*
X24250Y-14015D01*
X24337Y-13979D01*
X24404Y-13912D01*
X24440Y-13826D01*
X24440Y-13732D01*
X24404Y-13645D01*
X24337Y-13578D01*
X24251Y-13542D01*
X24157Y-13542D01*
X24097Y-13567D01*
X24070Y-13539D01*
X24027Y-13521D01*
X23980Y-13521D01*
X23806Y-13521D01*
X23806Y-12063D01*
X23771Y-11976D01*
X23747Y-11953D01*
X23747Y-11710D01*
X23745Y-11699D01*
X23745Y-11559D01*
X23727Y-11516D01*
X23694Y-11482D01*
X23651Y-11464D01*
X23604Y-11464D01*
X23328Y-11464D01*
X23285Y-11482D01*
X23251Y-11515D01*
X23233Y-11559D01*
X23233Y-11606D01*
X23233Y-11960D01*
X23251Y-12003D01*
X23284Y-12037D01*
X23328Y-12055D01*
X23337Y-12055D01*
X23334Y-12062D01*
X23334Y-12156D01*
X23337Y-12164D01*
X23328Y-12164D01*
X23285Y-12182D01*
X23251Y-12215D01*
X23233Y-12259D01*
X23233Y-12306D01*
X23233Y-12660D01*
X23251Y-12703D01*
X23284Y-12737D01*
X23328Y-12755D01*
X23375Y-12755D01*
X23650Y-12755D01*
X23694Y-12737D01*
X23727Y-12704D01*
X23745Y-12660D01*
X23745Y-12613D01*
X23745Y-12430D01*
X23747Y-12419D01*
X23747Y-12266D01*
X23770Y-12243D01*
X23806Y-12157D01*
X23806Y-12063D01*
X23806Y-13521D01*
X23783Y-13521D01*
X23740Y-13539D01*
X23708Y-13571D01*
X23687Y-13550D01*
X23687Y-13546D01*
X23708Y-13524D01*
X23726Y-13481D01*
X23726Y-13434D01*
X23726Y-13158D01*
X23717Y-13135D01*
X23741Y-13077D01*
X23741Y-12983D01*
X23705Y-12896D01*
X23638Y-12829D01*
X23552Y-12793D01*
X23458Y-12793D01*
X23371Y-12829D01*
X23304Y-12896D01*
X23268Y-12982D01*
X23268Y-13076D01*
X23298Y-13147D01*
X23293Y-13158D01*
X23293Y-13205D01*
X23293Y-13481D01*
X23311Y-13524D01*
X23332Y-13546D01*
X23332Y-13553D01*
X23313Y-13573D01*
X23295Y-13616D01*
X23295Y-13663D01*
X23295Y-13938D01*
X23313Y-13982D01*
X23346Y-14015D01*
X23389Y-14033D01*
X23436Y-14033D01*
X23633Y-14033D01*
X23676Y-14015D01*
X23708Y-13984D01*
X23718Y-13994D01*
X23718Y-14497D01*
X23719Y-14497D01*
X23719Y-14618D01*
X23736Y-14662D01*
X23770Y-14695D01*
X23813Y-14713D01*
X23846Y-14713D01*
X23815Y-14744D01*
X23797Y-14787D01*
X23797Y-14834D01*
X23797Y-15009D01*
X23601Y-15009D01*
X23600Y-15009D01*
X23479Y-15009D01*
X23436Y-15027D01*
X23403Y-15060D01*
X23385Y-15103D01*
X23385Y-15150D01*
X23385Y-15268D01*
X23402Y-15312D01*
X23436Y-15345D01*
X23479Y-15363D01*
X23526Y-15363D01*
X23600Y-15363D01*
X23601Y-15363D01*
X23797Y-15363D01*
X23797Y-16631D01*
X23766Y-16600D01*
X23722Y-16582D01*
X23675Y-16582D01*
X23479Y-16582D01*
X23436Y-16600D01*
X23403Y-16633D01*
X23385Y-16676D01*
X23385Y-16723D01*
X23385Y-16841D01*
X23391Y-16857D01*
X23385Y-16873D01*
X23385Y-16920D01*
X23385Y-17038D01*
X23402Y-17082D01*
X23436Y-17115D01*
X23479Y-17133D01*
X23526Y-17133D01*
X23719Y-17133D01*
X23719Y-17176D01*
X23719Y-17245D01*
X23718Y-17247D01*
X23702Y-18078D01*
X23691Y-18082D01*
X23613Y-18049D01*
X23519Y-18049D01*
X23432Y-18085D01*
X23365Y-18152D01*
X23329Y-18238D01*
X23329Y-18332D01*
X23365Y-18419D01*
X23432Y-18486D01*
X23518Y-18522D01*
X23612Y-18522D01*
X23658Y-18503D01*
X23647Y-18513D01*
X23629Y-18557D01*
X23629Y-18604D01*
X23629Y-18801D01*
X23647Y-18844D01*
X23680Y-18877D01*
X23724Y-18895D01*
X23771Y-18895D01*
X24005Y-18895D01*
X24053Y-18916D01*
X24147Y-18916D01*
X24197Y-18895D01*
X24204Y-18895D01*
X24479Y-18895D01*
X24523Y-18877D01*
X24556Y-18844D01*
X24574Y-18801D01*
X24574Y-18754D01*
X24574Y-18557D01*
X24556Y-18514D01*
X24523Y-18480D01*
X24480Y-18462D01*
X24433Y-18462D01*
X24193Y-18462D01*
X24148Y-18443D01*
X24126Y-18443D01*
X24141Y-18407D01*
X24141Y-18360D01*
X24141Y-18163D01*
X24123Y-18120D01*
X24090Y-18087D01*
X24057Y-18073D01*
X24068Y-17467D01*
X24175Y-17467D01*
X24218Y-17449D01*
X24252Y-17416D01*
X24270Y-17372D01*
X24270Y-17325D01*
X24270Y-17251D01*
X24270Y-17251D01*
X24270Y-17055D01*
X24948Y-17055D01*
X24917Y-17086D01*
X24899Y-17129D01*
X24899Y-17176D01*
X24899Y-17372D01*
X24916Y-17416D01*
X24950Y-17449D01*
X24993Y-17467D01*
X25040Y-17467D01*
X25095Y-17467D01*
X25095Y-17558D01*
X25109Y-17625D01*
X25147Y-17683D01*
X25312Y-17848D01*
X25312Y-18093D01*
X25305Y-18096D01*
X25271Y-18130D01*
X25253Y-18173D01*
X25253Y-18220D01*
X25253Y-18417D01*
X25271Y-18460D01*
X25303Y-18492D01*
X25271Y-18523D01*
X25253Y-18567D01*
X25253Y-18614D01*
X25253Y-18811D01*
X25264Y-18837D01*
X25243Y-18888D01*
X25243Y-18982D01*
X25279Y-19068D01*
X25346Y-19135D01*
X25432Y-19171D01*
X25526Y-19171D01*
X25613Y-19135D01*
X25680Y-19069D01*
X25716Y-18982D01*
X25716Y-18891D01*
X25751Y-18905D01*
X25798Y-18905D01*
X26015Y-18905D01*
X26062Y-18925D01*
X26156Y-18925D01*
X26204Y-18905D01*
X26231Y-18905D01*
X26507Y-18905D01*
X26550Y-18887D01*
X26584Y-18854D01*
X26602Y-18811D01*
X26602Y-18764D01*
X26602Y-18567D01*
X26584Y-18523D01*
X26551Y-18490D01*
X26507Y-18472D01*
X26460Y-18472D01*
X26204Y-18472D01*
X26157Y-18453D01*
X26154Y-18453D01*
X26169Y-18417D01*
X26169Y-18370D01*
X26169Y-18173D01*
X26151Y-18130D01*
X26117Y-18097D01*
X26074Y-18078D01*
X26027Y-18078D01*
X25752Y-18078D01*
X25708Y-18096D01*
X25691Y-18113D01*
X25675Y-18097D01*
X25667Y-18093D01*
X25667Y-17774D01*
X25653Y-17707D01*
X25615Y-17649D01*
X25450Y-17484D01*
X25450Y-17251D01*
X25450Y-17251D01*
X25450Y-17129D01*
X25432Y-17086D01*
X25401Y-17055D01*
X26064Y-17055D01*
X26107Y-17037D01*
X26139Y-17006D01*
X26139Y-17038D01*
X26156Y-17082D01*
X26177Y-17103D01*
X26177Y-17369D01*
X26191Y-17437D01*
X26229Y-17494D01*
X26693Y-17958D01*
X26750Y-17996D01*
X26818Y-18010D01*
X27094Y-18010D01*
X27117Y-18033D01*
X27204Y-18069D01*
X27298Y-18069D01*
X27385Y-18033D01*
X27451Y-17966D01*
X27487Y-17880D01*
X27488Y-17786D01*
X27452Y-17699D01*
X27385Y-17632D01*
X27362Y-17623D01*
X27373Y-17612D01*
X27409Y-17525D01*
X27409Y-17431D01*
X27373Y-17344D01*
X27307Y-17278D01*
X27220Y-17242D01*
X27126Y-17242D01*
X27039Y-17278D01*
X27016Y-17301D01*
X26931Y-17301D01*
X26838Y-17208D01*
X26838Y-16888D01*
X26824Y-16820D01*
X26786Y-16762D01*
X26657Y-16633D01*
X26600Y-16595D01*
X26532Y-16582D01*
X26355Y-16582D01*
X26354Y-16582D01*
X26233Y-16582D01*
X26190Y-16600D01*
X26159Y-16631D01*
X26159Y-16346D01*
X26355Y-16346D01*
X26355Y-16346D01*
X26476Y-16346D01*
X26519Y-16328D01*
X26553Y-16295D01*
X26571Y-16251D01*
X26571Y-16204D01*
X26571Y-16086D01*
X26564Y-16070D01*
X26571Y-16054D01*
X26571Y-16007D01*
X26571Y-15957D01*
X26980Y-15957D01*
X26987Y-15964D01*
X27031Y-15982D01*
X27038Y-15982D01*
X27048Y-16035D01*
X27087Y-16092D01*
X27113Y-16119D01*
X27113Y-16379D01*
X27131Y-16423D01*
X27165Y-16456D01*
X27208Y-16474D01*
X27255Y-16474D01*
X27452Y-16474D01*
X27487Y-16459D01*
X27487Y-16501D01*
X27507Y-16549D01*
X27507Y-16812D01*
X27525Y-16856D01*
X27558Y-16889D01*
X27602Y-16907D01*
X27649Y-16907D01*
X27846Y-16907D01*
X27889Y-16889D01*
X27922Y-16856D01*
X27940Y-16813D01*
X27940Y-16766D01*
X27940Y-16549D01*
X27960Y-16502D01*
X27960Y-16408D01*
X27940Y-16360D01*
X27940Y-16356D01*
X27940Y-16333D01*
X27940Y-16057D01*
X27922Y-16014D01*
X27889Y-15980D01*
X27846Y-15962D01*
X27799Y-15962D01*
X27602Y-15962D01*
X27558Y-15980D01*
X27527Y-16012D01*
X27495Y-15980D01*
X27459Y-15965D01*
X27455Y-15960D01*
X27448Y-15952D01*
X27469Y-15931D01*
X27487Y-15888D01*
X27488Y-15841D01*
X27488Y-15447D01*
X27470Y-15403D01*
X27436Y-15370D01*
X27393Y-15352D01*
X27346Y-15352D01*
X27270Y-15352D01*
X27294Y-15329D01*
X27330Y-15242D01*
X27330Y-15148D01*
X27294Y-15061D01*
X27228Y-14994D01*
X27141Y-14958D01*
X27047Y-14958D01*
X26960Y-14994D01*
X26894Y-15061D01*
X26858Y-15147D01*
X26858Y-15161D01*
X26814Y-15205D01*
X26355Y-15205D01*
X26354Y-15205D01*
X26233Y-15205D01*
X26190Y-15223D01*
X26159Y-15254D01*
X26159Y-14969D01*
X26355Y-14969D01*
X26355Y-14969D01*
X26476Y-14969D01*
X26519Y-14951D01*
X26553Y-14918D01*
X26571Y-14874D01*
X26571Y-14827D01*
X26571Y-14709D01*
X26553Y-14666D01*
X26520Y-14633D01*
X26476Y-14615D01*
X26429Y-14615D01*
X26355Y-14615D01*
X26355Y-14615D01*
X26060Y-14615D01*
X25992Y-14628D01*
X25934Y-14666D01*
X25934Y-14666D01*
X25934Y-14666D01*
X25908Y-14693D01*
X25598Y-14693D01*
X25629Y-14662D01*
X25647Y-14618D01*
X25647Y-14571D01*
X25647Y-14497D01*
X25647Y-14497D01*
X25647Y-14245D01*
X25647Y-14245D01*
X25633Y-14177D01*
X25595Y-14119D01*
X25595Y-14119D01*
X25213Y-13738D01*
X25247Y-13738D01*
X25263Y-13731D01*
X25279Y-13738D01*
X25326Y-13738D01*
X25483Y-13738D01*
X25527Y-13720D01*
X25560Y-13687D01*
X25578Y-13643D01*
X25578Y-13596D01*
X25578Y-13301D01*
X25560Y-13258D01*
X25558Y-13256D01*
X25558Y-13240D01*
X25573Y-13226D01*
X25943Y-13226D01*
X25964Y-13247D01*
X26007Y-13265D01*
X26054Y-13266D01*
X26330Y-13266D01*
X26331Y-13265D01*
X26417Y-13351D01*
X26444Y-13369D01*
X26444Y-13387D01*
X26462Y-13431D01*
X26495Y-13464D01*
X26539Y-13482D01*
X26586Y-13482D01*
X26783Y-13482D01*
X26826Y-13464D01*
X26858Y-13433D01*
X26877Y-13452D01*
X26877Y-13546D01*
X26831Y-13593D01*
X26792Y-13650D01*
X26786Y-13683D01*
X26786Y-13683D01*
X26751Y-13697D01*
X26718Y-13730D01*
X26700Y-13773D01*
X26700Y-13820D01*
X26700Y-14175D01*
X26718Y-14218D01*
X26751Y-14251D01*
X26795Y-14269D01*
X26842Y-14269D01*
X27117Y-14269D01*
X27161Y-14251D01*
X27194Y-14218D01*
X27212Y-14175D01*
X27212Y-14128D01*
X27212Y-13774D01*
X27194Y-13730D01*
X27191Y-13728D01*
X27218Y-13688D01*
X27232Y-13620D01*
X27232Y-13452D01*
X27253Y-13431D01*
X27271Y-13388D01*
X27271Y-13341D01*
X27271Y-13065D01*
X27259Y-13035D01*
X27276Y-12994D01*
X27314Y-13033D01*
X27366Y-13054D01*
X27330Y-13140D01*
X27330Y-13234D01*
X27366Y-13320D01*
X27432Y-13387D01*
X27519Y-13423D01*
X27613Y-13423D01*
X27700Y-13387D01*
X27737Y-13350D01*
X27738Y-13350D01*
X27751Y-13382D01*
X27785Y-13415D01*
X27828Y-13433D01*
X27875Y-13433D01*
X28131Y-13433D01*
X28174Y-13415D01*
X28208Y-13382D01*
X28226Y-13338D01*
X28226Y-13291D01*
X28226Y-12957D01*
X28208Y-12913D01*
X28175Y-12880D01*
X28131Y-12862D01*
X28084Y-12862D01*
X27828Y-12862D01*
X27785Y-12880D01*
X27752Y-12913D01*
X27734Y-12956D01*
X27734Y-12996D01*
X27710Y-12996D01*
X27700Y-12987D01*
X27649Y-12965D01*
X27684Y-12880D01*
X27684Y-12786D01*
X27648Y-12699D01*
X27582Y-12632D01*
X27522Y-12607D01*
X27525Y-12600D01*
X27525Y-12553D01*
X27525Y-12435D01*
X27518Y-12419D01*
X27525Y-12403D01*
X27525Y-12356D01*
X27525Y-12330D01*
X27598Y-12360D01*
X27692Y-12360D01*
X27735Y-12342D01*
X27734Y-12346D01*
X27734Y-12393D01*
X27734Y-12728D01*
X27751Y-12771D01*
X27785Y-12805D01*
X27828Y-12823D01*
X27875Y-12823D01*
X28131Y-12823D01*
X28174Y-12805D01*
X28208Y-12771D01*
X28226Y-12728D01*
X28226Y-12681D01*
X28226Y-12346D01*
X28208Y-12303D01*
X28198Y-12293D01*
X28216Y-12250D01*
X28216Y-12217D01*
X28310Y-12123D01*
X28348Y-12066D01*
X28348Y-12066D01*
X28362Y-11998D01*
X28362Y-11783D01*
X28452Y-11783D01*
X28495Y-11765D01*
X28529Y-11732D01*
X28547Y-11689D01*
X28547Y-11642D01*
X28547Y-11902D01*
X28496Y-11923D01*
X28429Y-11990D01*
X28393Y-12077D01*
X28393Y-12171D01*
X28429Y-12257D01*
X28439Y-12268D01*
X28434Y-12270D01*
X28401Y-12303D01*
X28383Y-12346D01*
X28383Y-12393D01*
X28383Y-12728D01*
X28401Y-12771D01*
X28434Y-12805D01*
X28478Y-12823D01*
X28525Y-12823D01*
X28694Y-12823D01*
X28655Y-12862D01*
X28478Y-12862D01*
X28434Y-12880D01*
X28401Y-12913D01*
X28383Y-12956D01*
X28383Y-13003D01*
X28383Y-13338D01*
X28401Y-13382D01*
X28434Y-13415D01*
X28478Y-13433D01*
X28525Y-13433D01*
X28781Y-13433D01*
X28824Y-13415D01*
X28857Y-13382D01*
X28875Y-13338D01*
X28875Y-13291D01*
X28875Y-13143D01*
X28954Y-13064D01*
X28954Y-13406D01*
X28972Y-13450D01*
X29005Y-13483D01*
X29049Y-13501D01*
X29096Y-13501D01*
X29489Y-13501D01*
X29532Y-13483D01*
X29535Y-13481D01*
X29535Y-20362D01*
G54D10*
G36*
X35027Y-17849D02*
X35001Y-17866D01*
X34969Y-17914D01*
X34958Y-17970D01*
X34958Y-20362D01*
X29712Y-20362D01*
X29712Y-19043D01*
X29743Y-19074D01*
X29787Y-19092D01*
X29834Y-19092D01*
X30424Y-19092D01*
X30468Y-19074D01*
X30501Y-19041D01*
X30519Y-18998D01*
X30519Y-18993D01*
X30534Y-18993D01*
X30537Y-19001D01*
X30569Y-19033D01*
X30569Y-19079D01*
X30569Y-19134D01*
X30590Y-19185D01*
X30590Y-19185D01*
X30611Y-19235D01*
X30631Y-19256D01*
X30274Y-19256D01*
X30231Y-19274D01*
X30198Y-19307D01*
X30180Y-19350D01*
X30180Y-19397D01*
X30180Y-19948D01*
X30198Y-19992D01*
X30231Y-20025D01*
X30274Y-20043D01*
X30321Y-20043D01*
X30833Y-20043D01*
X30876Y-20025D01*
X30910Y-19992D01*
X30928Y-19949D01*
X30928Y-19902D01*
X30928Y-19796D01*
X30960Y-19775D01*
X31321Y-19413D01*
X31321Y-19948D01*
X31339Y-19992D01*
X31372Y-20025D01*
X31416Y-20043D01*
X31463Y-20043D01*
X31975Y-20043D01*
X32018Y-20025D01*
X32051Y-19992D01*
X32063Y-19964D01*
X32082Y-19964D01*
X32090Y-20008D01*
X32137Y-20079D01*
X32291Y-20233D01*
X32291Y-20233D01*
X32362Y-20280D01*
X32362Y-20280D01*
X32428Y-20293D01*
X32444Y-20296D01*
X32444Y-20296D01*
X32445Y-20296D01*
X34059Y-20296D01*
X34142Y-20280D01*
X34212Y-20233D01*
X34668Y-19777D01*
X34715Y-19707D01*
X34732Y-19624D01*
X34732Y-19623D01*
X34732Y-18128D01*
X34735Y-18128D01*
X34779Y-18110D01*
X34812Y-18077D01*
X34830Y-18033D01*
X34830Y-17986D01*
X34830Y-17671D01*
X34812Y-17628D01*
X34791Y-17606D01*
X34791Y-17592D01*
X34808Y-17575D01*
X34829Y-17524D01*
X34829Y-17524D01*
X34850Y-17474D01*
X34850Y-17419D01*
X34850Y-17364D01*
X34850Y-17364D01*
X34850Y-16985D01*
X34830Y-16885D01*
X34830Y-16885D01*
X34830Y-16686D01*
X34812Y-16643D01*
X34779Y-16610D01*
X34735Y-16592D01*
X34732Y-16592D01*
X34732Y-15128D01*
X34696Y-15041D01*
X34673Y-15018D01*
X34673Y-13708D01*
X34694Y-13687D01*
X34712Y-13643D01*
X34712Y-13596D01*
X34712Y-13400D01*
X34694Y-13356D01*
X34682Y-13344D01*
X34694Y-13332D01*
X34712Y-13289D01*
X34712Y-13242D01*
X34712Y-13045D01*
X34694Y-13002D01*
X34682Y-12990D01*
X34682Y-12960D01*
X34669Y-12893D01*
X34630Y-12835D01*
X34152Y-12357D01*
X34095Y-12318D01*
X34027Y-12305D01*
X33510Y-12305D01*
X33636Y-12252D01*
X33836Y-12053D01*
X33944Y-11793D01*
X33944Y-11511D01*
X33837Y-11250D01*
X33637Y-11051D01*
X33377Y-10943D01*
X33095Y-10943D01*
X32835Y-11050D01*
X32635Y-11249D01*
X32527Y-11510D01*
X32527Y-11792D01*
X32634Y-12052D01*
X32834Y-12252D01*
X32962Y-12305D01*
X32537Y-12305D01*
X32537Y-12222D01*
X32519Y-12179D01*
X32486Y-12146D01*
X32442Y-12128D01*
X32395Y-12128D01*
X32277Y-12128D01*
X32234Y-12146D01*
X32200Y-12179D01*
X32182Y-12222D01*
X32182Y-12269D01*
X32182Y-12567D01*
X32143Y-12567D01*
X32143Y-12537D01*
X32143Y-12222D01*
X32143Y-12222D01*
X32143Y-12114D01*
X32130Y-12046D01*
X32091Y-11989D01*
X31995Y-11893D01*
X31995Y-11884D01*
X31995Y-11608D01*
X31977Y-11565D01*
X31970Y-11558D01*
X31979Y-11549D01*
X32015Y-11462D01*
X32015Y-11368D01*
X31979Y-11281D01*
X31913Y-11215D01*
X31826Y-11179D01*
X31732Y-11179D01*
X31645Y-11215D01*
X31579Y-11281D01*
X31557Y-11333D01*
X31472Y-11297D01*
X31378Y-11297D01*
X31291Y-11333D01*
X31224Y-11399D01*
X31188Y-11486D01*
X31188Y-11580D01*
X31224Y-11667D01*
X31247Y-11690D01*
X31247Y-11848D01*
X31261Y-11916D01*
X31299Y-11973D01*
X31464Y-12138D01*
X31446Y-12146D01*
X31413Y-12179D01*
X31403Y-12202D01*
X31401Y-12199D01*
X31314Y-12163D01*
X31220Y-12163D01*
X31133Y-12199D01*
X31067Y-12265D01*
X31031Y-12352D01*
X31031Y-12446D01*
X31067Y-12533D01*
X31133Y-12599D01*
X31149Y-12606D01*
X31011Y-12606D01*
X31011Y-12606D01*
X30937Y-12606D01*
X30356Y-12025D01*
X30356Y-11783D01*
X30452Y-11783D01*
X30495Y-11765D01*
X30529Y-11732D01*
X30547Y-11689D01*
X30547Y-11642D01*
X30547Y-11142D01*
X30529Y-11098D01*
X30495Y-11065D01*
X30452Y-11047D01*
X30405Y-11047D01*
X29905Y-11047D01*
X29862Y-11065D01*
X29828Y-11098D01*
X29810Y-11141D01*
X29810Y-11188D01*
X29810Y-11688D01*
X29828Y-11732D01*
X29861Y-11765D01*
X29905Y-11783D01*
X29952Y-11783D01*
X30001Y-11783D01*
X30001Y-12098D01*
X30015Y-12166D01*
X30053Y-12223D01*
X30439Y-12610D01*
X30385Y-12632D01*
X30319Y-12698D01*
X30311Y-12718D01*
X30286Y-12659D01*
X30220Y-12593D01*
X30133Y-12557D01*
X30039Y-12557D01*
X29952Y-12593D01*
X29886Y-12659D01*
X29850Y-12746D01*
X29850Y-12840D01*
X29886Y-12927D01*
X29949Y-12990D01*
X29886Y-13053D01*
X29850Y-13140D01*
X29850Y-13234D01*
X29886Y-13320D01*
X29952Y-13387D01*
X30039Y-13423D01*
X30133Y-13423D01*
X30220Y-13387D01*
X30253Y-13354D01*
X30917Y-13354D01*
X30917Y-13393D01*
X30844Y-13393D01*
X30776Y-13407D01*
X30719Y-13445D01*
X30719Y-13445D01*
X30719Y-13445D01*
X30315Y-13849D01*
X30277Y-13906D01*
X30263Y-13974D01*
X30263Y-15864D01*
X30240Y-15887D01*
X30204Y-15974D01*
X30204Y-16068D01*
X30240Y-16155D01*
X30306Y-16222D01*
X30393Y-16258D01*
X30487Y-16258D01*
X30574Y-16222D01*
X30637Y-16159D01*
X30700Y-16222D01*
X30787Y-16258D01*
X30881Y-16258D01*
X30968Y-16222D01*
X31034Y-16155D01*
X31070Y-16069D01*
X31070Y-15975D01*
X31034Y-15888D01*
X31011Y-15865D01*
X31011Y-15071D01*
X31450Y-14633D01*
X31460Y-14659D01*
X31527Y-14725D01*
X31614Y-14762D01*
X31661Y-14762D01*
X31661Y-14769D01*
X31697Y-14856D01*
X31763Y-14922D01*
X31850Y-14958D01*
X31944Y-14958D01*
X31956Y-14954D01*
X31972Y-14994D01*
X32039Y-15060D01*
X32125Y-15096D01*
X32219Y-15096D01*
X32306Y-15060D01*
X32373Y-14994D01*
X32381Y-14973D01*
X32440Y-14998D01*
X32534Y-14998D01*
X32621Y-14962D01*
X32688Y-14896D01*
X32724Y-14809D01*
X32724Y-14715D01*
X32688Y-14628D01*
X32621Y-14561D01*
X32537Y-14526D01*
X32537Y-14108D01*
X32537Y-14085D01*
X32537Y-13770D01*
X32533Y-13761D01*
X32550Y-13744D01*
X32558Y-13748D01*
X32605Y-13748D01*
X32822Y-13748D01*
X32822Y-14250D01*
X32799Y-14273D01*
X32763Y-14360D01*
X32763Y-14454D01*
X32798Y-14540D01*
X32781Y-14557D01*
X32763Y-14600D01*
X32763Y-14647D01*
X32763Y-15001D01*
X32781Y-15045D01*
X32814Y-15078D01*
X32858Y-15096D01*
X32905Y-15096D01*
X33180Y-15096D01*
X33224Y-15078D01*
X33257Y-15045D01*
X33275Y-15002D01*
X33275Y-14955D01*
X33275Y-14600D01*
X33257Y-14557D01*
X33224Y-14524D01*
X33209Y-14518D01*
X33235Y-14454D01*
X33236Y-14360D01*
X33200Y-14274D01*
X33176Y-14250D01*
X33176Y-13733D01*
X33188Y-13738D01*
X33282Y-13738D01*
X33369Y-13702D01*
X33436Y-13636D01*
X33472Y-13549D01*
X33472Y-13455D01*
X33436Y-13368D01*
X33412Y-13344D01*
X33426Y-13331D01*
X33431Y-13342D01*
X33464Y-13375D01*
X33507Y-13393D01*
X33554Y-13393D01*
X33830Y-13393D01*
X33873Y-13376D01*
X33877Y-13372D01*
X33865Y-13399D01*
X33865Y-13446D01*
X33865Y-13643D01*
X33883Y-13687D01*
X33905Y-13708D01*
X33905Y-13758D01*
X33918Y-13825D01*
X33957Y-13883D01*
X34062Y-13988D01*
X34062Y-15274D01*
X34039Y-15297D01*
X34003Y-15384D01*
X34003Y-15478D01*
X34039Y-15564D01*
X34105Y-15631D01*
X34192Y-15667D01*
X34286Y-15667D01*
X34373Y-15631D01*
X34440Y-15565D01*
X34476Y-15478D01*
X34476Y-15411D01*
X34542Y-15411D01*
X34629Y-15375D01*
X34696Y-15309D01*
X34732Y-15222D01*
X34732Y-15128D01*
X34732Y-16592D01*
X34688Y-16592D01*
X34295Y-16592D01*
X34252Y-16610D01*
X34218Y-16643D01*
X34200Y-16686D01*
X34200Y-16733D01*
X34200Y-17166D01*
X34218Y-17210D01*
X34252Y-17243D01*
X34295Y-17261D01*
X34299Y-17261D01*
X34299Y-17316D01*
X34260Y-17373D01*
X34239Y-17478D01*
X34239Y-17606D01*
X34218Y-17628D01*
X34200Y-17671D01*
X34200Y-17718D01*
X34200Y-18033D01*
X34218Y-18076D01*
X34251Y-18110D01*
X34294Y-18128D01*
X34298Y-18128D01*
X34298Y-19534D01*
X33970Y-19863D01*
X33964Y-19863D01*
X33964Y-18361D01*
X33964Y-18046D01*
X33946Y-18003D01*
X33913Y-17970D01*
X33870Y-17952D01*
X33866Y-17952D01*
X33866Y-16263D01*
X33866Y-15909D01*
X33848Y-15866D01*
X33815Y-15832D01*
X33771Y-15814D01*
X33724Y-15814D01*
X33449Y-15814D01*
X33405Y-15832D01*
X33372Y-15865D01*
X33354Y-15909D01*
X33354Y-15956D01*
X33354Y-16310D01*
X33372Y-16353D01*
X33405Y-16387D01*
X33432Y-16398D01*
X33432Y-16790D01*
X33390Y-16832D01*
X33354Y-16919D01*
X33354Y-17013D01*
X33389Y-17100D01*
X33456Y-17166D01*
X33543Y-17202D01*
X33637Y-17203D01*
X33723Y-17167D01*
X33790Y-17100D01*
X33826Y-17013D01*
X33826Y-16919D01*
X33790Y-16833D01*
X33787Y-16829D01*
X33787Y-16398D01*
X33814Y-16387D01*
X33848Y-16354D01*
X33866Y-16310D01*
X33866Y-16263D01*
X33866Y-17952D01*
X33823Y-17951D01*
X33429Y-17951D01*
X33385Y-17969D01*
X33352Y-18003D01*
X33334Y-18046D01*
X33334Y-18093D01*
X33334Y-18408D01*
X33352Y-18451D01*
X33373Y-18473D01*
X33373Y-18541D01*
X33373Y-18592D01*
X33352Y-18613D01*
X33334Y-18656D01*
X33334Y-18703D01*
X33334Y-19136D01*
X33352Y-19179D01*
X33385Y-19213D01*
X33429Y-19231D01*
X33476Y-19231D01*
X33869Y-19231D01*
X33912Y-19213D01*
X33945Y-19180D01*
X33963Y-19136D01*
X33964Y-19089D01*
X33964Y-18656D01*
X33946Y-18613D01*
X33925Y-18592D01*
X33925Y-18541D01*
X33925Y-18541D01*
X33925Y-18486D01*
X33925Y-18486D01*
X33925Y-18473D01*
X33946Y-18452D01*
X33964Y-18408D01*
X33964Y-18361D01*
X33964Y-19863D01*
X33277Y-19863D01*
X33277Y-17120D01*
X33277Y-16529D01*
X33259Y-16486D01*
X33226Y-16453D01*
X33182Y-16435D01*
X33178Y-16435D01*
X33178Y-16405D01*
X33180Y-16405D01*
X33224Y-16387D01*
X33257Y-16354D01*
X33275Y-16310D01*
X33275Y-16263D01*
X33275Y-15909D01*
X33257Y-15866D01*
X33224Y-15832D01*
X33181Y-15814D01*
X33157Y-15814D01*
X33157Y-15743D01*
X33175Y-15743D01*
X33219Y-15725D01*
X33252Y-15692D01*
X33270Y-15648D01*
X33270Y-15601D01*
X33270Y-15247D01*
X33252Y-15204D01*
X33219Y-15170D01*
X33176Y-15152D01*
X33129Y-15152D01*
X32853Y-15152D01*
X32810Y-15170D01*
X32776Y-15203D01*
X32763Y-15236D01*
X32763Y-15211D01*
X32745Y-15168D01*
X32712Y-15135D01*
X32668Y-15117D01*
X32621Y-15117D01*
X32228Y-15117D01*
X32185Y-15134D01*
X32152Y-15168D01*
X32134Y-15211D01*
X32133Y-15258D01*
X32133Y-15273D01*
X32133Y-15273D01*
X32133Y-15250D01*
X32115Y-15207D01*
X32082Y-15173D01*
X32039Y-15155D01*
X31992Y-15155D01*
X31716Y-15155D01*
X31673Y-15173D01*
X31639Y-15206D01*
X31621Y-15250D01*
X31621Y-15297D01*
X31621Y-15651D01*
X31639Y-15695D01*
X31672Y-15728D01*
X31716Y-15746D01*
X31763Y-15746D01*
X32038Y-15746D01*
X32082Y-15728D01*
X32115Y-15695D01*
X32133Y-15651D01*
X32133Y-15628D01*
X32133Y-15628D01*
X32133Y-15691D01*
X32151Y-15734D01*
X32185Y-15768D01*
X32227Y-15785D01*
X32185Y-15802D01*
X32152Y-15836D01*
X32134Y-15879D01*
X32133Y-15926D01*
X32133Y-16286D01*
X32127Y-16276D01*
X32127Y-16276D01*
X31779Y-15928D01*
X31779Y-15896D01*
X31743Y-15809D01*
X31677Y-15743D01*
X31590Y-15706D01*
X31496Y-15706D01*
X31409Y-15742D01*
X31342Y-15809D01*
X31306Y-15895D01*
X31306Y-15989D01*
X31342Y-16076D01*
X31409Y-16143D01*
X31495Y-16179D01*
X31528Y-16179D01*
X31795Y-16445D01*
X31777Y-16453D01*
X31751Y-16478D01*
X31726Y-16453D01*
X31682Y-16435D01*
X31635Y-16435D01*
X31320Y-16435D01*
X31277Y-16453D01*
X31244Y-16486D01*
X31226Y-16529D01*
X31226Y-16576D01*
X31226Y-16605D01*
X31148Y-16605D01*
X31148Y-16530D01*
X31130Y-16486D01*
X31097Y-16453D01*
X31054Y-16435D01*
X31007Y-16435D01*
X30614Y-16435D01*
X30570Y-16453D01*
X30537Y-16486D01*
X30519Y-16529D01*
X30519Y-16576D01*
X30519Y-17009D01*
X30537Y-17053D01*
X30570Y-17086D01*
X30613Y-17104D01*
X30660Y-17104D01*
X31053Y-17104D01*
X31097Y-17086D01*
X31130Y-17053D01*
X31148Y-17010D01*
X31148Y-16963D01*
X31148Y-16960D01*
X31226Y-16960D01*
X31226Y-17167D01*
X31244Y-17210D01*
X31277Y-17244D01*
X31320Y-17262D01*
X31367Y-17262D01*
X31682Y-17262D01*
X31726Y-17244D01*
X31751Y-17218D01*
X31777Y-17244D01*
X31820Y-17262D01*
X31867Y-17262D01*
X32182Y-17262D01*
X32226Y-17244D01*
X32251Y-17218D01*
X32277Y-17244D01*
X32320Y-17262D01*
X32367Y-17262D01*
X32682Y-17262D01*
X32726Y-17244D01*
X32751Y-17218D01*
X32777Y-17244D01*
X32820Y-17262D01*
X32867Y-17262D01*
X33182Y-17262D01*
X33226Y-17244D01*
X33259Y-17210D01*
X33277Y-17167D01*
X33277Y-17120D01*
X33277Y-19863D01*
X32625Y-19863D01*
X32625Y-19823D01*
X32625Y-19458D01*
X32660Y-19443D01*
X32699Y-19404D01*
X32738Y-19366D01*
X32759Y-19315D01*
X32780Y-19265D01*
X32780Y-19210D01*
X32780Y-19155D01*
X32777Y-19147D01*
X32777Y-19112D01*
X32777Y-19089D01*
X32777Y-18498D01*
X32759Y-18455D01*
X32726Y-18421D01*
X32682Y-18403D01*
X32635Y-18403D01*
X32320Y-18403D01*
X32277Y-18421D01*
X32251Y-18447D01*
X32226Y-18421D01*
X32182Y-18403D01*
X32135Y-18403D01*
X31820Y-18403D01*
X31777Y-18421D01*
X31751Y-18447D01*
X31726Y-18421D01*
X31682Y-18403D01*
X31635Y-18403D01*
X31395Y-18403D01*
X31395Y-18305D01*
X31381Y-18237D01*
X31343Y-18180D01*
X31149Y-17985D01*
X31149Y-17810D01*
X31131Y-17766D01*
X31097Y-17733D01*
X31054Y-17715D01*
X31007Y-17715D01*
X30614Y-17715D01*
X30571Y-17733D01*
X30537Y-17766D01*
X30519Y-17809D01*
X30519Y-17856D01*
X30519Y-18289D01*
X30537Y-18333D01*
X30570Y-18366D01*
X30612Y-18384D01*
X30571Y-18401D01*
X30537Y-18434D01*
X30534Y-18442D01*
X30519Y-18442D01*
X30519Y-17533D01*
X30501Y-17490D01*
X30468Y-17457D01*
X30424Y-17439D01*
X30377Y-17439D01*
X29787Y-17439D01*
X29744Y-17457D01*
X29712Y-17488D01*
X29712Y-10785D01*
X34958Y-10785D01*
X34958Y-13206D01*
X34969Y-13263D01*
X35001Y-13311D01*
X35027Y-13328D01*
X35027Y-17849D01*
X35027Y-17849D01*
G37*
G54D44*
X35027Y-17849D02*
X35001Y-17866D01*
X34969Y-17914D01*
X34958Y-17970D01*
X34958Y-20362D01*
X29712Y-20362D01*
X29712Y-19043D01*
X29743Y-19074D01*
X29787Y-19092D01*
X29834Y-19092D01*
X30424Y-19092D01*
X30468Y-19074D01*
X30501Y-19041D01*
X30519Y-18998D01*
X30519Y-18993D01*
X30534Y-18993D01*
X30537Y-19001D01*
X30569Y-19033D01*
X30569Y-19079D01*
X30569Y-19134D01*
X30590Y-19185D01*
X30590Y-19185D01*
X30611Y-19235D01*
X30631Y-19256D01*
X30274Y-19256D01*
X30231Y-19274D01*
X30198Y-19307D01*
X30180Y-19350D01*
X30180Y-19397D01*
X30180Y-19948D01*
X30198Y-19992D01*
X30231Y-20025D01*
X30274Y-20043D01*
X30321Y-20043D01*
X30833Y-20043D01*
X30876Y-20025D01*
X30910Y-19992D01*
X30928Y-19949D01*
X30928Y-19902D01*
X30928Y-19796D01*
X30960Y-19775D01*
X31321Y-19413D01*
X31321Y-19948D01*
X31339Y-19992D01*
X31372Y-20025D01*
X31416Y-20043D01*
X31463Y-20043D01*
X31975Y-20043D01*
X32018Y-20025D01*
X32051Y-19992D01*
X32063Y-19964D01*
X32082Y-19964D01*
X32090Y-20008D01*
X32137Y-20079D01*
X32291Y-20233D01*
X32291Y-20233D01*
X32362Y-20280D01*
X32362Y-20280D01*
X32428Y-20293D01*
X32444Y-20296D01*
X32444Y-20296D01*
X32445Y-20296D01*
X34059Y-20296D01*
X34142Y-20280D01*
X34212Y-20233D01*
X34668Y-19777D01*
X34715Y-19707D01*
X34732Y-19624D01*
X34732Y-19623D01*
X34732Y-18128D01*
X34735Y-18128D01*
X34779Y-18110D01*
X34812Y-18077D01*
X34830Y-18033D01*
X34830Y-17986D01*
X34830Y-17671D01*
X34812Y-17628D01*
X34791Y-17606D01*
X34791Y-17592D01*
X34808Y-17575D01*
X34829Y-17524D01*
X34829Y-17524D01*
X34850Y-17474D01*
X34850Y-17419D01*
X34850Y-17364D01*
X34850Y-17364D01*
X34850Y-16985D01*
X34830Y-16885D01*
X34830Y-16885D01*
X34830Y-16686D01*
X34812Y-16643D01*
X34779Y-16610D01*
X34735Y-16592D01*
X34732Y-16592D01*
X34732Y-15128D01*
X34696Y-15041D01*
X34673Y-15018D01*
X34673Y-13708D01*
X34694Y-13687D01*
X34712Y-13643D01*
X34712Y-13596D01*
X34712Y-13400D01*
X34694Y-13356D01*
X34682Y-13344D01*
X34694Y-13332D01*
X34712Y-13289D01*
X34712Y-13242D01*
X34712Y-13045D01*
X34694Y-13002D01*
X34682Y-12990D01*
X34682Y-12960D01*
X34669Y-12893D01*
X34630Y-12835D01*
X34152Y-12357D01*
X34095Y-12318D01*
X34027Y-12305D01*
X33510Y-12305D01*
X33636Y-12252D01*
X33836Y-12053D01*
X33944Y-11793D01*
X33944Y-11511D01*
X33837Y-11250D01*
X33637Y-11051D01*
X33377Y-10943D01*
X33095Y-10943D01*
X32835Y-11050D01*
X32635Y-11249D01*
X32527Y-11510D01*
X32527Y-11792D01*
X32634Y-12052D01*
X32834Y-12252D01*
X32962Y-12305D01*
X32537Y-12305D01*
X32537Y-12222D01*
X32519Y-12179D01*
X32486Y-12146D01*
X32442Y-12128D01*
X32395Y-12128D01*
X32277Y-12128D01*
X32234Y-12146D01*
X32200Y-12179D01*
X32182Y-12222D01*
X32182Y-12269D01*
X32182Y-12567D01*
X32143Y-12567D01*
X32143Y-12537D01*
X32143Y-12222D01*
X32143Y-12222D01*
X32143Y-12114D01*
X32130Y-12046D01*
X32091Y-11989D01*
X31995Y-11893D01*
X31995Y-11884D01*
X31995Y-11608D01*
X31977Y-11565D01*
X31970Y-11558D01*
X31979Y-11549D01*
X32015Y-11462D01*
X32015Y-11368D01*
X31979Y-11281D01*
X31913Y-11215D01*
X31826Y-11179D01*
X31732Y-11179D01*
X31645Y-11215D01*
X31579Y-11281D01*
X31557Y-11333D01*
X31472Y-11297D01*
X31378Y-11297D01*
X31291Y-11333D01*
X31224Y-11399D01*
X31188Y-11486D01*
X31188Y-11580D01*
X31224Y-11667D01*
X31247Y-11690D01*
X31247Y-11848D01*
X31261Y-11916D01*
X31299Y-11973D01*
X31464Y-12138D01*
X31446Y-12146D01*
X31413Y-12179D01*
X31403Y-12202D01*
X31401Y-12199D01*
X31314Y-12163D01*
X31220Y-12163D01*
X31133Y-12199D01*
X31067Y-12265D01*
X31031Y-12352D01*
X31031Y-12446D01*
X31067Y-12533D01*
X31133Y-12599D01*
X31149Y-12606D01*
X31011Y-12606D01*
X31011Y-12606D01*
X30937Y-12606D01*
X30356Y-12025D01*
X30356Y-11783D01*
X30452Y-11783D01*
X30495Y-11765D01*
X30529Y-11732D01*
X30547Y-11689D01*
X30547Y-11642D01*
X30547Y-11142D01*
X30529Y-11098D01*
X30495Y-11065D01*
X30452Y-11047D01*
X30405Y-11047D01*
X29905Y-11047D01*
X29862Y-11065D01*
X29828Y-11098D01*
X29810Y-11141D01*
X29810Y-11188D01*
X29810Y-11688D01*
X29828Y-11732D01*
X29861Y-11765D01*
X29905Y-11783D01*
X29952Y-11783D01*
X30001Y-11783D01*
X30001Y-12098D01*
X30015Y-12166D01*
X30053Y-12223D01*
X30439Y-12610D01*
X30385Y-12632D01*
X30319Y-12698D01*
X30311Y-12718D01*
X30286Y-12659D01*
X30220Y-12593D01*
X30133Y-12557D01*
X30039Y-12557D01*
X29952Y-12593D01*
X29886Y-12659D01*
X29850Y-12746D01*
X29850Y-12840D01*
X29886Y-12927D01*
X29949Y-12990D01*
X29886Y-13053D01*
X29850Y-13140D01*
X29850Y-13234D01*
X29886Y-13320D01*
X29952Y-13387D01*
X30039Y-13423D01*
X30133Y-13423D01*
X30220Y-13387D01*
X30253Y-13354D01*
X30917Y-13354D01*
X30917Y-13393D01*
X30844Y-13393D01*
X30776Y-13407D01*
X30719Y-13445D01*
X30719Y-13445D01*
X30719Y-13445D01*
X30315Y-13849D01*
X30277Y-13906D01*
X30263Y-13974D01*
X30263Y-15864D01*
X30240Y-15887D01*
X30204Y-15974D01*
X30204Y-16068D01*
X30240Y-16155D01*
X30306Y-16222D01*
X30393Y-16258D01*
X30487Y-16258D01*
X30574Y-16222D01*
X30637Y-16159D01*
X30700Y-16222D01*
X30787Y-16258D01*
X30881Y-16258D01*
X30968Y-16222D01*
X31034Y-16155D01*
X31070Y-16069D01*
X31070Y-15975D01*
X31034Y-15888D01*
X31011Y-15865D01*
X31011Y-15071D01*
X31450Y-14633D01*
X31460Y-14659D01*
X31527Y-14725D01*
X31614Y-14762D01*
X31661Y-14762D01*
X31661Y-14769D01*
X31697Y-14856D01*
X31763Y-14922D01*
X31850Y-14958D01*
X31944Y-14958D01*
X31956Y-14954D01*
X31972Y-14994D01*
X32039Y-15060D01*
X32125Y-15096D01*
X32219Y-15096D01*
X32306Y-15060D01*
X32373Y-14994D01*
X32381Y-14973D01*
X32440Y-14998D01*
X32534Y-14998D01*
X32621Y-14962D01*
X32688Y-14896D01*
X32724Y-14809D01*
X32724Y-14715D01*
X32688Y-14628D01*
X32621Y-14561D01*
X32537Y-14526D01*
X32537Y-14108D01*
X32537Y-14085D01*
X32537Y-13770D01*
X32533Y-13761D01*
X32550Y-13744D01*
X32558Y-13748D01*
X32605Y-13748D01*
X32822Y-13748D01*
X32822Y-14250D01*
X32799Y-14273D01*
X32763Y-14360D01*
X32763Y-14454D01*
X32798Y-14540D01*
X32781Y-14557D01*
X32763Y-14600D01*
X32763Y-14647D01*
X32763Y-15001D01*
X32781Y-15045D01*
X32814Y-15078D01*
X32858Y-15096D01*
X32905Y-15096D01*
X33180Y-15096D01*
X33224Y-15078D01*
X33257Y-15045D01*
X33275Y-15002D01*
X33275Y-14955D01*
X33275Y-14600D01*
X33257Y-14557D01*
X33224Y-14524D01*
X33209Y-14518D01*
X33235Y-14454D01*
X33236Y-14360D01*
X33200Y-14274D01*
X33176Y-14250D01*
X33176Y-13733D01*
X33188Y-13738D01*
X33282Y-13738D01*
X33369Y-13702D01*
X33436Y-13636D01*
X33472Y-13549D01*
X33472Y-13455D01*
X33436Y-13368D01*
X33412Y-13344D01*
X33426Y-13331D01*
X33431Y-13342D01*
X33464Y-13375D01*
X33507Y-13393D01*
X33554Y-13393D01*
X33830Y-13393D01*
X33873Y-13376D01*
X33877Y-13372D01*
X33865Y-13399D01*
X33865Y-13446D01*
X33865Y-13643D01*
X33883Y-13687D01*
X33905Y-13708D01*
X33905Y-13758D01*
X33918Y-13825D01*
X33957Y-13883D01*
X34062Y-13988D01*
X34062Y-15274D01*
X34039Y-15297D01*
X34003Y-15384D01*
X34003Y-15478D01*
X34039Y-15564D01*
X34105Y-15631D01*
X34192Y-15667D01*
X34286Y-15667D01*
X34373Y-15631D01*
X34440Y-15565D01*
X34476Y-15478D01*
X34476Y-15411D01*
X34542Y-15411D01*
X34629Y-15375D01*
X34696Y-15309D01*
X34732Y-15222D01*
X34732Y-15128D01*
X34732Y-16592D01*
X34688Y-16592D01*
X34295Y-16592D01*
X34252Y-16610D01*
X34218Y-16643D01*
X34200Y-16686D01*
X34200Y-16733D01*
X34200Y-17166D01*
X34218Y-17210D01*
X34252Y-17243D01*
X34295Y-17261D01*
X34299Y-17261D01*
X34299Y-17316D01*
X34260Y-17373D01*
X34239Y-17478D01*
X34239Y-17606D01*
X34218Y-17628D01*
X34200Y-17671D01*
X34200Y-17718D01*
X34200Y-18033D01*
X34218Y-18076D01*
X34251Y-18110D01*
X34294Y-18128D01*
X34298Y-18128D01*
X34298Y-19534D01*
X33970Y-19863D01*
X33964Y-19863D01*
X33964Y-18361D01*
X33964Y-18046D01*
X33946Y-18003D01*
X33913Y-17970D01*
X33870Y-17952D01*
X33866Y-17952D01*
X33866Y-16263D01*
X33866Y-15909D01*
X33848Y-15866D01*
X33815Y-15832D01*
X33771Y-15814D01*
X33724Y-15814D01*
X33449Y-15814D01*
X33405Y-15832D01*
X33372Y-15865D01*
X33354Y-15909D01*
X33354Y-15956D01*
X33354Y-16310D01*
X33372Y-16353D01*
X33405Y-16387D01*
X33432Y-16398D01*
X33432Y-16790D01*
X33390Y-16832D01*
X33354Y-16919D01*
X33354Y-17013D01*
X33389Y-17100D01*
X33456Y-17166D01*
X33543Y-17202D01*
X33637Y-17203D01*
X33723Y-17167D01*
X33790Y-17100D01*
X33826Y-17013D01*
X33826Y-16919D01*
X33790Y-16833D01*
X33787Y-16829D01*
X33787Y-16398D01*
X33814Y-16387D01*
X33848Y-16354D01*
X33866Y-16310D01*
X33866Y-16263D01*
X33866Y-17952D01*
X33823Y-17951D01*
X33429Y-17951D01*
X33385Y-17969D01*
X33352Y-18003D01*
X33334Y-18046D01*
X33334Y-18093D01*
X33334Y-18408D01*
X33352Y-18451D01*
X33373Y-18473D01*
X33373Y-18541D01*
X33373Y-18592D01*
X33352Y-18613D01*
X33334Y-18656D01*
X33334Y-18703D01*
X33334Y-19136D01*
X33352Y-19179D01*
X33385Y-19213D01*
X33429Y-19231D01*
X33476Y-19231D01*
X33869Y-19231D01*
X33912Y-19213D01*
X33945Y-19180D01*
X33963Y-19136D01*
X33964Y-19089D01*
X33964Y-18656D01*
X33946Y-18613D01*
X33925Y-18592D01*
X33925Y-18541D01*
X33925Y-18541D01*
X33925Y-18486D01*
X33925Y-18486D01*
X33925Y-18473D01*
X33946Y-18452D01*
X33964Y-18408D01*
X33964Y-18361D01*
X33964Y-19863D01*
X33277Y-19863D01*
X33277Y-17120D01*
X33277Y-16529D01*
X33259Y-16486D01*
X33226Y-16453D01*
X33182Y-16435D01*
X33178Y-16435D01*
X33178Y-16405D01*
X33180Y-16405D01*
X33224Y-16387D01*
X33257Y-16354D01*
X33275Y-16310D01*
X33275Y-16263D01*
X33275Y-15909D01*
X33257Y-15866D01*
X33224Y-15832D01*
X33181Y-15814D01*
X33157Y-15814D01*
X33157Y-15743D01*
X33175Y-15743D01*
X33219Y-15725D01*
X33252Y-15692D01*
X33270Y-15648D01*
X33270Y-15601D01*
X33270Y-15247D01*
X33252Y-15204D01*
X33219Y-15170D01*
X33176Y-15152D01*
X33129Y-15152D01*
X32853Y-15152D01*
X32810Y-15170D01*
X32776Y-15203D01*
X32763Y-15236D01*
X32763Y-15211D01*
X32745Y-15168D01*
X32712Y-15135D01*
X32668Y-15117D01*
X32621Y-15117D01*
X32228Y-15117D01*
X32185Y-15134D01*
X32152Y-15168D01*
X32134Y-15211D01*
X32133Y-15258D01*
X32133Y-15273D01*
X32133Y-15273D01*
X32133Y-15250D01*
X32115Y-15207D01*
X32082Y-15173D01*
X32039Y-15155D01*
X31992Y-15155D01*
X31716Y-15155D01*
X31673Y-15173D01*
X31639Y-15206D01*
X31621Y-15250D01*
X31621Y-15297D01*
X31621Y-15651D01*
X31639Y-15695D01*
X31672Y-15728D01*
X31716Y-15746D01*
X31763Y-15746D01*
X32038Y-15746D01*
X32082Y-15728D01*
X32115Y-15695D01*
X32133Y-15651D01*
X32133Y-15628D01*
X32133Y-15628D01*
X32133Y-15691D01*
X32151Y-15734D01*
X32185Y-15768D01*
X32227Y-15785D01*
X32185Y-15802D01*
X32152Y-15836D01*
X32134Y-15879D01*
X32133Y-15926D01*
X32133Y-16286D01*
X32127Y-16276D01*
X32127Y-16276D01*
X31779Y-15928D01*
X31779Y-15896D01*
X31743Y-15809D01*
X31677Y-15743D01*
X31590Y-15706D01*
X31496Y-15706D01*
X31409Y-15742D01*
X31342Y-15809D01*
X31306Y-15895D01*
X31306Y-15989D01*
X31342Y-16076D01*
X31409Y-16143D01*
X31495Y-16179D01*
X31528Y-16179D01*
X31795Y-16445D01*
X31777Y-16453D01*
X31751Y-16478D01*
X31726Y-16453D01*
X31682Y-16435D01*
X31635Y-16435D01*
X31320Y-16435D01*
X31277Y-16453D01*
X31244Y-16486D01*
X31226Y-16529D01*
X31226Y-16576D01*
X31226Y-16605D01*
X31148Y-16605D01*
X31148Y-16530D01*
X31130Y-16486D01*
X31097Y-16453D01*
X31054Y-16435D01*
X31007Y-16435D01*
X30614Y-16435D01*
X30570Y-16453D01*
X30537Y-16486D01*
X30519Y-16529D01*
X30519Y-16576D01*
X30519Y-17009D01*
X30537Y-17053D01*
X30570Y-17086D01*
X30613Y-17104D01*
X30660Y-17104D01*
X31053Y-17104D01*
X31097Y-17086D01*
X31130Y-17053D01*
X31148Y-17010D01*
X31148Y-16963D01*
X31148Y-16960D01*
X31226Y-16960D01*
X31226Y-17167D01*
X31244Y-17210D01*
X31277Y-17244D01*
X31320Y-17262D01*
X31367Y-17262D01*
X31682Y-17262D01*
X31726Y-17244D01*
X31751Y-17218D01*
X31777Y-17244D01*
X31820Y-17262D01*
X31867Y-17262D01*
X32182Y-17262D01*
X32226Y-17244D01*
X32251Y-17218D01*
X32277Y-17244D01*
X32320Y-17262D01*
X32367Y-17262D01*
X32682Y-17262D01*
X32726Y-17244D01*
X32751Y-17218D01*
X32777Y-17244D01*
X32820Y-17262D01*
X32867Y-17262D01*
X33182Y-17262D01*
X33226Y-17244D01*
X33259Y-17210D01*
X33277Y-17167D01*
X33277Y-17120D01*
X33277Y-19863D01*
X32625Y-19863D01*
X32625Y-19823D01*
X32625Y-19458D01*
X32660Y-19443D01*
X32699Y-19404D01*
X32738Y-19366D01*
X32759Y-19315D01*
X32780Y-19265D01*
X32780Y-19210D01*
X32780Y-19155D01*
X32777Y-19147D01*
X32777Y-19112D01*
X32777Y-19089D01*
X32777Y-18498D01*
X32759Y-18455D01*
X32726Y-18421D01*
X32682Y-18403D01*
X32635Y-18403D01*
X32320Y-18403D01*
X32277Y-18421D01*
X32251Y-18447D01*
X32226Y-18421D01*
X32182Y-18403D01*
X32135Y-18403D01*
X31820Y-18403D01*
X31777Y-18421D01*
X31751Y-18447D01*
X31726Y-18421D01*
X31682Y-18403D01*
X31635Y-18403D01*
X31395Y-18403D01*
X31395Y-18305D01*
X31381Y-18237D01*
X31343Y-18180D01*
X31149Y-17985D01*
X31149Y-17810D01*
X31131Y-17766D01*
X31097Y-17733D01*
X31054Y-17715D01*
X31007Y-17715D01*
X30614Y-17715D01*
X30571Y-17733D01*
X30537Y-17766D01*
X30519Y-17809D01*
X30519Y-17856D01*
X30519Y-18289D01*
X30537Y-18333D01*
X30570Y-18366D01*
X30612Y-18384D01*
X30571Y-18401D01*
X30537Y-18434D01*
X30534Y-18442D01*
X30519Y-18442D01*
X30519Y-17533D01*
X30501Y-17490D01*
X30468Y-17457D01*
X30424Y-17439D01*
X30377Y-17439D01*
X29787Y-17439D01*
X29744Y-17457D01*
X29712Y-17488D01*
X29712Y-10785D01*
X34958Y-10785D01*
X34958Y-13206D01*
X34969Y-13263D01*
X35001Y-13311D01*
X35027Y-13328D01*
X35027Y-17849D01*
M02*
