G04 (created by PCBNEW (2013-05-16 BZR 4016)-stable) date 11. 1. 2014 1:24:09*
%MOIN*%
G04 Gerber Fmt 3.4, Leading zero omitted, Abs format*
%FSLAX34Y34*%
G01*
G70*
G90*
G04 APERTURE LIST*
%ADD10C,0.00590551*%
%ADD11C,0.0019685*%
%ADD12C,0.002*%
G04 APERTURE END LIST*
G54D10*
X20795Y-20510D02*
X20795Y-10667D01*
X35106Y-13206D02*
X35106Y-10667D01*
X40480Y-13206D02*
X35106Y-13206D01*
X35106Y-17970D02*
X35106Y-20510D01*
X40480Y-17970D02*
X35106Y-17970D01*
X40480Y-13206D02*
X40480Y-17970D01*
X35106Y-20510D02*
X20795Y-20510D01*
G54D11*
X32940Y-17321D02*
X32940Y-18344D01*
X32940Y-18344D02*
X31562Y-18344D01*
X31562Y-18344D02*
X31562Y-17321D01*
X31562Y-17321D02*
X32940Y-17321D01*
G54D12*
X32046Y-19263D02*
X33204Y-19263D01*
X33204Y-19263D02*
X33204Y-20037D01*
X33204Y-20037D02*
X32046Y-20037D01*
X32046Y-20037D02*
X32046Y-19263D01*
X31221Y-16525D02*
X31221Y-17683D01*
X31221Y-17683D02*
X30447Y-17683D01*
X30447Y-17683D02*
X30447Y-16525D01*
X30447Y-16525D02*
X31221Y-16525D01*
X31221Y-17805D02*
X31221Y-18963D01*
X31221Y-18963D02*
X30447Y-18963D01*
X30447Y-18963D02*
X30447Y-17805D01*
X30447Y-17805D02*
X31221Y-17805D01*
X32061Y-16364D02*
X32061Y-15206D01*
X32061Y-15206D02*
X32835Y-15206D01*
X32835Y-15206D02*
X32835Y-16364D01*
X32835Y-16364D02*
X32061Y-16364D01*
X30204Y-15717D02*
X29046Y-15717D01*
X29046Y-15717D02*
X29046Y-14943D01*
X29046Y-14943D02*
X30204Y-14943D01*
X30204Y-14943D02*
X30204Y-15717D01*
X30204Y-14797D02*
X29046Y-14797D01*
X29046Y-14797D02*
X29046Y-14023D01*
X29046Y-14023D02*
X30204Y-14023D01*
X30204Y-14023D02*
X30204Y-14797D01*
X34128Y-17171D02*
X34128Y-16013D01*
X34128Y-16013D02*
X34902Y-16013D01*
X34902Y-16013D02*
X34902Y-17171D01*
X34902Y-17171D02*
X34128Y-17171D01*
X34036Y-18651D02*
X34036Y-19809D01*
X34036Y-19809D02*
X33262Y-19809D01*
X33262Y-19809D02*
X33262Y-18651D01*
X33262Y-18651D02*
X34036Y-18651D01*
X29656Y-12253D02*
X29656Y-13411D01*
X29656Y-13411D02*
X28882Y-13411D01*
X28882Y-13411D02*
X28882Y-12253D01*
X28882Y-12253D02*
X29656Y-12253D01*
X26948Y-15359D02*
X28106Y-15359D01*
X28106Y-15359D02*
X28106Y-15975D01*
X28106Y-15975D02*
X26948Y-15975D01*
X26948Y-15975D02*
X26948Y-15359D01*
X25299Y-18904D02*
X25299Y-18080D01*
X25299Y-18080D02*
X25679Y-18080D01*
X25679Y-18080D02*
X25679Y-18904D01*
X25679Y-18904D02*
X25299Y-18904D01*
X35128Y-17978D02*
X35128Y-16722D01*
X35128Y-16722D02*
X34276Y-16722D01*
X34276Y-16732D02*
X34276Y-17969D01*
X34276Y-17978D02*
X35128Y-17978D01*
X35138Y-15026D02*
X35138Y-13769D01*
X35138Y-13769D02*
X34286Y-13769D01*
X34286Y-13779D02*
X34286Y-15016D01*
X34286Y-15026D02*
X35138Y-15026D01*
X33479Y-13785D02*
X33479Y-12962D01*
X33479Y-12962D02*
X33859Y-12962D01*
X33859Y-12962D02*
X33859Y-13785D01*
X33859Y-13785D02*
X33479Y-13785D01*
X32387Y-11959D02*
X31564Y-11959D01*
X31564Y-11959D02*
X31564Y-11579D01*
X31564Y-11579D02*
X32387Y-11579D01*
X32387Y-11579D02*
X32387Y-11959D01*
X27269Y-13416D02*
X26446Y-13416D01*
X26446Y-13416D02*
X26446Y-13036D01*
X26446Y-13036D02*
X27269Y-13036D01*
X27269Y-13036D02*
X27269Y-13416D01*
X24645Y-10999D02*
X25468Y-10999D01*
X25468Y-10999D02*
X25468Y-11379D01*
X25468Y-11379D02*
X24645Y-11379D01*
X24645Y-11379D02*
X24645Y-10999D01*
X27115Y-16028D02*
X27939Y-16028D01*
X27939Y-16028D02*
X27939Y-16408D01*
X27939Y-16408D02*
X27115Y-16408D01*
X27115Y-16408D02*
X27115Y-16028D01*
X23096Y-15168D02*
X22273Y-15168D01*
X22273Y-15168D02*
X22273Y-14788D01*
X22273Y-14788D02*
X23096Y-14788D01*
X23096Y-14788D02*
X23096Y-15168D01*
X24508Y-18070D02*
X24508Y-18894D01*
X24508Y-18894D02*
X24128Y-18894D01*
X24128Y-18894D02*
X24128Y-18070D01*
X24128Y-18070D02*
X24508Y-18070D01*
X25979Y-13657D02*
X25979Y-12834D01*
X25979Y-12834D02*
X26359Y-12834D01*
X26359Y-12834D02*
X26359Y-13657D01*
X26359Y-13657D02*
X25979Y-13657D01*
X24118Y-13510D02*
X23295Y-13510D01*
X23295Y-13510D02*
X23295Y-13130D01*
X23295Y-13130D02*
X24118Y-13130D01*
X24118Y-13130D02*
X24118Y-13510D01*
X27273Y-14926D02*
X28096Y-14926D01*
X28096Y-14926D02*
X28096Y-15306D01*
X28096Y-15306D02*
X27273Y-15306D01*
X27273Y-15306D02*
X27273Y-14926D01*
X23096Y-16428D02*
X22273Y-16428D01*
X22273Y-16428D02*
X22273Y-16048D01*
X22273Y-16048D02*
X23096Y-16048D01*
X23096Y-16048D02*
X23096Y-16428D01*
X27115Y-16461D02*
X27939Y-16461D01*
X27939Y-16461D02*
X27939Y-16841D01*
X27939Y-16841D02*
X27115Y-16841D01*
X27115Y-16841D02*
X27115Y-16461D01*
X26536Y-18080D02*
X26536Y-18904D01*
X26536Y-18904D02*
X26156Y-18904D01*
X26156Y-18904D02*
X26156Y-18080D01*
X26156Y-18080D02*
X26536Y-18080D01*
X26103Y-18080D02*
X26103Y-18904D01*
X26103Y-18904D02*
X25723Y-18904D01*
X25723Y-18904D02*
X25723Y-18080D01*
X25723Y-18080D02*
X26103Y-18080D01*
X24120Y-13967D02*
X23296Y-13967D01*
X23296Y-13967D02*
X23296Y-13587D01*
X23296Y-13587D02*
X24120Y-13587D01*
X24120Y-13587D02*
X24120Y-13967D01*
X24075Y-18070D02*
X24075Y-18894D01*
X24075Y-18894D02*
X23695Y-18894D01*
X23695Y-18894D02*
X23695Y-18070D01*
X23695Y-18070D02*
X24075Y-18070D01*
X21200Y-17012D02*
X22358Y-17012D01*
X22358Y-17012D02*
X22358Y-17629D01*
X22358Y-17629D02*
X21200Y-17629D01*
X21200Y-17629D02*
X21200Y-17012D01*
X21200Y-17662D02*
X22358Y-17662D01*
X22358Y-17662D02*
X22358Y-18278D01*
X22358Y-18278D02*
X21200Y-18278D01*
X21200Y-18278D02*
X21200Y-17662D01*
X26672Y-13666D02*
X27830Y-13666D01*
X27830Y-13666D02*
X27830Y-14282D01*
X27830Y-14282D02*
X26672Y-14282D01*
X26672Y-14282D02*
X26672Y-13666D01*
X32735Y-14493D02*
X33893Y-14493D01*
X33893Y-14493D02*
X33893Y-15109D01*
X33893Y-15109D02*
X32735Y-15109D01*
X32735Y-15109D02*
X32735Y-14493D01*
X25614Y-12068D02*
X24456Y-12068D01*
X24456Y-12068D02*
X24456Y-11451D01*
X24456Y-11451D02*
X25614Y-11451D01*
X25614Y-11451D02*
X25614Y-12068D01*
X23206Y-11451D02*
X24364Y-11451D01*
X24364Y-11451D02*
X24364Y-12068D01*
X24364Y-12068D02*
X23206Y-12068D01*
X23206Y-12068D02*
X23206Y-11451D01*
X23206Y-12151D02*
X24364Y-12151D01*
X24364Y-12151D02*
X24364Y-12768D01*
X24364Y-12768D02*
X23206Y-12768D01*
X23206Y-12768D02*
X23206Y-12151D01*
X22200Y-13219D02*
X21042Y-13219D01*
X21042Y-13219D02*
X21042Y-12603D01*
X21042Y-12603D02*
X22200Y-12603D01*
X22200Y-12603D02*
X22200Y-13219D01*
X31003Y-15142D02*
X32161Y-15142D01*
X32161Y-15142D02*
X32161Y-15759D01*
X32161Y-15759D02*
X31003Y-15759D01*
X31003Y-15759D02*
X31003Y-15142D01*
X33889Y-15756D02*
X32731Y-15756D01*
X32731Y-15756D02*
X32731Y-15139D01*
X32731Y-15139D02*
X33889Y-15139D01*
X33889Y-15139D02*
X33889Y-15756D01*
X33894Y-16418D02*
X32736Y-16418D01*
X32736Y-16418D02*
X32736Y-15801D01*
X32736Y-15801D02*
X33894Y-15801D01*
X33894Y-15801D02*
X33894Y-16418D01*
X21585Y-13815D02*
X21585Y-12657D01*
X21585Y-12647D02*
X21028Y-12647D01*
X21028Y-12647D02*
X21028Y-13805D01*
X21028Y-13815D02*
X21585Y-13815D01*
X21028Y-11377D02*
X21028Y-12535D01*
X21028Y-12545D02*
X21585Y-12545D01*
X21585Y-12545D02*
X21585Y-11387D01*
X21585Y-11377D02*
X21028Y-11377D01*
X21042Y-11934D02*
X22200Y-11934D01*
X22200Y-11934D02*
X22200Y-12550D01*
X22200Y-12550D02*
X21042Y-12550D01*
X21042Y-12550D02*
X21042Y-11934D01*
G54D10*
X21749Y-14673D02*
X19879Y-14673D01*
X19879Y-14673D02*
X19889Y-14486D01*
X19889Y-14486D02*
X21759Y-14486D01*
X21759Y-14486D02*
X21759Y-14663D01*
X21759Y-15677D02*
X19879Y-15677D01*
X19889Y-15677D02*
X19889Y-15490D01*
X19889Y-15490D02*
X21759Y-15490D01*
X21759Y-15490D02*
X21759Y-15677D01*
X21779Y-16494D02*
X21779Y-16671D01*
X21779Y-16671D02*
X19879Y-16671D01*
X19879Y-16671D02*
X19879Y-16504D01*
X19879Y-16504D02*
X21779Y-16504D01*
X19889Y-17084D02*
X19889Y-14092D01*
X19889Y-14092D02*
X18905Y-14092D01*
X18905Y-14092D02*
X18905Y-17084D01*
X18905Y-17084D02*
X19889Y-17084D01*
G54D12*
X34685Y-13049D02*
X34685Y-13640D01*
X34685Y-13638D02*
X34305Y-13638D01*
X34305Y-13640D02*
X34305Y-13049D01*
X34305Y-13051D02*
X34685Y-13051D01*
X34272Y-13049D02*
X34272Y-13640D01*
X34272Y-13638D02*
X33892Y-13638D01*
X33892Y-13640D02*
X33892Y-13049D01*
X33892Y-13051D02*
X34272Y-13051D01*
M02*
