G04 (created by PCBNEW (2013-05-16 BZR 4016)-stable) date 11. 1. 2014 1:24:09*
%MOIN*%
G04 Gerber Fmt 3.4, Leading zero omitted, Abs format*
%FSLAX34Y34*%
G01*
G70*
G90*
G04 APERTURE LIST*
%ADD10C,0.00590551*%
%ADD11C,0.00393701*%
%ADD12C,0.00787402*%
%ADD13C,0.005*%
%ADD14C,0.0031*%
%ADD15C,0.003*%
%ADD16C,0.011811*%
%ADD17C,0.0001*%
%ADD18C,0.0079*%
%ADD19C,0.0019685*%
%ADD20C,0.000984252*%
%ADD21R,0.0314961X0.0590551*%
%ADD22R,0.137795X0.102362*%
%ADD23R,0.0255906X0.0334646*%
%ADD24R,0.0433X0.0393*%
%ADD25R,0.0393X0.0433*%
%ADD26R,0.0590551X0.141732*%
%ADD27R,0.0394X0.0315*%
%ADD28R,0.0118X0.0196*%
%ADD29R,0.0196X0.0118*%
%ADD30R,0.212598X0.212598*%
%ADD31R,0.0314961X0.0393701*%
%ADD32R,0.05X0.05*%
%ADD33R,0.0217X0.0118*%
%ADD34R,0.023622X0.019685*%
%ADD35R,0.0275591X0.019685*%
%ADD36R,0.019685X0.0275591*%
%ADD37R,0.0275591X0.0354331*%
%ADD38R,0.0511811X0.0551181*%
%ADD39C,0.11811*%
%ADD40R,0.0787402X0.05*%
%ADD41R,0.0314961X0.0314961*%
%ADD42R,0.110236X0.110236*%
%ADD43R,0.0433071X0.023622*%
%ADD44R,0.023622X0.0433071*%
%ADD45R,0.023622X0.043311*%
%ADD46R,0.0255906X0.0393701*%
%ADD47R,0.0216535X0.0393701*%
G04 APERTURE END LIST*
G54D10*
G54D11*
X26374Y-19897D02*
X26430Y-20054D01*
X26486Y-19897D01*
X26576Y-20032D02*
X26588Y-20043D01*
X26576Y-20054D01*
X26565Y-20043D01*
X26576Y-20032D01*
X26576Y-20054D01*
X26813Y-20054D02*
X26678Y-20054D01*
X26745Y-20054D02*
X26745Y-19818D01*
X26723Y-19852D01*
X26700Y-19874D01*
X26678Y-19885D01*
X26914Y-20032D02*
X26925Y-20043D01*
X26914Y-20054D01*
X26903Y-20043D01*
X26914Y-20032D01*
X26914Y-20054D01*
X27071Y-19818D02*
X27094Y-19818D01*
X27116Y-19829D01*
X27128Y-19840D01*
X27139Y-19863D01*
X27150Y-19908D01*
X27150Y-19964D01*
X27139Y-20009D01*
X27128Y-20032D01*
X27116Y-20043D01*
X27094Y-20054D01*
X27071Y-20054D01*
X27049Y-20043D01*
X27038Y-20032D01*
X27026Y-20009D01*
X27015Y-19964D01*
X27015Y-19908D01*
X27026Y-19863D01*
X27038Y-19840D01*
X27049Y-19829D01*
X27071Y-19818D01*
X27251Y-20032D02*
X27263Y-20043D01*
X27251Y-20054D01*
X27240Y-20043D01*
X27251Y-20032D01*
X27251Y-20054D01*
X27409Y-19818D02*
X27431Y-19818D01*
X27454Y-19829D01*
X27465Y-19840D01*
X27476Y-19863D01*
X27487Y-19908D01*
X27487Y-19964D01*
X27476Y-20009D01*
X27465Y-20032D01*
X27454Y-20043D01*
X27431Y-20054D01*
X27409Y-20054D01*
X27386Y-20043D01*
X27375Y-20032D01*
X27364Y-20009D01*
X27353Y-19964D01*
X27353Y-19908D01*
X27364Y-19863D01*
X27375Y-19840D01*
X27386Y-19829D01*
X27409Y-19818D01*
G54D10*
X20795Y-20510D02*
X20795Y-10667D01*
G54D12*
X25706Y-11750D02*
X25873Y-11917D01*
X28836Y-12281D02*
X28984Y-12281D01*
X28836Y-12114D02*
X28836Y-12281D01*
G54D11*
X26380Y-17293D02*
X26380Y-17612D01*
X26399Y-17649D01*
X26418Y-17668D01*
X26455Y-17687D01*
X26530Y-17687D01*
X26568Y-17668D01*
X26587Y-17649D01*
X26605Y-17612D01*
X26605Y-17293D01*
X26755Y-17293D02*
X26999Y-17293D01*
X26868Y-17443D01*
X26924Y-17443D01*
X26962Y-17462D01*
X26980Y-17480D01*
X26999Y-17518D01*
X26999Y-17612D01*
X26980Y-17649D01*
X26962Y-17668D01*
X26924Y-17687D01*
X26812Y-17687D01*
X26774Y-17668D01*
X26755Y-17649D01*
G54D12*
X24520Y-19570D02*
X24520Y-19070D01*
X24805Y-19570D02*
X24591Y-19285D01*
X24805Y-19070D02*
X24520Y-19356D01*
X25091Y-19570D02*
X25044Y-19546D01*
X25020Y-19499D01*
X25020Y-19070D01*
X25353Y-19570D02*
X25305Y-19546D01*
X25282Y-19523D01*
X25258Y-19475D01*
X25258Y-19332D01*
X25282Y-19285D01*
X25305Y-19261D01*
X25353Y-19237D01*
X25425Y-19237D01*
X25472Y-19261D01*
X25496Y-19285D01*
X25520Y-19332D01*
X25520Y-19475D01*
X25496Y-19523D01*
X25472Y-19546D01*
X25425Y-19570D01*
X25353Y-19570D01*
X25734Y-19237D02*
X25734Y-19570D01*
X25734Y-19285D02*
X25758Y-19261D01*
X25805Y-19237D01*
X25877Y-19237D01*
X25925Y-19261D01*
X25948Y-19308D01*
X25948Y-19570D01*
X26401Y-19570D02*
X26401Y-19070D01*
X26401Y-19546D02*
X26353Y-19570D01*
X26258Y-19570D01*
X26210Y-19546D01*
X26186Y-19523D01*
X26163Y-19475D01*
X26163Y-19332D01*
X26186Y-19285D01*
X26210Y-19261D01*
X26258Y-19237D01*
X26353Y-19237D01*
X26401Y-19261D01*
X26639Y-19570D02*
X26639Y-19237D01*
X26639Y-19070D02*
X26615Y-19094D01*
X26639Y-19118D01*
X26663Y-19094D01*
X26639Y-19070D01*
X26639Y-19118D01*
X26877Y-19570D02*
X26877Y-19070D01*
X26925Y-19380D02*
X27067Y-19570D01*
X27067Y-19237D02*
X26877Y-19427D01*
X27472Y-19546D02*
X27425Y-19570D01*
X27329Y-19570D01*
X27282Y-19546D01*
X27258Y-19499D01*
X27258Y-19308D01*
X27282Y-19261D01*
X27329Y-19237D01*
X27425Y-19237D01*
X27472Y-19261D01*
X27496Y-19308D01*
X27496Y-19356D01*
X27258Y-19404D01*
X28353Y-19570D02*
X28067Y-19570D01*
X28210Y-19570D02*
X28210Y-19070D01*
X28163Y-19142D01*
X28115Y-19189D01*
X28067Y-19213D01*
G54D10*
X35106Y-13206D02*
X35106Y-10667D01*
X40480Y-13206D02*
X35106Y-13206D01*
X35106Y-17970D02*
X35106Y-20510D01*
X40480Y-17970D02*
X35106Y-17970D01*
G54D12*
X20795Y-10667D02*
X35106Y-10667D01*
G54D10*
X40480Y-13206D02*
X40480Y-17970D01*
X35106Y-20510D02*
X20795Y-20510D01*
G54D13*
X31201Y-18532D02*
X31201Y-18582D01*
X31201Y-18582D02*
X33301Y-18582D01*
X33301Y-17082D02*
X31201Y-17082D01*
X31201Y-17082D02*
X31201Y-18532D01*
X31201Y-17632D02*
X31401Y-17632D01*
X31401Y-17632D02*
X31401Y-18032D01*
X31401Y-18032D02*
X31201Y-18032D01*
X33301Y-17082D02*
X33301Y-18582D01*
G54D10*
X28797Y-12449D02*
X27812Y-12449D01*
X27812Y-12449D02*
X27812Y-13236D01*
X27812Y-13236D02*
X28797Y-13236D01*
X28797Y-13236D02*
X28797Y-12449D01*
X30401Y-19053D02*
X30401Y-17478D01*
X30401Y-17478D02*
X28826Y-17478D01*
X28826Y-17478D02*
X28826Y-19053D01*
X28826Y-19053D02*
X30401Y-19053D01*
G54D14*
X34007Y-17389D02*
G75*
G03X34007Y-17389I-62J0D01*
G74*
G01*
X34282Y-18352D02*
X33882Y-18352D01*
X34282Y-17327D02*
X33882Y-17327D01*
X33882Y-18352D02*
X33882Y-17327D01*
X34282Y-17327D02*
X34282Y-18352D01*
G54D13*
X23601Y-14497D02*
X23601Y-17251D01*
X23601Y-17251D02*
X26355Y-17251D01*
X26355Y-17251D02*
X26355Y-14497D01*
X26355Y-14497D02*
X23601Y-14497D01*
X26158Y-16956D02*
G75*
G03X26158Y-16956I-98J0D01*
G74*
G01*
X30678Y-10915D02*
X30678Y-11915D01*
X30678Y-11915D02*
X25675Y-11915D01*
X25675Y-11905D02*
X25675Y-10905D01*
X25675Y-10915D02*
X30678Y-10915D01*
G54D15*
X27015Y-11967D02*
X26897Y-12085D01*
X27133Y-11967D02*
X27133Y-12675D01*
X27133Y-12675D02*
X26897Y-12675D01*
X26897Y-12675D02*
X26897Y-11967D01*
X26897Y-11967D02*
X27133Y-11967D01*
G54D13*
X30731Y-20044D02*
X30731Y-19256D01*
X30534Y-20044D02*
X31716Y-20044D01*
X31716Y-20044D02*
X31716Y-19256D01*
X31716Y-19256D02*
X30534Y-19256D01*
X30534Y-19256D02*
X30534Y-20044D01*
G54D16*
X34023Y-11651D02*
G75*
G03X34023Y-11651I-787J0D01*
G74*
G01*
X23354Y-19525D02*
G75*
G03X23354Y-19525I-787J0D01*
G74*
G01*
G54D17*
G36*
X38385Y-14407D02*
X38391Y-14411D01*
X38405Y-14423D01*
X38425Y-14441D01*
X38450Y-14465D01*
X38478Y-14493D01*
X38510Y-14523D01*
X38516Y-14529D01*
X38350Y-14529D01*
X38269Y-14612D01*
X38235Y-14647D01*
X38209Y-14675D01*
X38190Y-14699D01*
X38177Y-14720D01*
X38169Y-14740D01*
X38165Y-14760D01*
X38163Y-14782D01*
X38163Y-14791D01*
X38168Y-14836D01*
X38185Y-14876D01*
X38212Y-14910D01*
X38248Y-14936D01*
X38259Y-14942D01*
X38290Y-14951D01*
X38327Y-14954D01*
X38363Y-14951D01*
X38395Y-14942D01*
X38406Y-14935D01*
X38424Y-14921D01*
X38446Y-14903D01*
X38471Y-14880D01*
X38496Y-14857D01*
X38521Y-14833D01*
X38544Y-14810D01*
X38563Y-14791D01*
X38576Y-14776D01*
X38581Y-14768D01*
X38581Y-14767D01*
X38577Y-14761D01*
X38565Y-14748D01*
X38547Y-14728D01*
X38523Y-14704D01*
X38496Y-14675D01*
X38466Y-14645D01*
X38350Y-14529D01*
X38516Y-14529D01*
X38542Y-14556D01*
X38575Y-14589D01*
X38607Y-14621D01*
X38636Y-14651D01*
X38663Y-14679D01*
X38684Y-14702D01*
X38700Y-14719D01*
X38709Y-14730D01*
X38710Y-14733D01*
X38706Y-14740D01*
X38694Y-14753D01*
X38676Y-14774D01*
X38652Y-14799D01*
X38624Y-14828D01*
X38592Y-14860D01*
X38589Y-14863D01*
X38552Y-14900D01*
X38522Y-14929D01*
X38498Y-14952D01*
X38478Y-14969D01*
X38462Y-14982D01*
X38448Y-14992D01*
X38435Y-15000D01*
X38424Y-15005D01*
X38402Y-15015D01*
X38384Y-15021D01*
X38365Y-15024D01*
X38341Y-15025D01*
X38326Y-15025D01*
X38293Y-15024D01*
X38269Y-15020D01*
X38249Y-15014D01*
X38243Y-15012D01*
X38215Y-14999D01*
X38127Y-15086D01*
X38040Y-15173D01*
X37992Y-15125D01*
X37945Y-15077D01*
X38032Y-14990D01*
X38061Y-14960D01*
X38083Y-14938D01*
X38098Y-14921D01*
X38108Y-14910D01*
X38113Y-14901D01*
X38114Y-14895D01*
X38112Y-14890D01*
X38111Y-14887D01*
X38096Y-14845D01*
X38090Y-14798D01*
X38095Y-14749D01*
X38110Y-14701D01*
X38116Y-14687D01*
X38124Y-14672D01*
X38133Y-14658D01*
X38144Y-14643D01*
X38159Y-14625D01*
X38179Y-14604D01*
X38205Y-14577D01*
X38238Y-14544D01*
X38257Y-14525D01*
X38288Y-14494D01*
X38317Y-14466D01*
X38343Y-14442D01*
X38363Y-14424D01*
X38378Y-14411D01*
X38384Y-14407D01*
X38385Y-14407D01*
X38385Y-14407D01*
X38385Y-14407D01*
G37*
G36*
X38053Y-16209D02*
X38058Y-16214D01*
X38071Y-16225D01*
X38091Y-16244D01*
X38116Y-16268D01*
X38146Y-16297D01*
X38180Y-16329D01*
X38207Y-16355D01*
X38249Y-16396D01*
X38293Y-16439D01*
X38337Y-16482D01*
X38379Y-16523D01*
X38417Y-16560D01*
X38450Y-16592D01*
X38457Y-16599D01*
X38490Y-16631D01*
X38515Y-16657D01*
X38534Y-16676D01*
X38546Y-16691D01*
X38553Y-16702D01*
X38556Y-16709D01*
X38557Y-16713D01*
X38555Y-16723D01*
X38548Y-16734D01*
X38535Y-16750D01*
X38515Y-16771D01*
X38502Y-16783D01*
X38480Y-16804D01*
X38460Y-16821D01*
X38445Y-16833D01*
X38436Y-16837D01*
X38436Y-16837D01*
X38427Y-16833D01*
X38412Y-16820D01*
X38390Y-16800D01*
X38363Y-16774D01*
X38332Y-16743D01*
X38304Y-16715D01*
X38270Y-16681D01*
X38231Y-16641D01*
X38189Y-16598D01*
X38146Y-16555D01*
X38104Y-16512D01*
X38083Y-16491D01*
X37927Y-16332D01*
X37988Y-16271D01*
X38010Y-16249D01*
X38029Y-16230D01*
X38044Y-16217D01*
X38052Y-16210D01*
X38053Y-16209D01*
X38053Y-16209D01*
X38053Y-16209D01*
G37*
G36*
X37491Y-14960D02*
X37505Y-15036D01*
X37512Y-15076D01*
X37517Y-15106D01*
X37522Y-15128D01*
X37527Y-15142D01*
X37533Y-15151D01*
X37541Y-15157D01*
X37552Y-15161D01*
X37566Y-15164D01*
X37570Y-15165D01*
X37595Y-15173D01*
X37625Y-15184D01*
X37656Y-15197D01*
X37671Y-15204D01*
X37730Y-15232D01*
X37807Y-15179D01*
X37835Y-15161D01*
X37858Y-15146D01*
X37877Y-15134D01*
X37888Y-15127D01*
X37890Y-15127D01*
X37896Y-15131D01*
X37909Y-15142D01*
X37927Y-15158D01*
X37944Y-15175D01*
X37992Y-15224D01*
X37936Y-15305D01*
X37881Y-15386D01*
X37899Y-15414D01*
X37908Y-15431D01*
X37912Y-15443D01*
X37912Y-15447D01*
X37905Y-15450D01*
X37889Y-15458D01*
X37864Y-15468D01*
X37833Y-15481D01*
X37798Y-15496D01*
X37777Y-15505D01*
X37647Y-15559D01*
X37612Y-15521D01*
X37569Y-15483D01*
X37521Y-15456D01*
X37471Y-15440D01*
X37418Y-15434D01*
X37365Y-15441D01*
X37313Y-15458D01*
X37277Y-15478D01*
X37235Y-15512D01*
X37202Y-15553D01*
X37179Y-15599D01*
X37165Y-15649D01*
X37161Y-15701D01*
X37167Y-15752D01*
X37184Y-15803D01*
X37211Y-15850D01*
X37211Y-15851D01*
X37247Y-15889D01*
X37290Y-15920D01*
X37338Y-15942D01*
X37389Y-15954D01*
X37441Y-15955D01*
X37478Y-15949D01*
X37518Y-15936D01*
X37551Y-15920D01*
X37582Y-15897D01*
X37608Y-15873D01*
X37625Y-15856D01*
X37639Y-15843D01*
X37647Y-15835D01*
X37649Y-15834D01*
X37656Y-15836D01*
X37672Y-15843D01*
X37696Y-15852D01*
X37725Y-15864D01*
X37757Y-15877D01*
X37791Y-15891D01*
X37824Y-15905D01*
X37854Y-15918D01*
X37880Y-15929D01*
X37899Y-15938D01*
X37910Y-15943D01*
X37912Y-15943D01*
X37911Y-15951D01*
X37905Y-15965D01*
X37898Y-15976D01*
X37881Y-16005D01*
X37935Y-16084D01*
X37990Y-16164D01*
X37939Y-16215D01*
X37887Y-16266D01*
X37810Y-16213D01*
X37783Y-16195D01*
X37759Y-16179D01*
X37740Y-16167D01*
X37729Y-16161D01*
X37727Y-16160D01*
X37718Y-16163D01*
X37702Y-16171D01*
X37687Y-16178D01*
X37667Y-16188D01*
X37640Y-16200D01*
X37609Y-16211D01*
X37591Y-16218D01*
X37562Y-16227D01*
X37544Y-16234D01*
X37533Y-16240D01*
X37527Y-16246D01*
X37524Y-16254D01*
X37522Y-16259D01*
X37520Y-16274D01*
X37515Y-16297D01*
X37510Y-16325D01*
X37505Y-16355D01*
X37491Y-16431D01*
X37419Y-16431D01*
X37347Y-16431D01*
X37329Y-16336D01*
X37323Y-16303D01*
X37317Y-16274D01*
X37312Y-16252D01*
X37309Y-16239D01*
X37308Y-16236D01*
X37301Y-16232D01*
X37285Y-16225D01*
X37263Y-16218D01*
X37252Y-16214D01*
X37222Y-16203D01*
X37190Y-16189D01*
X37163Y-16175D01*
X37160Y-16174D01*
X37120Y-16150D01*
X37035Y-16208D01*
X36950Y-16266D01*
X36898Y-16216D01*
X36847Y-16165D01*
X36906Y-16079D01*
X36964Y-15994D01*
X36943Y-15952D01*
X36918Y-15898D01*
X36900Y-15846D01*
X36896Y-15831D01*
X36889Y-15806D01*
X36814Y-15792D01*
X36782Y-15786D01*
X36751Y-15780D01*
X36725Y-15775D01*
X36709Y-15771D01*
X36680Y-15765D01*
X36681Y-15694D01*
X36683Y-15623D01*
X36784Y-15604D01*
X36885Y-15585D01*
X36905Y-15529D01*
X36916Y-15499D01*
X36929Y-15468D01*
X36941Y-15442D01*
X36944Y-15436D01*
X36955Y-15413D01*
X36960Y-15397D01*
X36960Y-15390D01*
X36954Y-15382D01*
X36944Y-15367D01*
X36929Y-15344D01*
X36911Y-15318D01*
X36901Y-15304D01*
X36848Y-15226D01*
X36899Y-15175D01*
X36950Y-15124D01*
X37034Y-15181D01*
X37117Y-15238D01*
X37171Y-15211D01*
X37199Y-15197D01*
X37229Y-15184D01*
X37254Y-15175D01*
X37261Y-15172D01*
X37282Y-15166D01*
X37298Y-15159D01*
X37305Y-15155D01*
X37309Y-15147D01*
X37314Y-15129D01*
X37320Y-15103D01*
X37326Y-15072D01*
X37330Y-15054D01*
X37347Y-14960D01*
X37419Y-14960D01*
X37491Y-14960D01*
X37491Y-14960D01*
X37491Y-14960D01*
G37*
G36*
X37544Y-14156D02*
X37554Y-14158D01*
X37555Y-14160D01*
X37554Y-14160D01*
X37544Y-14163D01*
X37526Y-14171D01*
X37500Y-14183D01*
X37468Y-14198D01*
X37433Y-14215D01*
X37396Y-14234D01*
X37359Y-14253D01*
X37323Y-14271D01*
X37291Y-14289D01*
X37264Y-14303D01*
X37254Y-14309D01*
X37147Y-14374D01*
X37037Y-14448D01*
X36928Y-14528D01*
X36821Y-14611D01*
X36721Y-14696D01*
X36687Y-14726D01*
X36647Y-14762D01*
X36665Y-14783D01*
X36674Y-14794D01*
X36690Y-14811D01*
X36712Y-14835D01*
X36738Y-14864D01*
X36768Y-14896D01*
X36799Y-14930D01*
X36915Y-15054D01*
X36846Y-15124D01*
X36776Y-15194D01*
X36757Y-15177D01*
X36746Y-15167D01*
X36728Y-15151D01*
X36705Y-15130D01*
X36679Y-15106D01*
X36662Y-15090D01*
X36631Y-15062D01*
X36599Y-15032D01*
X36569Y-15003D01*
X36543Y-14979D01*
X36535Y-14971D01*
X36485Y-14922D01*
X36416Y-15001D01*
X36302Y-15137D01*
X36198Y-15274D01*
X36104Y-15411D01*
X36018Y-15552D01*
X36005Y-15576D01*
X35989Y-15603D01*
X35978Y-15622D01*
X35968Y-15634D01*
X35959Y-15642D01*
X35947Y-15647D01*
X35940Y-15650D01*
X35924Y-15656D01*
X35913Y-15657D01*
X35911Y-15656D01*
X35913Y-15643D01*
X35918Y-15622D01*
X35924Y-15595D01*
X35932Y-15567D01*
X35941Y-15540D01*
X35946Y-15525D01*
X36003Y-15384D01*
X36071Y-15247D01*
X36151Y-15113D01*
X36241Y-14984D01*
X36335Y-14869D01*
X36374Y-14824D01*
X36360Y-14810D01*
X36347Y-14795D01*
X36359Y-14778D01*
X36371Y-14764D01*
X36388Y-14745D01*
X36409Y-14723D01*
X36432Y-14701D01*
X36455Y-14679D01*
X36477Y-14660D01*
X36494Y-14645D01*
X36507Y-14636D01*
X36511Y-14634D01*
X36525Y-14638D01*
X36533Y-14644D01*
X36538Y-14648D01*
X36545Y-14648D01*
X36553Y-14644D01*
X36567Y-14633D01*
X36587Y-14616D01*
X36595Y-14610D01*
X36702Y-14523D01*
X36815Y-14443D01*
X36931Y-14371D01*
X37051Y-14308D01*
X37170Y-14254D01*
X37290Y-14211D01*
X37408Y-14178D01*
X37446Y-14170D01*
X37478Y-14164D01*
X37506Y-14159D01*
X37529Y-14157D01*
X37543Y-14156D01*
X37544Y-14156D01*
X37544Y-14156D01*
X37544Y-14156D01*
G37*
G36*
X36557Y-16070D02*
X36566Y-16071D01*
X36575Y-16077D01*
X36587Y-16090D01*
X36602Y-16111D01*
X36614Y-16129D01*
X36633Y-16156D01*
X36655Y-16185D01*
X36677Y-16214D01*
X36698Y-16240D01*
X36716Y-16261D01*
X36727Y-16272D01*
X36734Y-16277D01*
X36740Y-16278D01*
X36749Y-16272D01*
X36762Y-16260D01*
X36769Y-16252D01*
X36800Y-16222D01*
X36847Y-16269D01*
X36895Y-16317D01*
X36864Y-16348D01*
X36833Y-16380D01*
X36868Y-16411D01*
X36889Y-16429D01*
X36915Y-16451D01*
X36943Y-16472D01*
X36953Y-16480D01*
X36985Y-16504D01*
X37008Y-16521D01*
X37024Y-16534D01*
X37035Y-16544D01*
X37040Y-16551D01*
X37043Y-16557D01*
X37043Y-16562D01*
X37040Y-16570D01*
X37029Y-16584D01*
X37010Y-16604D01*
X36984Y-16632D01*
X36950Y-16668D01*
X36906Y-16711D01*
X36903Y-16714D01*
X36867Y-16750D01*
X36832Y-16784D01*
X36799Y-16815D01*
X36769Y-16843D01*
X36745Y-16864D01*
X36728Y-16879D01*
X36723Y-16883D01*
X36648Y-16932D01*
X36574Y-16970D01*
X36497Y-16997D01*
X36417Y-17015D01*
X36391Y-17018D01*
X36343Y-17019D01*
X36294Y-17011D01*
X36246Y-16996D01*
X36202Y-16975D01*
X36174Y-16954D01*
X36153Y-16930D01*
X36133Y-16896D01*
X36116Y-16858D01*
X36104Y-16817D01*
X36101Y-16799D01*
X36098Y-16744D01*
X36105Y-16682D01*
X36120Y-16617D01*
X36144Y-16549D01*
X36154Y-16527D01*
X36170Y-16494D01*
X36188Y-16461D01*
X36211Y-16428D01*
X36238Y-16392D01*
X36271Y-16353D01*
X36310Y-16309D01*
X36357Y-16260D01*
X36392Y-16224D01*
X36427Y-16190D01*
X36459Y-16157D01*
X36488Y-16129D01*
X36513Y-16105D01*
X36532Y-16087D01*
X36544Y-16077D01*
X36548Y-16074D01*
X36557Y-16070D01*
X36557Y-16070D01*
X36557Y-16070D01*
G37*
G54D10*
X21779Y-16671D02*
X21769Y-16661D01*
G54D18*
X31277Y-12390D02*
X31178Y-12488D01*
X31178Y-13964D02*
X31178Y-12488D01*
X32753Y-13964D02*
X31178Y-13964D01*
X32753Y-12390D02*
X32753Y-13964D01*
X31277Y-12390D02*
X32753Y-12390D01*
G54D19*
X24821Y-13175D02*
G75*
G03X24821Y-13175I-50J0D01*
G74*
G01*
G54D20*
X25460Y-12478D02*
X24673Y-12478D01*
X24673Y-12478D02*
X24673Y-13384D01*
X24673Y-13384D02*
X25460Y-13384D01*
X25460Y-13384D02*
X25460Y-12478D01*
%LPC*%
G54D21*
X31501Y-16848D03*
X31501Y-18817D03*
X32001Y-16848D03*
X32501Y-16848D03*
X33001Y-16848D03*
X32001Y-18817D03*
X32501Y-18817D03*
X33001Y-18817D03*
G54D22*
X32251Y-17832D03*
G54D23*
X27980Y-13147D03*
X28629Y-13147D03*
X27980Y-12537D03*
X28629Y-12537D03*
G54D24*
X32291Y-19650D03*
X32959Y-19650D03*
G54D25*
X30834Y-16770D03*
X30834Y-17438D03*
X30834Y-18050D03*
X30834Y-18718D03*
X32448Y-16119D03*
X32448Y-15451D03*
G54D24*
X29959Y-15330D03*
X29291Y-15330D03*
X29959Y-14410D03*
X29291Y-14410D03*
G54D26*
X30106Y-18265D03*
X29121Y-18265D03*
G54D25*
X34515Y-16926D03*
X34515Y-16258D03*
X33649Y-18896D03*
X33649Y-19564D03*
G54D27*
X34515Y-17852D03*
X33649Y-18227D03*
X33649Y-17477D03*
G54D28*
X26060Y-17251D03*
X25863Y-17251D03*
X25666Y-17251D03*
X25470Y-17251D03*
X25273Y-17251D03*
X25076Y-17251D03*
X24880Y-17251D03*
X24683Y-17251D03*
X24486Y-17251D03*
X24290Y-17251D03*
X24093Y-17251D03*
X23896Y-17251D03*
G54D29*
X23601Y-16956D03*
X23601Y-16759D03*
X23601Y-16562D03*
X23601Y-16366D03*
X23601Y-16169D03*
X23601Y-15972D03*
X23601Y-15776D03*
X23601Y-15579D03*
X23601Y-15382D03*
X23601Y-15186D03*
X23601Y-14989D03*
X23601Y-14792D03*
G54D28*
X23896Y-14497D03*
X24093Y-14497D03*
X24290Y-14497D03*
X24486Y-14497D03*
X24683Y-14497D03*
X24880Y-14497D03*
X25076Y-14497D03*
X25273Y-14497D03*
X25470Y-14497D03*
X25666Y-14497D03*
X25863Y-14497D03*
X26060Y-14497D03*
G54D29*
X26355Y-14792D03*
X26355Y-14989D03*
X26355Y-15186D03*
X26355Y-15382D03*
X26355Y-15579D03*
X26355Y-15776D03*
X26355Y-15972D03*
X26355Y-16169D03*
X26355Y-16366D03*
X26355Y-16562D03*
X26355Y-16759D03*
X26355Y-16956D03*
G54D30*
X24978Y-15874D03*
G54D25*
X29269Y-12498D03*
X29269Y-13166D03*
G54D31*
X27212Y-15667D03*
X27842Y-15667D03*
G54D32*
X29178Y-11415D03*
X28178Y-11415D03*
X27178Y-11415D03*
X30178Y-11415D03*
X26178Y-11415D03*
G54D33*
X27298Y-12124D03*
X27298Y-12321D03*
X27298Y-12518D03*
X26732Y-12518D03*
X26732Y-12321D03*
X26732Y-12124D03*
G54D34*
X25489Y-18689D03*
X25489Y-18295D03*
G54D35*
X33669Y-13571D03*
X33669Y-13177D03*
G54D36*
X32173Y-11769D03*
X31779Y-11769D03*
X27054Y-13226D03*
X26661Y-13226D03*
X24860Y-11189D03*
X25253Y-11189D03*
X27330Y-16218D03*
X27724Y-16218D03*
X22881Y-14978D03*
X22487Y-14978D03*
G54D35*
X24318Y-18285D03*
X24318Y-18679D03*
X26169Y-13443D03*
X26169Y-13049D03*
G54D36*
X23903Y-13320D03*
X23510Y-13320D03*
X27487Y-15116D03*
X27881Y-15116D03*
X22881Y-16238D03*
X22487Y-16238D03*
X27330Y-16651D03*
X27724Y-16651D03*
G54D35*
X26346Y-18295D03*
X26346Y-18689D03*
X25913Y-18295D03*
X25913Y-18689D03*
G54D36*
X23905Y-13777D03*
X23511Y-13777D03*
G54D35*
X23885Y-18285D03*
X23885Y-18679D03*
G54D37*
X21484Y-17321D03*
X22074Y-17321D03*
X21484Y-17970D03*
X22074Y-17970D03*
X26956Y-13974D03*
X27547Y-13974D03*
X33019Y-14801D03*
X33610Y-14801D03*
X25330Y-11760D03*
X24739Y-11760D03*
X23489Y-11760D03*
X24080Y-11760D03*
X23489Y-12460D03*
X24080Y-12460D03*
X21917Y-12911D03*
X21326Y-12911D03*
X31287Y-15451D03*
X31877Y-15451D03*
X33605Y-15448D03*
X33014Y-15448D03*
X33610Y-16110D03*
X33019Y-16110D03*
G54D38*
X30554Y-19650D03*
X31695Y-19650D03*
G54D37*
X21326Y-12242D03*
X21917Y-12242D03*
G54D39*
X33236Y-11651D03*
X22566Y-19525D03*
G54D40*
X21385Y-15588D03*
X21385Y-14584D03*
X21385Y-16592D03*
G54D41*
X34495Y-13167D03*
X34495Y-13521D03*
X34082Y-13167D03*
X34082Y-13521D03*
G54D42*
X31966Y-13177D03*
G54D43*
X31192Y-12783D03*
X31192Y-12980D03*
X31192Y-13177D03*
X31192Y-13374D03*
X31192Y-13571D03*
G54D44*
X31572Y-13951D03*
X31769Y-13951D03*
X31966Y-13951D03*
X32163Y-13951D03*
X32360Y-13951D03*
G54D43*
X32739Y-13571D03*
X32739Y-13374D03*
X32739Y-13177D03*
X32739Y-12980D03*
X32739Y-12783D03*
G54D45*
X32360Y-12403D03*
X32163Y-12403D03*
X31966Y-12403D03*
X31769Y-12403D03*
X31572Y-12403D03*
G54D46*
X25381Y-13472D03*
X24751Y-13472D03*
G54D47*
X24968Y-13472D03*
X25165Y-13472D03*
X25165Y-12390D03*
X24968Y-12390D03*
G54D46*
X24751Y-12390D03*
X25381Y-12390D03*
M02*
