G04 (created by PCBNEW (2013-05-16 BZR 4016)-stable) date 18. 1. 2014 1:36:01*
%MOIN*%
G04 Gerber Fmt 3.4, Leading zero omitted, Abs format*
%FSLAX34Y34*%
G01*
G70*
G90*
G04 APERTURE LIST*
%ADD10C,0.00590551*%
%ADD11C,0.011811*%
%ADD12C,0.00787402*%
%ADD13C,0.005*%
%ADD14C,0.0001*%
%ADD15C,0.015*%
%ADD16C,0.0028*%
%ADD17C,0.01*%
%ADD18C,0.000984252*%
%ADD19C,0.006*%
%ADD20C,0.004*%
%ADD21C,0.00984252*%
%ADD22C,0.0079*%
%ADD23R,0.0708X0.0629*%
%ADD24R,0.0354331X0.0314961*%
%ADD25R,0.0314961X0.0354331*%
%ADD26R,0.0118X0.0275*%
%ADD27R,0.0275X0.0118*%
%ADD28R,0.0122047X0.0417323*%
%ADD29R,0.122441X0.0515748*%
%ADD30R,0.0456693X0.104724*%
%ADD31R,0.0208661X0.0161417*%
%ADD32R,0.011811X0.0275*%
%ADD33R,0.0220472X0.0279528*%
%ADD34R,0.0259843X0.0169291*%
%ADD35R,0.0283465X0.0102362*%
%ADD36R,0.011811X0.0267717*%
%ADD37R,0.065748X0.0515748*%
%ADD38R,0.0167323X0.0326772*%
%ADD39R,0.0279528X0.0279528*%
%ADD40R,0.0220472X0.0220472*%
%ADD41R,0.0354331X0.0275591*%
%ADD42R,0.0275591X0.0354331*%
%ADD43C,0.19685*%
%ADD44R,0.0255906X0.0334646*%
%ADD45C,0.0354*%
%ADD46R,0.0885X0.0196*%
%ADD47R,0.0984X0.0787*%
%ADD48R,0.0259843X0.011811*%
%ADD49R,0.0393701X0.0393701*%
%ADD50R,0.0787402X0.05*%
%ADD51R,0.0236X0.0157*%
%ADD52C,0.11811*%
%ADD53R,0.125984X0.0393701*%
%ADD54R,0.0393701X0.125984*%
%ADD55R,0.0196X0.0118*%
%ADD56R,0.0118X0.0196*%
%ADD57R,0.212598X0.212598*%
%ADD58R,0.0118X0.0295*%
%ADD59R,0.0295X0.0118*%
%ADD60R,0.0708661X0.0708661*%
%ADD61R,0.0393701X0.0314961*%
%ADD62R,0.011811X0.0259843*%
%ADD63O,0.0826X0.0826*%
%ADD64R,0.019685X0.019685*%
%ADD65R,0.0255906X0.0393701*%
%ADD66R,0.0216535X0.0393701*%
%ADD67R,0.0551181X0.0393701*%
%ADD68R,0.0314961X0.0314961*%
%ADD69R,0.0551181X0.0511811*%
%ADD70R,0.0629921X0.0314961*%
%ADD71R,0.0314961X0.0393701*%
%ADD72R,0.0984252X0.15748*%
%ADD73R,0.0275591X0.019685*%
%ADD74R,0.019685X0.0275591*%
%ADD75R,0.023622X0.019685*%
%ADD76R,0.019685X0.023622*%
%ADD77R,0.220472X0.104331*%
%ADD78R,0.275591X0.0551181*%
%ADD79R,0.212598X0.114173*%
%ADD80R,0.0591X0.0276*%
%ADD81R,0.0591X0.0394*%
%ADD82R,0.0315X0.0787*%
%ADD83R,0.110236X0.110236*%
%ADD84R,0.023622X0.0433071*%
%ADD85R,0.0433071X0.023622*%
%ADD86R,0.043311X0.023622*%
G04 APERTURE END LIST*
G54D10*
G54D11*
X57072Y-57775D02*
X57189Y-58103D01*
X57306Y-57775D01*
X57494Y-58056D02*
X57517Y-58079D01*
X57494Y-58103D01*
X57470Y-58079D01*
X57494Y-58056D01*
X57494Y-58103D01*
X57986Y-58103D02*
X57705Y-58103D01*
X57845Y-58103D02*
X57845Y-57611D01*
X57798Y-57681D01*
X57751Y-57728D01*
X57705Y-57751D01*
X58197Y-58056D02*
X58220Y-58079D01*
X58197Y-58103D01*
X58173Y-58079D01*
X58197Y-58056D01*
X58197Y-58103D01*
X58689Y-58103D02*
X58408Y-58103D01*
X58548Y-58103D02*
X58548Y-57611D01*
X58501Y-57681D01*
X58454Y-57728D01*
X58408Y-57751D01*
X58900Y-58056D02*
X58923Y-58079D01*
X58900Y-58103D01*
X58876Y-58079D01*
X58900Y-58056D01*
X58900Y-58103D01*
X59228Y-57611D02*
X59275Y-57611D01*
X59322Y-57634D01*
X59345Y-57657D01*
X59368Y-57704D01*
X59392Y-57798D01*
X59392Y-57915D01*
X59368Y-58009D01*
X59345Y-58056D01*
X59322Y-58079D01*
X59275Y-58103D01*
X59228Y-58103D01*
X59181Y-58079D01*
X59157Y-58056D01*
X59134Y-58009D01*
X59111Y-57915D01*
X59111Y-57798D01*
X59134Y-57704D01*
X59157Y-57657D01*
X59181Y-57634D01*
X59228Y-57611D01*
G54D12*
X68336Y-41958D02*
X68336Y-42076D01*
X68198Y-41958D02*
X68336Y-41958D01*
X73464Y-37903D02*
X73464Y-37687D01*
X73474Y-37903D02*
X73710Y-37903D01*
X77620Y-48045D02*
X77620Y-48176D01*
X77826Y-48176D02*
X77432Y-48176D01*
X77432Y-47988D01*
X77714Y-47857D02*
X77714Y-47670D01*
X77826Y-47895D02*
X77432Y-47763D01*
X77826Y-47632D01*
X77826Y-47501D02*
X77432Y-47501D01*
X77826Y-47276D01*
X77432Y-47276D01*
X77500Y-46488D02*
X77500Y-46581D01*
X77406Y-46544D02*
X77500Y-46581D01*
X77593Y-46544D01*
X77443Y-46656D02*
X77500Y-46581D01*
X77556Y-46656D01*
X77330Y-44586D02*
X77630Y-44586D01*
X77389Y-45590D02*
X77689Y-45590D01*
X77539Y-45740D02*
X77539Y-45440D01*
X68670Y-37777D02*
X68670Y-37383D01*
X69083Y-37739D02*
X69064Y-37758D01*
X69008Y-37777D01*
X68970Y-37777D01*
X68914Y-37758D01*
X68877Y-37721D01*
X68858Y-37683D01*
X68839Y-37608D01*
X68839Y-37552D01*
X68858Y-37477D01*
X68877Y-37440D01*
X68914Y-37402D01*
X68970Y-37383D01*
X69008Y-37383D01*
X69064Y-37402D01*
X69083Y-37421D01*
X69233Y-37758D02*
X69289Y-37777D01*
X69383Y-37777D01*
X69420Y-37758D01*
X69439Y-37739D01*
X69458Y-37702D01*
X69458Y-37664D01*
X69439Y-37627D01*
X69420Y-37608D01*
X69383Y-37589D01*
X69308Y-37571D01*
X69270Y-37552D01*
X69251Y-37533D01*
X69233Y-37496D01*
X69233Y-37458D01*
X69251Y-37421D01*
X69270Y-37402D01*
X69308Y-37383D01*
X69401Y-37383D01*
X69458Y-37402D01*
X69626Y-37777D02*
X69626Y-37383D01*
X69776Y-37383D01*
X69814Y-37402D01*
X69833Y-37421D01*
X69851Y-37458D01*
X69851Y-37514D01*
X69833Y-37552D01*
X69814Y-37571D01*
X69776Y-37589D01*
X69626Y-37589D01*
X65511Y-40925D02*
X65590Y-40925D01*
X65511Y-40856D02*
X65511Y-40925D01*
X40526Y-50887D02*
X40526Y-51206D01*
X40545Y-51243D01*
X40563Y-51262D01*
X40601Y-51281D01*
X40676Y-51281D01*
X40713Y-51262D01*
X40732Y-51243D01*
X40751Y-51206D01*
X40751Y-50887D01*
X41145Y-51281D02*
X40920Y-51281D01*
X41032Y-51281D02*
X41032Y-50887D01*
X40995Y-50943D01*
X40957Y-50981D01*
X40920Y-51000D01*
X41482Y-50887D02*
X41407Y-50887D01*
X41369Y-50906D01*
X41351Y-50925D01*
X41313Y-50981D01*
X41294Y-51056D01*
X41294Y-51206D01*
X41313Y-51243D01*
X41332Y-51262D01*
X41369Y-51281D01*
X41444Y-51281D01*
X41482Y-51262D01*
X41501Y-51243D01*
X41519Y-51206D01*
X41519Y-51112D01*
X41501Y-51075D01*
X41482Y-51056D01*
X41444Y-51037D01*
X41369Y-51037D01*
X41332Y-51056D01*
X41313Y-51075D01*
X41294Y-51112D01*
X47839Y-50976D02*
X47839Y-51294D01*
X47858Y-51332D01*
X47876Y-51351D01*
X47914Y-51369D01*
X47989Y-51369D01*
X48026Y-51351D01*
X48045Y-51332D01*
X48064Y-51294D01*
X48064Y-50976D01*
X48458Y-51369D02*
X48233Y-51369D01*
X48345Y-51369D02*
X48345Y-50976D01*
X48308Y-51032D01*
X48270Y-51070D01*
X48233Y-51088D01*
X48814Y-50976D02*
X48626Y-50976D01*
X48607Y-51163D01*
X48626Y-51145D01*
X48664Y-51126D01*
X48757Y-51126D01*
X48795Y-51145D01*
X48814Y-51163D01*
X48832Y-51201D01*
X48832Y-51294D01*
X48814Y-51332D01*
X48795Y-51351D01*
X48757Y-51369D01*
X48664Y-51369D01*
X48626Y-51351D01*
X48607Y-51332D01*
X40398Y-56793D02*
X40398Y-57111D01*
X40417Y-57149D01*
X40435Y-57168D01*
X40473Y-57186D01*
X40548Y-57186D01*
X40585Y-57168D01*
X40604Y-57149D01*
X40623Y-57111D01*
X40623Y-56793D01*
X41017Y-57186D02*
X40792Y-57186D01*
X40904Y-57186D02*
X40904Y-56793D01*
X40867Y-56849D01*
X40829Y-56886D01*
X40792Y-56905D01*
X41354Y-56924D02*
X41354Y-57186D01*
X41260Y-56774D02*
X41167Y-57055D01*
X41410Y-57055D01*
X47780Y-56812D02*
X47780Y-57131D01*
X47799Y-57169D01*
X47817Y-57187D01*
X47855Y-57206D01*
X47930Y-57206D01*
X47967Y-57187D01*
X47986Y-57169D01*
X48005Y-57131D01*
X48005Y-56812D01*
X48398Y-57206D02*
X48173Y-57206D01*
X48286Y-57206D02*
X48286Y-56812D01*
X48248Y-56869D01*
X48211Y-56906D01*
X48173Y-56925D01*
X48530Y-56812D02*
X48773Y-56812D01*
X48642Y-56962D01*
X48698Y-56962D01*
X48736Y-56981D01*
X48755Y-57000D01*
X48773Y-57037D01*
X48773Y-57131D01*
X48755Y-57169D01*
X48736Y-57187D01*
X48698Y-57206D01*
X48586Y-57206D01*
X48548Y-57187D01*
X48530Y-57169D01*
X65290Y-50897D02*
X65290Y-51216D01*
X65308Y-51253D01*
X65327Y-51272D01*
X65365Y-51291D01*
X65440Y-51291D01*
X65477Y-51272D01*
X65496Y-51253D01*
X65515Y-51216D01*
X65515Y-50897D01*
X65908Y-51291D02*
X65683Y-51291D01*
X65796Y-51291D02*
X65796Y-50897D01*
X65758Y-50953D01*
X65721Y-50991D01*
X65683Y-51010D01*
X66058Y-50935D02*
X66077Y-50916D01*
X66115Y-50897D01*
X66208Y-50897D01*
X66246Y-50916D01*
X66264Y-50935D01*
X66283Y-50972D01*
X66283Y-51010D01*
X66264Y-51066D01*
X66040Y-51291D01*
X66283Y-51291D01*
X72376Y-50917D02*
X72376Y-51235D01*
X72395Y-51273D01*
X72414Y-51292D01*
X72451Y-51310D01*
X72526Y-51310D01*
X72564Y-51292D01*
X72582Y-51273D01*
X72601Y-51235D01*
X72601Y-50917D01*
X72995Y-51310D02*
X72770Y-51310D01*
X72882Y-51310D02*
X72882Y-50917D01*
X72845Y-50973D01*
X72807Y-51010D01*
X72770Y-51029D01*
X73370Y-51310D02*
X73145Y-51310D01*
X73257Y-51310D02*
X73257Y-50917D01*
X73220Y-50973D01*
X73182Y-51010D01*
X73145Y-51029D01*
X65112Y-56842D02*
X65112Y-57161D01*
X65131Y-57198D01*
X65150Y-57217D01*
X65187Y-57236D01*
X65262Y-57236D01*
X65300Y-57217D01*
X65319Y-57198D01*
X65337Y-57161D01*
X65337Y-56842D01*
X65731Y-57236D02*
X65506Y-57236D01*
X65619Y-57236D02*
X65619Y-56842D01*
X65581Y-56898D01*
X65544Y-56936D01*
X65506Y-56954D01*
X65975Y-56842D02*
X66012Y-56842D01*
X66050Y-56861D01*
X66069Y-56879D01*
X66087Y-56917D01*
X66106Y-56992D01*
X66106Y-57086D01*
X66087Y-57161D01*
X66069Y-57198D01*
X66050Y-57217D01*
X66012Y-57236D01*
X65975Y-57236D01*
X65937Y-57217D01*
X65919Y-57198D01*
X65900Y-57161D01*
X65881Y-57086D01*
X65881Y-56992D01*
X65900Y-56917D01*
X65919Y-56879D01*
X65937Y-56861D01*
X65975Y-56842D01*
X72219Y-56753D02*
X72219Y-57072D01*
X72238Y-57110D01*
X72257Y-57128D01*
X72294Y-57147D01*
X72369Y-57147D01*
X72407Y-57128D01*
X72425Y-57110D01*
X72444Y-57072D01*
X72444Y-56753D01*
X72650Y-57147D02*
X72725Y-57147D01*
X72763Y-57128D01*
X72782Y-57110D01*
X72819Y-57053D01*
X72838Y-56978D01*
X72838Y-56828D01*
X72819Y-56791D01*
X72800Y-56772D01*
X72763Y-56753D01*
X72688Y-56753D01*
X72650Y-56772D01*
X72632Y-56791D01*
X72613Y-56828D01*
X72613Y-56922D01*
X72632Y-56960D01*
X72650Y-56978D01*
X72688Y-56997D01*
X72763Y-56997D01*
X72800Y-56978D01*
X72819Y-56960D01*
X72838Y-56922D01*
X75290Y-31222D02*
X75290Y-31541D01*
X75309Y-31578D01*
X75328Y-31597D01*
X75365Y-31616D01*
X75440Y-31616D01*
X75478Y-31597D01*
X75496Y-31578D01*
X75515Y-31541D01*
X75515Y-31222D01*
X75759Y-31391D02*
X75721Y-31372D01*
X75703Y-31353D01*
X75684Y-31316D01*
X75684Y-31297D01*
X75703Y-31259D01*
X75721Y-31241D01*
X75759Y-31222D01*
X75834Y-31222D01*
X75871Y-31241D01*
X75890Y-31259D01*
X75909Y-31297D01*
X75909Y-31316D01*
X75890Y-31353D01*
X75871Y-31372D01*
X75834Y-31391D01*
X75759Y-31391D01*
X75721Y-31409D01*
X75703Y-31428D01*
X75684Y-31466D01*
X75684Y-31541D01*
X75703Y-31578D01*
X75721Y-31597D01*
X75759Y-31616D01*
X75834Y-31616D01*
X75871Y-31597D01*
X75890Y-31578D01*
X75909Y-31541D01*
X75909Y-31466D01*
X75890Y-31428D01*
X75871Y-31409D01*
X75834Y-31391D01*
X68105Y-31350D02*
X68105Y-31669D01*
X68124Y-31706D01*
X68143Y-31725D01*
X68180Y-31744D01*
X68255Y-31744D01*
X68293Y-31725D01*
X68311Y-31706D01*
X68330Y-31669D01*
X68330Y-31350D01*
X68480Y-31350D02*
X68742Y-31350D01*
X68574Y-31744D01*
X75054Y-25356D02*
X75054Y-25674D01*
X75073Y-25712D01*
X75091Y-25731D01*
X75129Y-25749D01*
X75204Y-25749D01*
X75241Y-25731D01*
X75260Y-25712D01*
X75279Y-25674D01*
X75279Y-25356D01*
X75635Y-25356D02*
X75560Y-25356D01*
X75523Y-25374D01*
X75504Y-25393D01*
X75466Y-25449D01*
X75448Y-25524D01*
X75448Y-25674D01*
X75466Y-25712D01*
X75485Y-25731D01*
X75523Y-25749D01*
X75598Y-25749D01*
X75635Y-25731D01*
X75654Y-25712D01*
X75673Y-25674D01*
X75673Y-25581D01*
X75654Y-25543D01*
X75635Y-25524D01*
X75598Y-25506D01*
X75523Y-25506D01*
X75485Y-25524D01*
X75466Y-25543D01*
X75448Y-25581D01*
X68390Y-25651D02*
X68390Y-25970D01*
X68409Y-26007D01*
X68428Y-26026D01*
X68465Y-26045D01*
X68540Y-26045D01*
X68578Y-26026D01*
X68597Y-26007D01*
X68615Y-25970D01*
X68615Y-25651D01*
X68990Y-25651D02*
X68803Y-25651D01*
X68784Y-25838D01*
X68803Y-25820D01*
X68840Y-25801D01*
X68934Y-25801D01*
X68972Y-25820D01*
X68990Y-25838D01*
X69009Y-25876D01*
X69009Y-25970D01*
X68990Y-26007D01*
X68972Y-26026D01*
X68934Y-26045D01*
X68840Y-26045D01*
X68803Y-26026D01*
X68784Y-26007D01*
X50497Y-31271D02*
X50497Y-31590D01*
X50516Y-31627D01*
X50534Y-31646D01*
X50572Y-31665D01*
X50647Y-31665D01*
X50684Y-31646D01*
X50703Y-31627D01*
X50722Y-31590D01*
X50722Y-31271D01*
X51078Y-31402D02*
X51078Y-31665D01*
X50984Y-31252D02*
X50890Y-31534D01*
X51134Y-31534D01*
X43637Y-31360D02*
X43637Y-31678D01*
X43655Y-31716D01*
X43674Y-31735D01*
X43712Y-31753D01*
X43787Y-31753D01*
X43824Y-31735D01*
X43843Y-31716D01*
X43862Y-31678D01*
X43862Y-31360D01*
X44011Y-31360D02*
X44255Y-31360D01*
X44124Y-31510D01*
X44180Y-31510D01*
X44218Y-31528D01*
X44236Y-31547D01*
X44255Y-31585D01*
X44255Y-31678D01*
X44236Y-31716D01*
X44218Y-31735D01*
X44180Y-31753D01*
X44068Y-31753D01*
X44030Y-31735D01*
X44011Y-31716D01*
X50890Y-25503D02*
X50890Y-25822D01*
X50909Y-25860D01*
X50928Y-25878D01*
X50965Y-25897D01*
X51040Y-25897D01*
X51078Y-25878D01*
X51097Y-25860D01*
X51115Y-25822D01*
X51115Y-25503D01*
X51284Y-25541D02*
X51303Y-25522D01*
X51340Y-25503D01*
X51434Y-25503D01*
X51472Y-25522D01*
X51490Y-25541D01*
X51509Y-25578D01*
X51509Y-25616D01*
X51490Y-25672D01*
X51265Y-25897D01*
X51509Y-25897D01*
X43873Y-25553D02*
X43873Y-25871D01*
X43892Y-25909D01*
X43910Y-25928D01*
X43948Y-25946D01*
X44023Y-25946D01*
X44060Y-25928D01*
X44079Y-25909D01*
X44098Y-25871D01*
X44098Y-25553D01*
X44491Y-25946D02*
X44266Y-25946D01*
X44379Y-25946D02*
X44379Y-25553D01*
X44341Y-25609D01*
X44304Y-25646D01*
X44266Y-25665D01*
G54D11*
X55359Y-57188D02*
X55359Y-56499D01*
X55752Y-57188D02*
X55457Y-56795D01*
X55752Y-56499D02*
X55359Y-56893D01*
X56146Y-57188D02*
X56080Y-57156D01*
X56048Y-57090D01*
X56048Y-56499D01*
X56507Y-57188D02*
X56441Y-57156D01*
X56408Y-57123D01*
X56376Y-57057D01*
X56376Y-56860D01*
X56408Y-56795D01*
X56441Y-56762D01*
X56507Y-56729D01*
X56605Y-56729D01*
X56671Y-56762D01*
X56704Y-56795D01*
X56736Y-56860D01*
X56736Y-57057D01*
X56704Y-57123D01*
X56671Y-57156D01*
X56605Y-57188D01*
X56507Y-57188D01*
X57032Y-56729D02*
X57032Y-57188D01*
X57032Y-56795D02*
X57065Y-56762D01*
X57130Y-56729D01*
X57229Y-56729D01*
X57294Y-56762D01*
X57327Y-56827D01*
X57327Y-57188D01*
X57950Y-57188D02*
X57950Y-56499D01*
X57950Y-57156D02*
X57885Y-57188D01*
X57754Y-57188D01*
X57688Y-57156D01*
X57655Y-57123D01*
X57622Y-57057D01*
X57622Y-56860D01*
X57655Y-56795D01*
X57688Y-56762D01*
X57754Y-56729D01*
X57885Y-56729D01*
X57950Y-56762D01*
X58278Y-57188D02*
X58278Y-56729D01*
X58278Y-56499D02*
X58246Y-56532D01*
X58278Y-56565D01*
X58311Y-56532D01*
X58278Y-56499D01*
X58278Y-56565D01*
X58607Y-57188D02*
X58607Y-56499D01*
X58672Y-56926D02*
X58869Y-57188D01*
X58869Y-56729D02*
X58607Y-56992D01*
X59427Y-57156D02*
X59361Y-57188D01*
X59230Y-57188D01*
X59164Y-57156D01*
X59132Y-57090D01*
X59132Y-56827D01*
X59164Y-56762D01*
X59230Y-56729D01*
X59361Y-56729D01*
X59427Y-56762D01*
X59460Y-56827D01*
X59460Y-56893D01*
X59132Y-56959D01*
X60641Y-57188D02*
X60247Y-57188D01*
X60444Y-57188D02*
X60444Y-56499D01*
X60378Y-56598D01*
X60313Y-56663D01*
X60247Y-56696D01*
X61231Y-56499D02*
X61100Y-56499D01*
X61034Y-56532D01*
X61002Y-56565D01*
X60936Y-56663D01*
X60903Y-56795D01*
X60903Y-57057D01*
X60936Y-57123D01*
X60969Y-57156D01*
X61034Y-57188D01*
X61166Y-57188D01*
X61231Y-57156D01*
X61264Y-57123D01*
X61297Y-57057D01*
X61297Y-56893D01*
X61264Y-56827D01*
X61231Y-56795D01*
X61166Y-56762D01*
X61034Y-56762D01*
X60969Y-56795D01*
X60936Y-56827D01*
X60903Y-56893D01*
G54D10*
X38779Y-61023D02*
X78149Y-61023D01*
X78149Y-61023D02*
X78149Y-21653D01*
X78149Y-21653D02*
X38779Y-21653D01*
X38779Y-21653D02*
X38779Y-61023D01*
G54D13*
X58512Y-48617D02*
X58512Y-46255D01*
X58512Y-46255D02*
X56544Y-46255D01*
X56544Y-46255D02*
X56544Y-48617D01*
X56544Y-48617D02*
X58512Y-48617D01*
G54D14*
G36*
X61233Y-39949D02*
X61241Y-39955D01*
X61258Y-39970D01*
X61283Y-39993D01*
X61314Y-40022D01*
X61350Y-40057D01*
X61389Y-40095D01*
X61397Y-40103D01*
X61189Y-40103D01*
X61088Y-40206D01*
X61045Y-40250D01*
X61013Y-40286D01*
X60989Y-40315D01*
X60973Y-40341D01*
X60963Y-40366D01*
X60958Y-40391D01*
X60956Y-40419D01*
X60955Y-40430D01*
X60962Y-40486D01*
X60983Y-40537D01*
X61016Y-40579D01*
X61062Y-40612D01*
X61075Y-40619D01*
X61114Y-40631D01*
X61160Y-40634D01*
X61206Y-40631D01*
X61246Y-40619D01*
X61260Y-40610D01*
X61282Y-40593D01*
X61309Y-40570D01*
X61340Y-40542D01*
X61372Y-40512D01*
X61404Y-40483D01*
X61432Y-40454D01*
X61455Y-40430D01*
X61472Y-40412D01*
X61478Y-40401D01*
X61478Y-40400D01*
X61473Y-40393D01*
X61458Y-40376D01*
X61436Y-40351D01*
X61406Y-40321D01*
X61371Y-40285D01*
X61334Y-40247D01*
X61189Y-40103D01*
X61397Y-40103D01*
X61430Y-40136D01*
X61471Y-40177D01*
X61510Y-40217D01*
X61547Y-40255D01*
X61580Y-40290D01*
X61607Y-40318D01*
X61627Y-40340D01*
X61638Y-40354D01*
X61640Y-40357D01*
X61635Y-40366D01*
X61620Y-40383D01*
X61597Y-40408D01*
X61567Y-40440D01*
X61532Y-40476D01*
X61493Y-40516D01*
X61488Y-40520D01*
X61442Y-40567D01*
X61404Y-40603D01*
X61374Y-40631D01*
X61350Y-40653D01*
X61330Y-40669D01*
X61312Y-40681D01*
X61295Y-40691D01*
X61282Y-40697D01*
X61254Y-40710D01*
X61231Y-40718D01*
X61208Y-40721D01*
X61178Y-40722D01*
X61159Y-40722D01*
X61118Y-40721D01*
X61088Y-40717D01*
X61063Y-40709D01*
X61055Y-40706D01*
X61021Y-40690D01*
X60911Y-40799D01*
X60801Y-40907D01*
X60742Y-40848D01*
X60682Y-40788D01*
X60791Y-40679D01*
X60828Y-40641D01*
X60856Y-40613D01*
X60875Y-40593D01*
X60887Y-40578D01*
X60893Y-40568D01*
X60894Y-40560D01*
X60892Y-40553D01*
X60890Y-40550D01*
X60871Y-40497D01*
X60865Y-40439D01*
X60870Y-40378D01*
X60889Y-40318D01*
X60897Y-40300D01*
X60907Y-40282D01*
X60918Y-40264D01*
X60932Y-40245D01*
X60951Y-40223D01*
X60976Y-40196D01*
X61008Y-40162D01*
X61049Y-40121D01*
X61073Y-40098D01*
X61112Y-40059D01*
X61149Y-40024D01*
X61180Y-39994D01*
X61206Y-39971D01*
X61224Y-39955D01*
X61232Y-39949D01*
X61233Y-39949D01*
X61233Y-39949D01*
X61233Y-39949D01*
G37*
G36*
X60818Y-42204D02*
X60825Y-42209D01*
X60841Y-42224D01*
X60866Y-42247D01*
X60897Y-42277D01*
X60935Y-42313D01*
X60977Y-42354D01*
X61011Y-42387D01*
X61062Y-42437D01*
X61117Y-42491D01*
X61173Y-42545D01*
X61226Y-42597D01*
X61274Y-42643D01*
X61314Y-42683D01*
X61323Y-42691D01*
X61364Y-42732D01*
X61396Y-42764D01*
X61419Y-42788D01*
X61434Y-42806D01*
X61443Y-42820D01*
X61447Y-42830D01*
X61448Y-42834D01*
X61445Y-42846D01*
X61437Y-42861D01*
X61421Y-42880D01*
X61395Y-42907D01*
X61379Y-42922D01*
X61352Y-42948D01*
X61327Y-42969D01*
X61308Y-42984D01*
X61297Y-42989D01*
X61296Y-42989D01*
X61286Y-42984D01*
X61267Y-42968D01*
X61239Y-42943D01*
X61205Y-42911D01*
X61166Y-42872D01*
X61132Y-42837D01*
X61089Y-42794D01*
X61041Y-42744D01*
X60988Y-42691D01*
X60935Y-42636D01*
X60882Y-42582D01*
X60856Y-42556D01*
X60660Y-42357D01*
X60736Y-42281D01*
X60764Y-42253D01*
X60788Y-42230D01*
X60806Y-42213D01*
X60817Y-42205D01*
X60818Y-42204D01*
X60818Y-42204D01*
X60818Y-42204D01*
G37*
G36*
X60115Y-40642D02*
X60132Y-40736D01*
X60141Y-40787D01*
X60148Y-40824D01*
X60154Y-40851D01*
X60160Y-40869D01*
X60168Y-40881D01*
X60178Y-40888D01*
X60191Y-40892D01*
X60209Y-40897D01*
X60214Y-40898D01*
X60245Y-40908D01*
X60283Y-40922D01*
X60322Y-40939D01*
X60340Y-40947D01*
X60414Y-40982D01*
X60511Y-40916D01*
X60545Y-40893D01*
X60574Y-40874D01*
X60597Y-40859D01*
X60611Y-40851D01*
X60614Y-40850D01*
X60622Y-40855D01*
X60638Y-40869D01*
X60660Y-40890D01*
X60681Y-40911D01*
X60742Y-40971D01*
X60672Y-41073D01*
X60602Y-41174D01*
X60625Y-41210D01*
X60636Y-41230D01*
X60642Y-41245D01*
X60642Y-41250D01*
X60633Y-41255D01*
X60613Y-41264D01*
X60582Y-41277D01*
X60543Y-41294D01*
X60498Y-41312D01*
X60473Y-41323D01*
X60310Y-41391D01*
X60266Y-41343D01*
X60212Y-41296D01*
X60153Y-41262D01*
X60089Y-41241D01*
X60023Y-41235D01*
X59957Y-41243D01*
X59892Y-41264D01*
X59847Y-41289D01*
X59795Y-41331D01*
X59754Y-41383D01*
X59724Y-41441D01*
X59707Y-41503D01*
X59702Y-41568D01*
X59709Y-41633D01*
X59730Y-41696D01*
X59765Y-41755D01*
X59765Y-41756D01*
X59810Y-41804D01*
X59863Y-41842D01*
X59923Y-41869D01*
X59987Y-41884D01*
X60052Y-41886D01*
X60099Y-41878D01*
X60149Y-41863D01*
X60190Y-41842D01*
X60229Y-41814D01*
X60261Y-41784D01*
X60282Y-41762D01*
X60300Y-41745D01*
X60311Y-41736D01*
X60312Y-41735D01*
X60321Y-41738D01*
X60341Y-41746D01*
X60371Y-41757D01*
X60407Y-41772D01*
X60447Y-41789D01*
X60490Y-41806D01*
X60531Y-41824D01*
X60569Y-41840D01*
X60602Y-41854D01*
X60626Y-41864D01*
X60639Y-41870D01*
X60641Y-41872D01*
X60640Y-41881D01*
X60633Y-41898D01*
X60625Y-41913D01*
X60602Y-41949D01*
X60671Y-42048D01*
X60739Y-42148D01*
X60675Y-42211D01*
X60611Y-42275D01*
X60514Y-42209D01*
X60480Y-42186D01*
X60450Y-42166D01*
X60427Y-42152D01*
X60413Y-42144D01*
X60410Y-42143D01*
X60399Y-42146D01*
X60379Y-42156D01*
X60360Y-42166D01*
X60335Y-42178D01*
X60301Y-42192D01*
X60263Y-42207D01*
X60239Y-42215D01*
X60204Y-42226D01*
X60181Y-42235D01*
X60167Y-42243D01*
X60159Y-42250D01*
X60156Y-42260D01*
X60154Y-42267D01*
X60151Y-42285D01*
X60145Y-42313D01*
X60139Y-42349D01*
X60132Y-42387D01*
X60115Y-42481D01*
X60025Y-42481D01*
X59934Y-42481D01*
X59912Y-42362D01*
X59905Y-42321D01*
X59898Y-42285D01*
X59892Y-42258D01*
X59887Y-42241D01*
X59886Y-42237D01*
X59877Y-42232D01*
X59857Y-42224D01*
X59830Y-42214D01*
X59816Y-42210D01*
X59778Y-42196D01*
X59738Y-42179D01*
X59705Y-42162D01*
X59701Y-42160D01*
X59651Y-42130D01*
X59544Y-42203D01*
X59438Y-42276D01*
X59374Y-42212D01*
X59310Y-42148D01*
X59383Y-42041D01*
X59456Y-41934D01*
X59430Y-41883D01*
X59398Y-41815D01*
X59375Y-41750D01*
X59370Y-41730D01*
X59362Y-41699D01*
X59268Y-41682D01*
X59228Y-41674D01*
X59189Y-41667D01*
X59157Y-41661D01*
X59137Y-41656D01*
X59100Y-41649D01*
X59102Y-41560D01*
X59105Y-41470D01*
X59231Y-41447D01*
X59357Y-41423D01*
X59381Y-41354D01*
X59395Y-41316D01*
X59412Y-41277D01*
X59427Y-41244D01*
X59431Y-41237D01*
X59445Y-41208D01*
X59451Y-41188D01*
X59450Y-41179D01*
X59444Y-41170D01*
X59430Y-41150D01*
X59412Y-41122D01*
X59389Y-41089D01*
X59377Y-41072D01*
X59310Y-40975D01*
X59374Y-40911D01*
X59439Y-40847D01*
X59543Y-40918D01*
X59648Y-40990D01*
X59715Y-40955D01*
X59750Y-40938D01*
X59787Y-40922D01*
X59819Y-40910D01*
X59828Y-40907D01*
X59854Y-40899D01*
X59874Y-40890D01*
X59883Y-40885D01*
X59887Y-40875D01*
X59893Y-40852D01*
X59901Y-40821D01*
X59909Y-40782D01*
X59913Y-40759D01*
X59934Y-40642D01*
X60025Y-40642D01*
X60115Y-40642D01*
X60115Y-40642D01*
X60115Y-40642D01*
G37*
G36*
X60181Y-39636D02*
X60194Y-39639D01*
X60195Y-39640D01*
X60193Y-39641D01*
X60181Y-39645D01*
X60158Y-39655D01*
X60126Y-39670D01*
X60087Y-39689D01*
X60043Y-39710D01*
X59996Y-39733D01*
X59949Y-39757D01*
X59905Y-39780D01*
X59865Y-39802D01*
X59831Y-39820D01*
X59819Y-39827D01*
X59685Y-39909D01*
X59548Y-40001D01*
X59410Y-40101D01*
X59277Y-40205D01*
X59151Y-40311D01*
X59109Y-40349D01*
X59059Y-40394D01*
X59082Y-40421D01*
X59093Y-40433D01*
X59113Y-40456D01*
X59141Y-40485D01*
X59174Y-40521D01*
X59210Y-40561D01*
X59250Y-40604D01*
X59395Y-40759D01*
X59308Y-40847D01*
X59220Y-40934D01*
X59197Y-40913D01*
X59183Y-40900D01*
X59161Y-40880D01*
X59132Y-40854D01*
X59100Y-40824D01*
X59078Y-40804D01*
X59039Y-40769D01*
X58999Y-40732D01*
X58961Y-40696D01*
X58929Y-40665D01*
X58919Y-40655D01*
X58857Y-40595D01*
X58771Y-40692D01*
X58627Y-40863D01*
X58497Y-41034D01*
X58380Y-41206D01*
X58273Y-41382D01*
X58256Y-41412D01*
X58237Y-41446D01*
X58222Y-41469D01*
X58210Y-41484D01*
X58198Y-41494D01*
X58184Y-41501D01*
X58175Y-41505D01*
X58155Y-41512D01*
X58141Y-41514D01*
X58139Y-41512D01*
X58141Y-41496D01*
X58147Y-41469D01*
X58155Y-41436D01*
X58165Y-41401D01*
X58176Y-41367D01*
X58182Y-41348D01*
X58253Y-41172D01*
X58339Y-41000D01*
X58439Y-40833D01*
X58552Y-40672D01*
X58668Y-40528D01*
X58717Y-40472D01*
X58700Y-40453D01*
X58683Y-40435D01*
X58699Y-40414D01*
X58713Y-40396D01*
X58735Y-40373D01*
X58761Y-40346D01*
X58790Y-40318D01*
X58819Y-40290D01*
X58846Y-40266D01*
X58868Y-40248D01*
X58884Y-40236D01*
X58889Y-40234D01*
X58906Y-40239D01*
X58917Y-40246D01*
X58923Y-40251D01*
X58931Y-40251D01*
X58942Y-40246D01*
X58959Y-40233D01*
X58984Y-40212D01*
X58994Y-40203D01*
X59129Y-40095D01*
X59269Y-39995D01*
X59415Y-39905D01*
X59564Y-39826D01*
X59714Y-39759D01*
X59864Y-39705D01*
X60012Y-39663D01*
X60059Y-39653D01*
X60098Y-39646D01*
X60134Y-39640D01*
X60163Y-39637D01*
X60180Y-39636D01*
X60181Y-39636D01*
X60181Y-39636D01*
X60181Y-39636D01*
G37*
G36*
X58947Y-42030D02*
X58957Y-42031D01*
X58969Y-42038D01*
X58984Y-42054D01*
X59003Y-42081D01*
X59018Y-42104D01*
X59042Y-42138D01*
X59069Y-42174D01*
X59097Y-42210D01*
X59123Y-42243D01*
X59145Y-42268D01*
X59160Y-42283D01*
X59168Y-42289D01*
X59176Y-42290D01*
X59187Y-42283D01*
X59203Y-42267D01*
X59212Y-42258D01*
X59250Y-42220D01*
X59310Y-42279D01*
X59370Y-42338D01*
X59331Y-42378D01*
X59292Y-42417D01*
X59335Y-42457D01*
X59361Y-42479D01*
X59394Y-42506D01*
X59429Y-42533D01*
X59441Y-42543D01*
X59482Y-42572D01*
X59511Y-42594D01*
X59531Y-42611D01*
X59544Y-42622D01*
X59551Y-42631D01*
X59554Y-42639D01*
X59555Y-42645D01*
X59550Y-42655D01*
X59537Y-42672D01*
X59514Y-42698D01*
X59481Y-42733D01*
X59438Y-42778D01*
X59384Y-42832D01*
X59380Y-42836D01*
X59334Y-42880D01*
X59290Y-42923D01*
X59249Y-42962D01*
X59212Y-42996D01*
X59182Y-43023D01*
X59160Y-43042D01*
X59155Y-43046D01*
X59061Y-43108D01*
X58968Y-43155D01*
X58872Y-43190D01*
X58772Y-43211D01*
X58738Y-43216D01*
X58680Y-43217D01*
X58618Y-43207D01*
X58557Y-43188D01*
X58503Y-43162D01*
X58467Y-43136D01*
X58441Y-43105D01*
X58416Y-43064D01*
X58395Y-43015D01*
X58381Y-42964D01*
X58376Y-42941D01*
X58373Y-42872D01*
X58381Y-42796D01*
X58400Y-42714D01*
X58430Y-42629D01*
X58442Y-42601D01*
X58462Y-42560D01*
X58485Y-42519D01*
X58513Y-42478D01*
X58547Y-42433D01*
X58588Y-42384D01*
X58638Y-42329D01*
X58697Y-42267D01*
X58740Y-42223D01*
X58784Y-42179D01*
X58824Y-42139D01*
X58861Y-42103D01*
X58891Y-42074D01*
X58915Y-42052D01*
X58930Y-42038D01*
X58935Y-42035D01*
X58947Y-42030D01*
X58947Y-42030D01*
X58947Y-42030D01*
G37*
G54D15*
X47159Y-30511D02*
G75*
G03X47159Y-30511I-1096J0D01*
G74*
G01*
G54D10*
X68425Y-41850D02*
X69409Y-41850D01*
X69409Y-41850D02*
X69409Y-41062D01*
X69409Y-41062D02*
X68425Y-41062D01*
X68425Y-41062D02*
X68425Y-41850D01*
G54D13*
X74488Y-42853D02*
X78109Y-42853D01*
X78109Y-42853D02*
X78109Y-39823D01*
X78109Y-39823D02*
X74488Y-39823D01*
X74488Y-39823D02*
X74488Y-42853D01*
X68798Y-40253D02*
X68538Y-40513D01*
X68798Y-40313D02*
X68603Y-40513D01*
X68288Y-39823D02*
X68181Y-39823D01*
X68288Y-40333D02*
X68181Y-40333D01*
X68798Y-40078D02*
X68905Y-40078D01*
X68798Y-39823D02*
X68905Y-39823D01*
X68798Y-40333D02*
X68905Y-40333D01*
X68288Y-40078D02*
X68181Y-40078D01*
X68288Y-40513D02*
X68288Y-39643D01*
X68288Y-39643D02*
X68798Y-39643D01*
X68798Y-39643D02*
X68798Y-40513D01*
X68798Y-40513D02*
X68288Y-40513D01*
X73476Y-38043D02*
X73476Y-39043D01*
X73476Y-39043D02*
X68472Y-39043D01*
X68472Y-39033D02*
X68472Y-38033D01*
X68472Y-38043D02*
X73476Y-38043D01*
G54D10*
X75265Y-46525D02*
X77135Y-46525D01*
X77135Y-46525D02*
X77125Y-46712D01*
X77125Y-46712D02*
X75255Y-46712D01*
X75255Y-46712D02*
X75255Y-46535D01*
X75255Y-45521D02*
X77135Y-45521D01*
X77125Y-45521D02*
X77125Y-45708D01*
X77125Y-45708D02*
X75255Y-45708D01*
X75255Y-45708D02*
X75255Y-45521D01*
X75236Y-44704D02*
X75236Y-44527D01*
X75236Y-44527D02*
X75246Y-44537D01*
X75236Y-44527D02*
X77135Y-44527D01*
X77135Y-44527D02*
X77135Y-44694D01*
X77135Y-44694D02*
X75236Y-44694D01*
X77125Y-44114D02*
X77125Y-47106D01*
X77125Y-47106D02*
X78110Y-47106D01*
X78110Y-47106D02*
X78110Y-44114D01*
X78110Y-44114D02*
X77125Y-44114D01*
G54D16*
X70553Y-32616D02*
X70553Y-32416D01*
X70553Y-32416D02*
X70253Y-32416D01*
X70253Y-32416D02*
X70253Y-32616D01*
X70553Y-32816D02*
X70553Y-33016D01*
X70553Y-33016D02*
X70253Y-33016D01*
X70253Y-33016D02*
X70253Y-32816D01*
G54D10*
X68094Y-23657D02*
X68094Y-21657D01*
X68094Y-21657D02*
X70094Y-21657D01*
X70094Y-21657D02*
X70094Y-23657D01*
X70094Y-23657D02*
X68094Y-23657D01*
X76145Y-29708D02*
X78145Y-29708D01*
X78145Y-29708D02*
X78145Y-31708D01*
X78145Y-31708D02*
X76145Y-31708D01*
X76145Y-31708D02*
X76145Y-29708D01*
X76145Y-50968D02*
X78145Y-50968D01*
X78145Y-50968D02*
X78145Y-52968D01*
X78145Y-52968D02*
X76145Y-52968D01*
X76145Y-52968D02*
X76145Y-50968D01*
X70094Y-59019D02*
X70094Y-61019D01*
X70094Y-61019D02*
X68094Y-61019D01*
X68094Y-61019D02*
X68094Y-59019D01*
X68094Y-59019D02*
X70094Y-59019D01*
G54D13*
X41142Y-28936D02*
X43896Y-28936D01*
X43896Y-28936D02*
X43896Y-26182D01*
X43896Y-26182D02*
X41142Y-26182D01*
X41142Y-26182D02*
X41142Y-28936D01*
X43699Y-26477D02*
G75*
G03X43699Y-26477I-98J0D01*
G74*
G01*
X41142Y-34841D02*
X43896Y-34841D01*
X43896Y-34841D02*
X43896Y-32087D01*
X43896Y-32087D02*
X41142Y-32087D01*
X41142Y-32087D02*
X41142Y-34841D01*
X43699Y-32382D02*
G75*
G03X43699Y-32382I-98J0D01*
G74*
G01*
X48229Y-34841D02*
X50983Y-34841D01*
X50983Y-34841D02*
X50983Y-32087D01*
X50983Y-32087D02*
X48229Y-32087D01*
X48229Y-32087D02*
X48229Y-34841D01*
X50786Y-32382D02*
G75*
G03X50786Y-32382I-98J0D01*
G74*
G01*
X48229Y-28936D02*
X50983Y-28936D01*
X50983Y-28936D02*
X50983Y-26182D01*
X50983Y-26182D02*
X48229Y-26182D01*
X48229Y-26182D02*
X48229Y-28936D01*
X50786Y-26477D02*
G75*
G03X50786Y-26477I-98J0D01*
G74*
G01*
X43896Y-47835D02*
X41142Y-47835D01*
X41142Y-47835D02*
X41142Y-50589D01*
X41142Y-50589D02*
X43896Y-50589D01*
X43896Y-50589D02*
X43896Y-47835D01*
X41535Y-50294D02*
G75*
G03X41535Y-50294I-98J0D01*
G74*
G01*
X43896Y-53741D02*
X41142Y-53741D01*
X41142Y-53741D02*
X41142Y-56495D01*
X41142Y-56495D02*
X43896Y-56495D01*
X43896Y-56495D02*
X43896Y-53741D01*
X41535Y-56200D02*
G75*
G03X41535Y-56200I-98J0D01*
G74*
G01*
X50983Y-53741D02*
X48229Y-53741D01*
X48229Y-53741D02*
X48229Y-56495D01*
X48229Y-56495D02*
X50983Y-56495D01*
X50983Y-56495D02*
X50983Y-53741D01*
X48622Y-56200D02*
G75*
G03X48622Y-56200I-98J0D01*
G74*
G01*
X50983Y-47835D02*
X48229Y-47835D01*
X48229Y-47835D02*
X48229Y-50589D01*
X48229Y-50589D02*
X50983Y-50589D01*
X50983Y-50589D02*
X50983Y-47835D01*
X48622Y-50294D02*
G75*
G03X48622Y-50294I-98J0D01*
G74*
G01*
X68306Y-47835D02*
X65552Y-47835D01*
X65552Y-47835D02*
X65552Y-50589D01*
X65552Y-50589D02*
X68306Y-50589D01*
X68306Y-50589D02*
X68306Y-47835D01*
X65945Y-50294D02*
G75*
G03X65945Y-50294I-98J0D01*
G74*
G01*
X68306Y-53741D02*
X65552Y-53741D01*
X65552Y-53741D02*
X65552Y-56495D01*
X65552Y-56495D02*
X68306Y-56495D01*
X68306Y-56495D02*
X68306Y-53741D01*
X65945Y-56200D02*
G75*
G03X65945Y-56200I-98J0D01*
G74*
G01*
X75392Y-53741D02*
X72638Y-53741D01*
X72638Y-53741D02*
X72638Y-56495D01*
X72638Y-56495D02*
X75392Y-56495D01*
X75392Y-56495D02*
X75392Y-53741D01*
X73031Y-56200D02*
G75*
G03X73031Y-56200I-98J0D01*
G74*
G01*
X75392Y-47835D02*
X72638Y-47835D01*
X72638Y-47835D02*
X72638Y-50589D01*
X72638Y-50589D02*
X75392Y-50589D01*
X75392Y-50589D02*
X75392Y-47835D01*
X73031Y-50294D02*
G75*
G03X73031Y-50294I-98J0D01*
G74*
G01*
X72638Y-34841D02*
X75392Y-34841D01*
X75392Y-34841D02*
X75392Y-32087D01*
X75392Y-32087D02*
X72638Y-32087D01*
X72638Y-32087D02*
X72638Y-34841D01*
X75195Y-32382D02*
G75*
G03X75195Y-32382I-98J0D01*
G74*
G01*
X72638Y-28936D02*
X75392Y-28936D01*
X75392Y-28936D02*
X75392Y-26182D01*
X75392Y-26182D02*
X72638Y-26182D01*
X72638Y-26182D02*
X72638Y-28936D01*
X75195Y-26477D02*
G75*
G03X75195Y-26477I-98J0D01*
G74*
G01*
X65552Y-28936D02*
X68306Y-28936D01*
X68306Y-28936D02*
X68306Y-26182D01*
X68306Y-26182D02*
X65552Y-26182D01*
X65552Y-26182D02*
X65552Y-28936D01*
X68109Y-26477D02*
G75*
G03X68109Y-26477I-98J0D01*
G74*
G01*
X65552Y-34841D02*
X68306Y-34841D01*
X68306Y-34841D02*
X68306Y-32087D01*
X68306Y-32087D02*
X65552Y-32087D01*
X65552Y-32087D02*
X65552Y-34841D01*
X68109Y-32382D02*
G75*
G03X68109Y-32382I-98J0D01*
G74*
G01*
X65509Y-40995D02*
X64329Y-40995D01*
X64329Y-40995D02*
X64329Y-42175D01*
X64329Y-42175D02*
X65509Y-42175D01*
X65509Y-42175D02*
X65509Y-40995D01*
G54D10*
X40783Y-52968D02*
X38783Y-52968D01*
X38783Y-52968D02*
X38783Y-50968D01*
X38783Y-50968D02*
X40783Y-50968D01*
X40783Y-50968D02*
X40783Y-52968D01*
G54D15*
X41844Y-23622D02*
G75*
G03X41844Y-23622I-1096J0D01*
G74*
G01*
X41844Y-59055D02*
G75*
G03X41844Y-59055I-1096J0D01*
G74*
G01*
X47159Y-52165D02*
G75*
G03X47159Y-52165I-1096J0D01*
G74*
G01*
X71569Y-52165D02*
G75*
G03X71569Y-52165I-1096J0D01*
G74*
G01*
X77277Y-59055D02*
G75*
G03X77277Y-59055I-1096J0D01*
G74*
G01*
X77277Y-23622D02*
G75*
G03X77277Y-23622I-1096J0D01*
G74*
G01*
X71569Y-30511D02*
G75*
G03X71569Y-30511I-1096J0D01*
G74*
G01*
G54D13*
X71025Y-44438D02*
X70765Y-44178D01*
X70965Y-44438D02*
X70765Y-44243D01*
X71455Y-43928D02*
X71455Y-43820D01*
X70945Y-43928D02*
X70945Y-43820D01*
X71200Y-44438D02*
X71200Y-44545D01*
X71455Y-44438D02*
X71455Y-44545D01*
X70945Y-44438D02*
X70945Y-44545D01*
X71200Y-43928D02*
X71200Y-43820D01*
X70765Y-43928D02*
X71635Y-43928D01*
X71635Y-43928D02*
X71635Y-44438D01*
X71635Y-44438D02*
X70765Y-44438D01*
X70765Y-44438D02*
X70765Y-43928D01*
G54D17*
X46849Y-38937D02*
X46849Y-44291D01*
X46849Y-44291D02*
X44212Y-44291D01*
X43779Y-44291D02*
X43149Y-44291D01*
X43149Y-44291D02*
X43149Y-38937D01*
X43149Y-38937D02*
X46849Y-38937D01*
X43780Y-44291D02*
G75*
G02X44212Y-44291I216J0D01*
G74*
G01*
G54D18*
X69370Y-43690D02*
X68582Y-43690D01*
X68582Y-43690D02*
X68582Y-44596D01*
X68582Y-44596D02*
X69370Y-44596D01*
X69370Y-44596D02*
X69370Y-43690D01*
G54D19*
X73166Y-44674D02*
X73166Y-43534D01*
X73166Y-43534D02*
X73466Y-43534D01*
X73466Y-43534D02*
X73466Y-44674D01*
X73466Y-44674D02*
X73166Y-44674D01*
G54D13*
X74990Y-45423D02*
X74202Y-45423D01*
X74990Y-45620D02*
X74990Y-44438D01*
X74990Y-44438D02*
X74202Y-44438D01*
X74202Y-44438D02*
X74202Y-45620D01*
X74202Y-45620D02*
X74990Y-45620D01*
G54D20*
X48823Y-39559D02*
X52207Y-39559D01*
X52522Y-43573D02*
X48508Y-43573D01*
X51480Y-39874D02*
G75*
G02X50180Y-43485I-965J-1691D01*
G74*
G01*
X50171Y-43573D02*
X48508Y-43573D01*
X48508Y-43573D02*
X48508Y-39874D01*
X48508Y-39874D02*
X48823Y-39559D01*
X52207Y-39559D02*
X52522Y-39874D01*
X52522Y-39874D02*
X52522Y-43573D01*
X52522Y-43573D02*
X50849Y-43573D01*
X49550Y-43258D02*
G75*
G02X50850Y-39648I965J1691D01*
G74*
G01*
X51627Y-43160D02*
X49413Y-43160D01*
X52463Y-41566D02*
G75*
G03X52463Y-41566I-1948J0D01*
G74*
G01*
X53044Y-39559D02*
X56428Y-39559D01*
X56743Y-43573D02*
X52729Y-43573D01*
X55701Y-39874D02*
G75*
G02X54401Y-43485I-965J-1691D01*
G74*
G01*
X54392Y-43573D02*
X52729Y-43573D01*
X52729Y-43573D02*
X52729Y-39874D01*
X52729Y-39874D02*
X53044Y-39559D01*
X56428Y-39559D02*
X56743Y-39874D01*
X56743Y-39874D02*
X56743Y-43573D01*
X56743Y-43573D02*
X55070Y-43573D01*
X53771Y-43258D02*
G75*
G02X55071Y-39648I965J1691D01*
G74*
G01*
X55848Y-43160D02*
X53634Y-43160D01*
X56684Y-41566D02*
G75*
G03X56684Y-41566I-1948J0D01*
G74*
G01*
G54D10*
X40777Y-40541D02*
X42352Y-40541D01*
X42352Y-40541D02*
X42352Y-42706D01*
X42352Y-42706D02*
X40777Y-42706D01*
X38809Y-42706D02*
X38809Y-40541D01*
X38809Y-40541D02*
X40777Y-40541D01*
X40777Y-40541D02*
X40777Y-42706D01*
X40777Y-42706D02*
X38809Y-42706D01*
G54D12*
X61302Y-28129D02*
X61302Y-32899D01*
X61302Y-32899D02*
X56817Y-32899D01*
X56817Y-32899D02*
X56817Y-28129D01*
X56817Y-28129D02*
X61302Y-28129D01*
G54D13*
X58686Y-34129D02*
X58686Y-36491D01*
X58686Y-36491D02*
X60654Y-36491D01*
X60654Y-36491D02*
X60654Y-34129D01*
X60654Y-34129D02*
X58686Y-34129D01*
G54D12*
X55848Y-54601D02*
X55848Y-49831D01*
X55848Y-49831D02*
X60333Y-49831D01*
X60333Y-49831D02*
X60333Y-54601D01*
X60333Y-54601D02*
X55848Y-54601D01*
G54D21*
X57276Y-22239D02*
X57084Y-22239D01*
X57277Y-22234D02*
X57277Y-22041D01*
X57698Y-22234D02*
X58722Y-22234D01*
X58722Y-24046D02*
X57698Y-24046D01*
X59154Y-60451D02*
X59346Y-60451D01*
X59153Y-60456D02*
X59153Y-60649D01*
X58732Y-60456D02*
X57708Y-60456D01*
X57708Y-58644D02*
X58732Y-58644D01*
G54D22*
X71473Y-42044D02*
X71572Y-42143D01*
X73048Y-42143D02*
X71572Y-42143D01*
X73048Y-40568D02*
X73048Y-42143D01*
X71473Y-40568D02*
X73048Y-40568D01*
X71473Y-42044D02*
X71473Y-40568D01*
%LPC*%
G54D23*
X61851Y-28202D03*
X61851Y-27100D03*
X62776Y-28202D03*
X62776Y-27100D03*
X56279Y-28208D03*
X56279Y-27106D03*
X55413Y-28208D03*
X55413Y-27106D03*
X54546Y-29965D03*
X54546Y-31067D03*
X53680Y-29965D03*
X53680Y-31067D03*
X63525Y-52610D03*
X63525Y-51508D03*
X62642Y-52607D03*
X62642Y-51505D03*
X55293Y-54522D03*
X55293Y-55624D03*
X54416Y-54521D03*
X54416Y-55623D03*
X60882Y-54515D03*
X60882Y-55617D03*
X61764Y-54517D03*
X61764Y-55619D03*
G54D24*
X59962Y-43996D03*
X59333Y-43996D03*
G54D25*
X54225Y-45260D03*
X54225Y-44631D03*
X59998Y-46531D03*
X59998Y-47160D03*
X55018Y-44641D03*
X55018Y-45270D03*
G54D24*
X54932Y-47236D03*
X54303Y-47236D03*
G54D25*
X54878Y-45921D03*
X54878Y-46550D03*
G54D26*
X58315Y-46274D03*
X58118Y-46274D03*
X57921Y-46274D03*
X57724Y-46274D03*
X57528Y-46274D03*
X57331Y-46274D03*
X57134Y-46274D03*
G54D27*
X56563Y-46560D03*
X56563Y-46756D03*
X56563Y-46953D03*
X58492Y-46560D03*
X58492Y-46756D03*
X58492Y-46953D03*
G54D28*
X56822Y-48000D03*
G54D29*
X57515Y-46804D03*
G54D30*
X58197Y-47954D03*
G54D31*
X58528Y-48399D03*
G54D32*
X56937Y-46274D03*
X56740Y-46274D03*
G54D33*
X57613Y-47602D03*
G54D27*
X58492Y-47150D03*
X56563Y-47151D03*
G54D34*
X57634Y-47146D03*
G54D35*
X58073Y-47231D03*
G54D27*
X56563Y-47341D03*
X56563Y-47636D03*
X56563Y-47831D03*
X56563Y-48026D03*
X56563Y-48221D03*
X56563Y-48421D03*
G54D36*
X56823Y-48591D03*
G54D37*
X57393Y-48141D03*
G54D38*
X57148Y-48561D03*
X57638Y-48561D03*
G54D39*
X57202Y-47603D03*
G54D35*
X57205Y-47238D03*
G54D40*
X56877Y-47414D03*
G54D31*
X58527Y-47954D03*
X58527Y-47510D03*
G54D41*
X60358Y-45871D03*
X60358Y-45280D03*
X55768Y-44650D03*
X55768Y-45241D03*
X59578Y-45280D03*
X59578Y-45871D03*
G54D42*
X55602Y-45956D03*
X56193Y-45956D03*
X56812Y-45276D03*
X57403Y-45276D03*
G54D41*
X55638Y-46660D03*
X55638Y-47251D03*
G54D42*
X57852Y-43996D03*
X58443Y-43996D03*
G54D41*
X54100Y-45938D03*
X54100Y-46529D03*
X58848Y-45301D03*
X58848Y-44710D03*
X58118Y-44710D03*
X58118Y-45301D03*
G54D23*
X55413Y-29960D03*
X55413Y-31062D03*
G54D24*
X59705Y-22550D03*
X60334Y-22550D03*
G54D43*
X46062Y-30511D03*
G54D44*
X69242Y-41151D03*
X68592Y-41151D03*
X69242Y-41761D03*
X68592Y-41761D03*
G54D23*
X56279Y-29960D03*
X56279Y-31062D03*
X61850Y-29980D03*
X61850Y-31082D03*
X62775Y-29980D03*
X62775Y-31082D03*
X60885Y-52607D03*
X60885Y-51505D03*
X61768Y-52610D03*
X61768Y-51508D03*
X55307Y-52659D03*
X55307Y-51557D03*
X54429Y-52657D03*
X54429Y-51555D03*
G54D45*
X75807Y-42204D03*
X75807Y-40472D03*
G54D46*
X74763Y-41338D03*
X74763Y-41652D03*
X74763Y-41967D03*
X74763Y-41024D03*
X74763Y-40709D03*
G54D47*
X74803Y-43089D03*
X74803Y-39587D03*
X76948Y-43089D03*
X76948Y-39587D03*
G54D48*
X68905Y-40334D03*
X68181Y-40078D03*
X68905Y-39822D03*
X68905Y-40078D03*
X68181Y-39822D03*
X68181Y-40334D03*
G54D49*
X71976Y-38543D03*
X70976Y-38543D03*
X69976Y-38543D03*
X72976Y-38543D03*
X68976Y-38543D03*
G54D50*
X75629Y-45610D03*
X75629Y-46614D03*
X75629Y-44606D03*
G54D51*
X70403Y-32539D03*
X70403Y-32893D03*
G54D52*
X72637Y-25196D03*
X75393Y-57480D03*
X43651Y-58100D03*
X52362Y-24212D03*
X40206Y-36082D03*
X64566Y-36417D03*
X51968Y-46653D03*
X64960Y-46653D03*
G54D53*
X68051Y-23159D03*
X68051Y-22155D03*
X70137Y-22155D03*
X70137Y-23159D03*
G54D54*
X76643Y-29665D03*
X77647Y-29665D03*
X77647Y-31751D03*
X76643Y-31751D03*
X76643Y-50925D03*
X77647Y-50925D03*
X77647Y-53011D03*
X76643Y-53011D03*
G54D53*
X70137Y-59517D03*
X70137Y-60521D03*
X68051Y-60521D03*
X68051Y-59517D03*
G54D55*
X43896Y-26477D03*
X43896Y-26674D03*
X43896Y-26871D03*
X43896Y-27067D03*
X43896Y-27264D03*
X43896Y-27461D03*
X43896Y-27657D03*
X43896Y-27854D03*
X43896Y-28051D03*
X43896Y-28247D03*
X43896Y-28444D03*
X43896Y-28641D03*
G54D56*
X43601Y-28936D03*
X43404Y-28936D03*
X43207Y-28936D03*
X43011Y-28936D03*
X42814Y-28936D03*
X42617Y-28936D03*
X42421Y-28936D03*
X42224Y-28936D03*
X42027Y-28936D03*
X41831Y-28936D03*
X41634Y-28936D03*
X41437Y-28936D03*
G54D55*
X41142Y-28641D03*
X41142Y-28444D03*
X41142Y-28247D03*
X41142Y-28051D03*
X41142Y-27854D03*
X41142Y-27657D03*
X41142Y-27461D03*
X41142Y-27264D03*
X41142Y-27067D03*
X41142Y-26871D03*
X41142Y-26674D03*
X41142Y-26477D03*
G54D56*
X41437Y-26182D03*
X41634Y-26182D03*
X41831Y-26182D03*
X42027Y-26182D03*
X42224Y-26182D03*
X42421Y-26182D03*
X42617Y-26182D03*
X42814Y-26182D03*
X43011Y-26182D03*
X43207Y-26182D03*
X43404Y-26182D03*
X43601Y-26182D03*
G54D57*
X42519Y-27559D03*
G54D55*
X43896Y-32382D03*
X43896Y-32579D03*
X43896Y-32776D03*
X43896Y-32972D03*
X43896Y-33169D03*
X43896Y-33366D03*
X43896Y-33562D03*
X43896Y-33759D03*
X43896Y-33956D03*
X43896Y-34152D03*
X43896Y-34349D03*
X43896Y-34546D03*
G54D56*
X43601Y-34841D03*
X43404Y-34841D03*
X43207Y-34841D03*
X43011Y-34841D03*
X42814Y-34841D03*
X42617Y-34841D03*
X42421Y-34841D03*
X42224Y-34841D03*
X42027Y-34841D03*
X41831Y-34841D03*
X41634Y-34841D03*
X41437Y-34841D03*
G54D55*
X41142Y-34546D03*
X41142Y-34349D03*
X41142Y-34152D03*
X41142Y-33956D03*
X41142Y-33759D03*
X41142Y-33562D03*
X41142Y-33366D03*
X41142Y-33169D03*
X41142Y-32972D03*
X41142Y-32776D03*
X41142Y-32579D03*
X41142Y-32382D03*
G54D56*
X41437Y-32087D03*
X41634Y-32087D03*
X41831Y-32087D03*
X42027Y-32087D03*
X42224Y-32087D03*
X42421Y-32087D03*
X42617Y-32087D03*
X42814Y-32087D03*
X43011Y-32087D03*
X43207Y-32087D03*
X43404Y-32087D03*
X43601Y-32087D03*
G54D57*
X42519Y-33464D03*
G54D55*
X50983Y-32382D03*
X50983Y-32579D03*
X50983Y-32776D03*
X50983Y-32972D03*
X50983Y-33169D03*
X50983Y-33366D03*
X50983Y-33562D03*
X50983Y-33759D03*
X50983Y-33956D03*
X50983Y-34152D03*
X50983Y-34349D03*
X50983Y-34546D03*
G54D56*
X50688Y-34841D03*
X50491Y-34841D03*
X50294Y-34841D03*
X50098Y-34841D03*
X49901Y-34841D03*
X49704Y-34841D03*
X49508Y-34841D03*
X49311Y-34841D03*
X49114Y-34841D03*
X48918Y-34841D03*
X48721Y-34841D03*
X48524Y-34841D03*
G54D55*
X48229Y-34546D03*
X48229Y-34349D03*
X48229Y-34152D03*
X48229Y-33956D03*
X48229Y-33759D03*
X48229Y-33562D03*
X48229Y-33366D03*
X48229Y-33169D03*
X48229Y-32972D03*
X48229Y-32776D03*
X48229Y-32579D03*
X48229Y-32382D03*
G54D56*
X48524Y-32087D03*
X48721Y-32087D03*
X48918Y-32087D03*
X49114Y-32087D03*
X49311Y-32087D03*
X49508Y-32087D03*
X49704Y-32087D03*
X49901Y-32087D03*
X50098Y-32087D03*
X50294Y-32087D03*
X50491Y-32087D03*
X50688Y-32087D03*
G54D57*
X49606Y-33464D03*
G54D55*
X50983Y-26477D03*
X50983Y-26674D03*
X50983Y-26871D03*
X50983Y-27067D03*
X50983Y-27264D03*
X50983Y-27461D03*
X50983Y-27657D03*
X50983Y-27854D03*
X50983Y-28051D03*
X50983Y-28247D03*
X50983Y-28444D03*
X50983Y-28641D03*
G54D56*
X50688Y-28936D03*
X50491Y-28936D03*
X50294Y-28936D03*
X50098Y-28936D03*
X49901Y-28936D03*
X49704Y-28936D03*
X49508Y-28936D03*
X49311Y-28936D03*
X49114Y-28936D03*
X48918Y-28936D03*
X48721Y-28936D03*
X48524Y-28936D03*
G54D55*
X48229Y-28641D03*
X48229Y-28444D03*
X48229Y-28247D03*
X48229Y-28051D03*
X48229Y-27854D03*
X48229Y-27657D03*
X48229Y-27461D03*
X48229Y-27264D03*
X48229Y-27067D03*
X48229Y-26871D03*
X48229Y-26674D03*
X48229Y-26477D03*
G54D56*
X48524Y-26182D03*
X48721Y-26182D03*
X48918Y-26182D03*
X49114Y-26182D03*
X49311Y-26182D03*
X49508Y-26182D03*
X49704Y-26182D03*
X49901Y-26182D03*
X50098Y-26182D03*
X50294Y-26182D03*
X50491Y-26182D03*
X50688Y-26182D03*
G54D57*
X49606Y-27559D03*
G54D55*
X41142Y-50294D03*
X41142Y-50097D03*
X41142Y-49900D03*
X41142Y-49704D03*
X41142Y-49507D03*
X41142Y-49310D03*
X41142Y-49114D03*
X41142Y-48917D03*
X41142Y-48720D03*
X41142Y-48524D03*
X41142Y-48327D03*
X41142Y-48130D03*
G54D56*
X41437Y-47835D03*
X41634Y-47835D03*
X41831Y-47835D03*
X42027Y-47835D03*
X42224Y-47835D03*
X42421Y-47835D03*
X42617Y-47835D03*
X42814Y-47835D03*
X43011Y-47835D03*
X43207Y-47835D03*
X43404Y-47835D03*
X43601Y-47835D03*
G54D55*
X43896Y-48130D03*
X43896Y-48327D03*
X43896Y-48524D03*
X43896Y-48720D03*
X43896Y-48917D03*
X43896Y-49114D03*
X43896Y-49310D03*
X43896Y-49507D03*
X43896Y-49704D03*
X43896Y-49900D03*
X43896Y-50097D03*
X43896Y-50294D03*
G54D56*
X43601Y-50589D03*
X43404Y-50589D03*
X43207Y-50589D03*
X43011Y-50589D03*
X42814Y-50589D03*
X42617Y-50589D03*
X42421Y-50589D03*
X42224Y-50589D03*
X42027Y-50589D03*
X41831Y-50589D03*
X41634Y-50589D03*
X41437Y-50589D03*
G54D57*
X42519Y-49212D03*
G54D55*
X41142Y-56200D03*
X41142Y-56003D03*
X41142Y-55806D03*
X41142Y-55610D03*
X41142Y-55413D03*
X41142Y-55216D03*
X41142Y-55020D03*
X41142Y-54823D03*
X41142Y-54626D03*
X41142Y-54430D03*
X41142Y-54233D03*
X41142Y-54036D03*
G54D56*
X41437Y-53741D03*
X41634Y-53741D03*
X41831Y-53741D03*
X42027Y-53741D03*
X42224Y-53741D03*
X42421Y-53741D03*
X42617Y-53741D03*
X42814Y-53741D03*
X43011Y-53741D03*
X43207Y-53741D03*
X43404Y-53741D03*
X43601Y-53741D03*
G54D55*
X43896Y-54036D03*
X43896Y-54233D03*
X43896Y-54430D03*
X43896Y-54626D03*
X43896Y-54823D03*
X43896Y-55020D03*
X43896Y-55216D03*
X43896Y-55413D03*
X43896Y-55610D03*
X43896Y-55806D03*
X43896Y-56003D03*
X43896Y-56200D03*
G54D56*
X43601Y-56495D03*
X43404Y-56495D03*
X43207Y-56495D03*
X43011Y-56495D03*
X42814Y-56495D03*
X42617Y-56495D03*
X42421Y-56495D03*
X42224Y-56495D03*
X42027Y-56495D03*
X41831Y-56495D03*
X41634Y-56495D03*
X41437Y-56495D03*
G54D57*
X42519Y-55118D03*
G54D55*
X48229Y-56200D03*
X48229Y-56003D03*
X48229Y-55806D03*
X48229Y-55610D03*
X48229Y-55413D03*
X48229Y-55216D03*
X48229Y-55020D03*
X48229Y-54823D03*
X48229Y-54626D03*
X48229Y-54430D03*
X48229Y-54233D03*
X48229Y-54036D03*
G54D56*
X48524Y-53741D03*
X48721Y-53741D03*
X48918Y-53741D03*
X49114Y-53741D03*
X49311Y-53741D03*
X49508Y-53741D03*
X49704Y-53741D03*
X49901Y-53741D03*
X50098Y-53741D03*
X50294Y-53741D03*
X50491Y-53741D03*
X50688Y-53741D03*
G54D55*
X50983Y-54036D03*
X50983Y-54233D03*
X50983Y-54430D03*
X50983Y-54626D03*
X50983Y-54823D03*
X50983Y-55020D03*
X50983Y-55216D03*
X50983Y-55413D03*
X50983Y-55610D03*
X50983Y-55806D03*
X50983Y-56003D03*
X50983Y-56200D03*
G54D56*
X50688Y-56495D03*
X50491Y-56495D03*
X50294Y-56495D03*
X50098Y-56495D03*
X49901Y-56495D03*
X49704Y-56495D03*
X49508Y-56495D03*
X49311Y-56495D03*
X49114Y-56495D03*
X48918Y-56495D03*
X48721Y-56495D03*
X48524Y-56495D03*
G54D57*
X49606Y-55118D03*
G54D55*
X48229Y-50294D03*
X48229Y-50097D03*
X48229Y-49900D03*
X48229Y-49704D03*
X48229Y-49507D03*
X48229Y-49310D03*
X48229Y-49114D03*
X48229Y-48917D03*
X48229Y-48720D03*
X48229Y-48524D03*
X48229Y-48327D03*
X48229Y-48130D03*
G54D56*
X48524Y-47835D03*
X48721Y-47835D03*
X48918Y-47835D03*
X49114Y-47835D03*
X49311Y-47835D03*
X49508Y-47835D03*
X49704Y-47835D03*
X49901Y-47835D03*
X50098Y-47835D03*
X50294Y-47835D03*
X50491Y-47835D03*
X50688Y-47835D03*
G54D55*
X50983Y-48130D03*
X50983Y-48327D03*
X50983Y-48524D03*
X50983Y-48720D03*
X50983Y-48917D03*
X50983Y-49114D03*
X50983Y-49310D03*
X50983Y-49507D03*
X50983Y-49704D03*
X50983Y-49900D03*
X50983Y-50097D03*
X50983Y-50294D03*
G54D56*
X50688Y-50589D03*
X50491Y-50589D03*
X50294Y-50589D03*
X50098Y-50589D03*
X49901Y-50589D03*
X49704Y-50589D03*
X49508Y-50589D03*
X49311Y-50589D03*
X49114Y-50589D03*
X48918Y-50589D03*
X48721Y-50589D03*
X48524Y-50589D03*
G54D57*
X49606Y-49212D03*
G54D55*
X65552Y-50294D03*
X65552Y-50097D03*
X65552Y-49900D03*
X65552Y-49704D03*
X65552Y-49507D03*
X65552Y-49310D03*
X65552Y-49114D03*
X65552Y-48917D03*
X65552Y-48720D03*
X65552Y-48524D03*
X65552Y-48327D03*
X65552Y-48130D03*
G54D56*
X65847Y-47835D03*
X66044Y-47835D03*
X66241Y-47835D03*
X66437Y-47835D03*
X66634Y-47835D03*
X66831Y-47835D03*
X67027Y-47835D03*
X67224Y-47835D03*
X67421Y-47835D03*
X67617Y-47835D03*
X67814Y-47835D03*
X68011Y-47835D03*
G54D55*
X68306Y-48130D03*
X68306Y-48327D03*
X68306Y-48524D03*
X68306Y-48720D03*
X68306Y-48917D03*
X68306Y-49114D03*
X68306Y-49310D03*
X68306Y-49507D03*
X68306Y-49704D03*
X68306Y-49900D03*
X68306Y-50097D03*
X68306Y-50294D03*
G54D56*
X68011Y-50589D03*
X67814Y-50589D03*
X67617Y-50589D03*
X67421Y-50589D03*
X67224Y-50589D03*
X67027Y-50589D03*
X66831Y-50589D03*
X66634Y-50589D03*
X66437Y-50589D03*
X66241Y-50589D03*
X66044Y-50589D03*
X65847Y-50589D03*
G54D57*
X66929Y-49212D03*
G54D55*
X65552Y-56200D03*
X65552Y-56003D03*
X65552Y-55806D03*
X65552Y-55610D03*
X65552Y-55413D03*
X65552Y-55216D03*
X65552Y-55020D03*
X65552Y-54823D03*
X65552Y-54626D03*
X65552Y-54430D03*
X65552Y-54233D03*
X65552Y-54036D03*
G54D56*
X65847Y-53741D03*
X66044Y-53741D03*
X66241Y-53741D03*
X66437Y-53741D03*
X66634Y-53741D03*
X66831Y-53741D03*
X67027Y-53741D03*
X67224Y-53741D03*
X67421Y-53741D03*
X67617Y-53741D03*
X67814Y-53741D03*
X68011Y-53741D03*
G54D55*
X68306Y-54036D03*
X68306Y-54233D03*
X68306Y-54430D03*
X68306Y-54626D03*
X68306Y-54823D03*
X68306Y-55020D03*
X68306Y-55216D03*
X68306Y-55413D03*
X68306Y-55610D03*
X68306Y-55806D03*
X68306Y-56003D03*
X68306Y-56200D03*
G54D56*
X68011Y-56495D03*
X67814Y-56495D03*
X67617Y-56495D03*
X67421Y-56495D03*
X67224Y-56495D03*
X67027Y-56495D03*
X66831Y-56495D03*
X66634Y-56495D03*
X66437Y-56495D03*
X66241Y-56495D03*
X66044Y-56495D03*
X65847Y-56495D03*
G54D57*
X66929Y-55118D03*
G54D55*
X72638Y-56200D03*
X72638Y-56003D03*
X72638Y-55806D03*
X72638Y-55610D03*
X72638Y-55413D03*
X72638Y-55216D03*
X72638Y-55020D03*
X72638Y-54823D03*
X72638Y-54626D03*
X72638Y-54430D03*
X72638Y-54233D03*
X72638Y-54036D03*
G54D56*
X72933Y-53741D03*
X73130Y-53741D03*
X73327Y-53741D03*
X73523Y-53741D03*
X73720Y-53741D03*
X73917Y-53741D03*
X74113Y-53741D03*
X74310Y-53741D03*
X74507Y-53741D03*
X74703Y-53741D03*
X74900Y-53741D03*
X75097Y-53741D03*
G54D55*
X75392Y-54036D03*
X75392Y-54233D03*
X75392Y-54430D03*
X75392Y-54626D03*
X75392Y-54823D03*
X75392Y-55020D03*
X75392Y-55216D03*
X75392Y-55413D03*
X75392Y-55610D03*
X75392Y-55806D03*
X75392Y-56003D03*
X75392Y-56200D03*
G54D56*
X75097Y-56495D03*
X74900Y-56495D03*
X74703Y-56495D03*
X74507Y-56495D03*
X74310Y-56495D03*
X74113Y-56495D03*
X73917Y-56495D03*
X73720Y-56495D03*
X73523Y-56495D03*
X73327Y-56495D03*
X73130Y-56495D03*
X72933Y-56495D03*
G54D57*
X74015Y-55118D03*
G54D55*
X72638Y-50294D03*
X72638Y-50097D03*
X72638Y-49900D03*
X72638Y-49704D03*
X72638Y-49507D03*
X72638Y-49310D03*
X72638Y-49114D03*
X72638Y-48917D03*
X72638Y-48720D03*
X72638Y-48524D03*
X72638Y-48327D03*
X72638Y-48130D03*
G54D56*
X72933Y-47835D03*
X73130Y-47835D03*
X73327Y-47835D03*
X73523Y-47835D03*
X73720Y-47835D03*
X73917Y-47835D03*
X74113Y-47835D03*
X74310Y-47835D03*
X74507Y-47835D03*
X74703Y-47835D03*
X74900Y-47835D03*
X75097Y-47835D03*
G54D55*
X75392Y-48130D03*
X75392Y-48327D03*
X75392Y-48524D03*
X75392Y-48720D03*
X75392Y-48917D03*
X75392Y-49114D03*
X75392Y-49310D03*
X75392Y-49507D03*
X75392Y-49704D03*
X75392Y-49900D03*
X75392Y-50097D03*
X75392Y-50294D03*
G54D56*
X75097Y-50589D03*
X74900Y-50589D03*
X74703Y-50589D03*
X74507Y-50589D03*
X74310Y-50589D03*
X74113Y-50589D03*
X73917Y-50589D03*
X73720Y-50589D03*
X73523Y-50589D03*
X73327Y-50589D03*
X73130Y-50589D03*
X72933Y-50589D03*
G54D57*
X74015Y-49212D03*
G54D55*
X75392Y-32382D03*
X75392Y-32579D03*
X75392Y-32776D03*
X75392Y-32972D03*
X75392Y-33169D03*
X75392Y-33366D03*
X75392Y-33562D03*
X75392Y-33759D03*
X75392Y-33956D03*
X75392Y-34152D03*
X75392Y-34349D03*
X75392Y-34546D03*
G54D56*
X75097Y-34841D03*
X74900Y-34841D03*
X74703Y-34841D03*
X74507Y-34841D03*
X74310Y-34841D03*
X74113Y-34841D03*
X73917Y-34841D03*
X73720Y-34841D03*
X73523Y-34841D03*
X73327Y-34841D03*
X73130Y-34841D03*
X72933Y-34841D03*
G54D55*
X72638Y-34546D03*
X72638Y-34349D03*
X72638Y-34152D03*
X72638Y-33956D03*
X72638Y-33759D03*
X72638Y-33562D03*
X72638Y-33366D03*
X72638Y-33169D03*
X72638Y-32972D03*
X72638Y-32776D03*
X72638Y-32579D03*
X72638Y-32382D03*
G54D56*
X72933Y-32087D03*
X73130Y-32087D03*
X73327Y-32087D03*
X73523Y-32087D03*
X73720Y-32087D03*
X73917Y-32087D03*
X74113Y-32087D03*
X74310Y-32087D03*
X74507Y-32087D03*
X74703Y-32087D03*
X74900Y-32087D03*
X75097Y-32087D03*
G54D57*
X74015Y-33464D03*
G54D55*
X75392Y-26477D03*
X75392Y-26674D03*
X75392Y-26871D03*
X75392Y-27067D03*
X75392Y-27264D03*
X75392Y-27461D03*
X75392Y-27657D03*
X75392Y-27854D03*
X75392Y-28051D03*
X75392Y-28247D03*
X75392Y-28444D03*
X75392Y-28641D03*
G54D56*
X75097Y-28936D03*
X74900Y-28936D03*
X74703Y-28936D03*
X74507Y-28936D03*
X74310Y-28936D03*
X74113Y-28936D03*
X73917Y-28936D03*
X73720Y-28936D03*
X73523Y-28936D03*
X73327Y-28936D03*
X73130Y-28936D03*
X72933Y-28936D03*
G54D55*
X72638Y-28641D03*
X72638Y-28444D03*
X72638Y-28247D03*
X72638Y-28051D03*
X72638Y-27854D03*
X72638Y-27657D03*
X72638Y-27461D03*
X72638Y-27264D03*
X72638Y-27067D03*
X72638Y-26871D03*
X72638Y-26674D03*
X72638Y-26477D03*
G54D56*
X72933Y-26182D03*
X73130Y-26182D03*
X73327Y-26182D03*
X73523Y-26182D03*
X73720Y-26182D03*
X73917Y-26182D03*
X74113Y-26182D03*
X74310Y-26182D03*
X74507Y-26182D03*
X74703Y-26182D03*
X74900Y-26182D03*
X75097Y-26182D03*
G54D57*
X74015Y-27559D03*
G54D55*
X68306Y-26477D03*
X68306Y-26674D03*
X68306Y-26871D03*
X68306Y-27067D03*
X68306Y-27264D03*
X68306Y-27461D03*
X68306Y-27657D03*
X68306Y-27854D03*
X68306Y-28051D03*
X68306Y-28247D03*
X68306Y-28444D03*
X68306Y-28641D03*
G54D56*
X68011Y-28936D03*
X67814Y-28936D03*
X67617Y-28936D03*
X67421Y-28936D03*
X67224Y-28936D03*
X67027Y-28936D03*
X66831Y-28936D03*
X66634Y-28936D03*
X66437Y-28936D03*
X66241Y-28936D03*
X66044Y-28936D03*
X65847Y-28936D03*
G54D55*
X65552Y-28641D03*
X65552Y-28444D03*
X65552Y-28247D03*
X65552Y-28051D03*
X65552Y-27854D03*
X65552Y-27657D03*
X65552Y-27461D03*
X65552Y-27264D03*
X65552Y-27067D03*
X65552Y-26871D03*
X65552Y-26674D03*
X65552Y-26477D03*
G54D56*
X65847Y-26182D03*
X66044Y-26182D03*
X66241Y-26182D03*
X66437Y-26182D03*
X66634Y-26182D03*
X66831Y-26182D03*
X67027Y-26182D03*
X67224Y-26182D03*
X67421Y-26182D03*
X67617Y-26182D03*
X67814Y-26182D03*
X68011Y-26182D03*
G54D57*
X66929Y-27559D03*
G54D55*
X68306Y-32382D03*
X68306Y-32579D03*
X68306Y-32776D03*
X68306Y-32972D03*
X68306Y-33169D03*
X68306Y-33366D03*
X68306Y-33562D03*
X68306Y-33759D03*
X68306Y-33956D03*
X68306Y-34152D03*
X68306Y-34349D03*
X68306Y-34546D03*
G54D56*
X68011Y-34841D03*
X67814Y-34841D03*
X67617Y-34841D03*
X67421Y-34841D03*
X67224Y-34841D03*
X67027Y-34841D03*
X66831Y-34841D03*
X66634Y-34841D03*
X66437Y-34841D03*
X66241Y-34841D03*
X66044Y-34841D03*
X65847Y-34841D03*
G54D55*
X65552Y-34546D03*
X65552Y-34349D03*
X65552Y-34152D03*
X65552Y-33956D03*
X65552Y-33759D03*
X65552Y-33562D03*
X65552Y-33366D03*
X65552Y-33169D03*
X65552Y-32972D03*
X65552Y-32776D03*
X65552Y-32579D03*
X65552Y-32382D03*
G54D56*
X65847Y-32087D03*
X66044Y-32087D03*
X66241Y-32087D03*
X66437Y-32087D03*
X66634Y-32087D03*
X66831Y-32087D03*
X67027Y-32087D03*
X67224Y-32087D03*
X67421Y-32087D03*
X67617Y-32087D03*
X67814Y-32087D03*
X68011Y-32087D03*
G54D57*
X66929Y-33464D03*
G54D58*
X65214Y-41015D03*
X65017Y-41015D03*
X64821Y-41015D03*
X64624Y-41015D03*
G54D59*
X64349Y-41290D03*
X64349Y-41487D03*
X64349Y-41683D03*
X64349Y-41880D03*
G54D58*
X64624Y-42155D03*
X64821Y-42155D03*
X65017Y-42155D03*
X65214Y-42155D03*
G54D59*
X65489Y-41880D03*
X65489Y-41683D03*
X65489Y-41487D03*
X65489Y-41290D03*
G54D60*
X64919Y-41585D03*
G54D61*
X65441Y-41585D03*
G54D54*
X40285Y-53011D03*
X39281Y-53011D03*
X39281Y-50925D03*
X40285Y-50925D03*
G54D43*
X40748Y-23622D03*
X40748Y-59055D03*
X46062Y-52165D03*
X70472Y-52165D03*
X76181Y-59055D03*
X76181Y-23622D03*
X70472Y-30511D03*
G54D62*
X70944Y-44545D03*
X71200Y-43820D03*
X71456Y-44545D03*
X71200Y-44545D03*
X71456Y-43820D03*
X70944Y-43820D03*
G54D63*
X44252Y-43267D03*
X44252Y-41614D03*
X44252Y-39961D03*
X45904Y-39961D03*
X45904Y-41614D03*
X45904Y-43267D03*
G54D52*
X41378Y-43267D03*
X41378Y-39961D03*
G54D64*
X74025Y-41496D03*
X74025Y-41850D03*
X74025Y-40807D03*
X74025Y-41161D03*
X74035Y-42401D03*
X74035Y-42755D03*
X74025Y-40118D03*
X74025Y-40472D03*
G54D65*
X69291Y-44685D03*
X68661Y-44685D03*
G54D66*
X68877Y-44685D03*
X69074Y-44685D03*
X69074Y-43602D03*
X68877Y-43602D03*
G54D65*
X68661Y-43602D03*
X69291Y-43602D03*
G54D67*
X72883Y-43740D03*
X72883Y-44488D03*
X73750Y-44104D03*
G54D68*
X69616Y-42352D03*
X69616Y-42942D03*
X76407Y-35275D03*
X76998Y-35275D03*
G54D69*
X74596Y-45600D03*
X74596Y-44458D03*
G54D70*
X66525Y-41840D03*
X66525Y-41131D03*
G54D71*
X44074Y-23740D03*
X43444Y-23740D03*
X50068Y-23494D03*
X49438Y-23494D03*
G54D61*
X48139Y-29881D03*
X48139Y-30511D03*
X41023Y-29862D03*
X41023Y-30492D03*
X44015Y-52431D03*
X44015Y-51801D03*
X47746Y-53307D03*
X47746Y-52677D03*
G54D71*
X45127Y-59261D03*
X44498Y-59261D03*
X51259Y-59320D03*
X50629Y-59320D03*
X65078Y-59301D03*
X65708Y-59301D03*
X73011Y-59360D03*
X73641Y-59360D03*
G54D61*
X68366Y-52844D03*
X68366Y-52214D03*
X75324Y-52874D03*
X75324Y-52244D03*
X68681Y-29645D03*
X68681Y-30275D03*
X72559Y-29862D03*
X72559Y-30492D03*
G54D71*
X65285Y-23307D03*
X65915Y-23307D03*
X73238Y-23661D03*
X73868Y-23661D03*
G54D72*
X50515Y-43141D03*
X50515Y-39992D03*
X54736Y-43141D03*
X54736Y-39992D03*
G54D25*
X58932Y-49016D03*
X58932Y-48387D03*
X57559Y-34370D03*
X57559Y-33740D03*
X58270Y-33750D03*
X58270Y-34379D03*
G54D24*
X56764Y-23720D03*
X56135Y-23720D03*
X56724Y-60145D03*
X56095Y-60145D03*
X59705Y-58960D03*
X60334Y-58960D03*
X66122Y-39173D03*
X65492Y-39173D03*
X66122Y-39783D03*
X65492Y-39783D03*
X64842Y-43011D03*
X65472Y-43011D03*
G54D25*
X59640Y-48391D03*
X59640Y-49020D03*
G54D24*
X52275Y-31190D03*
X52904Y-31190D03*
G54D49*
X63996Y-39881D03*
X64822Y-39881D03*
X63996Y-39074D03*
X64822Y-39074D03*
X60347Y-48285D03*
X60347Y-49112D03*
X61054Y-48285D03*
X61054Y-49112D03*
X61754Y-48285D03*
X61754Y-49112D03*
X62466Y-48290D03*
X63293Y-48290D03*
X62467Y-47544D03*
X63294Y-47544D03*
X56830Y-34473D03*
X56830Y-33646D03*
X56060Y-34473D03*
X56060Y-33646D03*
X55290Y-34473D03*
X55290Y-33646D03*
X54468Y-34488D03*
X53641Y-34488D03*
X54463Y-35230D03*
X53636Y-35230D03*
G54D41*
X68110Y-43818D03*
X68110Y-44409D03*
X67312Y-43818D03*
X67312Y-44409D03*
X72145Y-43799D03*
X72145Y-44389D03*
X68818Y-42942D03*
X68818Y-42352D03*
X77283Y-34704D03*
X77283Y-34114D03*
X73051Y-37185D03*
X73051Y-37775D03*
G54D42*
X75354Y-38346D03*
X75944Y-38346D03*
X74606Y-38346D03*
X74015Y-38346D03*
G54D41*
X69911Y-39468D03*
X69911Y-40059D03*
X69911Y-40669D03*
X69911Y-41259D03*
X64133Y-42775D03*
X64133Y-43366D03*
G54D73*
X70929Y-40960D03*
X70929Y-41353D03*
G54D74*
X71988Y-44970D03*
X72381Y-44970D03*
X69832Y-44429D03*
X70226Y-44429D03*
G54D73*
X43366Y-51722D03*
X43366Y-52116D03*
G54D74*
X49448Y-52834D03*
X49842Y-52834D03*
G54D73*
X43966Y-59045D03*
X43966Y-59438D03*
G54D74*
X49931Y-59124D03*
X49537Y-59124D03*
X68248Y-51673D03*
X67854Y-51673D03*
X75246Y-51732D03*
X74852Y-51732D03*
G54D73*
X66220Y-59370D03*
X66220Y-59763D03*
G54D74*
X73523Y-59980D03*
X73129Y-59980D03*
X73740Y-29960D03*
X74133Y-29960D03*
X67007Y-29901D03*
X66614Y-29901D03*
X73946Y-24301D03*
X74340Y-24301D03*
G54D73*
X66456Y-23297D03*
X66456Y-22903D03*
G54D74*
X49665Y-30885D03*
X49271Y-30885D03*
X42342Y-30846D03*
X42736Y-30846D03*
X49547Y-24153D03*
X49940Y-24153D03*
G54D73*
X42913Y-23740D03*
X42913Y-24133D03*
X68129Y-41259D03*
X68129Y-41653D03*
G54D74*
X71632Y-39963D03*
X72025Y-39963D03*
G54D73*
X41948Y-46948D03*
X41948Y-46555D03*
X40797Y-50846D03*
X40797Y-51240D03*
G54D74*
X40314Y-48622D03*
X39921Y-48622D03*
X43208Y-52785D03*
X42814Y-52785D03*
X44842Y-48622D03*
X45236Y-48622D03*
X44842Y-50295D03*
X45236Y-50295D03*
G54D73*
X42834Y-51732D03*
X42834Y-52125D03*
X42263Y-51732D03*
X42263Y-52125D03*
X39970Y-49537D03*
X39970Y-49931D03*
G54D74*
X40314Y-48129D03*
X39921Y-48129D03*
X44842Y-48129D03*
X45236Y-48129D03*
X51919Y-50403D03*
X52312Y-50403D03*
X47362Y-48622D03*
X46968Y-48622D03*
G54D73*
X48405Y-51919D03*
X48405Y-52312D03*
X49350Y-46948D03*
X49350Y-46555D03*
G54D74*
X52027Y-48622D03*
X52421Y-48622D03*
G54D73*
X47598Y-50177D03*
X47598Y-50570D03*
X49881Y-51909D03*
X49881Y-52303D03*
X49389Y-51909D03*
X49389Y-52303D03*
X47106Y-49763D03*
X47106Y-50157D03*
G54D74*
X47362Y-48129D03*
X46968Y-48129D03*
X52027Y-48129D03*
X52421Y-48129D03*
G54D73*
X42283Y-57273D03*
X42283Y-57667D03*
X39940Y-56988D03*
X39940Y-56594D03*
X39940Y-55000D03*
X39940Y-54606D03*
X41771Y-52637D03*
X41771Y-52244D03*
G54D74*
X44124Y-53080D03*
X44517Y-53080D03*
G54D73*
X43287Y-46948D03*
X43287Y-46555D03*
X45098Y-56732D03*
X45098Y-56338D03*
X45098Y-55413D03*
X45098Y-55807D03*
X39940Y-55669D03*
X39940Y-56062D03*
X40433Y-54094D03*
X40433Y-54488D03*
X44622Y-53976D03*
X44622Y-53582D03*
G54D74*
X52037Y-56013D03*
X52431Y-56013D03*
G54D73*
X47086Y-56988D03*
X47086Y-56594D03*
X47086Y-55000D03*
X47086Y-54606D03*
X50374Y-52814D03*
X50374Y-52421D03*
X52125Y-53070D03*
X52125Y-53464D03*
X47578Y-56082D03*
X47578Y-56476D03*
X48897Y-52814D03*
X48897Y-52421D03*
X48887Y-58553D03*
X48887Y-58946D03*
X47086Y-55669D03*
X47086Y-56062D03*
X47578Y-54094D03*
X47578Y-54488D03*
X51633Y-53976D03*
X51633Y-53582D03*
X67736Y-52736D03*
X67736Y-52342D03*
G54D74*
X64350Y-48720D03*
X63956Y-48720D03*
G54D73*
X67775Y-46948D03*
X67775Y-46555D03*
X66397Y-46948D03*
X66397Y-46555D03*
G54D74*
X69251Y-48622D03*
X69645Y-48622D03*
G54D73*
X64901Y-51082D03*
X64901Y-50688D03*
X67263Y-51830D03*
X67263Y-52224D03*
X66673Y-51830D03*
X66673Y-52224D03*
X64901Y-49763D03*
X64901Y-50157D03*
X65078Y-48070D03*
X65078Y-47677D03*
G54D74*
X69251Y-48129D03*
X69645Y-48129D03*
G54D73*
X74704Y-52755D03*
X74704Y-52362D03*
X74547Y-46929D03*
X74547Y-46535D03*
G54D74*
X71850Y-48622D03*
X71456Y-48622D03*
G54D73*
X73405Y-46929D03*
X73405Y-46535D03*
G54D74*
X76181Y-48622D03*
X76574Y-48622D03*
X72234Y-50669D03*
X71840Y-50669D03*
G54D73*
X74212Y-51850D03*
X74212Y-52244D03*
X73700Y-51850D03*
X73700Y-52244D03*
X71811Y-49763D03*
X71811Y-50157D03*
G54D74*
X71850Y-48129D03*
X71456Y-48129D03*
X76181Y-48110D03*
X76574Y-48110D03*
X69163Y-56505D03*
X69557Y-56505D03*
X64350Y-49212D03*
X63956Y-49212D03*
X64744Y-54527D03*
X64350Y-54527D03*
G54D73*
X66181Y-52736D03*
X66181Y-52342D03*
G54D74*
X69330Y-54527D03*
X69724Y-54527D03*
G54D73*
X64763Y-56988D03*
X64763Y-56594D03*
G54D74*
X69143Y-50442D03*
X69537Y-50442D03*
G54D73*
X66649Y-57334D03*
X66649Y-57728D03*
X64763Y-55669D03*
X64763Y-56062D03*
G54D74*
X64744Y-54035D03*
X64350Y-54035D03*
X69330Y-54035D03*
X69724Y-54035D03*
G54D73*
X73610Y-57350D03*
X73610Y-57744D03*
X76417Y-56968D03*
X76417Y-56574D03*
G54D74*
X71830Y-54527D03*
X71437Y-54527D03*
G54D73*
X73208Y-52755D03*
X73208Y-52362D03*
G54D74*
X76338Y-54527D03*
X76732Y-54527D03*
G54D73*
X71830Y-56988D03*
X71830Y-56594D03*
X76417Y-55629D03*
X76417Y-56023D03*
G54D74*
X76181Y-49881D03*
X76574Y-49881D03*
G54D73*
X71830Y-55669D03*
X71830Y-56062D03*
G54D74*
X71830Y-54035D03*
X71437Y-54035D03*
X76338Y-54035D03*
X76732Y-54035D03*
G54D73*
X73188Y-35669D03*
X73188Y-36062D03*
G54D74*
X76338Y-34281D03*
X76732Y-34281D03*
G54D73*
X67263Y-35673D03*
X67263Y-36066D03*
X74397Y-35653D03*
X74397Y-36047D03*
G54D74*
X71653Y-34055D03*
X71259Y-34055D03*
G54D73*
X73661Y-30885D03*
X73661Y-30492D03*
X74173Y-30885D03*
X74173Y-30492D03*
G54D74*
X75728Y-32007D03*
X76122Y-32007D03*
G54D73*
X76141Y-32893D03*
X76141Y-32500D03*
G54D74*
X76338Y-34763D03*
X76732Y-34763D03*
X71653Y-34547D03*
X71259Y-34547D03*
X69192Y-34074D03*
X69586Y-34074D03*
X64842Y-32047D03*
X64448Y-32047D03*
G54D73*
X66043Y-29901D03*
X66043Y-30295D03*
G54D74*
X68996Y-32007D03*
X69389Y-32007D03*
X64685Y-35039D03*
X64291Y-35039D03*
G54D73*
X66122Y-35669D03*
X66122Y-36062D03*
X67086Y-30807D03*
X67086Y-30413D03*
X66535Y-30807D03*
X66535Y-30413D03*
X69448Y-32913D03*
X69448Y-32519D03*
G54D74*
X69192Y-34547D03*
X69586Y-34547D03*
X64685Y-34547D03*
X64291Y-34547D03*
G54D73*
X71456Y-26653D03*
X71456Y-26259D03*
X76181Y-25688D03*
X76181Y-26082D03*
G54D74*
X76240Y-28149D03*
X76633Y-28149D03*
G54D73*
X74665Y-29980D03*
X74665Y-30374D03*
G54D74*
X71712Y-28149D03*
X71318Y-28149D03*
G54D73*
X71456Y-25334D03*
X71456Y-25728D03*
X73169Y-29980D03*
X73169Y-30374D03*
X74551Y-25370D03*
X74551Y-24976D03*
X76181Y-27007D03*
X76181Y-26614D03*
G54D74*
X76240Y-28641D03*
X76633Y-28641D03*
X71712Y-28641D03*
X71318Y-28641D03*
G54D73*
X64468Y-25255D03*
X64468Y-25649D03*
G54D74*
X69133Y-28169D03*
X69527Y-28169D03*
G54D73*
X69409Y-25590D03*
X69409Y-25984D03*
X67578Y-29901D03*
X67578Y-30295D03*
G54D74*
X71860Y-32312D03*
X71466Y-32312D03*
X64625Y-29133D03*
X64232Y-29133D03*
G54D73*
X64468Y-26574D03*
X64468Y-26181D03*
X67519Y-25255D03*
X67519Y-24862D03*
X69389Y-27007D03*
X69389Y-26614D03*
G54D74*
X69133Y-28641D03*
X69527Y-28641D03*
X64625Y-28641D03*
X64232Y-28641D03*
G54D73*
X47125Y-32893D03*
X47125Y-32500D03*
X50177Y-30885D03*
X50177Y-30492D03*
X48740Y-30885D03*
X48740Y-30492D03*
X52086Y-33582D03*
X52086Y-33976D03*
X49192Y-29980D03*
X49192Y-30374D03*
X48799Y-35748D03*
X48799Y-36141D03*
G54D74*
X47401Y-35019D03*
X47007Y-35019D03*
G54D73*
X51535Y-31594D03*
X51535Y-31988D03*
X51535Y-32913D03*
X51535Y-32519D03*
X51594Y-34488D03*
X51594Y-34094D03*
G54D74*
X47401Y-34527D03*
X47007Y-34527D03*
G54D73*
X43208Y-35748D03*
X43208Y-36141D03*
X43259Y-30842D03*
X43259Y-30448D03*
X41653Y-30846D03*
X41653Y-30452D03*
G54D74*
X44744Y-34055D03*
X45137Y-34055D03*
G54D73*
X41771Y-35748D03*
X41771Y-36141D03*
G54D74*
X40275Y-34055D03*
X39881Y-34055D03*
X44645Y-31988D03*
X45039Y-31988D03*
X40127Y-32234D03*
X39734Y-32234D03*
G54D73*
X45059Y-32893D03*
X45059Y-32500D03*
G54D74*
X40275Y-34547D03*
X39881Y-34547D03*
X44744Y-34547D03*
X45137Y-34547D03*
G54D73*
X50137Y-25188D03*
X50137Y-24795D03*
X47106Y-27244D03*
X47106Y-26850D03*
X52224Y-25590D03*
X52224Y-25984D03*
X50149Y-35748D03*
X50149Y-36141D03*
G54D74*
X51771Y-28149D03*
X52165Y-28149D03*
G54D73*
X49685Y-29980D03*
X49685Y-30374D03*
X47106Y-25925D03*
X47106Y-26318D03*
G54D74*
X47421Y-28149D03*
X47027Y-28149D03*
G54D73*
X52204Y-27007D03*
X52204Y-26614D03*
G54D74*
X47421Y-28641D03*
X47027Y-28641D03*
X51771Y-28641D03*
X52165Y-28641D03*
G54D73*
X40039Y-26988D03*
X40039Y-26594D03*
X42145Y-29940D03*
X42145Y-30334D03*
X42775Y-29940D03*
X42775Y-30334D03*
G54D74*
X44763Y-28169D03*
X45157Y-28169D03*
G54D73*
X45137Y-25590D03*
X45137Y-25984D03*
G54D74*
X40255Y-28149D03*
X39862Y-28149D03*
G54D73*
X45137Y-27007D03*
X45137Y-26614D03*
G54D74*
X44763Y-28641D03*
X45157Y-28641D03*
G54D73*
X40039Y-25669D03*
X40039Y-26062D03*
X42905Y-25251D03*
X42905Y-24858D03*
G54D74*
X40255Y-28641D03*
X39862Y-28641D03*
G54D75*
X45629Y-27007D03*
X45629Y-26614D03*
X45551Y-32893D03*
X45551Y-32500D03*
X52027Y-32401D03*
X52027Y-32007D03*
X52696Y-27007D03*
X52696Y-26614D03*
X46614Y-49763D03*
X46614Y-50157D03*
X46594Y-55669D03*
X46594Y-56062D03*
X39448Y-55669D03*
X39448Y-56062D03*
X39478Y-49537D03*
X39478Y-49931D03*
G54D76*
X70216Y-43897D03*
X69822Y-43897D03*
G54D75*
X76673Y-27007D03*
X76673Y-26614D03*
G54D76*
X76692Y-32952D03*
X77086Y-32952D03*
G54D75*
X69921Y-32913D03*
X69921Y-32519D03*
X69881Y-27007D03*
X69881Y-26614D03*
X64409Y-49763D03*
X64409Y-50157D03*
X64271Y-55669D03*
X64271Y-56062D03*
X71338Y-55669D03*
X71338Y-56062D03*
X71318Y-49763D03*
X71318Y-50157D03*
G54D77*
X39911Y-43937D03*
X39911Y-39311D03*
G54D78*
X41840Y-41131D03*
X41840Y-42116D03*
G54D79*
X59070Y-32571D03*
X59068Y-28466D03*
G54D41*
X59080Y-38035D03*
X59080Y-37444D03*
X58350Y-37444D03*
X58350Y-38035D03*
X63098Y-36807D03*
X63098Y-36216D03*
G54D42*
X59345Y-38750D03*
X58754Y-38750D03*
G54D41*
X61560Y-36085D03*
X61560Y-35494D03*
G54D42*
X60385Y-37470D03*
X59794Y-37470D03*
X61595Y-36790D03*
X61004Y-36790D03*
G54D41*
X57620Y-37465D03*
X57620Y-36874D03*
X61430Y-38095D03*
X61430Y-37504D03*
X56840Y-36874D03*
X56840Y-37465D03*
G54D26*
X58882Y-36471D03*
X59079Y-36471D03*
X59276Y-36471D03*
X59473Y-36471D03*
X59670Y-36471D03*
X59866Y-36471D03*
X60063Y-36471D03*
G54D27*
X60634Y-36185D03*
X60634Y-35989D03*
X60634Y-35792D03*
X58705Y-36185D03*
X58705Y-35989D03*
X58705Y-35792D03*
G54D28*
X60376Y-34746D03*
G54D29*
X59683Y-35942D03*
G54D30*
X59001Y-34792D03*
G54D31*
X58670Y-34347D03*
G54D32*
X60260Y-36471D03*
X60457Y-36471D03*
G54D33*
X59585Y-35144D03*
G54D27*
X58705Y-35595D03*
X60635Y-35595D03*
G54D34*
X59564Y-35600D03*
G54D35*
X59125Y-35515D03*
G54D27*
X60635Y-35405D03*
X60635Y-35110D03*
X60635Y-34915D03*
X60635Y-34720D03*
X60635Y-34525D03*
X60635Y-34325D03*
G54D36*
X60375Y-34155D03*
G54D37*
X59805Y-34605D03*
G54D38*
X60050Y-34185D03*
X59560Y-34185D03*
G54D39*
X59996Y-35143D03*
G54D35*
X59993Y-35508D03*
G54D40*
X60321Y-35332D03*
G54D31*
X58671Y-34792D03*
X58671Y-35236D03*
G54D49*
X54463Y-35970D03*
X53636Y-35970D03*
X54463Y-36710D03*
X53636Y-36710D03*
G54D25*
X62320Y-36824D03*
X62320Y-36195D03*
G54D24*
X62265Y-35510D03*
X62894Y-35510D03*
G54D25*
X62180Y-38104D03*
X62180Y-37475D03*
X57200Y-36214D03*
X57200Y-35585D03*
X62973Y-37485D03*
X62973Y-38114D03*
G54D24*
X57235Y-38750D03*
X57864Y-38750D03*
X53465Y-50770D03*
X54094Y-50770D03*
G54D79*
X58080Y-50159D03*
X58082Y-54264D03*
G54D42*
X57083Y-44536D03*
X56492Y-44536D03*
X60114Y-38210D03*
X60705Y-38210D03*
G54D49*
X62467Y-46809D03*
X63294Y-46809D03*
X62466Y-46065D03*
X63293Y-46065D03*
G54D10*
G36*
X58348Y-22746D02*
X58643Y-22943D01*
X58643Y-23337D01*
X58348Y-23534D01*
X58348Y-22746D01*
X58348Y-22746D01*
G37*
G54D80*
X58939Y-22549D03*
X58939Y-23731D03*
X57481Y-22549D03*
G54D81*
X57481Y-23140D03*
G54D80*
X57481Y-23731D03*
G54D81*
X58939Y-23140D03*
G54D10*
G36*
X58071Y-23534D02*
X57776Y-23337D01*
X57776Y-22943D01*
X58071Y-22746D01*
X58071Y-23534D01*
X58071Y-23534D01*
G37*
G54D82*
X58210Y-23140D03*
G54D10*
G36*
X58081Y-59944D02*
X57786Y-59747D01*
X57786Y-59353D01*
X58081Y-59156D01*
X58081Y-59944D01*
X58081Y-59944D01*
G37*
G54D80*
X57491Y-60141D03*
X57491Y-58959D03*
X58949Y-60141D03*
G54D81*
X58949Y-59550D03*
G54D80*
X58949Y-58959D03*
G54D81*
X57491Y-59550D03*
G54D10*
G36*
X58358Y-59156D02*
X58653Y-59353D01*
X58653Y-59747D01*
X58358Y-59944D01*
X58358Y-59156D01*
X58358Y-59156D01*
G37*
G54D82*
X58220Y-59550D03*
G54D83*
X72261Y-41356D03*
G54D84*
X71867Y-42129D03*
X72064Y-42129D03*
X72261Y-42129D03*
X72457Y-42129D03*
X72654Y-42129D03*
G54D85*
X73034Y-41749D03*
X73034Y-41552D03*
X73034Y-41356D03*
X73034Y-41159D03*
X73034Y-40962D03*
G54D84*
X72654Y-40582D03*
X72457Y-40582D03*
X72261Y-40582D03*
X72064Y-40582D03*
X71867Y-40582D03*
G54D86*
X71487Y-40962D03*
X71487Y-41159D03*
X71487Y-41356D03*
X71487Y-41552D03*
X71487Y-41749D03*
M02*
